<?xml version="1.0" encoding="UTF-8"?>
<svg id="Capa_2" data-name="Capa 2" xmlns="http://www.w3.org/2000/svg" viewBox="0 0 1255.75 602.3">
  <defs>
    <style>
      .cls-1 {
        fill: #b7191e;
      }

      .cls-2 {
        letter-spacing: -.03em;
      }

      .cls-3 {
        stroke: #fff;
        stroke-miterlimit: 10;
      }

      .cls-3, .cls-4 {
        fill: #fff;
      }

      .cls-5 {
        font-size: 21px;
      }

      .cls-6 {
        letter-spacing: -.01em;
      }

      .cls-4 {
        font-family: EricaOne-Regular, 'Erica One';
        opacity: .99;
      }

      .cls-7 {
        letter-spacing: -.02em;
      }

      .cls-8 {
        fill: #27a055;
      }

      .cls-9 {
        font-size: 36px;
      }

      .cls-10 {
        letter-spacing: -.02em;
      }

      .cls-11 {
        fill: #010202;
      }

      .cls-12 {
        letter-spacing: -.02em;
      }

      .cls-13 {
        fill: #e0e0df;
      }
    </style>
  </defs>
  <g id="Capa_1-2" data-name="Capa 1">
    <g>
      <rect class="cls-3" x="150.64" y="298.68" width="1019.71" height="1"/>
      <path class="cls-13" d="M598.37,106.96c-1.55,2.08,2.48,7.09-.59,8.79-2.48,1.38-4.94,3.08-7.92.61-1.93-1.59-3.16-4.47-2.23-6.74,1.37-3.33,4.16-4.49,8.3-3.59l56.4-74.95c3.43-4.55,9.91-5.2,15.29-5.2h89.67c1.78-3.49,4.07-5.15,7.58-4.45,2.46.5,4.48,2.61,4.22,6.07-.19,2.51-1.92,4.94-5.14,5.26-2.75.28-5.1-1.25-6.51-4.88l-88.81.07c-5.53,0-11.73.47-15.24,5.19l-55.02,73.8Z"/>
      <path class="cls-1" d="M894.09,537.13c.05,1.44-3.12,1.79-3.13.46l-.12-14.09c0-1,.33-1.94.67-2.38.3-.4,2.06-.28,2.08.39l.49,15.62Z"/>
      <rect class="cls-8" x="366.61" y="521.03" width="3.16" height="17.32" transform="translate(-1.39 .97) rotate(-.15)"/>
      <path class="cls-1" d="M880.16,538.02c.48.65.22,1.36.18,1.72s-1.29,1.34-1.68.87l-7.11-8.49c-.73-.87-.21-1.84.23-2.15,1.03-.72,2.1-.46,2.92.64l5.46,7.41Z"/>
      <path class="cls-8" d="M355.44,537.3c.79.99.91,1.79.87,2.48-.04.62-.23,1.35-1.34,1.16-.84-.14-1.26-.33-2.09-1.5l-5.57-7.85c-.59-.83.46-2.14,1.91-2.02l6.22,7.74Z"/>
      <path class="cls-1" d="M907.48,539.7c-.7.95-1.65.98-2.17.84-.45-.12-1.28-1.18-.7-2.01l5.85-8.28c.65-.92,1.87-.92,2.49-.41.45.37.82,1.3.18,2.17l-5.66,7.69Z"/>
      <path class="cls-8" d="M382.41,540.54c-.49.65-1.49.65-1.8.54s-.68-1.38-.43-1.74l6.3-9.07c.41-.59,1.06-.89,1.73-.72.48.13,1.06.29,1.17,1.8l-6.97,9.2Z"/>
      <g>
        <g>
          <path class="cls-13" d="M684.33,203.63l-529.5-.14c-19.56,0-33.94-16.71-34.92-34.96-.93-17.45,13.15-37.63,32.79-37.63l531.7-.04c19.06,0,33.09,19.04,33.14,35.62.05,19.27-13.37,34.45-33.21,37.15ZM684.88,199.91c18.36-2.98,29.94-17.95,29.23-35.16-1.46-16.34-14.96-30.52-32.72-30.52l-525.62.04c-18.44,0-32.15,15.26-32.31,32.63-.15,16.64,13.1,32.9,31.31,32.9l530.11.12Z"/>
          <path class="cls-11" d="M684.88,199.91l-530.11-.12c-18.22,0-31.46-16.26-31.31-32.9.16-17.37,13.86-32.63,32.31-32.63l525.62-.04c17.77,0,31.26,14.18,32.72,30.52.71,17.22-10.87,32.18-29.23,35.16ZM437.1,166.98c0-7.92-6.42-14.34-14.34-14.34s-14.34,6.42-14.34,14.34,6.42,14.34,14.34,14.34,14.34-6.42,14.34-14.34ZM157.92,154.7l-2.21.02.19,24.86,2.21-.02-.19-24.86ZM512.07,154.69h-2.45s.04,24.97.04,24.97h2.45s-.04-24.97-.04-24.97ZM681.02,154.67h-2.22s.08,24.91.08,24.91h2.22s-.08-24.91-.08-24.91ZM216.58,155.25h-2v24h2v-24ZM275.58,155.25h-2v24h2v-24ZM334.58,155.25h-2v24h2v-24ZM393.58,155.25h-2v24h2v-24ZM450.81,154.95l-.14,24.68h2.3s.14-24.66.14-24.66h-2.3ZM569.75,154.52c-1.93,8.6-1.59,16.72-.16,25.64,2.03-8.56,2.17-16.64.16-25.64ZM630.35,154.91h-2.27v24.76h2.27v-24.76Z"/>
          <circle class="cls-13" cx="422.76" cy="166.98" r="14.34"/>
          <rect class="cls-13" x="678.84" y="154.67" width="2.22" height="24.91" transform="translate(-.53 2.19) rotate(-.18)"/>
          <rect class="cls-13" x="155.8" y="154.71" width="2.21" height="24.86" transform="translate(-1.27 1.2) rotate(-.44)"/>
          <rect class="cls-13" x="509.64" y="154.69" width="2.45" height="24.96" transform="translate(-.28 .86) rotate(-.1)"/>
          <rect class="cls-13" x="628.08" y="154.91" width="2.27" height="24.76"/>
          <rect class="cls-13" x="439.55" y="166.15" width="24.68" height="2.3" transform="translate(282.03 618.23) rotate(-89.68)"/>
          <path class="cls-13" d="M569.75,154.52c2.01,9,1.87,17.08-.16,25.64-1.43-8.92-1.77-17.04.16-25.64Z"/>
          <rect class="cls-13" x="273.58" y="155.25" width="2" height="24"/>
          <rect class="cls-13" x="214.58" y="155.25" width="2" height="24"/>
          <rect class="cls-13" x="391.58" y="155.25" width="2" height="24"/>
          <rect class="cls-13" x="332.58" y="155.25" width="2" height="24"/>
        </g>
        <g>
          <path class="cls-11" d="M14.08,110.25l-.5.5.5.5.5-.5-.5-.5Z"/>
          <path class="cls-11" d="M10.95,66.1c-3.27-3.12-6.88-3.81-10.95-2.52,3.99,1.85,7.09,2.29,10.95,2.52Z"/>
        </g>
      </g>
      <g>
        <path class="cls-8" d="M217.2,386.58c0,22.66-18.37,41.03-41.03,41.03s-41.03-18.37-41.03-41.03,18.37-41.03,41.03-41.03,41.03,18.37,41.03,41.03ZM213.82,386.61c0-20.82-16.88-37.7-37.7-37.7s-37.7,16.88-37.7,37.7,16.88,37.7,37.7,37.7,37.7-16.88,37.7-37.7Z"/>
        <path class="cls-11" d="M213.82,386.61c0,20.82-16.88,37.7-37.7,37.7s-37.7-16.88-37.7-37.7,16.88-37.7,37.7-37.7,37.7,16.88,37.7,37.7ZM168.67,403.84l28.09-17.32-27.64-17.19c-1.13-.7-2.49-.7-3.28-.24-.64.37-1.15,1.34-1.16,2.48l-.04,30.05c0,1.03.65,2.14,1.18,2.39.49.23,1.67.55,2.84-.17Z"/>
        <path class="cls-8" d="M168.67,403.84c-1.17.72-2.35.4-2.84.17-.54-.25-1.18-1.36-1.18-2.39l.04-30.05c0-1.14.51-2.11,1.16-2.48.79-.46,2.15-.46,3.28.24l27.64,17.19-28.09,17.32Z"/>
      </g>
      <g>
        <path class="cls-1" d="M744.75,386.51c0,22.35-18.12,40.47-40.47,40.47s-40.47-18.12-40.47-40.47,18.12-40.47,40.47-40.47,40.47,18.12,40.47,40.47ZM741.36,386.5c0-20.48-16.6-37.08-37.08-37.08s-37.08,16.6-37.08,37.08,16.6,37.08,37.08,37.08,37.08-16.6,37.08-37.08Z"/>
        <path class="cls-11" d="M741.36,386.5c0,20.48-16.6,37.08-37.08,37.08s-37.08-16.6-37.08-37.08,16.6-37.08,37.08-37.08,37.08,16.6,37.08,37.08ZM720.78,386.29c0-9.09-7.37-16.45-16.45-16.45s-16.45,7.37-16.45,16.45,7.37,16.45,16.45,16.45,16.45-7.37,16.45-16.45Z"/>
        <circle class="cls-1" cx="704.33" cy="386.29" r="16.45"/>
      </g>
      <g>
        <g>
          <path class="cls-13" d="M1031.1,602.24l-343.07.07c-13.26,0-23.82-5.94-25.66-18.88-1.57-11.07,6.33-23.96,19.62-23.96l352.67-.09c12.27,0,20.94,11.34,20.23,21.99-.82,12.4-10.15,20.86-23.78,20.87ZM1032.04,600.24c12.94,0,21.25-9.9,20.87-20.25-.47-12.99-10.17-18.8-22.33-18.8l-343.59-.04c-12.75,0-23,6.08-22.93,19.76.06,11.2,9.37,19.39,22.01,19.39l345.96-.06Z"/>
          <path class="cls-11" d="M1032.04,600.24l-345.96.06c-12.64,0-21.96-8.19-22.01-19.39-.07-13.68,10.19-19.76,22.93-19.76l343.59.04c12.16,0,21.86,5.81,22.33,18.8.38,10.35-7.93,20.25-20.87,20.25ZM688.55,591.09l197.02.15c6.24,3.19,13.1,2.12,16.42-3.48,2.86-4.84,3.57-9.82.81-14.03s-7.31-6.02-13.05-5.22l-11.52,1.6-192.29-.07c-6.4,0-9.49,4.41-9.42,10.29.04,3.59.82,6.41,3.16,8.59s4.36,2.17,8.88,2.17ZM974.79,572.32h-2v16h2v-16ZM1020.79,572.32h-2v16h2v-16ZM926.79,573.32h-1v15h1v-15Z"/>
          <path class="cls-1" d="M688.55,591.09c-4.52,0-6.59-.04-8.88-2.17s-3.11-5-3.16-8.59c-.07-5.88,3.02-10.29,9.42-10.29l192.29.07,11.52-1.6c5.74-.8,10.26.97,13.05,5.22s2.06,9.19-.81,14.03c-3.32,5.6-10.18,6.67-16.42,3.48l-197.02-.15ZM901.45,580.49c0-5.24-4.25-9.49-9.49-9.49s-9.49,4.25-9.49,9.49,4.25,9.49,9.49,9.49,9.49-4.25,9.49-9.49ZM722.79,573.32h-2v15h2v-15ZM771.79,573.32h-2v15h2v-15ZM820.79,573.32h-2v15h2v-15ZM869.79,573.32h-2v15h2v-15Z"/>
          <rect class="cls-13" x="972.79" y="572.32" width="2" height="16"/>
          <rect class="cls-13" x="1018.79" y="572.32" width="2" height="16"/>
          <rect class="cls-13" x="925.79" y="573.32" width="1" height="15"/>
          <circle class="cls-13" cx="891.95" cy="580.49" r="9.49"/>
          <rect class="cls-13" x="769.79" y="573.32" width="2" height="15"/>
          <rect class="cls-13" x="867.79" y="573.32" width="2" height="15"/>
          <rect class="cls-13" x="818.79" y="573.32" width="2" height="15"/>
          <rect class="cls-13" x="720.79" y="573.32" width="2" height="15"/>
        </g>
        <g>
          <path class="cls-13" d="M504.15,559.36c12.77,0,21.19,10.93,20.98,21.36-.25,12.3-9.31,20.7-21.47,20.7l-350.69.07c-12.62,0-22.85-5.54-24.4-19.25-1.2-10.57,7.47-22.84,20.4-22.84l355.18-.04ZM502.13,599.53c12.84,0,21.81-8.03,20.99-20.67-.78-12.13-10.54-17.68-22.54-17.68l-347.59-.02c-12.17,0-22.22,6.31-22.52,18.67s9.4,19.73,21.52,19.73l350.14-.02Z"/>
          <path class="cls-11" d="M502.13,599.53l-350.14.02c-12.12,0-21.83-6.92-21.52-19.73s10.35-18.67,22.52-18.67l347.59.02c12,0,21.76,5.55,22.54,17.68.82,12.64-8.15,20.67-20.99,20.67ZM151.53,591.1l184.1.12c9.26,0,17.95-1.21,26.5.85,7.49,1.81,14.11.44,16.81-7.79,1.59-4.85.29-11.27-4.16-14.36-4.17-2.9-9.53-2.94-14.49.13l-206.35.07c-6.68,0-10.76,3.36-10.62,10.45.08,4.02,2.13,10.53,8.21,10.53ZM408.79,573.32h-1v15h1v-15ZM456.79,573.32h-2v15h2v-15ZM502.79,573.32h-2v15h2v-15Z"/>
          <path class="cls-8" d="M151.53,591.1c-6.08,0-8.13-6.51-8.21-10.53-.14-7.09,3.94-10.45,10.62-10.45l206.35-.07c4.96-3.06,10.32-3.02,14.49-.13,4.45,3.09,5.75,9.51,4.16,14.36-2.7,8.23-9.32,9.59-16.81,7.79-8.55-2.06-17.24-.84-26.5-.85l-184.1-.12ZM377.3,580.38c0-5.31-4.31-9.62-9.62-9.62s-9.62,4.31-9.62,9.62,4.31,9.62,9.62,9.62,9.62-4.31,9.62-9.62ZM295.79,572.32h-1v15.5h1v-15.5ZM199.79,573.32h-2v15h2v-15ZM247.79,573.32h-2v15h2v-15ZM344.79,573.32h-2v15h2v-15Z"/>
          <rect class="cls-13" x="500.79" y="573.32" width="2" height="15"/>
          <rect class="cls-13" x="454.79" y="573.32" width="2" height="15"/>
          <rect class="cls-13" x="407.79" y="573.32" width="1" height="15"/>
          <circle class="cls-13" cx="367.68" cy="580.38" r="9.62"/>
          <rect class="cls-13" x="197.79" y="573.32" width="2" height="15"/>
          <rect class="cls-13" x="342.79" y="573.32" width="2" height="15"/>
          <rect class="cls-13" x="245.79" y="573.32" width="2" height="15"/>
          <rect class="cls-13" x="294.79" y="572.32" width="1" height="15.5"/>
        </g>
      </g>
      <text class="cls-4" transform="translate(841.58 30.44)"><tspan class="cls-9"><tspan x="0" y="0">Pl</tspan><tspan class="cls-12" x="40.28" y="0">a</tspan><tspan x="63.36" y="0">y Bar</tspan></tspan><tspan class="cls-5"><tspan x="0" y="54">Pl</tspan><tspan class="cls-10" x="23.5" y="54">a</tspan><tspan x="36.96" y="54">y bar indicates status of the 4 </tspan></tspan><tspan class="cls-5"><tspan x="0" y="79.2">bar loop.</tspan></tspan></text>
      <text class="cls-4" transform="translate(775.11 396.66)"><tspan class="cls-9"><tspan x="0" y="0">Record</tspan></tspan><tspan class="cls-5"><tspan class="cls-7" x="0" y="50.4">Y</tspan><tspan x="16.25" y="50.4">ou’ll h</tspan><tspan class="cls-6" x="88.32" y="50.4">e</tspan><tspan x="101.39" y="50.4">ar a pre-roll and the loop will </tspan></tspan><tspan class="cls-5"><tspan x="0" y="75.6">start. Stack l</tspan><tspan class="cls-10" x="152.58" y="75.6">a</tspan><tspan class="cls-2" x="166.04" y="75.6">y</tspan><tspan x="179.25" y="75.6">ers to form a song.</tspan></tspan></text>
      <text class="cls-4" transform="translate(244.79 396.66)"><tspan class="cls-9"><tspan x="0" y="0">Pl</tspan><tspan class="cls-12" x="40.28" y="0">a</tspan><tspan x="63.36" y="0">y</tspan></tspan><tspan class="cls-5"><tspan x="0" y="50.4">Green color indicates a loop is </tspan></tspan><tspan class="cls-5"><tspan x="0" y="75.6">pl</tspan><tspan class="cls-10" x="21.97" y="75.6">a</tspan><tspan x="35.43" y="75.6">ying.</tspan></tspan></text>
    </g>
  </g>
</svg>