<?xml version="1.0" encoding="UTF-8"?>
<svg id="Capa_2" data-name="Capa 2" xmlns="http://www.w3.org/2000/svg" viewBox="0 0 1230.16 598.69">
  <defs>
    <style>
      .cls-1 {
        fill: #b7191e;
      }

      .cls-2 {
        stroke: #fff;
        stroke-miterlimit: 10;
      }

      .cls-2, .cls-3 {
        fill: #fff;
      }

      .cls-4 {
        fill: #27a055;
      }

      .cls-5 {
        fill: #010202;
      }

      .cls-6 {
        opacity: .99;
      }

      .cls-7 {
        fill: #e0e0df;
      }
    </style>
  </defs>
  <g id="Capa_1-2" data-name="Capa 1">
    <g>
      <rect class="cls-2" x="150.64" y="295.06" width="1019.71" height="1"/>
      <path class="cls-7" d="M598.37,103.34c-1.55,2.08,2.48,7.09-.59,8.79-2.48,1.38-4.94,3.08-7.92.61-1.93-1.59-3.16-4.47-2.23-6.74,1.37-3.33,4.16-4.49,8.3-3.59l56.4-74.95c3.43-4.55,9.91-5.2,15.29-5.2h89.67c1.78-3.49,4.07-5.15,7.58-4.45,2.46.5,4.48,2.61,4.22,6.07-.19,2.51-1.92,4.94-5.14,5.26-2.75.28-5.1-1.25-6.51-4.88l-88.81.07c-5.53,0-11.73.47-15.24,5.19l-55.02,73.8Z"/>
      <path class="cls-1" d="M894.09,533.51c.05,1.44-3.12,1.79-3.13.46l-.12-14.09c0-1,.33-1.94.67-2.38.3-.4,2.06-.28,2.08.39l.49,15.62Z"/>
      <rect class="cls-4" x="366.61" y="517.41" width="3.16" height="17.32" transform="translate(-1.38 .97) rotate(-.15)"/>
      <path class="cls-1" d="M880.16,534.4c.48.65.22,1.36.18,1.72s-1.29,1.34-1.68.87l-7.11-8.49c-.73-.87-.21-1.84.23-2.15,1.03-.72,2.1-.46,2.92.64l5.46,7.41Z"/>
      <path class="cls-4" d="M355.44,533.68c.79.99.91,1.79.87,2.48-.04.62-.23,1.35-1.34,1.16-.84-.14-1.26-.33-2.09-1.5l-5.57-7.85c-.59-.83.46-2.14,1.91-2.02l6.22,7.74Z"/>
      <path class="cls-1" d="M907.48,536.08c-.7.95-1.65.98-2.17.84-.45-.12-1.28-1.18-.7-2.01l5.85-8.28c.65-.92,1.87-.92,2.49-.41.45.37.82,1.3.18,2.17l-5.66,7.69Z"/>
      <path class="cls-4" d="M382.41,536.92c-.49.65-1.49.65-1.8.54s-.68-1.38-.43-1.74l6.3-9.07c.41-.59,1.06-.89,1.73-.72.48.13,1.06.29,1.17,1.8l-6.97,9.2Z"/>
      <g>
        <g>
          <path class="cls-7" d="M684.33,200.02l-529.5-.14c-19.56,0-33.94-16.71-34.92-34.96-.93-17.45,13.15-37.63,32.79-37.63l531.7-.04c19.06,0,33.09,19.04,33.14,35.62.05,19.27-13.37,34.45-33.21,37.15ZM684.88,196.29c18.36-2.98,29.94-17.95,29.23-35.16-1.46-16.34-14.96-30.52-32.72-30.52l-525.62.04c-18.44,0-32.15,15.26-32.31,32.63-.15,16.64,13.1,32.9,31.31,32.9l530.11.12Z"/>
          <path class="cls-5" d="M684.88,196.29l-530.11-.12c-18.22,0-31.46-16.26-31.31-32.9.16-17.37,13.86-32.63,32.31-32.63l525.62-.04c17.77,0,31.26,14.18,32.72,30.52.71,17.22-10.87,32.18-29.23,35.16ZM437.1,163.37c0-7.92-6.42-14.34-14.34-14.34s-14.34,6.42-14.34,14.34,6.42,14.34,14.34,14.34,14.34-6.42,14.34-14.34ZM157.92,151.09l-2.21.02.19,24.86,2.21-.02-.19-24.86ZM512.07,151.07h-2.45s.04,24.97.04,24.97h2.45s-.04-24.97-.04-24.97ZM681.02,151.05h-2.22s.08,24.91.08,24.91h2.22s-.08-24.91-.08-24.91ZM216.58,151.64h-2v24h2v-24ZM275.58,151.64h-2v24h2v-24ZM334.58,151.64h-2v24h2v-24ZM393.58,151.64h-2v24h2v-24ZM450.81,151.34l-.14,24.68h2.3s.14-24.66.14-24.66h-2.3ZM569.75,150.91c-1.93,8.6-1.59,16.72-.16,25.64,2.03-8.56,2.17-16.64.16-25.64ZM630.35,151.29h-2.27v24.76h2.27v-24.76Z"/>
          <circle class="cls-7" cx="422.76" cy="163.37" r="14.34"/>
          <rect class="cls-7" x="678.84" y="151.05" width="2.22" height="24.91" transform="translate(-.52 2.19) rotate(-.18)"/>
          <rect class="cls-7" x="155.8" y="151.09" width="2.21" height="24.86" transform="translate(-1.24 1.2) rotate(-.44)"/>
          <rect class="cls-7" x="509.64" y="151.07" width="2.45" height="24.96" transform="translate(-.28 .86) rotate(-.1)"/>
          <rect class="cls-7" x="628.08" y="151.29" width="2.27" height="24.76"/>
          <rect class="cls-7" x="439.55" y="162.53" width="24.68" height="2.3" transform="translate(285.65 614.63) rotate(-89.68)"/>
          <path class="cls-7" d="M569.75,150.91c2.01,9,1.87,17.08-.16,25.64-1.43-8.92-1.77-17.04.16-25.64Z"/>
          <rect class="cls-7" x="273.58" y="151.64" width="2" height="24"/>
          <rect class="cls-7" x="214.58" y="151.64" width="2" height="24"/>
          <rect class="cls-7" x="391.58" y="151.64" width="2" height="24"/>
          <rect class="cls-7" x="332.58" y="151.64" width="2" height="24"/>
        </g>
        <g>
          <path class="cls-5" d="M14.08,106.64l-.5.5.5.5.5-.5-.5-.5Z"/>
          <path class="cls-5" d="M10.95,62.49c-3.27-3.12-6.88-3.81-10.95-2.52,3.99,1.85,7.09,2.29,10.95,2.52Z"/>
        </g>
      </g>
      <g>
        <path class="cls-4" d="M217.2,382.96c0,22.66-18.37,41.03-41.03,41.03s-41.03-18.37-41.03-41.03,18.37-41.03,41.03-41.03,41.03,18.37,41.03,41.03ZM213.82,383c0-20.82-16.88-37.7-37.7-37.7s-37.7,16.88-37.7,37.7,16.88,37.7,37.7,37.7,37.7-16.88,37.7-37.7Z"/>
        <path class="cls-5" d="M213.82,383c0,20.82-16.88,37.7-37.7,37.7s-37.7-16.88-37.7-37.7,16.88-37.7,37.7-37.7,37.7,16.88,37.7,37.7ZM168.67,400.23l28.09-17.32-27.64-17.19c-1.13-.7-2.49-.7-3.28-.24-.64.37-1.15,1.34-1.16,2.48l-.04,30.05c0,1.03.65,2.14,1.18,2.39.49.23,1.67.55,2.84-.17Z"/>
        <path class="cls-4" d="M168.67,400.23c-1.17.72-2.35.4-2.84.17-.54-.25-1.18-1.36-1.18-2.39l.04-30.05c0-1.14.51-2.11,1.16-2.48.79-.46,2.15-.46,3.28.24l27.64,17.19-28.09,17.32Z"/>
      </g>
      <g>
        <path class="cls-1" d="M744.75,382.89c0,22.35-18.12,40.47-40.47,40.47s-40.47-18.12-40.47-40.47,18.12-40.47,40.47-40.47,40.47,18.12,40.47,40.47ZM741.36,382.88c0-20.48-16.6-37.08-37.08-37.08s-37.08,16.6-37.08,37.08,16.6,37.08,37.08,37.08,37.08-16.6,37.08-37.08Z"/>
        <path class="cls-5" d="M741.36,382.88c0,20.48-16.6,37.08-37.08,37.08s-37.08-16.6-37.08-37.08,16.6-37.08,37.08-37.08,37.08,16.6,37.08,37.08ZM720.78,382.67c0-9.09-7.37-16.45-16.45-16.45s-16.45,7.37-16.45,16.45,7.37,16.45,16.45,16.45,16.45-7.37,16.45-16.45Z"/>
        <circle class="cls-1" cx="704.33" cy="382.67" r="16.45"/>
      </g>
      <g>
        <g>
          <path class="cls-7" d="M1031.1,598.62l-343.07.07c-13.26,0-23.82-5.94-25.66-18.88-1.57-11.07,6.33-23.96,19.62-23.96l352.67-.09c12.27,0,20.94,11.34,20.23,21.99-.82,12.4-10.15,20.86-23.78,20.87ZM1032.04,596.62c12.94,0,21.25-9.9,20.87-20.25-.47-12.99-10.17-18.8-22.33-18.8l-343.59-.04c-12.75,0-23,6.08-22.93,19.76.06,11.2,9.37,19.39,22.01,19.39l345.96-.06Z"/>
          <path class="cls-5" d="M1032.04,596.62l-345.96.06c-12.64,0-21.96-8.19-22.01-19.39-.07-13.68,10.19-19.76,22.93-19.76l343.59.04c12.16,0,21.86,5.81,22.33,18.8.38,10.35-7.93,20.25-20.87,20.25ZM688.55,587.48l197.02.15c6.24,3.19,13.1,2.12,16.42-3.48,2.86-4.84,3.57-9.82.81-14.03s-7.31-6.02-13.05-5.22l-11.52,1.6-192.29-.07c-6.4,0-9.49,4.41-9.42,10.29.04,3.59.82,6.41,3.16,8.59s4.36,2.17,8.88,2.17ZM974.79,568.7h-2v16h2v-16ZM1020.79,568.7h-2v16h2v-16ZM926.79,569.7h-1v15h1v-15Z"/>
          <path class="cls-1" d="M688.55,587.48c-4.52,0-6.59-.04-8.88-2.17s-3.11-5-3.16-8.59c-.07-5.88,3.02-10.29,9.42-10.29l192.29.07,11.52-1.6c5.74-.8,10.26.97,13.05,5.22s2.06,9.19-.81,14.03c-3.32,5.6-10.18,6.67-16.42,3.48l-197.02-.15ZM901.45,576.87c0-5.24-4.25-9.49-9.49-9.49s-9.49,4.25-9.49,9.49,4.25,9.49,9.49,9.49,9.49-4.25,9.49-9.49ZM722.79,569.7h-2v15h2v-15ZM771.79,569.7h-2v15h2v-15ZM820.79,569.7h-2v15h2v-15ZM869.79,569.7h-2v15h2v-15Z"/>
          <rect class="cls-7" x="972.79" y="568.7" width="2" height="16"/>
          <rect class="cls-7" x="1018.79" y="568.7" width="2" height="16"/>
          <rect class="cls-7" x="925.79" y="569.7" width="1" height="15"/>
          <circle class="cls-7" cx="891.95" cy="576.87" r="9.49"/>
          <rect class="cls-7" x="769.79" y="569.7" width="2" height="15"/>
          <rect class="cls-7" x="867.79" y="569.7" width="2" height="15"/>
          <rect class="cls-7" x="818.79" y="569.7" width="2" height="15"/>
          <rect class="cls-7" x="720.79" y="569.7" width="2" height="15"/>
        </g>
        <g>
          <path class="cls-7" d="M504.15,555.74c12.77,0,21.19,10.93,20.98,21.36-.25,12.3-9.31,20.7-21.47,20.7l-350.69.07c-12.62,0-22.85-5.54-24.4-19.25-1.2-10.57,7.47-22.84,20.4-22.84l355.18-.04ZM502.13,595.91c12.84,0,21.81-8.03,20.99-20.67-.78-12.13-10.54-17.68-22.54-17.68l-347.59-.02c-12.17,0-22.22,6.31-22.52,18.67s9.4,19.73,21.52,19.73l350.14-.02Z"/>
          <path class="cls-5" d="M502.13,595.91l-350.14.02c-12.12,0-21.83-6.92-21.52-19.73s10.35-18.67,22.52-18.67l347.59.02c12,0,21.76,5.55,22.54,17.68.82,12.64-8.15,20.67-20.99,20.67ZM151.53,587.48l184.1.12c9.26,0,17.95-1.21,26.5.85,7.49,1.81,14.11.44,16.81-7.79,1.59-4.85.29-11.27-4.16-14.36-4.17-2.9-9.53-2.94-14.49.13l-206.35.07c-6.68,0-10.76,3.36-10.62,10.45.08,4.02,2.13,10.53,8.21,10.53ZM408.79,569.7h-1v15h1v-15ZM456.79,569.7h-2v15h2v-15ZM502.79,569.7h-2v15h2v-15Z"/>
          <path class="cls-4" d="M151.53,587.48c-6.08,0-8.13-6.51-8.21-10.53-.14-7.09,3.94-10.45,10.62-10.45l206.35-.07c4.96-3.06,10.32-3.02,14.49-.13,4.45,3.09,5.75,9.51,4.16,14.36-2.7,8.23-9.32,9.59-16.81,7.79-8.55-2.06-17.24-.84-26.5-.85l-184.1-.12ZM377.3,576.77c0-5.31-4.31-9.62-9.62-9.62s-9.62,4.31-9.62,9.62,4.31,9.62,9.62,9.62,9.62-4.31,9.62-9.62ZM295.79,568.7h-1v15.5h1v-15.5ZM199.79,569.7h-2v15h2v-15ZM247.79,569.7h-2v15h2v-15ZM344.79,569.7h-2v15h2v-15Z"/>
          <rect class="cls-7" x="500.79" y="569.7" width="2" height="15"/>
          <rect class="cls-7" x="454.79" y="569.7" width="2" height="15"/>
          <rect class="cls-7" x="407.79" y="569.7" width="1" height="15"/>
          <circle class="cls-7" cx="367.68" cy="576.77" r="9.62"/>
          <rect class="cls-7" x="197.79" y="569.7" width="2" height="15"/>
          <rect class="cls-7" x="342.79" y="569.7" width="2" height="15"/>
          <rect class="cls-7" x="245.79" y="569.7" width="2" height="15"/>
          <rect class="cls-7" x="294.79" y="568.7" width="1" height="15.5"/>
        </g>
      </g>
      <g class="cls-6">
        <path class="cls-3" d="M842.63,26.82V1.94h13.07c4.3,0,7.45.7,9.47,2.11,2.02,1.4,3.02,3.83,3.02,7.29,0,2.76-.77,4.82-2.3,6.19-1.32,1.18-3.46,1.91-6.41,2.2-1.25.12-2.74.18-4.46.18v6.91h-12.38ZM855.01,16.13h1.04c.29,0,.53-.1.72-.29.19-.19.29-.44.29-.76v-1.66c0-.31-.1-.56-.29-.74-.19-.18-.43-.27-.72-.27h-1.04v3.71Z"/>
        <path class="cls-3" d="M869.77,21.53V0h10.8v17.57h.76v8.86c-1.27.5-3.04.76-5.31.76s-3.88-.47-4.82-1.4-1.42-2.35-1.42-4.25Z"/>
        <path class="cls-3" d="M904.04,13.21l-.18,4.43.9-.04v8.17c-.43.36-1.18.68-2.23.97-1.06.29-2.05.43-2.99.43s-1.68-.08-2.23-.25c-.55-.17-.96-.35-1.22-.56-.26-.2-.47-.44-.61-.7-.22-.38-.32-.71-.32-.97-1.32,1.66-3.42,2.48-6.3,2.48-3.96,0-5.94-1.68-5.94-5.04,0-2.02.77-3.45,2.3-4.3,1.54-.85,4.22-1.36,8.06-1.53,0-.84-.92-1.26-2.77-1.26-1.25,0-2.44.16-3.58.47-1.14.31-1.96.62-2.47.94l-.79.47V7.45c.22-.17.54-.38.97-.63.43-.25,1.45-.59,3.06-1.01,1.61-.42,3.37-.63,5.29-.63,3.84,0,6.64.65,8.41,1.94s2.65,3.32,2.65,6.08ZM893.85,18.94v-1.44l-2.05.58v.86c0,.31.1.56.31.76.2.19.46.29.76.29s.54-.1.72-.29c.18-.19.27-.44.27-.76Z"/>
        <path class="cls-3" d="M916.43,18.43h.94l.65-12.89h10.01l-3.17,24.62h-11.38l.79-3.71c-2.06,0-3.57-.32-4.52-.95-.95-.64-1.54-1.72-1.78-3.26l-2.52-16.7h10.26l.72,12.89Z"/>
        <path class="cls-3" d="M939.86,26.82V1.94h13.18c4.15,0,7.16.6,9.04,1.8,1.87,1.2,2.81,3.13,2.81,5.8,0,.94-.12,1.8-.36,2.59s-.48,1.36-.72,1.69l-.36.5c.82.41,1.39,1.4,1.73,2.99.14.65.22,1.39.22,2.23,0,2.26-.69,4.03-2.07,5.33-1.38,1.3-3.45,1.94-6.21,1.94h-17.24ZM954.3,14.36v-1.87c0-.31-.1-.56-.29-.74-.19-.18-.43-.27-.72-.27h-1.04v2.88h2.05ZM955.31,16.13h-3.06v2.05h3.06c.26,0,.5-.1.7-.31.2-.2.31-.45.31-.74s-.1-.53-.29-.72c-.19-.19-.43-.29-.72-.29Z"/>
        <path class="cls-3" d="M988.07,13.21l-.18,4.43.9-.04v8.17c-.43.36-1.18.68-2.23.97-1.06.29-2.05.43-2.99.43s-1.68-.08-2.23-.25c-.55-.17-.96-.35-1.22-.56-.26-.2-.47-.44-.61-.7-.22-.38-.32-.71-.32-.97-1.32,1.66-3.42,2.48-6.3,2.48-3.96,0-5.94-1.68-5.94-5.04,0-2.02.77-3.45,2.3-4.3,1.54-.85,4.22-1.36,8.06-1.53,0-.84-.92-1.26-2.77-1.26-1.25,0-2.44.16-3.58.47-1.14.31-1.96.62-2.47.94l-.79.47V7.45c.22-.17.54-.38.97-.63.43-.25,1.45-.59,3.06-1.01,1.61-.42,3.37-.63,5.29-.63,3.84,0,6.64.65,8.41,1.94s2.65,3.32,2.65,6.08ZM977.88,18.94v-1.44l-2.05.58v.86c0,.31.1.56.31.76.2.19.46.29.76.29s.54-.1.72-.29c.18-.19.27-.44.27-.76Z"/>
        <path class="cls-3" d="M1001.35,26.82h-10.73V5.54h9.04l.36,2.63c.05-.07.11-.17.18-.29.07-.12.28-.33.61-.63.34-.3.72-.57,1.15-.81,1.2-.6,2.71-.9,4.54-.9v11.45l-5.15-.5v10.33Z"/>
        <path class="cls-3" d="M844.32,84.42v-16.8h6.29c1.42,0,2.65.23,3.67.68,1.02.46,1.81,1.11,2.36,1.97.55.86.83,1.89.83,3.11s-.28,2.2-.83,3.06c-.55.86-1.34,1.52-2.36,1.98-1.02.46-2.25.7-3.67.7h-5.3l.79-.84v6.14h-1.78ZM846.1,78.42l-.79-.86h5.26c1.68,0,2.96-.36,3.83-1.09.87-.73,1.31-1.76,1.31-3.08s-.44-2.38-1.31-3.12c-.87-.74-2.15-1.1-3.83-1.1h-5.26l.79-.84v10.1Z"/>
        <path class="cls-3" d="M861.19,84.42v-17.81h1.7v17.81h-1.7Z"/>
        <path class="cls-3" d="M871.2,84.54c-.95,0-1.76-.16-2.46-.47-.7-.31-1.23-.74-1.6-1.3-.37-.55-.55-1.19-.55-1.91,0-.66.16-1.25.47-1.79s.82-.97,1.54-1.3c.71-.33,1.67-.49,2.87-.49h4.34v1.27h-4.3c-1.22,0-2.06.22-2.53.65-.47.43-.71.97-.71,1.61,0,.72.28,1.3.84,1.73s1.34.65,2.35.65,1.79-.22,2.48-.66,1.2-1.08,1.52-1.91l.38,1.18c-.32.83-.88,1.5-1.67,1.99-.79.5-1.79.74-2.99.74ZM875.54,84.42v-2.78l-.07-.46v-4.66c0-1.07-.3-1.9-.9-2.47-.6-.58-1.49-.86-2.68-.86-.82,0-1.59.14-2.33.41-.74.27-1.36.63-1.87,1.08l-.77-1.27c.64-.54,1.41-.96,2.3-1.26s1.84-.44,2.83-.44c1.63,0,2.89.4,3.78,1.21.89.81,1.33,2.04,1.33,3.68v7.82h-1.63Z"/>
        <path class="cls-3" d="M881.45,89.2c-.59,0-1.16-.1-1.69-.29-.54-.19-1-.48-1.38-.86l.79-1.27c.32.3.67.54,1.04.71.38.17.79.25,1.26.25.56,0,1.04-.16,1.45-.47.41-.31.8-.86,1.16-1.64l.82-1.85.19-.26,5.18-11.69h1.68l-6.31,14.11c-.35.82-.74,1.46-1.16,1.94s-.88.82-1.38,1.02c-.5.2-1.05.3-1.66.3ZM884.81,84.78l-5.81-12.96h1.78l5.14,11.57-1.1,1.39Z"/>
        <path class="cls-3" d="M900.65,84.42v-17.81h1.7v8.93l-.24,2.54.17,2.54v3.79h-1.63ZM907.15,84.54c-1.1,0-2.1-.25-2.98-.76-.88-.5-1.58-1.24-2.09-2.2s-.77-2.12-.77-3.48.26-2.54.78-3.49c.52-.95,1.22-1.68,2.1-2.17.88-.5,1.86-.74,2.95-.74,1.2,0,2.28.27,3.23.8.95.54,1.7,1.28,2.24,2.24.54.96.82,2.08.82,3.36s-.27,2.38-.82,3.35c-.54.97-1.29,1.72-2.24,2.27-.95.54-2.03.82-3.23.82ZM907.03,83.03c.9,0,1.7-.2,2.4-.61.7-.41,1.26-.98,1.68-1.73s.62-1.6.62-2.58-.21-1.86-.62-2.59-.98-1.31-1.68-1.72c-.7-.41-1.5-.61-2.4-.61s-1.7.2-2.41.61c-.71.41-1.27.98-1.68,1.72s-.61,1.6-.61,2.59.2,1.84.61,2.58.97,1.32,1.68,1.73c.71.41,1.52.61,2.41.61Z"/>
        <path class="cls-3" d="M920.4,84.54c-.94,0-1.76-.16-2.46-.47s-1.23-.74-1.6-1.3c-.37-.55-.55-1.19-.55-1.91,0-.66.16-1.25.47-1.79s.82-.97,1.54-1.3c.71-.33,1.67-.49,2.87-.49h4.34v1.27h-4.3c-1.22,0-2.06.22-2.53.65s-.71.97-.71,1.61c0,.72.28,1.3.84,1.73s1.34.65,2.35.65,1.79-.22,2.48-.66c.7-.44,1.2-1.08,1.52-1.91l.38,1.18c-.32.83-.88,1.5-1.67,1.99-.79.5-1.79.74-2.99.74ZM924.74,84.42v-2.78l-.07-.46v-4.66c0-1.07-.3-1.9-.9-2.47-.6-.58-1.49-.86-2.68-.86-.82,0-1.59.14-2.33.41-.74.27-1.36.63-1.87,1.08l-.77-1.27c.64-.54,1.41-.96,2.3-1.26s1.84-.44,2.83-.44c1.63,0,2.89.4,3.78,1.21.89.81,1.33,2.04,1.33,3.68v7.82h-1.63Z"/>
        <path class="cls-3" d="M931.01,84.42v-12.6h1.63v3.43l-.17-.6c.35-.96.94-1.69,1.78-2.2s1.86-.76,3.1-.76v1.66c-.06,0-.13,0-.19-.01-.06,0-.13-.01-.19-.01-1.33,0-2.37.4-3.12,1.21-.75.81-1.13,1.96-1.13,3.44v6.43h-1.71Z"/>
        <path class="cls-3" d="M947.78,69.04c-.35,0-.65-.12-.89-.36-.24-.24-.36-.53-.36-.86s.12-.62.36-.85c.24-.23.54-.35.89-.35s.65.11.89.34c.24.22.36.5.36.84s-.12.65-.35.89c-.23.24-.53.36-.9.36ZM946.92,84.42v-12.6h1.7v12.6h-1.7Z"/>
        <path class="cls-3" d="M953.37,84.42v-12.6h1.63v3.46l-.26-.65c.4-.91,1.04-1.63,1.92-2.15.88-.52,1.93-.78,3.14-.78,1.02,0,1.92.2,2.7.59.78.39,1.38.99,1.82,1.79.44.8.66,1.81.66,3.02v7.32h-1.71v-7.15c0-1.33-.33-2.33-1-3.01-.66-.68-1.6-1.02-2.79-1.02-.9,0-1.68.18-2.34.54s-1.18.88-1.54,1.56c-.36.68-.54,1.5-.54,2.46v6.62h-1.71Z"/>
        <path class="cls-3" d="M974.61,84.54c-1.2,0-2.28-.27-3.23-.82-.95-.54-1.7-1.3-2.24-2.27-.54-.97-.82-2.08-.82-3.35s.27-2.4.82-3.36c.54-.96,1.29-1.71,2.24-2.24.95-.54,2.03-.8,3.23-.8,1.1,0,2.09.25,2.96.74.87.5,1.57,1.22,2.09,2.17.52.95.78,2.12.78,3.49s-.26,2.52-.77,3.48c-.51.96-1.21,1.69-2.08,2.2-.87.5-1.87.76-2.99.76ZM974.73,83.03c.9,0,1.7-.2,2.41-.61.71-.41,1.27-.98,1.68-1.73s.61-1.6.61-2.58-.2-1.86-.61-2.59-.97-1.31-1.68-1.72c-.71-.41-1.52-.61-2.41-.61s-1.67.2-2.38.61c-.71.41-1.26.98-1.68,1.72-.42.74-.62,1.6-.62,2.59s.21,1.84.62,2.58c.42.74.97,1.32,1.68,1.73.7.41,1.5.61,2.38.61ZM979.49,84.42v-3.79l.17-2.54-.24-2.54v-8.93h1.7v17.81h-1.63Z"/>
        <path class="cls-3" d="M986.73,69.04c-.35,0-.65-.12-.89-.36-.24-.24-.36-.53-.36-.86s.12-.62.36-.85c.24-.23.54-.35.89-.35s.65.11.89.34c.24.22.36.5.36.84s-.12.65-.35.89c-.23.24-.53.36-.9.36ZM985.87,84.42v-12.6h1.7v12.6h-1.7Z"/>
        <path class="cls-3" d="M997.56,84.54c-1.25,0-2.36-.28-3.35-.83-.98-.55-1.76-1.31-2.32-2.28-.56-.97-.84-2.08-.84-3.32s.28-2.38.84-3.34c.56-.96,1.33-1.71,2.32-2.26s2.1-.82,3.35-.82c1.07,0,2.04.21,2.9.62.86.42,1.54,1.04,2.04,1.87l-1.27.86c-.43-.64-.97-1.11-1.61-1.42-.64-.3-1.34-.46-2.09-.46-.9,0-1.7.2-2.42.61-.72.41-1.29.98-1.7,1.72-.42.74-.62,1.6-.62,2.59s.21,1.86.62,2.59c.42.74.98,1.31,1.7,1.72.72.41,1.53.61,2.42.61.75,0,1.45-.15,2.09-.46.64-.3,1.18-.77,1.61-1.39l1.27.86c-.5.82-1.18,1.44-2.04,1.86-.86.42-1.83.64-2.9.64Z"/>
        <path class="cls-3" d="M1009.39,84.54c-.94,0-1.76-.16-2.46-.47s-1.23-.74-1.6-1.3c-.37-.55-.55-1.19-.55-1.91,0-.66.16-1.25.47-1.79s.82-.97,1.54-1.3c.71-.33,1.67-.49,2.87-.49h4.34v1.27h-4.3c-1.22,0-2.06.22-2.53.65s-.71.97-.71,1.61c0,.72.28,1.3.84,1.73s1.34.65,2.35.65,1.79-.22,2.48-.66c.7-.44,1.2-1.08,1.52-1.91l.38,1.18c-.32.83-.88,1.5-1.67,1.99-.79.5-1.79.74-2.99.74ZM1013.73,84.42v-2.78l-.07-.46v-4.66c0-1.07-.3-1.9-.9-2.47-.6-.58-1.49-.86-2.68-.86-.82,0-1.59.14-2.33.41-.74.27-1.36.63-1.87,1.08l-.77-1.27c.64-.54,1.41-.96,2.3-1.26s1.84-.44,2.83-.44c1.63,0,2.89.4,3.78,1.21.89.81,1.33,2.04,1.33,3.68v7.82h-1.63Z"/>
        <path class="cls-3" d="M1018.03,73.24v-1.42h7.8v1.42h-7.8ZM1023.98,84.54c-1.18,0-2.1-.32-2.74-.96-.64-.64-.96-1.54-.96-2.71v-11.83h1.7v11.74c0,.74.19,1.3.56,1.7.38.4.92.6,1.62.6.75,0,1.38-.22,1.87-.65l.6,1.22c-.34.3-.74.53-1.21.67s-.96.22-1.45.22Z"/>
        <path class="cls-3" d="M1034.64,84.54c-1.31,0-2.46-.28-3.46-.83-.99-.55-1.77-1.31-2.33-2.28-.56-.97-.84-2.08-.84-3.32s.27-2.35.8-3.31c.54-.96,1.27-1.72,2.21-2.27.94-.55,1.99-.83,3.16-.83s2.24.27,3.16.8c.92.54,1.64,1.29,2.17,2.26.53.97.79,2.08.79,3.35,0,.08,0,.16-.01.25,0,.09-.01.18-.01.28h-10.97v-1.27h10.06l-.67.5c0-.91-.2-1.72-.59-2.44-.39-.71-.92-1.27-1.6-1.67s-1.45-.6-2.33-.6-1.64.2-2.33.6c-.69.4-1.22.96-1.61,1.68-.38.72-.58,1.54-.58,2.47v.26c0,.96.21,1.8.64,2.53.42.73,1.02,1.3,1.78,1.7.76.41,1.63.61,2.6.61.77,0,1.48-.14,2.15-.41s1.24-.69,1.72-1.25l.96,1.1c-.56.67-1.26,1.18-2.1,1.54-.84.35-1.76.53-2.77.53Z"/>
        <path class="cls-3" d="M1047.17,84.54c-1.04,0-2.02-.15-2.95-.44-.93-.3-1.66-.67-2.18-1.12l.77-1.34c.51.38,1.17.72,1.97,1,.8.28,1.64.42,2.52.42,1.2,0,2.06-.19,2.59-.56.53-.38.79-.88.79-1.5,0-.46-.15-.83-.44-1.09-.3-.26-.68-.46-1.16-.6-.48-.14-1.02-.25-1.61-.35-.59-.1-1.18-.21-1.76-.34-.58-.13-1.12-.32-1.6-.56-.48-.25-.87-.59-1.16-1.02-.3-.43-.44-1.01-.44-1.73s.19-1.3.58-1.85c.38-.54.95-.97,1.69-1.28s1.65-.47,2.72-.47c.82,0,1.63.11,2.45.32.82.22,1.49.5,2.02.85l-.74,1.37c-.56-.38-1.16-.66-1.8-.83-.64-.17-1.28-.25-1.92-.25-1.14,0-1.97.2-2.51.59-.54.39-.8.89-.8,1.5,0,.48.15.86.44,1.13.3.27.69.48,1.18.64.49.15,1.02.28,1.61.37.58.1,1.17.21,1.75.35.58.14,1.12.32,1.61.55s.88.56,1.18.98c.3.42.44.98.44,1.67,0,.74-.2,1.37-.61,1.91-.41.54-1,.95-1.78,1.25-.78.3-1.72.44-2.82.44Z"/>
        <path class="cls-3" d="M1065.17,84.54c-1.04,0-2.02-.15-2.95-.44-.93-.3-1.66-.67-2.18-1.12l.77-1.34c.51.38,1.17.72,1.97,1,.8.28,1.64.42,2.52.42,1.2,0,2.06-.19,2.59-.56.53-.38.79-.88.79-1.5,0-.46-.15-.83-.44-1.09-.3-.26-.68-.46-1.16-.6-.48-.14-1.02-.25-1.61-.35-.59-.1-1.18-.21-1.76-.34-.58-.13-1.12-.32-1.6-.56-.48-.25-.87-.59-1.16-1.02-.3-.43-.44-1.01-.44-1.73s.19-1.3.58-1.85c.38-.54.95-.97,1.69-1.28s1.65-.47,2.72-.47c.82,0,1.63.11,2.45.32.82.22,1.49.5,2.02.85l-.74,1.37c-.56-.38-1.16-.66-1.8-.83-.64-.17-1.28-.25-1.92-.25-1.14,0-1.97.2-2.51.59-.54.39-.8.89-.8,1.5,0,.48.15.86.44,1.13.3.27.69.48,1.18.64.49.15,1.02.28,1.61.37.58.1,1.17.21,1.75.35.58.14,1.12.32,1.61.55s.88.56,1.18.98c.3.42.44.98.44,1.67,0,.74-.2,1.37-.61,1.91-.41.54-1,.95-1.78,1.25-.78.3-1.72.44-2.82.44Z"/>
        <path class="cls-3" d="M1071.53,73.24v-1.42h7.8v1.42h-7.8ZM1077.48,84.54c-1.18,0-2.1-.32-2.74-.96-.64-.64-.96-1.54-.96-2.71v-11.83h1.7v11.74c0,.74.19,1.3.56,1.7.38.4.92.6,1.62.6.75,0,1.38-.22,1.87-.65l.6,1.22c-.34.3-.74.53-1.21.67-.47.14-.96.22-1.45.22Z"/>
        <path class="cls-3" d="M1086.31,84.54c-.95,0-1.76-.16-2.46-.47-.7-.31-1.23-.74-1.6-1.3-.37-.55-.55-1.19-.55-1.91,0-.66.16-1.25.47-1.79s.82-.97,1.54-1.3c.71-.33,1.67-.49,2.87-.49h4.34v1.27h-4.3c-1.22,0-2.06.22-2.53.65-.47.43-.71.97-.71,1.61,0,.72.28,1.3.84,1.73s1.34.65,2.35.65,1.79-.22,2.48-.66,1.2-1.08,1.52-1.91l.38,1.18c-.32.83-.88,1.5-1.67,1.99-.79.5-1.79.74-2.99.74ZM1090.65,84.42v-2.78l-.07-.46v-4.66c0-1.07-.3-1.9-.9-2.47-.6-.58-1.49-.86-2.68-.86-.82,0-1.59.14-2.33.41-.74.27-1.36.63-1.87,1.08l-.77-1.27c.64-.54,1.41-.96,2.3-1.26s1.84-.44,2.83-.44c1.63,0,2.89.4,3.78,1.21.89.81,1.33,2.04,1.33,3.68v7.82h-1.63Z"/>
        <path class="cls-3" d="M1094.95,73.24v-1.42h7.8v1.42h-7.8ZM1100.9,84.54c-1.18,0-2.1-.32-2.74-.96-.64-.64-.96-1.54-.96-2.71v-11.83h1.71v11.74c0,.74.19,1.3.56,1.7s.92.6,1.62.6c.75,0,1.38-.22,1.87-.65l.6,1.22c-.34.3-.74.53-1.21.67-.47.14-.96.22-1.45.22Z"/>
        <path class="cls-3" d="M1111.87,84.54c-1.07,0-2.01-.2-2.81-.6-.8-.4-1.42-1-1.86-1.8-.44-.8-.66-1.8-.66-3v-7.32h1.7v7.13c0,1.34.33,2.36,1,3.04.66.68,1.6,1.02,2.8,1.02.88,0,1.64-.18,2.29-.54s1.14-.88,1.49-1.57c.34-.69.52-1.51.52-2.47v-6.6h1.7v12.6h-1.63v-3.46l.26.62c-.4.93-1.02,1.65-1.86,2.17-.84.52-1.82.78-2.94.78Z"/>
        <path class="cls-3" d="M1126.17,84.54c-1.04,0-2.02-.15-2.95-.44-.93-.3-1.66-.67-2.18-1.12l.77-1.34c.51.38,1.17.72,1.97,1,.8.28,1.64.42,2.52.42,1.2,0,2.06-.19,2.59-.56.53-.38.79-.88.79-1.5,0-.46-.15-.83-.45-1.09-.29-.26-.68-.46-1.16-.6-.48-.14-1.02-.25-1.61-.35-.59-.1-1.18-.21-1.76-.34-.58-.13-1.12-.32-1.6-.56-.48-.25-.87-.59-1.16-1.02-.3-.43-.44-1.01-.44-1.73s.19-1.3.58-1.85c.38-.54.95-.97,1.69-1.28.74-.31,1.65-.47,2.72-.47.82,0,1.63.11,2.45.32.82.22,1.49.5,2.02.85l-.74,1.37c-.56-.38-1.16-.66-1.8-.83s-1.28-.25-1.92-.25c-1.14,0-1.97.2-2.51.59-.54.39-.8.89-.8,1.5,0,.48.15.86.44,1.13.3.27.69.48,1.18.64s1.02.28,1.61.37c.58.1,1.17.21,1.75.35.58.14,1.12.32,1.61.55.49.23.88.56,1.18.98.29.42.44.98.44,1.67,0,.74-.2,1.37-.61,1.91s-1,.95-1.78,1.25c-.78.3-1.72.44-2.82.44Z"/>
        <path class="cls-3" d="M1145.92,84.54c-1.22,0-2.31-.28-3.28-.83-.97-.55-1.73-1.31-2.29-2.28s-.84-2.08-.84-3.32.28-2.38.84-3.34,1.32-1.71,2.28-2.26,2.06-.82,3.29-.82,2.36.27,3.32.82c.97.54,1.73,1.3,2.28,2.26.55.96.83,2.07.83,3.34s-.28,2.36-.83,3.32c-.55.97-1.32,1.73-2.29,2.28-.98.55-2.08.83-3.31.83ZM1145.92,83.03c.91,0,1.72-.2,2.42-.61.7-.41,1.26-.98,1.67-1.73s.61-1.6.61-2.58-.2-1.86-.61-2.59-.96-1.31-1.67-1.72c-.7-.41-1.5-.61-2.4-.61s-1.7.2-2.4.61c-.71.41-1.26.98-1.68,1.72-.42.74-.62,1.6-.62,2.59s.21,1.84.62,2.58c.42.74.97,1.32,1.68,1.73.7.41,1.5.61,2.38.61Z"/>
        <path class="cls-3" d="M1153.87,73.24v-1.42h7.8v1.42h-7.8ZM1156.12,84.42v-14.18c0-1.12.33-2.02.98-2.71.66-.69,1.6-1.03,2.83-1.03.48,0,.94.06,1.39.19.45.13.82.33,1.13.6l-.58,1.27c-.24-.21-.52-.36-.84-.47-.32-.1-.66-.16-1.03-.16-.72,0-1.27.2-1.66.6-.38.4-.58.99-.58,1.78v1.92l.05.79v11.4h-1.7Z"/>
        <path class="cls-3" d="M1168.29,73.24v-1.42h7.8v1.42h-7.8ZM1174.24,84.54c-1.18,0-2.1-.32-2.74-.96-.64-.64-.96-1.54-.96-2.71v-11.83h1.7v11.74c0,.74.19,1.3.56,1.7.38.4.92.6,1.62.6.75,0,1.38-.22,1.87-.65l.6,1.22c-.34.3-.74.53-1.21.67s-.96.22-1.45.22Z"/>
        <path class="cls-3" d="M1180,84.42v-17.81h1.7v8.66l-.34-.65c.4-.91,1.04-1.63,1.92-2.15s1.93-.78,3.14-.78c1.02,0,1.92.2,2.7.59s1.38.99,1.82,1.79c.44.8.66,1.81.66,3.02v7.32h-1.7v-7.15c0-1.33-.33-2.33-1-3.01-.66-.68-1.6-1.02-2.8-1.02-.9,0-1.68.18-2.34.54s-1.18.88-1.54,1.56c-.36.68-.54,1.5-.54,2.46v6.62h-1.7Z"/>
        <path class="cls-3" d="M1201.58,84.54c-1.31,0-2.46-.28-3.46-.83-.99-.55-1.77-1.31-2.33-2.28s-.84-2.08-.84-3.32.27-2.35.8-3.31,1.27-1.72,2.21-2.27c.94-.55,1.99-.83,3.16-.83s2.24.27,3.16.8c.92.54,1.64,1.29,2.17,2.26.53.97.79,2.08.79,3.35,0,.08,0,.16-.01.25,0,.09-.01.18-.01.28h-10.97v-1.27h10.06l-.67.5c0-.91-.2-1.72-.59-2.44s-.92-1.27-1.6-1.67-1.45-.6-2.33-.6-1.64.2-2.33.6-1.22.96-1.61,1.68c-.38.72-.58,1.54-.58,2.47v.26c0,.96.21,1.8.64,2.53s1.02,1.3,1.78,1.7c.76.41,1.63.61,2.6.61.77,0,1.48-.14,2.15-.41s1.24-.69,1.72-1.25l.96,1.1c-.56.67-1.26,1.18-2.1,1.54-.84.35-1.76.53-2.77.53Z"/>
        <path class="cls-3" d="M1215.59,80v-1.25l8.9-11.14h1.92l-8.83,11.14-.94-.29h13.51v1.54h-14.57ZM1225.07,84.42v-4.42l.05-1.54v-3.89h1.68v9.84h-1.73Z"/>
        <path class="cls-3" d="M843.96,113.22v-17.81h1.7v8.93l-.24,2.54.17,2.54v3.79h-1.63ZM850.46,113.34c-1.1,0-2.1-.25-2.98-.76-.88-.5-1.58-1.24-2.09-2.2s-.77-2.12-.77-3.48.26-2.54.78-3.49c.52-.95,1.22-1.68,2.1-2.17.88-.5,1.86-.74,2.95-.74,1.2,0,2.28.27,3.23.8.95.54,1.7,1.28,2.24,2.24s.82,2.08.82,3.36-.27,2.38-.82,3.35c-.54.97-1.29,1.72-2.24,2.27s-2.03.82-3.23.82ZM850.34,111.83c.9,0,1.7-.2,2.4-.61.7-.41,1.26-.98,1.68-1.73s.62-1.6.62-2.58-.21-1.86-.62-2.59-.98-1.31-1.68-1.72c-.7-.41-1.5-.61-2.4-.61s-1.7.2-2.41.61c-.71.41-1.27.98-1.68,1.72s-.61,1.6-.61,2.59.2,1.84.61,2.58.97,1.32,1.68,1.73c.71.41,1.52.61,2.41.61Z"/>
        <path class="cls-3" d="M863.71,113.34c-.94,0-1.76-.16-2.46-.47-.7-.31-1.23-.74-1.6-1.3-.37-.55-.55-1.19-.55-1.91,0-.66.16-1.25.47-1.79.31-.54.82-.97,1.54-1.3.71-.33,1.67-.49,2.87-.49h4.34v1.27h-4.29c-1.22,0-2.06.22-2.53.65-.47.43-.71.97-.71,1.61,0,.72.28,1.3.84,1.73.56.43,1.34.65,2.35.65s1.79-.22,2.48-.66c.7-.44,1.2-1.08,1.52-1.91l.38,1.18c-.32.83-.88,1.5-1.67,1.99-.79.5-1.79.74-2.99.74ZM868.06,113.22v-2.78l-.07-.46v-4.66c0-1.07-.3-1.9-.9-2.47-.6-.58-1.49-.86-2.68-.86-.82,0-1.59.14-2.33.41-.74.27-1.36.63-1.87,1.08l-.77-1.27c.64-.54,1.41-.96,2.3-1.26.9-.3,1.84-.44,2.83-.44,1.63,0,2.89.4,3.78,1.21s1.33,2.04,1.33,3.68v7.82h-1.63Z"/>
        <path class="cls-3" d="M874.32,113.22v-12.6h1.63v3.43l-.17-.6c.35-.96.94-1.69,1.78-2.2s1.86-.76,3.1-.76v1.66c-.06,0-.13,0-.19-.01-.06,0-.13-.01-.19-.01-1.33,0-2.37.4-3.12,1.21-.75.81-1.13,1.96-1.13,3.44v6.43h-1.71Z"/>
        <path class="cls-3" d="M890.23,113.22v-17.81h1.7v17.81h-1.7Z"/>
        <path class="cls-3" d="M901.82,113.34c-1.22,0-2.31-.28-3.28-.83-.97-.55-1.73-1.31-2.29-2.28s-.84-2.08-.84-3.32.28-2.38.84-3.34,1.32-1.71,2.28-2.26,2.06-.82,3.29-.82,2.36.27,3.32.82c.97.54,1.73,1.3,2.28,2.26.55.96.83,2.07.83,3.34s-.28,2.36-.83,3.32c-.55.97-1.32,1.73-2.29,2.28-.98.55-2.08.83-3.31.83ZM901.82,111.83c.91,0,1.72-.2,2.42-.61.7-.41,1.26-.98,1.67-1.73s.61-1.6.61-2.58-.2-1.86-.61-2.59-.96-1.31-1.67-1.72c-.7-.41-1.5-.61-2.4-.61s-1.7.2-2.4.61c-.7.41-1.26.98-1.68,1.72s-.62,1.6-.62,2.59.21,1.84.62,2.58.98,1.32,1.68,1.73c.7.41,1.5.61,2.38.61Z"/>
        <path class="cls-3" d="M916.87,113.34c-1.22,0-2.31-.28-3.28-.83-.97-.55-1.73-1.31-2.29-2.28s-.84-2.08-.84-3.32.28-2.38.84-3.34,1.32-1.71,2.28-2.26,2.06-.82,3.29-.82,2.36.27,3.32.82c.97.54,1.73,1.3,2.28,2.26.55.96.83,2.07.83,3.34s-.28,2.36-.83,3.32c-.55.97-1.32,1.73-2.29,2.28-.98.55-2.08.83-3.31.83ZM916.87,111.83c.91,0,1.72-.2,2.42-.61.7-.41,1.26-.98,1.67-1.73s.61-1.6.61-2.58-.2-1.86-.61-2.59-.96-1.31-1.67-1.72c-.7-.41-1.5-.61-2.4-.61s-1.7.2-2.4.61c-.71.41-1.26.98-1.68,1.72-.42.74-.62,1.6-.62,2.59s.21,1.84.62,2.58c.42.74.97,1.32,1.68,1.73.7.41,1.5.61,2.38.61Z"/>
        <path class="cls-3" d="M926.78,117.88v-17.26h1.63v3.79l-.17,2.52.24,2.54v8.4h-1.71ZM933.29,113.34c-1.09,0-2.07-.25-2.95-.76-.88-.5-1.58-1.23-2.1-2.18-.52-.95-.78-2.12-.78-3.49s.26-2.54.77-3.49c.51-.95,1.21-1.68,2.09-2.17.88-.5,1.87-.74,2.98-.74,1.2,0,2.28.27,3.23.8.95.54,1.7,1.29,2.24,2.26.54.97.82,2.08.82,3.35s-.27,2.4-.82,3.36c-.54.96-1.29,1.71-2.24,2.26-.95.54-2.03.82-3.23.82ZM933.17,111.83c.9,0,1.7-.2,2.4-.61.7-.41,1.26-.98,1.68-1.73s.62-1.6.62-2.58-.21-1.83-.62-2.57-.98-1.31-1.68-1.73c-.71-.42-1.5-.62-2.4-.62s-1.7.21-2.41.62c-.71.42-1.27.99-1.68,1.73s-.61,1.59-.61,2.57.2,1.84.61,2.58.97,1.32,1.68,1.73c.71.41,1.52.61,2.41.61Z"/>
        <path class="cls-3" d="M942.86,113.34c-.35,0-.65-.13-.9-.38-.25-.26-.37-.57-.37-.94s.12-.7.37-.94c.25-.24.55-.36.9-.36s.65.12.9.36c.25.24.37.55.37.94s-.12.68-.37.94c-.25.26-.55.38-.9.38Z"/>
      </g>
      <g class="cls-6">
        <path class="cls-3" d="M788.53,385.77v7.27h-12.38v-24.88h13.07c4.3,0,7.45.7,9.47,2.11,2.02,1.4,3.02,3.83,3.02,7.29,0,2.62-.85,4.55-2.56,5.8,1.44,2.57,2.53,5.8,3.28,9.68h-11.84c-.19-2.42-.53-4.56-1.01-6.41l-.25-.86h-.79ZM788.53,382.86h1.04c.29,0,.53-.1.72-.29.19-.19.29-.44.29-.76v-2.16c0-.31-.1-.56-.29-.74-.19-.18-.43-.27-.72-.27h-1.04v4.21Z"/>
        <path class="cls-3" d="M804.01,382.44c0-3.66.83-6.41,2.5-8.26,1.67-1.85,4.4-2.77,8.19-2.77s6.43.77,7.92,2.3c1.49,1.54,2.23,4.06,2.23,7.56l-.18,2.77h-9.94v1.22c.6.14,1.48.22,2.63.22,2.45,0,4.43-.11,5.94-.32l.76-.11v6.77c-.19.12-.5.27-.92.45-.42.18-1.42.41-3.01.7-1.58.29-3.35.43-5.29.43-3.84,0-6.61-.91-8.3-2.74-1.69-1.82-2.54-4.57-2.54-8.23ZM814.2,380.84v1.4h2.05v-1.4c0-.31-.1-.56-.31-.76-.2-.19-.46-.29-.76-.29s-.54.1-.72.29c-.18.19-.27.44-.27.76Z"/>
        <path class="cls-3" d="M846.2,392.32c-1.56.72-4.31,1.08-8.24,1.08s-6.76-.9-8.48-2.7c-1.72-1.8-2.57-4.6-2.57-8.39s.96-6.56,2.88-8.3c1.92-1.74,4.8-2.61,8.64-2.61,1.73,0,3.24.12,4.54.36,1.3.24,2.16.48,2.59.72l.65.36v9.5h-7.38v1.58c.43.07,1.16.11,2.2.11,1.73,0,3.28-.07,4.64-.22l.54-.04v8.53Z"/>
        <path class="cls-3" d="M860.17,393.37h-1.44c-3.5,0-6.13-.86-7.87-2.59s-2.61-4.51-2.61-8.35.87-6.64,2.61-8.39,4.36-2.63,7.87-2.63h1.44c3.5,0,6.13.88,7.88,2.63s2.63,4.55,2.63,8.39-.87,6.62-2.61,8.35-4.37,2.59-7.9,2.59ZM858.44,382.14v3.02c0,.31.09.56.27.76.18.19.42.29.72.29s.55-.1.76-.29c.2-.19.31-.44.31-.76v-3.02c0-.29-.1-.53-.31-.74-.2-.2-.45-.31-.74-.31s-.53.1-.72.31c-.19.2-.29.45-.29.74Z"/>
        <path class="cls-3" d="M883.5,393.04h-10.73v-21.28h9.04l.36,2.63c.05-.07.11-.17.18-.29.07-.12.28-.33.61-.63.34-.3.72-.57,1.15-.81,1.2-.6,2.71-.9,4.54-.9v11.45l-5.15-.5v10.33Z"/>
        <path class="cls-3" d="M912.41,393.04h-9.07l-.36-2.63c-.1.26-.29.59-.59.97-.3.38-.62.71-.95.97-.89.7-2.03,1.04-3.42,1.04-2.52,0-4.49-.96-5.9-2.88-1.42-1.92-2.12-4.6-2.12-8.05s.72-6.15,2.16-8.12c1.44-1.97,3.41-2.95,5.9-2.95.77,0,1.45.09,2.05.27.6.18,1.01.35,1.22.52l.32.25v-6.23h10.76v26.82ZM900.17,382.14v3.02c0,.31.09.56.27.76.18.19.42.29.72.29s.55-.1.76-.29c.2-.19.31-.44.31-.76v-3.02c0-.29-.1-.53-.31-.74-.2-.2-.45-.31-.74-.31s-.53.1-.72.31c-.19.2-.29.45-.29.74Z"/>
        <path class="cls-3" d="M781.85,447.04v-6.24l.41,1.1-7.13-11.66h1.9l6.26,10.25h-1.01l6.26-10.25h1.78l-7.13,11.66.41-1.1v6.24h-1.75Z"/>
        <path class="cls-3" d="M796.42,447.16c-1.22,0-2.31-.28-3.28-.83-.97-.55-1.73-1.31-2.29-2.28-.56-.97-.84-2.08-.84-3.32s.28-2.38.84-3.34c.56-.96,1.32-1.71,2.28-2.26s2.06-.82,3.29-.82,2.36.27,3.32.82c.97.54,1.73,1.3,2.28,2.26.55.96.83,2.07.83,3.34s-.28,2.36-.83,3.32c-.55.97-1.32,1.73-2.29,2.28-.98.55-2.08.83-3.31.83ZM796.42,445.65c.91,0,1.72-.2,2.42-.61.7-.41,1.26-.98,1.67-1.73s.61-1.6.61-2.58-.2-1.86-.61-2.59-.96-1.31-1.67-1.72c-.7-.41-1.5-.61-2.4-.61s-1.7.2-2.4.61c-.7.41-1.26.98-1.68,1.72-.42.74-.62,1.6-.62,2.59s.21,1.84.62,2.58c.42.74.98,1.32,1.68,1.73.7.41,1.5.61,2.38.61Z"/>
        <path class="cls-3" d="M811.54,447.16c-1.07,0-2.01-.2-2.81-.6s-1.42-1-1.86-1.8c-.44-.8-.66-1.8-.66-3v-7.32h1.7v7.13c0,1.34.33,2.36,1,3.04.66.68,1.6,1.02,2.8,1.02.88,0,1.64-.18,2.29-.54.65-.36,1.14-.88,1.49-1.57.34-.69.52-1.51.52-2.47v-6.6h1.7v12.6h-1.63v-3.46l.26.62c-.4.93-1.02,1.65-1.86,2.17-.84.52-1.82.78-2.94.78Z"/>
        <path class="cls-3" d="M821.42,435.09l1.06-4.42.19,1.01c-.37,0-.68-.12-.92-.35s-.37-.54-.37-.92.12-.7.37-.94c.25-.24.55-.36.9-.36s.67.12.9.37c.23.25.35.56.35.92,0,.13,0,.26-.02.38-.02.13-.04.27-.08.42-.04.15-.1.34-.18.56l-1.03,3.31h-1.15Z"/>
        <path class="cls-3" d="M827.54,447.04v-17.81h1.7v17.81h-1.7Z"/>
        <path class="cls-3" d="M834,447.04v-17.81h1.7v17.81h-1.7Z"/>
        <path class="cls-3" d="M846.74,447.04v-17.81h1.7v8.66l-.34-.65c.4-.91,1.04-1.63,1.92-2.15s1.93-.78,3.14-.78c1.02,0,1.92.2,2.7.59.78.39,1.38.99,1.82,1.79.44.8.66,1.81.66,3.02v7.32h-1.7v-7.15c0-1.33-.33-2.33-1-3.01-.66-.68-1.6-1.02-2.8-1.02-.9,0-1.68.18-2.34.54s-1.18.88-1.54,1.56c-.36.68-.54,1.5-.54,2.46v6.62h-1.7Z"/>
        <path class="cls-3" d="M868.32,447.16c-1.31,0-2.46-.28-3.46-.83-.99-.55-1.77-1.31-2.33-2.28-.56-.97-.84-2.08-.84-3.32s.27-2.35.8-3.31,1.27-1.72,2.21-2.27c.94-.55,1.99-.83,3.16-.83s2.24.27,3.16.8c.92.54,1.64,1.29,2.17,2.26.53.97.79,2.08.79,3.35,0,.08,0,.16-.01.25,0,.09-.01.18-.01.28h-10.97v-1.27h10.06l-.67.5c0-.91-.2-1.72-.59-2.44-.39-.71-.92-1.27-1.6-1.67s-1.45-.6-2.33-.6-1.64.2-2.33.6c-.69.4-1.22.96-1.61,1.68-.38.72-.58,1.54-.58,2.47v.26c0,.96.21,1.8.64,2.53.42.73,1.02,1.3,1.78,1.7.76.41,1.63.61,2.6.61.77,0,1.48-.14,2.15-.41s1.24-.69,1.72-1.25l.96,1.1c-.56.67-1.26,1.18-2.1,1.54-.84.35-1.76.53-2.77.53Z"/>
        <path class="cls-3" d="M880.66,447.16c-.94,0-1.76-.16-2.46-.47-.7-.31-1.23-.74-1.6-1.3-.37-.55-.55-1.19-.55-1.91,0-.66.16-1.25.47-1.79.31-.54.82-.97,1.54-1.3.71-.33,1.67-.49,2.87-.49h4.34v1.27h-4.3c-1.22,0-2.06.22-2.53.65s-.71.97-.71,1.61c0,.72.28,1.3.84,1.73.56.43,1.34.65,2.35.65s1.79-.22,2.48-.66c.7-.44,1.2-1.08,1.52-1.91l.38,1.18c-.32.83-.88,1.5-1.67,1.99-.79.5-1.79.74-2.99.74ZM885,447.04v-2.78l-.07-.46v-4.66c0-1.07-.3-1.9-.9-2.47-.6-.58-1.49-.86-2.68-.86-.82,0-1.59.14-2.33.41-.74.27-1.36.63-1.87,1.08l-.77-1.27c.64-.54,1.41-.96,2.3-1.26.9-.3,1.84-.44,2.83-.44,1.63,0,2.89.4,3.78,1.21s1.33,2.04,1.33,3.68v7.82h-1.63Z"/>
        <path class="cls-3" d="M891.26,447.04v-12.6h1.63v3.43l-.17-.6c.35-.96.94-1.69,1.78-2.2.83-.5,1.86-.76,3.1-.76v1.66c-.06,0-.13,0-.19-.01-.06,0-.13-.01-.19-.01-1.33,0-2.37.4-3.12,1.21-.75.81-1.13,1.96-1.13,3.44v6.43h-1.7Z"/>
        <path class="cls-3" d="M910.73,447.16c-.94,0-1.76-.16-2.46-.47s-1.23-.74-1.6-1.3c-.37-.55-.55-1.19-.55-1.91,0-.66.16-1.25.47-1.79.31-.54.82-.97,1.54-1.3.71-.33,1.67-.49,2.87-.49h4.34v1.27h-4.3c-1.22,0-2.06.22-2.53.65-.47.43-.71.97-.71,1.61,0,.72.28,1.3.84,1.73.56.43,1.34.65,2.35.65s1.79-.22,2.48-.66,1.2-1.08,1.52-1.91l.38,1.18c-.32.83-.88,1.5-1.67,1.99-.79.5-1.79.74-2.99.74ZM915.07,447.04v-2.78l-.07-.46v-4.66c0-1.07-.3-1.9-.9-2.47-.6-.58-1.49-.86-2.68-.86-.82,0-1.59.14-2.33.41-.74.27-1.36.63-1.87,1.08l-.77-1.27c.64-.54,1.41-.96,2.3-1.26.9-.3,1.84-.44,2.83-.44,1.63,0,2.89.4,3.78,1.21.89.81,1.33,2.04,1.33,3.68v7.82h-1.63Z"/>
        <path class="cls-3" d="M927.62,451.7v-17.26h1.63v3.79l-.17,2.52.24,2.54v8.4h-1.7ZM934.13,447.16c-1.09,0-2.07-.25-2.95-.76-.88-.5-1.58-1.23-2.1-2.18-.52-.95-.78-2.12-.78-3.49s.26-2.54.77-3.49c.51-.95,1.21-1.68,2.09-2.17.88-.5,1.87-.74,2.98-.74,1.2,0,2.28.27,3.23.8.95.54,1.7,1.29,2.24,2.26.54.97.82,2.08.82,3.35s-.27,2.4-.82,3.36-1.29,1.71-2.24,2.26-2.03.82-3.23.82ZM934.01,445.65c.9,0,1.7-.2,2.4-.61.7-.41,1.26-.98,1.68-1.73s.62-1.6.62-2.58-.21-1.83-.62-2.57-.98-1.31-1.68-1.73c-.71-.42-1.5-.62-2.4-.62s-1.7.21-2.41.62-1.27.99-1.68,1.73-.61,1.59-.61,2.57.2,1.84.61,2.58.97,1.32,1.68,1.73c.71.41,1.52.61,2.41.61Z"/>
        <path class="cls-3" d="M943.89,447.04v-12.6h1.63v3.43l-.17-.6c.35-.96.94-1.69,1.78-2.2s1.86-.76,3.1-.76v1.66c-.06,0-.13,0-.19-.01-.06,0-.13-.01-.19-.01-1.33,0-2.37.4-3.12,1.21-.75.81-1.13,1.96-1.13,3.44v6.43h-1.7Z"/>
        <path class="cls-3" d="M958.56,447.16c-1.31,0-2.46-.28-3.46-.83-.99-.55-1.77-1.31-2.33-2.28-.56-.97-.84-2.08-.84-3.32s.27-2.35.8-3.31c.54-.96,1.27-1.72,2.21-2.27.94-.55,1.99-.83,3.16-.83s2.24.27,3.16.8c.92.54,1.64,1.29,2.17,2.26.53.97.79,2.08.79,3.35,0,.08,0,.16-.01.25,0,.09-.01.18-.01.28h-10.97v-1.27h10.06l-.67.5c0-.91-.2-1.72-.59-2.44-.39-.71-.92-1.27-1.6-1.67s-1.45-.6-2.33-.6-1.64.2-2.33.6c-.69.4-1.22.96-1.61,1.68-.38.72-.58,1.54-.58,2.47v.26c0,.96.21,1.8.64,2.53s1.02,1.3,1.78,1.7c.76.41,1.63.61,2.6.61.77,0,1.48-.14,2.15-.41s1.24-.69,1.72-1.25l.96,1.1c-.56.67-1.26,1.18-2.1,1.54-.84.35-1.76.53-2.77.53Z"/>
        <path class="cls-3" d="M967.01,441.28v-1.49h6.29v1.49h-6.29Z"/>
        <path class="cls-3" d="M977.11,447.04v-12.6h1.63v3.43l-.17-.6c.35-.96.94-1.69,1.78-2.2s1.86-.76,3.1-.76v1.66c-.06,0-.13,0-.19-.01-.06,0-.13-.01-.19-.01-1.33,0-2.37.4-3.12,1.21-.75.81-1.13,1.96-1.13,3.44v6.43h-1.7Z"/>
        <path class="cls-3" d="M991.56,447.16c-1.22,0-2.31-.28-3.28-.83-.97-.55-1.73-1.31-2.29-2.28-.56-.97-.84-2.08-.84-3.32s.28-2.38.84-3.34c.56-.96,1.32-1.71,2.28-2.26s2.06-.82,3.29-.82,2.36.27,3.32.82c.97.54,1.73,1.3,2.28,2.26.55.96.83,2.07.83,3.34s-.28,2.36-.83,3.32c-.55.97-1.32,1.73-2.29,2.28-.98.55-2.08.83-3.31.83ZM991.56,445.65c.91,0,1.72-.2,2.42-.61.7-.41,1.26-.98,1.67-1.73s.61-1.6.61-2.58-.2-1.86-.61-2.59-.96-1.31-1.67-1.72c-.7-.41-1.5-.61-2.4-.61s-1.7.2-2.4.61c-.7.41-1.26.98-1.68,1.72-.42.74-.62,1.6-.62,2.59s.21,1.84.62,2.58c.42.74.98,1.32,1.68,1.73.7.41,1.5.61,2.38.61Z"/>
        <path class="cls-3" d="M1001.47,447.04v-17.81h1.7v17.81h-1.7Z"/>
        <path class="cls-3" d="M1007.93,447.04v-17.81h1.7v17.81h-1.7Z"/>
        <path class="cls-3" d="M1024.22,447.16c-.94,0-1.76-.16-2.46-.47s-1.23-.74-1.6-1.3c-.37-.55-.55-1.19-.55-1.91,0-.66.16-1.25.47-1.79.31-.54.82-.97,1.54-1.3.71-.33,1.67-.49,2.87-.49h4.34v1.27h-4.3c-1.22,0-2.06.22-2.53.65-.47.43-.71.97-.71,1.61,0,.72.28,1.3.84,1.73.56.43,1.34.65,2.35.65s1.79-.22,2.48-.66,1.2-1.08,1.52-1.91l.38,1.18c-.32.83-.88,1.5-1.67,1.99-.79.5-1.79.74-2.99.74ZM1028.56,447.04v-2.78l-.07-.46v-4.66c0-1.07-.3-1.9-.9-2.47-.6-.58-1.49-.86-2.68-.86-.82,0-1.59.14-2.33.41-.74.27-1.36.63-1.87,1.08l-.77-1.27c.64-.54,1.41-.96,2.3-1.26.9-.3,1.84-.44,2.83-.44,1.63,0,2.89.4,3.78,1.21.89.81,1.33,2.04,1.33,3.68v7.82h-1.63Z"/>
        <path class="cls-3" d="M1034.83,447.04v-12.6h1.63v3.46l-.26-.65c.4-.91,1.04-1.63,1.92-2.15.88-.52,1.93-.78,3.14-.78,1.02,0,1.92.2,2.7.59.78.39,1.38.99,1.82,1.79.44.8.66,1.81.66,3.02v7.32h-1.7v-7.15c0-1.33-.33-2.33-1-3.01-.66-.68-1.6-1.02-2.8-1.02-.9,0-1.68.18-2.34.54s-1.18.88-1.54,1.56c-.36.68-.54,1.5-.54,2.46v6.62h-1.7Z"/>
        <path class="cls-3" d="M1056.07,447.16c-1.2,0-2.28-.27-3.23-.82-.95-.54-1.7-1.3-2.24-2.27-.54-.97-.82-2.08-.82-3.35s.27-2.4.82-3.36,1.29-1.71,2.24-2.24c.95-.54,2.03-.8,3.23-.8,1.1,0,2.09.25,2.96.74.87.5,1.57,1.22,2.09,2.17.52.95.78,2.12.78,3.49s-.26,2.52-.77,3.48c-.51.96-1.2,1.69-2.08,2.2-.87.5-1.87.76-2.99.76ZM1056.19,445.65c.9,0,1.7-.2,2.41-.61.71-.41,1.27-.98,1.68-1.73s.61-1.6.61-2.58-.2-1.86-.61-2.59-.97-1.31-1.68-1.72c-.71-.41-1.52-.61-2.41-.61s-1.67.2-2.38.61c-.7.41-1.26.98-1.68,1.72-.42.74-.62,1.6-.62,2.59s.21,1.84.62,2.58c.42.74.98,1.32,1.68,1.73.7.41,1.5.61,2.38.61ZM1060.94,447.04v-3.79l.17-2.54-.24-2.54v-8.93h1.7v17.81h-1.63Z"/>
        <path class="cls-3" d="M1071.64,435.86v-1.42h7.8v1.42h-7.8ZM1077.6,447.16c-1.18,0-2.1-.32-2.74-.96-.64-.64-.96-1.54-.96-2.71v-11.83h1.7v11.74c0,.74.19,1.3.56,1.7s.92.6,1.62.6c.75,0,1.38-.22,1.87-.65l.6,1.22c-.34.3-.74.53-1.21.67s-.96.22-1.45.22Z"/>
        <path class="cls-3" d="M1083.36,447.04v-17.81h1.7v8.66l-.34-.65c.4-.91,1.04-1.63,1.92-2.15.88-.52,1.93-.78,3.14-.78,1.02,0,1.92.2,2.7.59.78.39,1.38.99,1.82,1.79.44.8.66,1.81.66,3.02v7.32h-1.7v-7.15c0-1.33-.33-2.33-1-3.01-.66-.68-1.6-1.02-2.8-1.02-.9,0-1.68.18-2.34.54s-1.18.88-1.54,1.56c-.36.68-.54,1.5-.54,2.46v6.62h-1.7Z"/>
        <path class="cls-3" d="M1104.93,447.16c-1.31,0-2.46-.28-3.46-.83-.99-.55-1.77-1.31-2.33-2.28-.56-.97-.84-2.08-.84-3.32s.27-2.35.8-3.31c.54-.96,1.27-1.72,2.21-2.27.94-.55,1.99-.83,3.16-.83s2.24.27,3.16.8c.92.54,1.64,1.29,2.17,2.26.53.97.79,2.08.79,3.35,0,.08,0,.16-.01.25,0,.09-.01.18-.01.28h-10.97v-1.27h10.06l-.67.5c0-.91-.2-1.72-.59-2.44-.39-.71-.92-1.27-1.6-1.67s-1.45-.6-2.33-.6-1.64.2-2.33.6c-.69.4-1.22.96-1.61,1.68-.38.72-.58,1.54-.58,2.47v.26c0,.96.21,1.8.64,2.53s1.02,1.3,1.78,1.7c.76.41,1.63.61,2.6.61.77,0,1.48-.14,2.15-.41s1.24-.69,1.72-1.25l.96,1.1c-.56.67-1.26,1.18-2.1,1.54-.84.35-1.76.53-2.77.53Z"/>
        <path class="cls-3" d="M1120.36,447.04v-17.81h1.7v17.81h-1.7Z"/>
        <path class="cls-3" d="M1131.96,447.16c-1.22,0-2.31-.28-3.28-.83-.97-.55-1.73-1.31-2.29-2.28-.56-.97-.84-2.08-.84-3.32s.28-2.38.84-3.34c.56-.96,1.32-1.71,2.28-2.26s2.06-.82,3.29-.82,2.36.27,3.32.82c.97.54,1.73,1.3,2.28,2.26.55.96.83,2.07.83,3.34s-.28,2.36-.83,3.32c-.55.97-1.32,1.73-2.29,2.28-.98.55-2.08.83-3.31.83ZM1131.96,445.65c.91,0,1.72-.2,2.42-.61.7-.41,1.26-.98,1.67-1.73s.61-1.6.61-2.58-.2-1.86-.61-2.59-.96-1.31-1.67-1.72c-.7-.41-1.5-.61-2.4-.61s-1.7.2-2.4.61c-.7.41-1.26.98-1.68,1.72-.42.74-.62,1.6-.62,2.59s.21,1.84.62,2.58c.42.74.98,1.32,1.68,1.73.7.41,1.5.61,2.38.61Z"/>
        <path class="cls-3" d="M1147,447.16c-1.22,0-2.31-.28-3.28-.83-.97-.55-1.73-1.31-2.29-2.28-.56-.97-.84-2.08-.84-3.32s.28-2.38.84-3.34c.56-.96,1.32-1.71,2.28-2.26s2.06-.82,3.29-.82,2.36.27,3.32.82c.97.54,1.73,1.3,2.28,2.26.55.96.83,2.07.83,3.34s-.28,2.36-.83,3.32c-.55.97-1.32,1.73-2.29,2.28-.98.55-2.08.83-3.31.83ZM1147,445.65c.91,0,1.72-.2,2.42-.61.7-.41,1.26-.98,1.67-1.73s.61-1.6.61-2.58-.2-1.86-.61-2.59-.96-1.31-1.67-1.72c-.7-.41-1.5-.61-2.4-.61s-1.7.2-2.4.61c-.7.41-1.26.98-1.68,1.72-.42.74-.62,1.6-.62,2.59s.21,1.84.62,2.58c.42.74.98,1.32,1.68,1.73.7.41,1.5.61,2.38.61Z"/>
        <path class="cls-3" d="M1156.92,451.7v-17.26h1.63v3.79l-.17,2.52.24,2.54v8.4h-1.7ZM1163.42,447.16c-1.09,0-2.07-.25-2.95-.76-.88-.5-1.58-1.23-2.1-2.18-.52-.95-.78-2.12-.78-3.49s.26-2.54.77-3.49c.51-.95,1.21-1.68,2.09-2.17.88-.5,1.87-.74,2.98-.74,1.2,0,2.28.27,3.23.8.95.54,1.7,1.29,2.24,2.26.54.97.82,2.08.82,3.35s-.27,2.4-.82,3.36-1.29,1.71-2.24,2.26-2.03.82-3.23.82ZM1163.3,445.65c.9,0,1.7-.2,2.4-.61.7-.41,1.26-.98,1.68-1.73s.62-1.6.62-2.58-.21-1.83-.62-2.57-.98-1.31-1.68-1.73c-.71-.42-1.5-.62-2.4-.62s-1.7.21-2.41.62-1.27.99-1.68,1.73-.61,1.59-.61,2.57.2,1.84.61,2.58.97,1.32,1.68,1.73c.71.41,1.52.61,2.41.61Z"/>
        <path class="cls-3" d="M1182.04,447.04l-4.75-12.6h1.63l4.32,11.69h-.74l4.44-11.69h1.46l4.39,11.69h-.74l4.39-11.69h1.56l-4.78,12.6h-1.61l-4.22-10.99h.5l-4.25,10.99h-1.61Z"/>
        <path class="cls-3" d="M1201.43,431.66c-.35,0-.65-.12-.89-.36-.24-.24-.36-.53-.36-.86s.12-.62.36-.85.54-.35.89-.35.65.11.89.34c.24.22.36.5.36.84s-.12.65-.35.89c-.23.24-.53.36-.9.36ZM1200.57,447.04v-12.6h1.7v12.6h-1.7Z"/>
        <path class="cls-3" d="M1207.03,447.04v-17.81h1.7v17.81h-1.7Z"/>
        <path class="cls-3" d="M1213.48,447.04v-17.81h1.7v17.81h-1.7Z"/>
        <path class="cls-3" d="M780.87,475.96c-1.04,0-2.02-.15-2.95-.44-.93-.3-1.66-.67-2.18-1.12l.77-1.34c.51.38,1.17.72,1.97,1,.8.28,1.64.42,2.52.42,1.2,0,2.06-.19,2.59-.56.53-.38.79-.88.79-1.5,0-.46-.15-.83-.44-1.09s-.68-.46-1.16-.6c-.48-.14-1.02-.25-1.61-.35-.59-.1-1.18-.21-1.76-.34-.58-.13-1.12-.32-1.6-.56-.48-.25-.87-.59-1.16-1.02s-.44-1.01-.44-1.73.19-1.3.58-1.85c.38-.54.95-.97,1.69-1.28s1.65-.47,2.72-.47c.82,0,1.63.11,2.45.32.82.22,1.49.5,2.02.85l-.74,1.37c-.56-.38-1.16-.66-1.8-.83-.64-.17-1.28-.25-1.92-.25-1.14,0-1.97.2-2.51.59s-.8.89-.8,1.5c0,.48.15.86.44,1.13.3.27.69.48,1.18.64.49.15,1.02.28,1.61.37.58.1,1.17.21,1.75.35.58.14,1.12.32,1.61.55s.88.56,1.18.98c.3.42.44.98.44,1.67,0,.74-.2,1.37-.61,1.91-.41.54-1,.95-1.78,1.25-.78.3-1.72.44-2.82.44Z"/>
        <path class="cls-3" d="M787.23,464.66v-1.42h7.8v1.42h-7.8ZM793.18,475.96c-1.18,0-2.1-.32-2.74-.96-.64-.64-.96-1.54-.96-2.71v-11.83h1.7v11.74c0,.74.19,1.3.56,1.7s.92.6,1.62.6c.75,0,1.38-.22,1.87-.65l.6,1.22c-.34.3-.74.53-1.21.67s-.96.22-1.45.22Z"/>
        <path class="cls-3" d="M802.01,475.96c-.94,0-1.76-.16-2.46-.47s-1.23-.74-1.6-1.3c-.37-.55-.55-1.19-.55-1.91,0-.66.16-1.25.47-1.79.31-.54.82-.97,1.54-1.3.71-.33,1.67-.49,2.87-.49h4.34v1.27h-4.3c-1.22,0-2.06.22-2.53.65-.47.43-.71.97-.71,1.61,0,.72.28,1.3.84,1.73.56.43,1.34.65,2.35.65s1.79-.22,2.48-.66,1.2-1.08,1.52-1.91l.38,1.18c-.32.83-.88,1.5-1.67,1.99-.79.5-1.79.74-2.99.74ZM806.35,475.84v-2.78l-.07-.46v-4.66c0-1.07-.3-1.9-.9-2.47-.6-.58-1.49-.86-2.68-.86-.82,0-1.59.14-2.33.41-.74.27-1.36.63-1.87,1.08l-.77-1.27c.64-.54,1.41-.96,2.3-1.26.9-.3,1.84-.44,2.83-.44,1.63,0,2.89.4,3.78,1.21.89.81,1.33,2.04,1.33,3.68v7.82h-1.63Z"/>
        <path class="cls-3" d="M812.62,475.84v-12.6h1.63v3.43l-.17-.6c.35-.96.94-1.69,1.78-2.2.83-.5,1.86-.76,3.1-.76v1.66c-.06,0-.13,0-.19-.01-.06,0-.13-.01-.19-.01-1.33,0-2.37.4-3.12,1.21-.75.81-1.13,1.96-1.13,3.44v6.43h-1.7Z"/>
        <path class="cls-3" d="M820.63,464.66v-1.42h7.8v1.42h-7.8ZM826.58,475.96c-1.18,0-2.1-.32-2.74-.96-.64-.64-.96-1.54-.96-2.71v-11.83h1.7v11.74c0,.74.19,1.3.56,1.7s.92.6,1.62.6c.75,0,1.38-.22,1.87-.65l.6,1.22c-.34.3-.74.53-1.21.67s-.96.22-1.45.22Z"/>
        <path class="cls-3" d="M832.75,475.96c-.35,0-.65-.13-.9-.38-.25-.26-.37-.57-.37-.94s.12-.7.37-.94c.25-.24.55-.36.9-.36s.65.12.9.36c.25.24.37.55.37.94s-.12.68-.37.94c-.25.26-.55.38-.9.38Z"/>
        <path class="cls-3" d="M848.95,475.99c-1.25,0-2.44-.2-3.59-.61-1.14-.41-2.03-.93-2.65-1.57l.7-1.37c.59.58,1.39,1.06,2.39,1.45,1,.39,2.05.59,3.16.59s1.92-.13,2.58-.4c.66-.26,1.15-.62,1.46-1.07.31-.45.47-.94.47-1.49,0-.66-.19-1.18-.56-1.58s-.87-.72-1.48-.95c-.61-.23-1.28-.44-2.02-.61-.74-.18-1.47-.36-2.21-.56-.74-.2-1.41-.47-2.03-.8-.62-.34-1.11-.78-1.49-1.33-.38-.55-.56-1.28-.56-2.17,0-.83.22-1.6.66-2.29.44-.7,1.12-1.26,2.03-1.68.91-.42,2.08-.64,3.5-.64.94,0,1.88.13,2.81.4.93.26,1.73.63,2.4,1.09l-.6,1.42c-.72-.48-1.48-.83-2.29-1.06-.81-.22-1.59-.34-2.34-.34-1.01,0-1.84.14-2.5.41-.66.27-1.14.64-1.45,1.09-.31.46-.47.97-.47,1.55,0,.66.19,1.18.56,1.58s.87.71,1.49.94c.62.22,1.29.42,2.03.6.74.18,1.47.37,2.2.58.73.21,1.4.48,2.02.8.62.33,1.11.76,1.49,1.31.38.54.56,1.26.56,2.14,0,.82-.22,1.57-.67,2.27-.45.7-1.13,1.26-2.05,1.68-.92.42-2.1.64-3.54.64Z"/>
        <path class="cls-3" d="M856.75,464.66v-1.42h7.8v1.42h-7.8ZM862.7,475.96c-1.18,0-2.1-.32-2.74-.96-.64-.64-.96-1.54-.96-2.71v-11.83h1.7v11.74c0,.74.19,1.3.56,1.7s.92.6,1.62.6c.75,0,1.38-.22,1.87-.65l.6,1.22c-.34.3-.74.53-1.21.67s-.96.22-1.45.22Z"/>
        <path class="cls-3" d="M871.54,475.96c-.94,0-1.76-.16-2.46-.47s-1.23-.74-1.6-1.3c-.37-.55-.55-1.19-.55-1.91,0-.66.16-1.25.47-1.79.31-.54.82-.97,1.54-1.3.71-.33,1.67-.49,2.87-.49h4.34v1.27h-4.3c-1.22,0-2.06.22-2.53.65-.47.43-.71.97-.71,1.61,0,.72.28,1.3.84,1.73.56.43,1.34.65,2.35.65s1.79-.22,2.48-.66,1.2-1.08,1.52-1.91l.38,1.18c-.32.83-.88,1.5-1.67,1.99-.79.5-1.79.74-2.99.74ZM875.88,475.84v-2.78l-.07-.46v-4.66c0-1.07-.3-1.9-.9-2.47-.6-.58-1.49-.86-2.68-.86-.82,0-1.59.14-2.33.41-.74.27-1.36.63-1.87,1.08l-.77-1.27c.64-.54,1.41-.96,2.3-1.26.9-.3,1.84-.44,2.83-.44,1.63,0,2.89.4,3.78,1.21.89.81,1.33,2.04,1.33,3.68v7.82h-1.63Z"/>
        <path class="cls-3" d="M887.38,475.96c-1.25,0-2.36-.28-3.35-.83-.98-.55-1.76-1.31-2.32-2.28-.56-.97-.84-2.08-.84-3.32s.28-2.38.84-3.34c.56-.96,1.33-1.71,2.32-2.26s2.1-.82,3.35-.82c1.07,0,2.04.21,2.9.62.86.42,1.54,1.04,2.04,1.87l-1.27.86c-.43-.64-.97-1.11-1.61-1.42-.64-.3-1.34-.46-2.09-.46-.9,0-1.7.2-2.42.61-.72.41-1.29.98-1.7,1.72-.42.74-.62,1.6-.62,2.59s.21,1.86.62,2.59c.42.74.98,1.31,1.7,1.72.72.41,1.53.61,2.42.61.75,0,1.45-.15,2.09-.46.64-.3,1.18-.77,1.61-1.39l1.27.86c-.5.82-1.18,1.44-2.04,1.86-.86.42-1.83.64-2.9.64Z"/>
        <path class="cls-3" d="M895.46,475.84v-17.81h1.7v17.81h-1.7ZM896.81,472.58l.05-2.18,7.85-7.15h2.09l-5.54,5.3-.96.82-3.48,3.22ZM905.23,475.84l-5.26-6.55,1.1-1.32,6.24,7.87h-2.09Z"/>
        <path class="cls-3" d="M916.1,475.84v-17.81h1.7v17.81h-1.7Z"/>
        <path class="cls-3" d="M926.11,475.96c-.94,0-1.76-.16-2.46-.47s-1.23-.74-1.6-1.3c-.37-.55-.55-1.19-.55-1.91,0-.66.16-1.25.47-1.79.31-.54.82-.97,1.54-1.3.71-.33,1.67-.49,2.87-.49h4.34v1.27h-4.3c-1.22,0-2.06.22-2.53.65-.47.43-.71.97-.71,1.61,0,.72.28,1.3.84,1.73.56.43,1.34.65,2.35.65s1.79-.22,2.48-.66,1.2-1.08,1.52-1.91l.38,1.18c-.32.83-.88,1.5-1.67,1.99-.79.5-1.79.74-2.99.74ZM930.45,475.84v-2.78l-.07-.46v-4.66c0-1.07-.3-1.9-.9-2.47-.6-.58-1.49-.86-2.68-.86-.82,0-1.59.14-2.33.41-.74.27-1.36.63-1.87,1.08l-.77-1.27c.64-.54,1.41-.96,2.3-1.26.9-.3,1.84-.44,2.83-.44,1.63,0,2.89.4,3.78,1.21.89.81,1.33,2.04,1.33,3.68v7.82h-1.63Z"/>
        <path class="cls-3" d="M936.36,480.62c-.59,0-1.16-.1-1.69-.29-.54-.19-1-.48-1.38-.86l.79-1.27c.32.3.67.54,1.04.71s.8.25,1.26.25c.56,0,1.04-.16,1.45-.47.41-.31.8-.86,1.16-1.64l.82-1.85.19-.26,5.18-11.69h1.68l-6.31,14.11c-.35.82-.74,1.46-1.16,1.94s-.88.82-1.38,1.02c-.5.2-1.05.3-1.66.3ZM939.72,476.2l-5.81-12.96h1.78l5.14,11.57-1.1,1.39Z"/>
        <path class="cls-3" d="M954.26,475.96c-1.31,0-2.46-.28-3.46-.83-.99-.55-1.77-1.31-2.33-2.28-.56-.97-.84-2.08-.84-3.32s.27-2.35.8-3.31c.54-.96,1.27-1.72,2.21-2.27.94-.55,1.99-.83,3.16-.83s2.24.27,3.16.8c.92.54,1.64,1.29,2.17,2.26.53.97.79,2.08.79,3.35,0,.08,0,.16-.01.25,0,.09-.01.18-.01.28h-10.97v-1.27h10.06l-.67.5c0-.91-.2-1.72-.59-2.44-.39-.71-.92-1.27-1.6-1.67s-1.45-.6-2.33-.6-1.64.2-2.33.6c-.69.4-1.22.96-1.61,1.68-.38.72-.58,1.54-.58,2.47v.26c0,.96.21,1.8.64,2.53s1.02,1.3,1.78,1.7c.76.41,1.63.61,2.6.61.77,0,1.48-.14,2.15-.41s1.24-.69,1.72-1.25l.96,1.1c-.56.67-1.26,1.18-2.1,1.54-.84.35-1.76.53-2.77.53Z"/>
        <path class="cls-3" d="M963.41,475.84v-12.6h1.63v3.43l-.17-.6c.35-.96.94-1.69,1.78-2.2.83-.5,1.86-.76,3.1-.76v1.66c-.06,0-.13,0-.19-.01-.06,0-.13-.01-.19-.01-1.33,0-2.37.4-3.12,1.21-.75.81-1.13,1.96-1.13,3.44v6.43h-1.7Z"/>
        <path class="cls-3" d="M976.37,475.96c-1.04,0-2.02-.15-2.95-.44-.93-.3-1.66-.67-2.18-1.12l.77-1.34c.51.38,1.17.72,1.97,1,.8.28,1.64.42,2.52.42,1.2,0,2.06-.19,2.59-.56.53-.38.79-.88.79-1.5,0-.46-.15-.83-.44-1.09s-.68-.46-1.16-.6c-.48-.14-1.02-.25-1.61-.35-.59-.1-1.18-.21-1.76-.34-.58-.13-1.12-.32-1.6-.56-.48-.25-.87-.59-1.16-1.02-.3-.43-.44-1.01-.44-1.73s.19-1.3.58-1.85.95-.97,1.69-1.28c.74-.31,1.65-.47,2.72-.47.82,0,1.63.11,2.45.32.82.22,1.49.5,2.02.85l-.74,1.37c-.56-.38-1.16-.66-1.8-.83s-1.28-.25-1.92-.25c-1.14,0-1.97.2-2.51.59s-.8.89-.8,1.5c0,.48.15.86.44,1.13.3.27.69.48,1.18.64s1.02.28,1.61.37c.58.1,1.17.21,1.75.35.58.14,1.12.32,1.61.55.49.23.88.56,1.18.98.3.42.44.98.44,1.67,0,.74-.2,1.37-.61,1.91s-1,.95-1.78,1.25c-.78.3-1.72.44-2.82.44Z"/>
        <path class="cls-3" d="M989.01,464.66v-1.42h7.8v1.42h-7.8ZM994.97,475.96c-1.18,0-2.1-.32-2.74-.96s-.96-1.54-.96-2.71v-11.83h1.7v11.74c0,.74.19,1.3.56,1.7.38.4.92.6,1.62.6.75,0,1.38-.22,1.87-.65l.6,1.22c-.34.3-.74.53-1.21.67-.47.14-.96.22-1.45.22Z"/>
        <path class="cls-3" d="M1005.41,475.96c-1.22,0-2.31-.28-3.28-.83-.97-.55-1.73-1.31-2.29-2.28-.56-.97-.84-2.08-.84-3.32s.28-2.38.84-3.34c.56-.96,1.32-1.71,2.28-2.26s2.06-.82,3.29-.82,2.36.27,3.32.82c.97.54,1.73,1.3,2.28,2.26.55.96.83,2.07.83,3.34s-.28,2.36-.83,3.32c-.55.97-1.32,1.73-2.29,2.28-.98.55-2.08.83-3.31.83ZM1005.41,474.45c.91,0,1.72-.2,2.42-.61.7-.41,1.26-.98,1.67-1.73s.61-1.6.61-2.58-.2-1.86-.61-2.59-.96-1.31-1.67-1.72c-.7-.41-1.5-.61-2.4-.61s-1.7.2-2.4.61c-.7.41-1.26.98-1.68,1.72-.42.74-.62,1.6-.62,2.59s.21,1.84.62,2.58c.42.74.98,1.32,1.68,1.73.7.41,1.5.61,2.38.61Z"/>
        <path class="cls-3" d="M1019.64,464.66v-1.42h7.8v1.42h-7.8ZM1021.89,475.84v-14.18c0-1.12.33-2.02.98-2.71s1.6-1.03,2.83-1.03c.48,0,.94.06,1.39.19.45.13.82.33,1.13.6l-.58,1.27c-.24-.21-.52-.36-.84-.47-.32-.1-.66-.16-1.03-.16-.72,0-1.27.2-1.66.6-.38.4-.58.99-.58,1.78v1.92l.05.79v11.4h-1.7Z"/>
        <path class="cls-3" d="M1034.66,475.96c-1.22,0-2.31-.28-3.28-.83-.97-.55-1.73-1.31-2.29-2.28-.56-.97-.84-2.08-.84-3.32s.28-2.38.84-3.34c.56-.96,1.32-1.71,2.28-2.26s2.06-.82,3.29-.82,2.36.27,3.32.82c.97.54,1.73,1.3,2.28,2.26.55.96.83,2.07.83,3.34s-.28,2.36-.83,3.32c-.55.97-1.32,1.73-2.29,2.28-.98.55-2.08.83-3.31.83ZM1034.66,474.45c.91,0,1.72-.2,2.42-.61.7-.41,1.26-.98,1.67-1.73s.61-1.6.61-2.58-.2-1.86-.61-2.59-.96-1.31-1.67-1.72c-.7-.41-1.5-.61-2.4-.61s-1.7.2-2.4.61c-.7.41-1.26.98-1.68,1.72-.42.74-.62,1.6-.62,2.59s.21,1.84.62,2.58c.42.74.98,1.32,1.68,1.73.7.41,1.5.61,2.38.61Z"/>
        <path class="cls-3" d="M1044.57,475.84v-12.6h1.63v3.43l-.17-.6c.35-.96.94-1.69,1.78-2.2.83-.5,1.86-.76,3.1-.76v1.66c-.06,0-.13,0-.19-.01-.06,0-.13-.01-.19-.01-1.33,0-2.37.4-3.12,1.21-.75.81-1.13,1.96-1.13,3.44v6.43h-1.7Z"/>
        <path class="cls-3" d="M1054,475.84v-12.6h1.63v3.41l-.26-.6c.38-.91,1-1.63,1.86-2.15.86-.52,1.87-.78,3.04-.78,1.23,0,2.28.31,3.14.92.86.62,1.42,1.54,1.68,2.77l-.67-.26c.37-1.02,1.02-1.85,1.96-2.48.94-.63,2.06-.95,3.37-.95,1.02,0,1.92.2,2.68.59.76.39,1.35.99,1.78,1.79.42.8.64,1.81.64,3.02v7.32h-1.7v-7.15c0-1.33-.32-2.33-.95-3.01-.63-.68-1.52-1.02-2.68-1.02-.86,0-1.61.18-2.24.54s-1.12.88-1.46,1.56c-.34.68-.52,1.5-.52,2.46v6.62h-1.7v-7.15c0-1.33-.32-2.33-.96-3.01-.64-.68-1.54-1.02-2.69-1.02-.85,0-1.59.18-2.23.54-.64.36-1.13.88-1.48,1.56-.34.68-.52,1.5-.52,2.46v6.62h-1.7Z"/>
        <path class="cls-3" d="M1089.31,475.96c-.94,0-1.76-.16-2.46-.47-.7-.31-1.23-.74-1.6-1.3-.37-.55-.55-1.19-.55-1.91,0-.66.16-1.25.47-1.79.31-.54.82-.97,1.54-1.3.71-.33,1.67-.49,2.87-.49h4.34v1.27h-4.3c-1.22,0-2.06.22-2.53.65s-.71.97-.71,1.61c0,.72.28,1.3.84,1.73.56.43,1.34.65,2.35.65s1.79-.22,2.48-.66c.7-.44,1.2-1.08,1.52-1.91l.38,1.18c-.32.83-.88,1.5-1.67,1.99-.79.5-1.79.74-2.99.74ZM1093.65,475.84v-2.78l-.07-.46v-4.66c0-1.07-.3-1.9-.9-2.47-.6-.58-1.49-.86-2.68-.86-.82,0-1.59.14-2.33.41-.74.27-1.36.63-1.87,1.08l-.77-1.27c.64-.54,1.41-.96,2.3-1.26.9-.3,1.84-.44,2.83-.44,1.63,0,2.89.4,3.78,1.21s1.33,2.04,1.33,3.68v7.82h-1.63Z"/>
        <path class="cls-3" d="M1109.59,475.96c-1.04,0-2.02-.15-2.95-.44-.93-.3-1.66-.67-2.18-1.12l.77-1.34c.51.38,1.17.72,1.97,1,.8.28,1.64.42,2.52.42,1.2,0,2.06-.19,2.59-.56.53-.38.79-.88.79-1.5,0-.46-.15-.83-.44-1.09s-.68-.46-1.16-.6c-.48-.14-1.02-.25-1.61-.35-.59-.1-1.18-.21-1.76-.34-.58-.13-1.12-.32-1.6-.56-.48-.25-.87-.59-1.16-1.02-.3-.43-.44-1.01-.44-1.73s.19-1.3.58-1.85.95-.97,1.69-1.28c.74-.31,1.65-.47,2.72-.47.82,0,1.63.11,2.45.32.82.22,1.49.5,2.02.85l-.74,1.37c-.56-.38-1.16-.66-1.8-.83s-1.28-.25-1.92-.25c-1.14,0-1.97.2-2.51.59s-.8.89-.8,1.5c0,.48.15.86.44,1.13.3.27.69.48,1.18.64s1.02.28,1.61.37c.58.1,1.17.21,1.75.35.58.14,1.12.32,1.61.55.49.23.88.56,1.18.98.3.42.44.98.44,1.67,0,.74-.2,1.37-.61,1.91s-1,.95-1.78,1.25c-.78.3-1.72.44-2.82.44Z"/>
        <path class="cls-3" d="M1123.05,475.96c-1.22,0-2.31-.28-3.28-.83-.97-.55-1.73-1.31-2.29-2.28-.56-.97-.84-2.08-.84-3.32s.28-2.38.84-3.34c.56-.96,1.32-1.71,2.28-2.26s2.06-.82,3.29-.82,2.36.27,3.32.82,1.73,1.3,2.28,2.26.83,2.07.83,3.34-.28,2.36-.83,3.32-1.32,1.73-2.29,2.28c-.98.55-2.08.83-3.31.83ZM1123.05,474.45c.91,0,1.72-.2,2.42-.61.7-.41,1.26-.98,1.67-1.73s.61-1.6.61-2.58-.2-1.86-.61-2.59-.96-1.31-1.67-1.72c-.7-.41-1.5-.61-2.4-.61s-1.7.2-2.4.61c-.71.41-1.26.98-1.68,1.72s-.62,1.6-.62,2.59.21,1.84.62,2.58.98,1.32,1.68,1.73c.7.41,1.5.61,2.38.61Z"/>
        <path class="cls-3" d="M1132.96,475.84v-12.6h1.63v3.46l-.26-.65c.4-.91,1.04-1.63,1.92-2.15s1.93-.78,3.14-.78c1.02,0,1.92.2,2.7.59.78.39,1.38.99,1.82,1.79.44.8.66,1.81.66,3.02v7.32h-1.7v-7.15c0-1.33-.33-2.33-1-3.01-.66-.68-1.6-1.02-2.8-1.02-.9,0-1.68.18-2.34.54s-1.18.88-1.54,1.56c-.36.68-.54,1.5-.54,2.46v6.62h-1.7Z"/>
        <path class="cls-3" d="M1154.25,475.36c-1.2,0-2.28-.26-3.24-.78s-1.72-1.24-2.27-2.17c-.55-.93-.83-1.99-.83-3.19s.28-2.26.83-3.18c.55-.92,1.31-1.64,2.27-2.15.96-.51,2.04-.77,3.24-.77,1.12,0,2.13.23,3.02.7.9.46,1.61,1.15,2.14,2.06.53.91.79,2.02.79,3.34s-.26,2.42-.79,3.34c-.53.91-1.24,1.61-2.14,2.09-.9.48-1.9.72-3.02.72ZM1154.56,480.62c-1.15,0-2.26-.17-3.31-.5-1.06-.34-1.91-.82-2.57-1.44l.86-1.3c.59.53,1.32.95,2.2,1.26.87.31,1.8.47,2.77.47,1.6,0,2.78-.37,3.53-1.12s1.13-1.9,1.13-3.47v-3.14l.24-2.16-.17-2.16v-3.82h1.63v11.06c0,2.18-.53,3.77-1.6,4.79-1.06,1.02-2.64,1.52-4.72,1.52ZM1154.42,473.85c.93,0,1.75-.2,2.47-.59.72-.39,1.29-.94,1.7-1.63.42-.7.62-1.5.62-2.41s-.21-1.71-.62-2.4-.98-1.23-1.7-1.62c-.72-.39-1.54-.59-2.47-.59s-1.73.2-2.46.59c-.73.39-1.3.93-1.7,1.62s-.61,1.49-.61,2.4.2,1.72.61,2.41c.41.7.98,1.24,1.7,1.63.73.39,1.55.59,2.46.59Z"/>
        <path class="cls-3" d="M1165.8,475.96c-.35,0-.65-.13-.9-.38-.25-.26-.37-.57-.37-.94s.12-.7.37-.94c.25-.24.55-.36.9-.36s.65.12.9.36c.25.24.37.55.37.94s-.12.68-.37.94c-.25.26-.55.38-.9.38Z"/>
      </g>
      <g class="cls-6">
        <path class="cls-3" d="M245.83,393.04v-24.88h13.07c4.3,0,7.45.7,9.47,2.11s3.02,3.83,3.02,7.29c0,2.76-.77,4.82-2.3,6.19-1.32,1.18-3.46,1.91-6.41,2.2-1.25.12-2.74.18-4.46.18v6.91h-12.38ZM258.21,382.35h1.04c.29,0,.53-.1.72-.29s.29-.44.29-.76v-1.66c0-.31-.1-.56-.29-.74-.19-.18-.43-.27-.72-.27h-1.04v3.71Z"/>
        <path class="cls-3" d="M272.97,387.75v-21.53h10.8v17.57h.76v8.86c-1.27.5-3.04.76-5.31.76s-3.88-.47-4.82-1.4c-.95-.94-1.42-2.35-1.42-4.25Z"/>
        <path class="cls-3" d="M307.24,379.44l-.18,4.43.9-.04v8.17c-.43.36-1.18.68-2.23.97-1.06.29-2.05.43-2.99.43s-1.68-.08-2.23-.25c-.55-.17-.96-.35-1.22-.56-.26-.2-.47-.44-.61-.7-.22-.38-.32-.71-.32-.97-1.32,1.66-3.42,2.48-6.3,2.48-3.96,0-5.94-1.68-5.94-5.04,0-2.02.77-3.45,2.3-4.3,1.54-.85,4.22-1.36,8.06-1.53,0-.84-.92-1.26-2.77-1.26-1.25,0-2.44.16-3.58.47-1.14.31-1.96.62-2.47.94l-.79.47v-9.47c.22-.17.54-.38.97-.63s1.45-.59,3.06-1.01c1.61-.42,3.37-.63,5.29-.63,3.84,0,6.64.65,8.41,1.94,1.76,1.3,2.65,3.32,2.65,6.08ZM297.06,385.16v-1.44l-2.05.58v.86c0,.31.1.56.31.76.2.19.46.29.76.29s.54-.1.72-.29c.18-.19.27-.44.27-.76Z"/>
        <path class="cls-3" d="M319.63,384.66h.94l.65-12.89h10.01l-3.17,24.62h-11.38l.79-3.71c-2.06,0-3.57-.32-4.52-.95-.95-.64-1.54-1.72-1.78-3.26l-2.52-16.7h10.26l.72,12.89Z"/>
        <path class="cls-3" d="M254.89,447.19c-1.28,0-2.46-.21-3.54-.64-1.08-.42-2.02-1.02-2.81-1.79-.79-.77-1.41-1.67-1.85-2.71-.44-1.04-.66-2.18-.66-3.41s.22-2.37.66-3.41c.44-1.04,1.06-1.94,1.86-2.71.8-.77,1.74-1.36,2.82-1.79,1.08-.42,2.26-.64,3.54-.64s2.45.2,3.52.6c1.06.4,1.97,1.01,2.72,1.82l-1.1,1.13c-.7-.7-1.48-1.21-2.33-1.51-.85-.3-1.76-.46-2.74-.46-1.04,0-2,.17-2.87.52-.87.34-1.63.83-2.28,1.46-.65.63-1.15,1.37-1.51,2.21-.36.84-.54,1.76-.54,2.77s.18,1.91.54,2.76c.36.85.86,1.59,1.51,2.22.65.63,1.41,1.12,2.28,1.46.87.34,1.82.52,2.84.52.96,0,1.87-.14,2.72-.43s1.64-.78,2.36-1.46l1.01,1.34c-.8.7-1.74,1.24-2.81,1.6s-2.19.54-3.36.54ZM261.06,445.05l-1.7-.22v-6.19h1.7v6.41Z"/>
        <path class="cls-3" d="M265.71,447.04v-12.6h1.63v3.43l-.17-.6c.35-.96.94-1.69,1.78-2.2.83-.5,1.86-.76,3.1-.76v1.66c-.06,0-.13,0-.19-.01-.06,0-.13-.01-.19-.01-1.33,0-2.37.4-3.12,1.21-.75.81-1.13,1.96-1.13,3.44v6.43h-1.7Z"/>
        <path class="cls-3" d="M280.38,447.16c-1.31,0-2.46-.28-3.46-.83-.99-.55-1.77-1.31-2.33-2.28s-.84-2.08-.84-3.32.27-2.35.8-3.31c.54-.96,1.27-1.72,2.21-2.27.94-.55,1.99-.83,3.16-.83s2.24.27,3.16.8c.92.54,1.64,1.29,2.17,2.26.53.97.79,2.08.79,3.35,0,.08,0,.16-.01.25,0,.09-.01.18-.01.28h-10.97v-1.27h10.06l-.67.5c0-.91-.2-1.72-.59-2.44s-.92-1.27-1.6-1.67-1.45-.6-2.33-.6-1.64.2-2.33.6-1.22.96-1.61,1.68c-.38.72-.58,1.54-.58,2.47v.26c0,.96.21,1.8.64,2.53.42.73,1.02,1.3,1.78,1.7.76.41,1.63.61,2.6.61.77,0,1.48-.14,2.15-.41s1.24-.69,1.72-1.25l.96,1.1c-.56.67-1.26,1.18-2.1,1.54-.84.35-1.76.53-2.77.53Z"/>
        <path class="cls-3" d="M294.87,447.16c-1.31,0-2.46-.28-3.46-.83-.99-.55-1.77-1.31-2.33-2.28s-.84-2.08-.84-3.32.27-2.35.8-3.31c.54-.96,1.27-1.72,2.21-2.27.94-.55,1.99-.83,3.16-.83s2.24.27,3.16.8c.92.54,1.64,1.29,2.17,2.26.53.97.79,2.08.79,3.35,0,.08,0,.16-.01.25,0,.09-.01.18-.01.28h-10.97v-1.27h10.06l-.67.5c0-.91-.2-1.72-.59-2.44s-.92-1.27-1.6-1.67-1.45-.6-2.33-.6-1.64.2-2.33.6-1.22.96-1.61,1.68c-.38.72-.58,1.54-.58,2.47v.26c0,.96.21,1.8.64,2.53.42.73,1.02,1.3,1.78,1.7.76.41,1.63.61,2.6.61.77,0,1.48-.14,2.15-.41s1.24-.69,1.72-1.25l.96,1.1c-.56.67-1.26,1.18-2.1,1.54-.84.35-1.76.53-2.77.53Z"/>
        <path class="cls-3" d="M304.02,447.04v-12.6h1.63v3.46l-.26-.65c.4-.91,1.04-1.63,1.92-2.15.88-.52,1.93-.78,3.14-.78,1.02,0,1.92.2,2.7.59s1.38.99,1.82,1.79c.44.8.66,1.81.66,3.02v7.32h-1.7v-7.15c0-1.33-.33-2.33-1-3.01-.66-.68-1.6-1.02-2.8-1.02-.9,0-1.68.18-2.34.54s-1.18.88-1.54,1.56c-.36.68-.54,1.5-.54,2.46v6.62h-1.7Z"/>
        <path class="cls-3" d="M331.76,447.16c-1.25,0-2.36-.28-3.35-.83-.98-.55-1.76-1.31-2.32-2.28s-.84-2.08-.84-3.32.28-2.38.84-3.34,1.33-1.71,2.32-2.26c.98-.54,2.1-.82,3.35-.82,1.07,0,2.04.21,2.9.62.86.42,1.54,1.04,2.04,1.87l-1.27.86c-.43-.64-.97-1.11-1.61-1.42-.64-.3-1.34-.46-2.09-.46-.9,0-1.7.2-2.42.61-.72.41-1.29.98-1.7,1.72-.42.74-.62,1.6-.62,2.59s.21,1.86.62,2.59c.42.74.98,1.31,1.7,1.72.72.41,1.53.61,2.42.61.75,0,1.45-.15,2.09-.46.64-.3,1.18-.77,1.61-1.39l1.27.86c-.5.82-1.18,1.44-2.04,1.86-.86.42-1.83.64-2.9.64Z"/>
        <path class="cls-3" d="M344.96,447.16c-1.22,0-2.31-.28-3.28-.83-.97-.55-1.73-1.31-2.29-2.28s-.84-2.08-.84-3.32.28-2.38.84-3.34,1.32-1.71,2.28-2.26,2.06-.82,3.29-.82,2.36.27,3.32.82c.97.54,1.73,1.3,2.28,2.26.55.96.83,2.07.83,3.34s-.28,2.36-.83,3.32c-.55.97-1.32,1.73-2.29,2.28-.98.55-2.08.83-3.31.83ZM344.96,445.65c.91,0,1.72-.2,2.42-.61.7-.41,1.26-.98,1.67-1.73s.61-1.6.61-2.58-.2-1.86-.61-2.59-.96-1.31-1.67-1.72c-.7-.41-1.5-.61-2.4-.61s-1.7.2-2.4.61c-.7.41-1.26.98-1.68,1.72-.42.74-.62,1.6-.62,2.59s.21,1.84.62,2.58c.42.74.98,1.32,1.68,1.73.7.41,1.5.61,2.38.61Z"/>
        <path class="cls-3" d="M354.87,447.04v-17.81h1.7v17.81h-1.7Z"/>
        <path class="cls-3" d="M366.46,447.16c-1.22,0-2.31-.28-3.28-.83-.97-.55-1.73-1.31-2.29-2.28s-.84-2.08-.84-3.32.28-2.38.84-3.34,1.32-1.71,2.28-2.26,2.06-.82,3.29-.82,2.36.27,3.32.82c.97.54,1.73,1.3,2.28,2.26.55.96.83,2.07.83,3.34s-.28,2.36-.83,3.32c-.55.97-1.32,1.73-2.29,2.28-.98.55-2.08.83-3.31.83ZM366.46,445.65c.91,0,1.72-.2,2.42-.61.7-.41,1.26-.98,1.67-1.73s.61-1.6.61-2.58-.2-1.86-.61-2.59-.96-1.31-1.67-1.72c-.7-.41-1.5-.61-2.4-.61s-1.7.2-2.4.61c-.7.41-1.26.98-1.68,1.72-.42.74-.62,1.6-.62,2.59s.21,1.84.62,2.58c.42.74.98,1.32,1.68,1.73.7.41,1.5.61,2.38.61Z"/>
        <path class="cls-3" d="M376.38,447.04v-12.6h1.63v3.43l-.17-.6c.35-.96.94-1.69,1.78-2.2.83-.5,1.86-.76,3.1-.76v1.66c-.06,0-.13,0-.19-.01-.06,0-.13-.01-.19-.01-1.33,0-2.37.4-3.12,1.21-.75.81-1.13,1.96-1.13,3.44v6.43h-1.7Z"/>
        <path class="cls-3" d="M393.15,431.66c-.35,0-.65-.12-.89-.36-.24-.24-.36-.53-.36-.86s.12-.62.36-.85c.24-.23.54-.35.89-.35s.65.11.89.34c.24.22.36.5.36.84s-.12.65-.35.89c-.23.24-.53.36-.9.36ZM392.29,447.04v-12.6h1.7v12.6h-1.7Z"/>
        <path class="cls-3" d="M398.74,447.04v-12.6h1.63v3.46l-.26-.65c.4-.91,1.04-1.63,1.92-2.15.88-.52,1.93-.78,3.14-.78,1.02,0,1.92.2,2.7.59s1.38.99,1.82,1.79c.44.8.66,1.81.66,3.02v7.32h-1.7v-7.15c0-1.33-.33-2.33-1-3.01-.66-.68-1.6-1.02-2.8-1.02-.9,0-1.68.18-2.34.54s-1.18.88-1.54,1.56c-.36.68-.54,1.5-.54,2.46v6.62h-1.7Z"/>
        <path class="cls-3" d="M419.98,447.16c-1.2,0-2.28-.27-3.23-.82-.95-.54-1.7-1.3-2.24-2.27-.54-.97-.82-2.08-.82-3.35s.27-2.4.82-3.36,1.29-1.71,2.24-2.24c.95-.54,2.03-.8,3.23-.8,1.1,0,2.09.25,2.96.74.87.5,1.57,1.22,2.09,2.17.52.95.78,2.12.78,3.49s-.26,2.52-.77,3.48c-.51.96-1.2,1.69-2.08,2.2-.87.5-1.87.76-2.99.76ZM420.1,445.65c.9,0,1.7-.2,2.41-.61.71-.41,1.27-.98,1.68-1.73s.61-1.6.61-2.58-.2-1.86-.61-2.59-.97-1.31-1.68-1.72c-.71-.41-1.52-.61-2.41-.61s-1.67.2-2.38.61c-.7.41-1.26.98-1.68,1.72-.42.74-.62,1.6-.62,2.59s.21,1.84.62,2.58c.42.74.98,1.32,1.68,1.73.7.41,1.5.61,2.38.61ZM424.85,447.04v-3.79l.17-2.54-.24-2.54v-8.93h1.7v17.81h-1.63Z"/>
        <path class="cls-3" d="M432.1,431.66c-.35,0-.65-.12-.89-.36-.24-.24-.36-.53-.36-.86s.12-.62.36-.85c.24-.23.54-.35.89-.35s.65.11.89.34c.24.22.36.5.36.84s-.12.65-.35.89c-.23.24-.53.36-.9.36ZM431.24,447.04v-12.6h1.7v12.6h-1.7Z"/>
        <path class="cls-3" d="M442.93,447.16c-1.25,0-2.36-.28-3.35-.83-.98-.55-1.76-1.31-2.32-2.28s-.84-2.08-.84-3.32.28-2.38.84-3.34,1.33-1.71,2.32-2.26c.98-.54,2.1-.82,3.35-.82,1.07,0,2.04.21,2.9.62.86.42,1.54,1.04,2.04,1.87l-1.27.86c-.43-.64-.97-1.11-1.61-1.42-.64-.3-1.34-.46-2.09-.46-.9,0-1.7.2-2.42.61-.72.41-1.29.98-1.7,1.72-.42.74-.62,1.6-.62,2.59s.21,1.86.62,2.59c.42.74.98,1.31,1.7,1.72.72.41,1.53.61,2.42.61.75,0,1.45-.15,2.09-.46.64-.3,1.18-.77,1.61-1.39l1.27.86c-.5.82-1.18,1.44-2.04,1.86-.86.42-1.83.64-2.9.64Z"/>
        <path class="cls-3" d="M454.76,447.16c-.94,0-1.76-.16-2.46-.47-.7-.31-1.23-.74-1.6-1.3-.37-.55-.55-1.19-.55-1.91,0-.66.16-1.25.47-1.79s.82-.97,1.54-1.3c.71-.33,1.67-.49,2.87-.49h4.34v1.27h-4.3c-1.22,0-2.06.22-2.53.65-.47.43-.71.97-.71,1.61,0,.72.28,1.3.84,1.73s1.34.65,2.35.65,1.79-.22,2.48-.66c.7-.44,1.2-1.08,1.52-1.91l.38,1.18c-.32.83-.88,1.5-1.67,1.99-.79.5-1.79.74-2.99.74ZM459.1,447.04v-2.78l-.07-.46v-4.66c0-1.07-.3-1.9-.9-2.47-.6-.58-1.49-.86-2.68-.86-.82,0-1.59.14-2.33.41-.74.27-1.36.63-1.87,1.08l-.77-1.27c.64-.54,1.41-.96,2.3-1.26s1.84-.44,2.83-.44c1.63,0,2.89.4,3.78,1.21.89.81,1.33,2.04,1.33,3.68v7.82h-1.63Z"/>
        <path class="cls-3" d="M463.4,435.86v-1.42h7.8v1.42h-7.8ZM469.35,447.16c-1.18,0-2.1-.32-2.74-.96-.64-.64-.96-1.54-.96-2.71v-11.83h1.7v11.74c0,.74.19,1.3.56,1.7.38.4.92.6,1.62.6.75,0,1.38-.22,1.87-.65l.6,1.22c-.34.3-.74.53-1.21.67-.47.14-.96.22-1.45.22Z"/>
        <path class="cls-3" d="M480.01,447.16c-1.31,0-2.46-.28-3.46-.83-.99-.55-1.77-1.31-2.33-2.28s-.84-2.08-.84-3.32.27-2.35.8-3.31c.54-.96,1.27-1.72,2.21-2.27.94-.55,1.99-.83,3.16-.83s2.24.27,3.16.8c.92.54,1.64,1.29,2.17,2.26.53.97.79,2.08.79,3.35,0,.08,0,.16-.01.25,0,.09-.01.18-.01.28h-10.97v-1.27h10.06l-.67.5c0-.91-.2-1.72-.59-2.44s-.92-1.27-1.6-1.67-1.45-.6-2.33-.6-1.64.2-2.33.6-1.22.96-1.61,1.68c-.38.72-.58,1.54-.58,2.47v.26c0,.96.21,1.8.64,2.53.42.73,1.02,1.3,1.78,1.7.76.41,1.63.61,2.6.61.77,0,1.48-.14,2.15-.41s1.24-.69,1.72-1.25l.96,1.1c-.56.67-1.26,1.18-2.1,1.54-.84.35-1.76.53-2.77.53Z"/>
        <path class="cls-3" d="M492.53,447.16c-1.04,0-2.02-.15-2.95-.44-.93-.3-1.66-.67-2.18-1.12l.77-1.34c.51.38,1.17.72,1.97,1,.8.28,1.64.42,2.52.42,1.2,0,2.06-.19,2.59-.56.53-.38.79-.88.79-1.5,0-.46-.15-.83-.44-1.09s-.68-.46-1.16-.6c-.48-.14-1.02-.25-1.61-.35-.59-.1-1.18-.21-1.76-.34-.58-.13-1.12-.32-1.6-.56-.48-.25-.87-.59-1.16-1.02-.3-.43-.44-1.01-.44-1.73s.19-1.3.58-1.85c.38-.54.95-.97,1.69-1.28.74-.31,1.65-.47,2.72-.47.82,0,1.63.11,2.45.32s1.49.5,2.02.85l-.74,1.37c-.56-.38-1.16-.66-1.8-.83-.64-.17-1.28-.25-1.92-.25-1.14,0-1.97.2-2.51.59s-.8.89-.8,1.5c0,.48.15.86.44,1.13.3.27.69.48,1.18.64.49.15,1.02.28,1.61.37.58.1,1.17.21,1.75.35.58.14,1.12.32,1.61.55.49.23.88.56,1.18.98.3.42.44.98.44,1.67,0,.74-.2,1.37-.61,1.91-.41.54-1,.95-1.78,1.25-.78.3-1.72.44-2.82.44Z"/>
        <path class="cls-3" d="M510.7,447.16c-.94,0-1.76-.16-2.46-.47-.7-.31-1.23-.74-1.6-1.3-.37-.55-.55-1.19-.55-1.91,0-.66.16-1.25.47-1.79s.82-.97,1.54-1.3c.71-.33,1.67-.49,2.87-.49h4.34v1.27h-4.3c-1.22,0-2.06.22-2.53.65-.47.43-.71.97-.71,1.61,0,.72.28,1.3.84,1.73s1.34.65,2.35.65,1.79-.22,2.48-.66c.7-.44,1.2-1.08,1.52-1.91l.38,1.18c-.32.83-.88,1.5-1.67,1.99-.79.5-1.79.74-2.99.74ZM515.04,447.04v-2.78l-.07-.46v-4.66c0-1.07-.3-1.9-.9-2.47-.6-.58-1.49-.86-2.68-.86-.82,0-1.59.14-2.33.41-.74.27-1.36.63-1.87,1.08l-.77-1.27c.64-.54,1.41-.96,2.3-1.26s1.84-.44,2.83-.44c1.63,0,2.89.4,3.78,1.21.89.81,1.33,2.04,1.33,3.68v7.82h-1.63Z"/>
        <path class="cls-3" d="M527.6,447.04v-17.81h1.7v17.81h-1.7Z"/>
        <path class="cls-3" d="M539.19,447.16c-1.22,0-2.31-.28-3.28-.83-.97-.55-1.73-1.31-2.29-2.28s-.84-2.08-.84-3.32.28-2.38.84-3.34,1.32-1.71,2.28-2.26,2.06-.82,3.29-.82,2.36.27,3.32.82c.97.54,1.73,1.3,2.28,2.26.55.96.83,2.07.83,3.34s-.28,2.36-.83,3.32c-.55.97-1.32,1.73-2.29,2.28-.98.55-2.08.83-3.31.83ZM539.19,445.65c.91,0,1.72-.2,2.42-.61.7-.41,1.26-.98,1.67-1.73s.61-1.6.61-2.58-.2-1.86-.61-2.59-.96-1.31-1.67-1.72c-.7-.41-1.5-.61-2.4-.61s-1.7.2-2.4.61c-.7.41-1.26.98-1.68,1.72-.42.74-.62,1.6-.62,2.59s.21,1.84.62,2.58c.42.74.98,1.32,1.68,1.73.7.41,1.5.61,2.38.61Z"/>
        <path class="cls-3" d="M554.24,447.16c-1.22,0-2.31-.28-3.28-.83-.97-.55-1.73-1.31-2.29-2.28s-.84-2.08-.84-3.32.28-2.38.84-3.34,1.32-1.71,2.28-2.26,2.06-.82,3.29-.82,2.36.27,3.32.82c.97.54,1.73,1.3,2.28,2.26.55.96.83,2.07.83,3.34s-.28,2.36-.83,3.32c-.55.97-1.32,1.73-2.29,2.28-.98.55-2.08.83-3.31.83ZM554.24,445.65c.91,0,1.72-.2,2.42-.61.7-.41,1.26-.98,1.67-1.73s.61-1.6.61-2.58-.2-1.86-.61-2.59-.96-1.31-1.67-1.72c-.7-.41-1.5-.61-2.4-.61s-1.7.2-2.4.61c-.7.41-1.26.98-1.68,1.72-.42.74-.62,1.6-.62,2.59s.21,1.84.62,2.58c.42.74.98,1.32,1.68,1.73.7.41,1.5.61,2.38.61Z"/>
        <path class="cls-3" d="M564.15,451.7v-17.26h1.63v3.79l-.17,2.52.24,2.54v8.4h-1.7ZM570.65,447.16c-1.09,0-2.07-.25-2.95-.76-.88-.5-1.58-1.23-2.1-2.18-.52-.95-.78-2.12-.78-3.49s.26-2.54.77-3.49c.51-.95,1.21-1.68,2.09-2.17.88-.5,1.87-.74,2.98-.74,1.2,0,2.28.27,3.23.8.95.54,1.7,1.29,2.24,2.26.54.97.82,2.08.82,3.35s-.27,2.4-.82,3.36c-.54.96-1.29,1.71-2.24,2.26-.95.54-2.03.82-3.23.82ZM570.53,445.65c.9,0,1.7-.2,2.4-.61.7-.41,1.26-.98,1.68-1.73s.62-1.6.62-2.58-.21-1.83-.62-2.57-.98-1.31-1.68-1.73c-.7-.42-1.5-.62-2.4-.62s-1.7.21-2.41.62c-.71.42-1.27.99-1.68,1.73s-.61,1.59-.61,2.57.2,1.84.61,2.58.97,1.32,1.68,1.73c.71.41,1.52.61,2.41.61Z"/>
        <path class="cls-3" d="M587.57,431.66c-.35,0-.65-.12-.89-.36-.24-.24-.36-.53-.36-.86s.12-.62.36-.85c.24-.23.54-.35.89-.35s.65.11.89.34c.24.22.36.5.36.84s-.12.65-.35.89c-.23.24-.53.36-.9.36ZM586.71,447.04v-12.6h1.7v12.6h-1.7Z"/>
        <path class="cls-3" d="M596.55,447.16c-1.04,0-2.02-.15-2.95-.44-.93-.3-1.66-.67-2.18-1.12l.77-1.34c.51.38,1.17.72,1.97,1,.8.28,1.64.42,2.52.42,1.2,0,2.06-.19,2.59-.56.53-.38.79-.88.79-1.5,0-.46-.15-.83-.44-1.09s-.68-.46-1.16-.6c-.48-.14-1.02-.25-1.61-.35-.59-.1-1.18-.21-1.76-.34-.58-.13-1.12-.32-1.6-.56-.48-.25-.87-.59-1.16-1.02-.3-.43-.44-1.01-.44-1.73s.19-1.3.58-1.85c.38-.54.95-.97,1.69-1.28.74-.31,1.65-.47,2.72-.47.82,0,1.63.11,2.45.32s1.49.5,2.02.85l-.74,1.37c-.56-.38-1.16-.66-1.8-.83-.64-.17-1.28-.25-1.92-.25-1.14,0-1.97.2-2.51.59s-.8.89-.8,1.5c0,.48.15.86.44,1.13.3.27.69.48,1.18.64.49.15,1.02.28,1.61.37.58.1,1.17.21,1.75.35.58.14,1.12.32,1.61.55.49.23.88.56,1.18.98.3.42.44.98.44,1.67,0,.74-.2,1.37-.61,1.91-.41.54-1,.95-1.78,1.25-.78.3-1.72.44-2.82.44Z"/>
        <path class="cls-3" d="M247.16,480.5v-17.26h1.63v3.79l-.17,2.52.24,2.54v8.4h-1.7ZM253.67,475.96c-1.09,0-2.07-.25-2.95-.76-.88-.5-1.58-1.23-2.1-2.18-.52-.95-.78-2.12-.78-3.49s.26-2.54.77-3.49c.51-.95,1.21-1.68,2.09-2.17.88-.5,1.87-.74,2.98-.74,1.2,0,2.28.27,3.23.8.95.54,1.7,1.29,2.24,2.26.54.97.82,2.08.82,3.35s-.27,2.4-.82,3.36c-.54.96-1.29,1.71-2.24,2.26-.95.54-2.03.82-3.23.82ZM253.54,474.45c.9,0,1.7-.2,2.4-.61.7-.41,1.26-.98,1.68-1.73s.62-1.6.62-2.58-.21-1.83-.62-2.57-.98-1.31-1.68-1.73c-.7-.42-1.5-.62-2.4-.62s-1.7.21-2.41.62c-.71.42-1.27.99-1.68,1.73s-.61,1.59-.61,2.57.2,1.84.61,2.58.97,1.32,1.68,1.73c.71.41,1.52.61,2.41.61Z"/>
        <path class="cls-3" d="M263.43,475.84v-17.81h1.7v17.81h-1.7Z"/>
        <path class="cls-3" d="M273.44,475.96c-.94,0-1.76-.16-2.46-.47-.7-.31-1.23-.74-1.6-1.3-.37-.55-.55-1.19-.55-1.91,0-.66.16-1.25.47-1.79s.82-.97,1.54-1.3c.71-.33,1.67-.49,2.87-.49h4.34v1.27h-4.3c-1.22,0-2.06.22-2.53.65-.47.43-.71.97-.71,1.61,0,.72.28,1.3.84,1.73s1.34.65,2.35.65,1.79-.22,2.48-.66c.7-.44,1.2-1.08,1.52-1.91l.38,1.18c-.32.83-.88,1.5-1.67,1.99-.79.5-1.79.74-2.99.74ZM277.79,475.84v-2.78l-.07-.46v-4.66c0-1.07-.3-1.9-.9-2.47-.6-.58-1.49-.86-2.68-.86-.82,0-1.59.14-2.33.41-.74.27-1.36.63-1.87,1.08l-.77-1.27c.64-.54,1.41-.96,2.3-1.26s1.84-.44,2.83-.44c1.63,0,2.89.4,3.78,1.21.89.81,1.33,2.04,1.33,3.68v7.82h-1.63Z"/>
        <path class="cls-3" d="M283.69,480.62c-.59,0-1.16-.1-1.69-.29-.54-.19-1-.48-1.38-.86l.79-1.27c.32.3.67.54,1.04.71s.8.25,1.26.25c.56,0,1.04-.16,1.45-.47.41-.31.8-.86,1.16-1.64l.82-1.85.19-.26,5.18-11.69h1.68l-6.31,14.11c-.35.82-.74,1.46-1.16,1.94s-.88.82-1.38,1.02c-.5.2-1.05.3-1.66.3ZM287.05,476.2l-5.81-12.96h1.78l5.14,11.57-1.1,1.39Z"/>
        <path class="cls-3" d="M297.47,460.46c-.35,0-.65-.12-.89-.36-.24-.24-.36-.53-.36-.86s.12-.62.36-.85c.24-.23.54-.35.89-.35s.65.11.89.34c.24.22.36.5.36.84s-.12.65-.35.89c-.23.24-.53.36-.9.36ZM296.6,475.84v-12.6h1.7v12.6h-1.7Z"/>
        <path class="cls-3" d="M303.06,475.84v-12.6h1.63v3.46l-.26-.65c.4-.91,1.04-1.63,1.92-2.15.88-.52,1.93-.78,3.14-.78,1.02,0,1.92.2,2.7.59s1.38.99,1.82,1.79c.44.8.66,1.81.66,3.02v7.32h-1.7v-7.15c0-1.33-.33-2.33-1-3.01-.66-.68-1.6-1.02-2.8-1.02-.9,0-1.68.18-2.34.54s-1.18.88-1.54,1.56c-.36.68-.54,1.5-.54,2.46v6.62h-1.7Z"/>
        <path class="cls-3" d="M324.34,475.36c-1.2,0-2.28-.26-3.24-.78s-1.72-1.24-2.27-2.17c-.55-.93-.83-1.99-.83-3.19s.28-2.26.83-3.18c.55-.92,1.31-1.64,2.27-2.15.96-.51,2.04-.77,3.24-.77,1.12,0,2.13.23,3.02.7.9.46,1.61,1.15,2.14,2.06.53.91.79,2.02.79,3.34s-.26,2.42-.79,3.34c-.53.91-1.24,1.61-2.14,2.09s-1.9.72-3.02.72ZM324.66,480.62c-1.15,0-2.26-.17-3.31-.5s-1.91-.82-2.57-1.44l.86-1.3c.59.53,1.32.95,2.2,1.26.87.31,1.8.47,2.77.47,1.6,0,2.78-.37,3.53-1.12s1.13-1.9,1.13-3.47v-3.14l.24-2.16-.17-2.16v-3.82h1.63v11.06c0,2.18-.53,3.77-1.6,4.79s-2.64,1.52-4.72,1.52ZM324.51,473.85c.93,0,1.75-.2,2.47-.59.72-.39,1.29-.94,1.7-1.63.42-.7.62-1.5.62-2.41s-.21-1.71-.62-2.4c-.42-.69-.98-1.23-1.7-1.62-.72-.39-1.54-.59-2.47-.59s-1.73.2-2.46.59c-.73.39-1.3.93-1.7,1.62-.41.69-.61,1.49-.61,2.4s.2,1.72.61,2.41c.41.7.98,1.24,1.7,1.63.73.39,1.55.59,2.46.59Z"/>
        <path class="cls-3" d="M335.89,475.96c-.35,0-.65-.13-.9-.38-.25-.26-.37-.57-.37-.94s.12-.7.37-.94c.25-.24.55-.36.9-.36s.65.12.9.36c.25.24.37.55.37.94s-.12.68-.37.94c-.25.26-.55.38-.9.38Z"/>
      </g>
    </g>
  </g>
</svg>