<?xml version="1.0" encoding="UTF-8"?>
<svg id="Capa_2" data-name="Capa 2" xmlns="http://www.w3.org/2000/svg" viewBox="0 0 128.73 180.12">
  <defs>
    <style>
      .cls-1 {
        fill: #a9a9a5;
      }

      .cls-2 {
        fill: #333332;
      }

      .cls-3 {
        fill: #daa484;
      }

      .cls-4 {
        fill: #d8782e;
      }

      .cls-5 {
        fill: #be896b;
      }

      .cls-6 {
        fill: #070606;
      }

      .cls-7 {
        fill: #6e6e6e;
      }

      .cls-8 {
        fill: #ae6b51;
      }
    </style>
  </defs>
  <g id="Capa_1-2" data-name="Capa 1">
    <g>
      <g>
        <path class="cls-1" d="M94.38,169.15c-17.57,11.61-38.85,13.98-58.95,7.23-5.23-1.76-10-4.15-14.58-7.17-5.99-3.95-11.02-8.95-14.88-14.98-1.8-2.82-3.22-5.67-4.19-8.85-.29-.96-.51-2.05-.33-2.9.3-.15.71-.32.91-.82,8.83-10.34,16.51-21.31,23.32-33.37.57,13.54,7.18,24.88,15.88,34.75,12.28,13.94,33.54,29.38,52.84,26.1Z"/>
        <path class="cls-2" d="M32.07,126.75c.59-.15.66-.59.8-1.09l1.49-5.33c6.04,12.51,15.23,22.71,26.21,30.72,4.21,3.04,8.43,5.83,13.41,7.92-1.2-1.32-2.99-1.85-4.43-2.87l-5.97-4.24c-9.16-6.5-16.99-14.51-23.16-23.95-3.08-4.7-5.22-9.76-7.19-14.99-1.06-2.71-1.66-5.34-2.21-8.13-.19,4.04.59,7.86,1.78,11.63.22.69-.05,1.15-.42,1.65-.96,1.31-1.33,2.81-1.76,4.39-.3-.38-.33-.77-.76-.77-1.99-5.11-3.02-10.44-2.67-15.96l1.07-2.56c1.76-4.24,3.67-8.21,8.25-10.14l1.45,2.6c.2.37.03.88-.36,1.02-3.21,1.18-4.48,6.06-4.26,9.64.37,6.19,3.38,13.3,6.71,18.58,7.3,11.58,17.14,21.32,28.89,28.37,6.64,3.98,15.5,7.6,23.21,7.31,4.02-.15,7.56-2.68,7.08-3.33-.08-.1-.34-.16-.76-.14,1.42-1.74,2.52-3.7,3.33-5.97,3.74-10.55.9-24.37-4.67-33.96l2.02-3.45c.42-.72.87-1.44,1.77-1.7,5.68,9.12,9.21,21.73,8.33,32.27l-.68,4.57c-.88,4.5-2.69,8.76-5.94,12.04l-4.73,3.62-7.17,3.28c-10.36.72-21.41-4.16-29.92-9.87-11.54-7.75-22.42-18.77-28.74-31.15Z"/>
        <path class="cls-1" d="M95.88,157.71c-5.69,1.09-12.01-.46-17.47-2.72l12.46-25.56,5.38-10.68,1.6,2.91c4.76,10.14,6.8,27.56-1.97,36.05Z"/>
        <path class="cls-7" d="M32.07,126.75l-2.22-5.07c.42,0,.46.39.76.77.43-1.57.8-3.08,1.76-4.39.37-.5.64-.96.42-1.65-1.2-3.77-1.97-7.58-1.78-11.63.55,2.79,1.15,5.42,2.21,8.13,1.97,5.23,4.12,10.29,7.19,14.99,6.17,9.43,14,17.45,23.16,23.95l5.97,4.24c1.44,1.02,3.23,1.55,4.43,2.87-4.99-2.09-9.21-4.88-13.41-7.92-10.97-8.01-20.17-18.2-26.21-30.72l-1.49,5.33c-.14.5-.2.95-.8,1.09Z"/>
      </g>
      <g>
        <path class="cls-6" d="M94.38,169.15c-19.3,3.28-40.56-12.16-52.84-26.1-8.69-9.87-15.3-21.21-15.88-34.75-6.81,12.07-14.49,23.03-23.32,33.37-.19.5-.6.67-.91.82-.54.05-.95-.22-1.18-.62-.2-.36-.43-1.14-.09-1.57,4.04-5.01,8.03-9.93,11.77-15.23,4.81-6.81,9.05-13.79,13.09-21.06,1.96-5.64,4.5-10.73,10.22-13.36l-3.62-8.67-5.64-13.65c-2.53-5.93-4.04-12.81-1.9-18.94.72-2.05,2.07-3.62,3.51-5.22,3.56-3.95,7.22-7.59,10.99-11.36,1.07-5.42,2.2-10.61,3.61-15.91.76-2.87,1.54-5.58,2.7-8.27,1.33-3.42,3.85-5.85,7.27-7.17,5.4-2.08,11.42-2.01,16.52.73,2.42,1.3,4.17,3.19,5.1,5.87,5.66-3.24,14.08-1.14,19.04,2.71,2.22,1.73,3.5,4.08,3.96,6.9,5.08-1.16,11.32,2.02,14.81,5.63,2.04,2.11,3.17,4.62,3.39,7.64,2.1.08,3.97.68,5.73,1.78,4.92,3.08,7.86,7.23,7.99,13.16.09,4.2-.48,8.2-1.08,12.35l-.03,4.41c-.02,2.01-1.07,3.51-1.52,5.41-2.19,9.08-5.2,17.85-9.66,26.09-3.53,6.36-7.6,11.66-13.51,16.22,6.46,10.89,10.42,24.61,8.52,37.19-.6,3.95-1.69,7.65-3.76,11.08-2.62,4.35-6.56,7.69-11.23,9.63-.81.34-1.39.45-2.06.89ZM50.87,5.12c-1.76,1.16-2.86,2.8-3.68,4.78-1.44,3.5-2.37,7.06-3.25,10.76-.78,3.27-1.7,6.36-2.15,9.68l4.14-4.01.14-2.38c.46-.12.79-.43,1.21-.72l.15,1.65,2-1.86c2.83-2.63,6.77-3.18,10.5-2.05,2.64.8,4.97,2.05,7.49,3.17.69.31,1.33.77,2.09.84l2.18-12.15c.35-1.94.08-3.77-1-5.39-.92-1.38-2.17-2.52-3.79-3.25-4.97-2.26-11.5-2.08-16.04.93ZM75.08,10.44c-.51.38-1.24.77-1.6,1.4l-2.45,13.94,1.52.59c1.55.6,3.03,1.19,4.68,1.52l7.27,1.45c1.76.35,3.26,1.05,4.47,2.37l1.03,1.5,4.23-12.44c.43-1.27.14-2.68-.22-3.9-.55-1.85-1.65-3.29-3.26-4.41-4.26-2.96-11.81-4.85-15.67-2.02ZM97.17,20.4c-.37.16-1.23.3-1.43.8l-1.48,4.65-3.51,9.88c-.15.41.01,1.03,0,1.37-.04,2.45-.99,4.7-2.33,6.73l-1.73,2.05-1.84,4.31-3.33,7.1c-.26,1.85.38,3.52,1.69,4.84,2.93,3.08,8.79,4.6,11.98,2.08,1.24-.98,2.06-2.29,2.88-3.66,3.98-6.68,7.61-13.39,11.11-20.34l3.24-7.17c.43-.96-.01-2.15-.12-3.04l-.06-.46c-.02-.14-.07-.27-.15-.4-.44-1.7-1.54-3.32-2.93-4.57-3.05-2.72-8.54-5.69-12-4.17ZM27.8,48.06c-1.1,1.43-1.69,3.06-1.94,5-.56,4.45.26,8.8,1.98,12.99l6.98,16.98c1.73,4.2,3.48,8.22,5.76,12.1.53.9.14,1.55-.04,2.38-.96,4.22-2.42,8.07-4.24,12,1.16,4.93,3.02,9.45,5.7,13.73,6.13,9.79,14.1,18.19,23.61,24.75,3.36,2.32,6.7,4.35,10.39,6l11.9-24.3,5.68-11.61,2.91-5.23c.23-.42-.15-1.32.69-1.82,3.65-2.17,6.95-4.75,9.83-7.98,3.86-4.32,6.81-9.07,9.27-14.33,2.91-6.21,5.15-12.55,6.77-19.22.25-1.03.31-1.97.77-2.92,1.25-2.49,1.55-5.13,1.07-7.89.94-4.56,2.05-12.68.67-16.29l-.76-1.98c-1.98-3.3-6.32-7.12-9.74-6.77-.44.04-.85.11-1.37.3-1.4,3.54-3.03,6.91-4.77,10.22l-2.68,5.1-5.6,10.2-3.08,5.18c-.93,1.56,1.89,6.05,7.22,6.6,2.09.22,4.25-.4,5.88-1.75,1.18-.97,2.32-2.16,2.96-3.53.24-.52.41-.56.71-.97l6.81-9.08c.42.11.87.68.79,1.02l-2.04,3.48-3.14,4.19,2.57.67c.26.61-.68,1.15-1.35,1.13l-2.48-.09c-2.62,4.25-6.23,7.26-11.36,6.54-3.71-.53-7.67-3.01-8.33-6.91-2.93,1.63-6.22,1.52-9.23.32-3.41-1.35-6.34-3.7-6.8-7.39l-1.05.44-.03-1.75c.72-.38,1.4-.99,1.77-1.8l3.76-8.15c-5.39,3.27-12.75,3.81-18.64,2.58l-1.88-.39-2.72-.93-1.45,2.7c-.12.23-.41.41-.47.86l1.93.73,4.02,2.37c1.49.88,2.81,2.02,4.09,3.17,3.98,3.55,6.97,8.11,8.72,13.12-.52.04-.97.06-1.39.29l-.71-1.14c-.03-.51-.19-.87-.44-1.37-2.52-5.15-6.22-9.39-11-12.55-2.01-1.33-3.97-2.46-6.36-3.17-1,1.47-2.03,2.8-3.64,3.68-.24-.45-.36-1.17-.04-1.58,2.05-2.57,3.85-5.24,5.13-8.3.12-.28-.35-.7-.61-.81.19-.38.45-.6.85-.81.92.61,1.81,1.06,2.9,1.41,7.17,2.33,16.77,2.29,22.55-2.75,2.57-2.24,4.11-5.54,3.69-8.79-.19-1.51-.88-2.88-2.09-3.72-.33-.23-.61-.36-.98-.48l-1.84-.58-9.36-1.97-1.42-.61-9.09-3.93-4.63-1.88c-3.7-1.08-7.13.02-9.81,2.72l-15.36,15.49c-2.31,2.33-4.46,4.6-6.38,7.09ZM29.85,121.68l2.22,5.07c6.32,12.38,17.2,23.39,28.74,31.15,8.51,5.71,19.56,10.59,29.92,9.87l7.17-3.28,4.73-3.62c3.25-3.28,5.06-7.55,5.94-12.04l.68-4.57c.88-10.54-2.65-23.15-8.33-32.27-.9.27-1.35.98-1.77,1.7l-2.02,3.45c5.57,9.6,8.41,23.42,4.67,33.96-.8,2.27-1.9,4.23-3.33,5.97.42-.02.68.03.76.14.47.65-3.07,3.18-7.08,3.33-7.72.3-16.58-3.33-23.21-7.31-11.75-7.05-21.58-16.8-28.89-28.37-3.33-5.28-6.34-12.39-6.71-18.58-.21-3.58,1.06-8.46,4.26-9.64.39-.14.57-.65.36-1.02l-1.45-2.6c-4.58,1.94-6.49,5.9-8.25,10.14l-1.07,2.56c-.35,5.53.67,10.85,2.67,15.96ZM95.88,157.71c8.77-8.49,6.74-25.91,1.97-36.05l-1.6-2.91-5.38,10.68-12.46,25.56c5.46,2.26,11.78,3.8,17.47,2.72Z"/>
        <path class="cls-3" d="M73.06,28.56c.03.41-.39.6-.58.9-1.63,2.55-1.59,6.95,1.58,8.68,2.22,1.21,4.72,1.68,7.27,1.42,2.91-1.1,4.73-3.83,5.13-6.9.03-.22.07-.34.22-.46,1.21.84,1.9,2.21,2.09,3.72-.52.15-.43.56-.52.99-.77,3.66-1.99,5.88-5.47,7.55s-7.54,2.21-11.58,2.07c-5.13-.19-9.93-1.56-14.26-4.28l-1.54-1.35c-.36.88.1,1.52.27,2.21l.57,2.37c.18.74-.12,1.6-.43,2.29-1.46,3.31-5.57,10.64-8.16,11.96l-3.93,2.01c1.75.12,3.34-.4,4.87-1.07l4.4-1.93c-.37,2.79-2.93,5.56-4.82,7.81,3.05-1.71,5.28-4.42,6.91-7.51,1-.9,2.18-1.25,3.55-1.06,2.36.31,4.63,1.07,6.55,2.45l3.92,2.81c2.28,2.02,3.96,4.44,5.6,6.98.28.44.6.74,1.07.74l.71,1.14c.92,3,1.91,6.01,2.01,9.15l-.19,4.06c-.17,3.66-1.73,6.75-2.97,10.14,3.31-3.92,4.26-8.92,4.29-13.63l.02-2.39c.18,0,.27-.09.3-.23l1.1-6.73c1.52.11,3.86-.24,4.99,1.06,2.01,2.39,2.72,5.53,3.84,8.38.18-2.33-.75-4.42-1.31-6.57-.19-.8.22-1.72.26-2.57,3.18-1,6.6-.72,9.72.44l5.52,2.04c.74.28,1.18,1.21,2.19,1.21l-.3-1.11c2.36.19,4.52-.33,6.49-1.47l3.19-2.34c.32-.23.89-.21,1.28-.23,1.87,4.11.18,6.66-1.08,10.4l-.91,2.69c-.18-.03-.4-.09-.49-.05s-.08.31-.16.49c-2.39,5.59-5.54,10.68-9.65,15.14-1.92,2.08-3.82,3.9-6.16,5.46-6.61,4.4-13.51,4.52-20.75,1.4-.83-.36-1.57-.52-2.18-1.34-.18.55.07.73.15,1.14l-3.92-.87c.48.79,1.34.9,1.93,1.44l2.36,2.13c2.26,2.04,4.83,3.65,7.83,4.65l-3.34,8.07-4.12,8.86c-5.08,1.52-10.74.93-15.48-1.19l-1.99-.9c-4.62-2.52-8.35-6.27-11.28-10.63-3.26-4.85-2.06-7.52-.76-12.93.31-.47,1.27-.17,1.67-.01,4.04,1.6,8.25,1.86,12.45.93.54-.12.82-.49,1.33-.51l2.67-.11c.19,0,.01-.5-.22-.34-.07.05-.29-.02-.31-.19.94-.58,2.04-.5,2.94-1.4l-5.77.64c-2.2.06-4.23-.33-6.34-.81-.77-.17-1.38-.17-2.11-.61-6.27-3.73-9.45-8.52-12.39-15.06l-6.04-13.46-.84-1.86-3.63-6.29c-2.91-5.04-4.84-12.52-2.25-17.76.07-.14,0-.32-.24-.4,1.92-2.49,4.07-4.76,6.38-7.09l15.36-15.49c2.68-2.7,6.11-3.8,9.81-2.72l4.63,1.88,9.09,3.93ZM106.26,76.57l-.1.1.1.1.1-.1-.1-.1ZM75.28,95.68c0-.13-.1-.23-.23-.23s-.23.1-.23.23.1.23.23.23.23-.1.23-.23ZM67.64,113.79c.37-.66.6-1.2,1.29-1.69l-2.68-.88-.29,1.22-3.87,11.39,5.56-10.04Z"/>
        <path class="cls-5" d="M27.8,48.06c.23.08.31.26.24.4-2.59,5.24-.66,12.72,2.25,17.76l3.63,6.29.84,1.86,6.04,13.46c2.94,6.54,6.12,11.33,12.39,15.06.74.44,1.35.44,2.11.61,2.11.48,4.14.87,6.34.81l5.77-.64c-.9.91-2.01.83-2.94,1.4.02.17.24.23.31.19.23-.16.41.33.22.34l-2.67.11c-.51.02-.8.39-1.33.51-4.2.93-8.41.67-12.45-.93-.4-.16-1.36-.46-1.67.01-1.3,5.41-2.5,8.08.76,12.93,2.93,4.36,6.66,8.11,11.28,10.63l1.99.9c4.74,2.13,10.4,2.71,15.48,1.19l4.12-8.86,3.34-8.07c-3.01-1-5.57-2.61-7.83-4.65l-2.36-2.13c-.59-.53-1.44-.65-1.93-1.44l3.92.87c-.08-.41-.33-.6-.15-1.14.61.82,1.35.98,2.18,1.34,7.24,3.12,14.14,3,20.75-1.4,2.34-1.56,4.25-3.38,6.16-5.46,4.11-4.47,7.26-9.56,9.65-15.14.07-.17.07-.45.16-.49s.31.02.49.05l.91-2.69c1.26-3.74,2.95-6.29,1.08-10.4-.39.01-.97,0-1.28.23l-3.19,2.34c-1.97,1.14-4.13,1.66-6.49,1.47l.3,1.11c-1.01,0-1.45-.94-2.19-1.21l-5.52-2.04c-3.12-1.15-6.55-1.43-9.72-.44-.04.85-.44,1.77-.26,2.57.56,2.15,1.5,4.24,1.31,6.57-1.12-2.85-1.84-5.98-3.84-8.38-1.13-1.3-3.47-.95-4.99-1.06l-1.1,6.73c-.02.14-.11.22-.3.23-.39-2.6-.91-5.14-1.77-7.61-1.75-5.02-4.74-9.58-8.72-13.12-.06-.06.06-.22.13-.22-.28-.01,4.52,2.93,9.47.84l1.05-.44c.47,3.68,3.39,6.03,6.8,7.39,3.01,1.2,6.3,1.31,9.23-.32.66,3.9,4.62,6.39,8.33,6.91,5.13.73,8.74-2.28,11.36-6.54l2.48.09c.67.03,1.61-.51,1.35-1.13l-2.57-.67,3.14-4.19,2.04-3.48c.08-.34-.37-.91-.79-1.02l-6.81,9.08c-.3.4-.47.45-.71.97-.64,1.37-1.78,2.56-2.96,3.53-1.63,1.35-3.79,1.97-5.88,1.75-5.32-.56-8.15-5.04-7.22-6.6l3.08-5.18,5.6-10.2c.27.34.25.64.06,1.02l-3.75,7.43c-1.03,2.05-.2,4.3,1.76,5.45,1.43.85,2.94,1.79,4.68,1.64l2.63-.23c1.42-1.01,2.6-2.12,3.63-3.52l6.72-9.12c1.81-2.46,2.69-5.19,2.96-8.26.04-.5.11-1.07.64-1.28,1.38,3.61.27,11.73-.67,16.29.48,2.76.18,5.41-1.07,7.89-.46.95-.52,1.89-.77,2.92-1.62,6.66-3.86,13.01-6.77,19.22-2.46,5.26-5.41,10.01-9.27,14.33-2.88,3.23-6.19,5.81-9.83,7.98-.84.5-.45,1.4-.69,1.82l-2.91,5.23-5.68,11.61-11.9,24.3c-3.68-1.65-7.03-3.68-10.39-6-9.5-6.56-17.47-14.96-23.61-24.75-2.68-4.28-4.55-8.8-5.7-13.73,1.82-3.93,3.27-7.78,4.24-12,.19-.82.57-1.48.04-2.38-2.28-3.88-4.03-7.9-5.76-12.1l-6.98-16.98c-1.72-4.19-2.54-8.54-1.98-12.99.24-1.94.83-3.57,1.94-5Z"/>
        <path class="cls-3" d="M112.1,29.13c.03.11-.12.39.15.4l.06.46c-.23-.03-.46.1-.5.41-.21,1.56-.72,2.9-1.34,4.35-2.15,4.97-4.68,9.63-7.38,14.33-1.65,2.88-3.28,5.57-5.3,8.16l-2.28,1.16c-2.58.39-4.88-.43-7.13-1.65-2.13-1.16-3.38-3.56-2.43-5.91l2.61-6.5c.08-.19.05-.43-.13-.52,1.34-2.03,2.29-4.28,2.33-6.73.25.05.56-.1.69-.45l3.46-9.95,1.81-4.89c.17-.46.61-.87.45-1.4,3.46-1.52,8.95,1.45,12,4.17,1.4,1.25,2.5,2.87,2.93,4.57ZM107.4,30.86c-.63-1.35-1.85-1.99-2.96-2.78-1.51-1.07-3.12-1.92-5.09-2,.83.87,1.83,1.15,2.75,1.69l5.3,3.09Z"/>
        <path class="cls-3" d="M125.58,42.4c-.52.21-.59.78-.64,1.28-.26,3.07-1.14,5.8-2.96,8.26l-6.72,9.12c-1.03,1.4-2.21,2.52-3.63,3.52l-2.63.23c-1.74.15-3.25-.79-4.68-1.64-1.96-1.16-2.8-3.4-1.76-5.45l3.75-7.43c.19-.38.21-.68-.06-1.02l2.68-5.1c.04.2.01.41.15.7l2.68-4.75,2.6-5.13c.26-.51.74-.81,1.17-.98-.27-.16-.39-.23-.46-.35,3.42-.35,7.76,3.47,9.74,6.77l.76,1.98Z"/>
        <path class="cls-3" d="M70.69,7.44c-1.16-.07.27,2.69-.14,5.09l-1.37,8.16c-.17,1-.42,1.98-1.19,2.67-.26.23-.49.42-.56.78-2.51-1.12-4.85-2.37-7.49-3.17-3.73-1.13-7.67-.58-10.5,2.05-.54-.96-.75-1.88-.8-2.97-.1-2.63-.1-5.2.1-7.81.16-2.11.81-4.05,1.84-5.88.23-.4.32-.79.29-1.26,4.54-3.01,11.07-3.19,16.04-.93,1.62.74,2.86,1.88,3.79,3.25Z"/>
        <path class="cls-3" d="M94.01,16.87c-.39.21-.37.68-.43,1.17-.34,2.63-1.1,5.05-2.07,7.49l-2.53,6.17c-1.21-1.31-2.71-2.02-4.47-2.37l-7.27-1.45c-1.65-.33-3.13-.92-4.68-1.52.22-.08.46-.19.49-.33.09-.38-.71-.83-.6-1.49.7-4.35,1.43-8.61,2.51-12.89.11-.44.35-.78.12-1.21,3.86-2.84,11.41-.95,15.67,2.02,1.62,1.12,2.71,2.56,3.26,4.41ZM88.38,18.35c-2.61-2.36-6.01-3.55-9.28-3l9.28,3Z"/>
        <path class="cls-5" d="M75.74,70.96c-.47,0-.79-.3-1.07-.74-1.64-2.54-3.32-4.96-5.6-6.98l-3.92-2.81c-1.93-1.38-4.19-2.14-6.55-2.45-1.36-.19-2.54.16-3.55,1.06-1.64,3.08-3.86,5.8-6.91,7.51,1.88-2.26,4.44-5.02,4.82-7.81l-4.4,1.93c-1.53.67-3.13,1.2-4.87,1.07l3.93-2.01c2.59-1.32,6.69-8.66,8.16-11.96.31-.7.61-1.55.43-2.29l-.57-2.37c-.17-.69-.63-1.33-.27-2.21l1.54,1.35c4.33,2.72,9.14,4.1,14.26,4.28,4.04.15,7.96-.33,11.58-2.07s4.7-3.89,5.47-7.55c.09-.43,0-.84.52-.99.41,3.25-1.13,6.56-3.69,8.79-5.78,5.04-15.38,5.08-22.55,2.75-1.08-.35-1.97-.8-2.9-1.41-.4.21-.65.43-.85.81.26.1.73.52.61.81-1.27,3.06-3.07,5.73-5.13,8.3-.33.41-.2,1.13.04,1.58,1.61-.88,2.64-2.21,3.64-3.68,2.39.71,4.36,1.84,6.36,3.17,4.78,3.16,8.48,7.4,11,12.55.25.5.4.86.44,1.37Z"/>
        <path class="cls-5" d="M112.31,29.99c.11.89.55,2.08.12,3.04l-3.24,7.17c-3.5,6.95-7.13,13.67-11.11,20.34-.82,1.37-1.64,2.68-2.88,3.66-3.19,2.52-9.05,1-11.98-2.08-1.31-1.32-1.95-2.99-1.69-4.84l3.33-7.1,1.84-4.31,1.73-2.05c.17.09.2.33.13.52l-2.61,6.5c-.94,2.35.3,4.75,2.43,5.91,2.25,1.22,4.55,2.05,7.13,1.65l2.28-1.16c2.02-2.6,3.65-5.28,5.3-8.16,2.7-4.7,5.23-9.35,7.38-14.33.63-1.45,1.14-2.79,1.34-4.35.04-.3.27-.44.5-.41Z"/>
        <path class="cls-5" d="M78.71,57.57c-4.2,2.19-12.26-.3-13.25-5.55-.12-.65-.15-1.26.14-1.82,5.89,1.23,13.25.69,18.64-2.58l-3.76,8.15c-.37.81-1.05,1.42-1.77,1.8Z"/>
        <path class="cls-3" d="M85.69,31.72c-.21.22-.2.43-.24.74-.32,2.71-2.04,5.04-4.55,6.04-2.02.13-3.91-.26-5.73-1.06-2.02-.89-3.04-2.95-2.49-5.12.22-.86.37-1.77,1.04-2.46.19-.19.77-.22.76-.69l9.36,1.97,1.84.58Z"/>
        <path class="cls-5" d="M49.44,23.03l-2,1.86-.15-1.65c-.13-1.45.27-2.93-.13-4.4-.07-.27-.83.15-.85.55l-.23,4.58-.14,2.38-4.14,4.01c.45-3.32,1.37-6.41,2.15-9.68.88-3.71,1.81-7.27,3.25-10.76.81-1.98,1.92-3.62,3.68-4.78.04.47-.06.86-.29,1.26-1.03,1.82-1.68,3.76-1.84,5.88-.2,2.61-.2,5.18-.1,7.81.04,1.09.26,2.01.8,2.97Z"/>
        <path class="cls-6" d="M65.6,50.2c-.29.56-.27,1.17-.14,1.82.99,5.25,9.06,7.74,13.25,5.55l.03,1.75c-4.96,2.09-9.76-.85-9.47-.84-.07,0-.19.15-.13.22-1.29-1.15-2.6-2.29-4.09-3.17-.26-1.2-1.12-2.28-1.2-3.8-1.07.82-2.16.89-2.82,1.44l-1.93-.73c.05-.45.34-.63.47-.86,1.62.16,3.1-.46,4.17-1.77l1.88.39Z"/>
        <path class="cls-5" d="M74.49,29.17c0,.47-.57.5-.76.69-.67.68-.82,1.6-1.04,2.46-.55,2.17.47,4.23,2.49,5.12,1.82.8,3.7,1.19,5.73,1.06,2.51-1,4.23-3.33,4.55-6.04.04-.31.03-.52.24-.74.37.11.64.25.98.48-.15.12-.19.24-.22.46-.39,3.07-2.21,5.79-5.13,6.9-2.55.26-5.05-.21-7.27-1.42-3.17-1.73-3.21-6.12-1.58-8.68.19-.3.62-.49.58-.9l1.42.61Z"/>
        <path class="cls-5" d="M70.69,7.44c1.09,1.62,1.35,3.45,1,5.39l-2.18,12.15c-.76-.07-1.4-.54-2.09-.84.07-.36.31-.55.56-.78.77-.69,1.03-1.67,1.19-2.67l1.37-8.16c.4-2.4-1.02-5.17.14-5.09Z"/>
        <path class="cls-5" d="M72.56,26.36l-1.52-.59,2.45-13.94c.36-.62,1.08-1.02,1.6-1.4.23.43-.01.78-.12,1.21-1.08,4.28-1.8,8.53-2.51,12.89-.11.66.69,1.11.6,1.49-.03.14-.27.25-.49.33Z"/>
        <path class="cls-5" d="M88.98,31.7l2.53-6.17c.97-2.44,1.72-4.87,2.07-7.49.06-.48.04-.96.43-1.17.36,1.22.66,2.63.22,3.9l-4.23,12.44-1.03-1.5Z"/>
        <path class="cls-8" d="M97.17,20.4c.16.54-.28.95-.45,1.4l-1.81,4.89-3.46,9.95c-.12.36-.44.5-.69.45,0-.34-.15-.96,0-1.37l3.51-9.88,1.48-4.65c.2-.49,1.06-.63,1.43-.8Z"/>
        <path class="cls-6" d="M77.84,71.82c.86,2.47,1.38,5.01,1.77,7.61l-.02,2.39c-.52.07-.86-.15-1.13-.56-.1-3.14-1.09-6.16-2.01-9.15.41-.23.87-.25,1.39-.29Z"/>
        <path class="cls-8" d="M115.08,33.65c.08.11.2.18.46.35-.43.17-.92.47-1.17.98l-2.6,5.13-2.68,4.75c-.14-.29-.11-.5-.15-.7,1.74-3.31,3.37-6.67,4.77-10.22.52-.2.94-.26,1.37-.3Z"/>
        <path class="cls-5" d="M63.72,49.81c-1.07,1.3-2.54,1.93-4.17,1.77l1.45-2.7,2.72.93Z"/>
        <path class="cls-5" d="M65.03,55.53l-4.02-2.37c.66-.54,1.76-.62,2.82-1.44.08,1.52.94,2.61,1.2,3.8Z"/>
        <path class="cls-6" d="M47.29,23.24c-.43.29-.75.6-1.21.72l.23-4.58c.02-.39.78-.81.85-.55.39,1.47,0,2.95.13,4.4Z"/>
        <path class="cls-4" d="M112.26,29.53c-.27,0-.12-.29-.15-.4.09.13.14.26.15.4Z"/>
        <path class="cls-8" d="M67.64,113.79l-5.56,10.04,3.87-11.39.29-1.22,2.68.88c-.69.5-.92,1.03-1.29,1.69Z"/>
        <path class="cls-5" d="M79.6,81.82c-.03,4.71-.99,9.72-4.29,13.63,1.24-3.39,2.8-6.48,2.97-10.14l.19-4.06c.28.42.61.63,1.13.56Z"/>
        <circle class="cls-4" cx="75.05" cy="95.68" r=".23"/>
        <rect class="cls-4" x="106.19" y="76.6" width=".14" height=".14" transform="translate(-23.1 97.6) rotate(-45)"/>
        <path class="cls-5" d="M107.4,30.86l-5.3-3.09c-.92-.54-1.92-.82-2.75-1.69,1.97.08,3.58.93,5.09,2,1.11.79,2.33,1.43,2.96,2.78Z"/>
        <path class="cls-5" d="M88.38,18.35l-9.28-3c3.27-.54,6.68.64,9.28,3Z"/>
      </g>
    </g>
  </g>
</svg>