<?xml version="1.0" encoding="UTF-8"?>
<svg id="Capa_2" data-name="Capa 2" xmlns="http://www.w3.org/2000/svg" viewBox="0 0 1174.91 664.44">
  <defs>
    <style>
      .cls-1 {
        fill: #fff;
      }

      .cls-2 {
        opacity: .99;
      }
    </style>
  </defs>
  <g id="Capa_1-2" data-name="Capa 1">
    <g>
      <g>
        <path class="cls-1" d="M120.59,382.72c-.18,6.86-2.9,16.04-7.27,16.69-8.31,1.24-6.58-16.78-12.24-25.21l-6.54,20.81c-.77,2.44-2.93,4.38-5.11,4.4-2.36.03-4.54-1.76-5.3-4.28l-6.27-20.77-6.97,21.02c-.73,2.19-2.7,3.8-4.58,3.98-2.21.22-4.85-1.4-5.56-3.91l-5.93-21.1c-5.98,5.72-4.22,24.64-12.42,24.93-2.31.08-4.57-1.7-5.33-4.12l-6.52-20.55-6.77,20.53c-.76,2.3-2.47,3.99-4.46,4.21-2.26.26-4.94-1.15-5.68-3.76l-5.96-20.86c-3.55,3-1.88,10.56-4.31,12.12-.98.63-3.51-.1-3.36-1.15,1.07-7.7,2.59-15.59,7.41-15.62,7.42-.04,5.91,16.65,11.37,25.49l6.47-20.68c.84-2.68,2.68-4.69,5.15-4.63,2.28.06,4.67,1.74,5.39,4.36l4.96,17.91c.18.66.72,1.22,1.03,1.53.59.58,1.48.27,1.82-.9l5.4-18.56c.65-2.24,2.7-4.03,4.47-4.26,2.08-.27,4.68.91,5.4,3.21l6.88,21.97,7.06-21.09c.79-2.36,2.51-4.06,4.62-4.2,2.39-.15,4.58,1.79,5.36,4.36l6.28,20.63c5.62-7.14,4.37-21.26,10.17-24.48,3.68-2.04,6.68,1.43,7.58,4.77l5.26,19.63c4.25-3.31,2.58-10.15,5.76-13.22.53-.51,2.77-.29,2.74.76Z"/>
        <polygon class="cls-1" points="179.97 34.62 133.37 34.99 156.64 .2 179.97 34.62"/>
        <polygon class="cls-1" points="1095.13 34.74 1048.36 34.91 1071.89 0 1095.13 34.74"/>
        <polygon class="cls-1" points="1095.46 445.33 1071.88 479.94 1048.24 445.42 1095.46 445.33"/>
        <polygon class="cls-1" points="180.14 445.42 156.65 479.95 133.24 445.41 180.14 445.42"/>
        <path class="cls-1" d="M96.74,129.1c-9.13-9.57-10.9-28.72-20.43-29.66-10.72-1.05-13.09,20.35-21.79,29.51-4.71,4.95-11.83,5.35-16.6.55-9.31-9.36-11.35-29.96-21.48-30.13-2.43-.04-4.54,1.25-6.39,3.28-5.36,5.91-4.05,13.84-8.11,12.3-1.49-.57-1.91-1.79-1.18-3.57,3.44-8.48,7.96-17.19,16.45-16.47,3.47.3,7.63,2.23,9.55,5.96l11.43,22.22c1.61,3.13,4.04,5.35,7.31,5.53s6.58-2.16,8.21-5.44l9.89-20.01c2.52-5.1,8.02-9.21,13.89-8.1,14.41,2.73,15.81,32.91,26.95,33.56,9.8.57,10.46-15.02,14.09-15.94,4.27-1.08,1.46,9.5-4.9,16.4-4.62,5.01-11.94,5.2-16.89,0Z"/>
        <path class="cls-1" d="M156,72.04c1.06-.55,1.8.55,1.97,1.09.24.76.09,1.81-.7,2.08-.88.3-1.52-.02-1.93-.63-.38-.56-.69-1.85.66-2.55Z"/>
        <path class="cls-1" d="M1071.98,121.91c1.28-.52,1.56.79,1.63,1.34.11.87-.09,1.62-.56,1.91-1.06.64-1.87.15-2.09-.37-.32-.77-.32-2.33,1.03-2.88Z"/>
        <path class="cls-1" d="M155.95,170.98c1.14-.58,1.85.56,2.02,1.08.18.56.14,2.05-.63,2.21s-1.67-.29-2-.74c-.39-.52-.72-1.87.61-2.55Z"/>
        <path class="cls-1" d="M155.94,404.99c1.06-.6,1.93.54,2.01,1.07.09.63-.13,1.5-.94,1.98-.62.37-1.25.05-1.64-.54-.42-.64-.68-1.81.57-2.51Z"/>
        <path class="cls-1" d="M156.12,218.64c.84-.46,1.57.03,1.72.41.36.9.27,1.82-.42,2.49-.55.54-1.85.39-2.15-.68-.16-.59-.42-1.53.85-2.23Z"/>
        <path class="cls-1" d="M155.99,281.05c1.01-.62,1.86.52,1.94,1.04.1.63-.09,1.49-.89,1.97-.58.35-1.26.16-1.69-.5-.33-.5-.5-1.8.63-2.51Z"/>
        <path class="cls-1" d="M156.08,328.42c.83-.6,1.62.1,1.79.62.25.75.28,1.77-.45,2.44-.45.41-1.84.3-2.16-.58-.21-.58-.36-1.61.82-2.47Z"/>
        <path class="cls-1" d="M155.17,204.16c.27-1.26,1.58-1.21,2.16-.88.53.3.88,1.43.53,2.31-.17.42-.52.58-1.18.59-.62.01-1.88-.31-1.51-2.02Z"/>
        <path class="cls-1" d="M1071.97,103.87c1.04-.52,1.76.71,1.79,1.24.04.67-.1,1.48-.83,1.91s-1.28-.1-1.61-.52c-.48-.6-.77-1.91.66-2.62Z"/>
        <path class="cls-1" d="M156,343.87c.92-.56,1.89.65,1.94,1.19.06.63-.1,1.44-.95,1.97-.58.37-1.26.08-1.63-.52-.4-.64-.71-1.82.64-2.64Z"/>
        <path class="cls-1" d="M156.12,312.67c.91-.46,1.59.04,1.74.42.38.95.13,1.99-.45,2.5-.7.62-1.99.2-2.3-.61-.23-.61-.13-1.74,1-2.31Z"/>
        <path class="cls-1" d="M1071.96,343.94c1.11-.48,1.77.64,1.82,1.18.07.72-.21,1.56-.82,1.92-.82.49-1.34-.11-1.68-.53-.46-.57-.75-1.95.67-2.57Z"/>
        <path class="cls-1" d="M1071.92,359.01c1.37-.54,1.59.68,1.7,1.23.16.8-.17,1.56-.66,1.85-1,.61-1.39-.15-1.72-.57-.46-.57-.63-2,.68-2.51Z"/>
        <path class="cls-1" d="M155.18,188.16c.29-1.13,1.61-1.06,2.15-.77s.91,1.3.47,2.29c-.16.37-.42.55-1.18.53-.59-.01-1.87-.35-1.44-2.04Z"/>
        <path class="cls-1" d="M1071.91,170.96c1.37-.55,1.61.72,1.64,1.22.06.95-.13,1.64-.66,1.85-1.05.42-1.33-.22-1.64-.59-.48-.58-.59-1.98.66-2.48Z"/>
        <path class="cls-1" d="M1071.97,296.92c1.07-.48,1.78.67,1.83,1.2.07.68-.24,1.57-.86,1.94-.79.46-1.3-.12-1.64-.54-.49-.6-.78-1.94.67-2.6Z"/>
        <path class="cls-1" d="M1071.94,249.94c1.13-.5,1.79.64,1.84,1.16.07.72-.18,1.53-.85,1.91-.76.43-1.27-.11-1.62-.52-.5-.59-.74-1.93.64-2.54Z"/>
        <path class="cls-1" d="M1071.07,329.2c.6-1.18,1.72-.7,2.08-.35.54.53.85,1.44.6,2.05-.31.78-.96.73-1.38.75-.88.04-2.13-.83-1.31-2.45Z"/>
        <path class="cls-1" d="M155.98,296.95c.99-.57,1.9.58,1.97,1.12.09.75-.19,1.47-.97,1.98-.65.42-1.23.06-1.62-.53-.44-.66-.71-1.81.62-2.57Z"/>
        <path class="cls-1" d="M1071.95,404.96c1.13-.5,1.78.64,1.83,1.17.07.66-.21,1.58-.83,1.92-.82.46-1.33-.11-1.67-.52-.51-.63-.74-1.95.66-2.57Z"/>
        <path class="cls-1" d="M155.16,436.15c.26-1.33,1.77-1.18,2.18-.83.48.41.9,1.21.57,2.5-.1.4-.67.73-1.32.59s-1.75-.65-1.44-2.26Z"/>
        <path class="cls-1" d="M1071.9,435c1.39-.52,1.58.72,1.69,1.24.16.71-.08,1.61-.66,1.84-1.04.41-1.35-.19-1.69-.57-.56-.62-.62-2.03.66-2.51Z"/>
        <path class="cls-1" d="M1071.4,138.78c.42-.5,1.45-.27,1.76.06.67.69.57,1.42.41,2.01-.36,1.26-1.72,1.06-2.14.61-.61-.65-.77-1.8-.03-2.68Z"/>
        <path class="cls-1" d="M1071.36,56.79c.5-.54,1.37-.24,1.77.05.84.62.91,1.19.43,1.93-.61.95-1.58,1.14-2.13.69-.75-.61-.8-1.89-.07-2.67Z"/>
        <path class="cls-1" d="M156.13,56.74c.86-.3,1.53-.01,1.73.34.42.75.32,1.97-.44,2.44-.64.4-1.52.18-2.15-.74-.39-.58-.54-1.55.86-2.03Z"/>
        <path class="cls-1" d="M1071.12,42.27c.81-1.42,2.11-.5,2.44.01.64.98,0,1.51-.4,1.93-1.14,1.2-3.09-.13-2.04-1.94Z"/>
        <path class="cls-1" d="M1071.33,265.8c.57-.58,1.35-.22,1.76.05.78.52,1.05,1.16.47,1.89-.53.68-1.62.98-2.12.65-.75-.49-.85-1.85-.12-2.6Z"/>
        <path class="cls-1" d="M156.14,249.65c.91-.4,1.21.43,1.45.74.5.65.5,1.83-.21,2.19-.85.43-2,.02-2.27-.66-.22-.55-.02-1.81,1.03-2.28Z"/>
        <path class="cls-1" d="M156.11,41.63c.85-.42,1.54-.05,1.75.41.32.69.35,1.83-.45,2.48-.51.42-1.51.28-2.13-.78-.35-.6-.57-1.43.83-2.12Z"/>
        <path class="cls-1" d="M1071.11,235.24c.68-1.39,2.06-.63,2.45,0,.51.84.22,1.31-.46,1.86-.95.77-2.89-.02-1.98-1.87Z"/>
        <path class="cls-1" d="M155.8,234.71c1.32-.99,2.45.14,2.29,1.25-.11.74-.18,1.49-1.56,1.45-.86-.02-2.49-1.38-.73-2.69Z"/>
        <path class="cls-1" d="M1072.16,218.63c.7-.3,1.25.46,1.37.83.2.63.17,1.75-.27,2.1-.73.58-2.1.17-2.28-.64-.14-.65.02-1.78,1.18-2.28Z"/>
        <path class="cls-1" d="M1071.35,87.83c.55-.5,1.34-.22,1.75.04.81.52.99,1.21.46,1.89-.59.76-1.64,1.02-2.13.69-.72-.48-.84-1.93-.07-2.62Z"/>
        <path class="cls-1" d="M156.08,265.64c.91-.4,1.51-.03,1.76.4.36.61.22,1.94-.42,2.36-.49.32-1.52.06-2.13-.67-.46-.55-.53-1.52.79-2.1Z"/>
        <path class="cls-1" d="M156.08,122.41c.82-.57,1.63.05,1.79.63.17.64.35,1.71-.45,2.52-.5.5-1.57.37-2.13-.82-.27-.58-.59-1.38.79-2.33Z"/>
        <path class="cls-1" d="M155.18,421.19c.42-1.76,2.38-1.07,2.61-.29.17.57.29,1.21-.57,2.23-.51.6-2.49-.01-2.04-1.94Z"/>
        <path class="cls-1" d="M1072.12,154.56c.74-.34,1.28.47,1.42.83.24.66.16,1.77-.29,2.14-.58.46-2.08.18-2.25-.64-.14-.66-.05-1.8,1.13-2.33Z"/>
        <path class="cls-1" d="M155.82,154.78c1.41-.96,2.33.21,2.25,1.19-.06.83-.19,1.67-1.57,1.58-.88-.05-2.48-1.55-.68-2.77Z"/>
        <path class="cls-1" d="M1071.12,390.27c.78-1.45,2.1-.56,2.45-.02.63.96.08,1.44-.44,1.89-1.18,1.04-3-.03-2.02-1.87Z"/>
        <path class="cls-1" d="M156.11,389.68c.85-.38,1.48-.04,1.74.36.38.6.24,1.99-.4,2.4-.49.31-1.49.1-2.13-.73-.39-.5-.5-1.45.8-2.03Z"/>
        <path class="cls-1" d="M155.18,105.19c.39-1.8,2.35-1.3,2.67-.29.18.57.28,1.14-.62,2.22-.52.62-2.48.04-2.05-1.93Z"/>
        <path class="cls-1" d="M155.83,138.72c.99-.73,1.89-.12,2.06.31.3.75.27,1.8-.47,2.49-.35.33-1.21.21-1.72-.32-.43-.45-1.47-1.3.13-2.48Z"/>
        <path class="cls-1" d="M1071.12,375.23c.69-1.53,2.09-.66,2.47-.03.54.9.2,1.38-.43,1.94-1.04.91-2.89-.03-2.03-1.91Z"/>
        <path class="cls-1" d="M155.84,374.72c.98-.74,1.89-.12,2.05.31.3.78.24,1.79-.47,2.46-.45.42-1.21.3-1.71-.28-.4-.46-1.45-1.29.13-2.49Z"/>
        <path class="cls-1" d="M155.8,359.54c1.21-1.03,2.5.21,2.23,1.42-.13.59-.11,1.51-1.49,1.46-.83-.03-2.54-1.35-.74-2.88Z"/>
        <path class="cls-1" d="M1071.13,420.64c.42-.81,1.75-.75,2.15-.29.36.42.59,1.14.22,2.16-.2.55-.96,1.26-1.76.57-.6-.51-1.15-1.41-.61-2.44Z"/>
        <path class="cls-1" d="M156.11,87.7c.87-.35,1.5,0,1.71.35.4.64.19,2.04-.39,2.41-.5.32-1.55.03-2.15-.71-.44-.55-.47-1.53.83-2.05Z"/>
        <path class="cls-1" d="M1071.87,312.8c1.05-.64,1.48.32,1.67.71.32.67.29,1.82-.25,2.13-.48.26-1.59.2-1.89-.08-.54-.5-.98-1.87.48-2.76Z"/>
        <path class="cls-1" d="M1071.16,73.17c.6-1.49,2.03-.68,2.4.04.43.85.26,1.22-.46,1.94-.77.76-2.64-.27-1.94-1.98Z"/>
        <path class="cls-1" d="M1071.13,188.18c.57-1.6,2.05-.93,2.44,0,.33.8.39,1.14-.45,1.96-.73.71-2.62-.19-1.99-1.97Z"/>
        <path class="cls-1" d="M1071.14,204.14c.55-1.66,2.06-1.05,2.43.04.25.74.41,1.13-.47,1.94-.69.64-2.55-.17-1.96-1.98Z"/>
        <path class="cls-1" d="M1071.13,282.16c.58-1.64,2.04-.96,2.45.03.33.8.42,1.15-.46,1.94-.73.67-2.62-.19-1.99-1.97Z"/>
        <g>
          <path class="cls-1" d="M1170.88,211.38l-39.93-.27-1.04,42c-1.4,8.05-13.98,11.08-20.33,9.3-3.2-1.01-4.39-2.53-5.15-4.08-1.19-2.44-.74-5.39.89-7.53,4.71-6.19,12.94-8.83,21.2-6.05l.16-41.68,48.23.08-.18,50c-4.25,8.22-13.66,11.42-22.21,8.8-2.19-1.12-3.92-2.79-4.3-4.34-.59-2.35-.4-4.87,1.13-6.77,5.14-6.37,13.52-8.87,21.46-6.05l.08-33.41Z"/>
          <path d="M1126.14,253.24c-5.45,6.95-16.68,7.13-18.21,3.52-1.81-4.25,7.36-11.4,16.42-8.77,2.05.59,3.49,3.07,1.79,5.25Z"/>
          <path d="M1170.2,253.31c-5.17,6.73-15.7,6.69-17.71,4.06-.58-.76-.9-2.42-.17-3.54,3.61-5.52,10.51-7.85,16.7-5.55,1.78.66,2.66,3.1,1.18,5.03Z"/>
        </g>
        <g>
          <path d="M1159.19,405.71c2.69,5.41-10.55,13.82-19.37,8.91-2.41-1.34-.87-5.14.72-6.52,6.72-5.84,16.69-6.34,18.65-2.39Z"/>
          <path d="M1159.2,359.71c2.18,4.9-7.43,11.73-17.11,9.85-1.54-.3-2.61-1.21-3.04-1.93-.72-1.19-.62-3.21.51-4.56,5.93-7.13,17.61-7.92,19.65-3.35Z"/>
          <path d="M1159.12,381.59c-7.26-2.98-13.89-1.35-20.62,3.52.23-8.45,14.66-11.67,19.45-8.22,1.07.77,2.29,2.17,1.17,4.7Z"/>
        </g>
        <path d="M1147.5,103.61c2.88,5.38-13.42,13.22-18.02,7.15-2.04-2.69,1.31-6.26,4.2-7.65,3.86-1.86,11.46-3.9,13.82.49Z"/>
        <g>
          <g>
            <path class="cls-1" d="M820.36,475.24c-33.41-16.84-45.33-51.96-48.35-87.65-.81-9.53,1.15-18.2,4.11-26.91-12.98-13.94-22.93-29.34-31.32-46.06-6.76-13.47-10.49-27.13-11.79-42.17-1.15-13.31-5.9-25.19-12.43-36.62l-12.03-21.03c-4.33-7.56-2.48-17.61,4.23-23.46,8.26-7.22,19.69-8.37,29.76-4.48,15.48,6.1,25.55,17.84,33.76,32.92,2.97-12.38,3.85-24.29,4.46-37.38l5.22-112.82c.9-19.41,10.32-39.35,29.41-38.53,8.21.35,15.42,4.79,19.32,12.82-.12-19.71,8.45-39.66,26.82-40.23s26.77,15.86,27.04,34.33c9.47-9.48,23.63-8.47,31.55,1.3,4.93,6.07,7.98,13.18,8.15,20.94l.5,22.95c7.58-6.08,16.14-6.02,23.26-.72,11.76,8.76,13.5,28.54,13.6,44.15.19,30.93.51,60.91,3.29,91.84,8.01,43.07,8.28,87.95-7.96,129.33,23.21,23.87,22.88,56.87,11.7,87.38-7.31,18.68-20.36,32.88-38.92,41.36-35.69,16.31-78.17,16.5-113.36-1.24Z"/>
            <path d="M780.99,365.47c4.75,4.27,9.33,7.97,14.99,11.26.38,15.36,7.83,28.43,19.75,38.08,41.41,33.55,135.86,20.62,143.08-35.3.93-7.18-.44-13.93-4.07-20.05.97-2.27,1.96-3.94,3.68-6.15,17.47,19.93,18.71,45.49,11.39,70.99-3.56,12.39-8.91,23.84-18.23,32.82-12.22,11.79-27.26,18.64-43.91,22.13-24.91,5.22-50.15,4.43-74-4.52-32.03-12.01-46.29-35.46-52.71-68.3-2.9-13.47-4.38-26.72.02-40.97Z"/>
            <path d="M951.22,387.32l-.55-23.13c5.13,7.23,3.59,15.94.55,23.13Z"/>
            <path d="M803.47,388.44c-1.02-2.35-2.16-4.83-1.14-8.09.73,2.3,1.82,4.24,1.14,8.09Z"/>
            <g>
              <path d="M837.78,386.86c-26.95-5.54-46.32-15.69-64.1-38.18-16.93-21.4-31.67-47.1-34.39-74.46-3.39-34.15-19.73-46.91-25.92-63.12-2.01-5.27-1.17-11.42,3-15.13,7.12-6.34,16.57-6.63,25.3-3.18,19.65,7.77,30.44,29.06,36.98,48.98l8.55,26.06,1.74-2.91c1.13-1.89,26.13,6.44,38.67,16.93,17.1,14.3,26.67,34.3,30.85,55.89,2.11-9.36-.37-17.85-3.43-26.43-10.04-28.17-36.72-49.88-66.15-49.32-.68-11.23-4.42-20.64-7.73-30.58l4.72-35.97,5.89-121.83c.81-16.78,6.01-36.45,21.79-36.85,7.11-.18,14.05,4.29,16.93,11.11,3.37,7.97,3.6,15.89,3.4,24.74l-2.66,117.39c-9.87,1.69-18.57,4.38-26.4,9.44,53.44-12.69,96.82-.09,144.11,21.18-5.44-7.94-13.41-10.21-21.4-14.25l1.15-111.77c.05-4.68,4.82-8.2,7.71-9.43,4.2-1.79,9.91-.71,13.25,2.72,5.45,5.61,8.46,13.29,8.78,21.15l1.42,34.5c1.08,26.15.06,51.7,3.79,77.66,3.76,26.14,6.06,51.42,2.85,77.68-4.69,38.43-14.52,70.15-52.01,86.38,12.29-.96,22.07-6.77,31.45-14.58l.25,26.44c-6.05,9.99-16.53,17.26-27.81,21.9-31.43,12.94-79.68,11.64-104.38-13.67l-6.28-22.32c10.03,3.45,18.93,6.84,30.09,3.83Z"/>
              <path class="cls-1" d="M877.12,260.62c10.87,6.45,21.3,12.26,28.98,22.56-27.19-17.88-54.54-30.31-86.09-38.86,20.35-.38,38.69,7.88,57.11,16.3Z"/>
              <path class="cls-1" d="M825.25,135.24l-22.64-.18c7.24-3.57,15.53-3.45,22.64.18Z"/>
              <path class="cls-1" d="M949,160.17l-15.47-1.17c4.42-2.46,11.16-2.94,15.47,1.17Z"/>
            </g>
            <g>
              <path d="M877.18,191.54c-13.77-2.21-26.61-3.15-40.52-1.99l3.06-114.98,1.91-41.48c.39-8.54,4.83-17.05,12.37-21.46,9.65-5.65,21.68.1,25.46,10.22,2.4,6.41,3.26,12.69,2.99,19.73l-3.51,92.84-1.76,57.12Z"/>
              <path class="cls-1" d="M871.04,112.33l-22.33-1.01c5.67-2.79,18.56-3.41,22.33,1.01Z"/>
            </g>
            <g>
              <path d="M921.37,203.99c-6.48-1.82-12.29-2.05-18.63-1.98-6.2-3.83-12.01-7.35-19.74-9.16l5.56-143.46c.25-6.33,7.38-10.85,11.95-11.89,13.38-3.04,22.06,12.84,22,25.22l-.16,31.27-.98,110.01Z"/>
              <path class="cls-1" d="M913.22,134.8l-19.5-1.7c5.96-2.7,13.1-2.83,19.5,1.7Z"/>
            </g>
          </g>
          <g>
            <path class="cls-1" d="M443.04,429.1c-9.12,26.71-29.33,44.62-55.85,52.96-32.16,10.12-67.88,8.49-98.37-6.38-21.16-10.32-35.38-28.85-40.75-51.36-7.33-27.55-5.1-55.96,15.22-76.76-13.71-35.57-15.88-76.78-10.27-114.11,2.23-14.86,3.98-28.75,4.36-43.79l1.85-73.11c.27-10.75,2.95-21.26,8.87-29.69,6.62-9.44,18.76-11.1,27.42-3.95-.3-16.96-1.12-33.19,9.88-45.05,8.33-8.32,21.93-9.02,30.61-.26.78-17.7,8.46-33.28,25.49-34.06,8.77-.4,16.66,4.26,21.46,11.96,5.11,8.2,5.87,17.07,6.93,27.71,5-8.05,12.09-12.17,20.42-12.31s15.66,4.28,20.55,11.8c3.81,6.49,6.55,13.81,6.96,22.01l6.6,131.54,3.41,23.14c7.64-13.83,17.03-24.98,30.71-31.21,10.23-4.66,22.07-5.1,30.97,1.46,8.36,6.16,11.2,16.72,6.04,25.55l-14.34,24.57c-13.82,23.69-8.26,42.78-18.18,65.89-8.68,20.22-20.43,38.4-35.09,55.02,8.02,22.36,2.77,45.44-4.9,68.42Z"/>
            <path d="M427.68,376.96c5.82-3.73,10.63-6.9,15.16-11.87,6.59,18.5,1.29,40.35-4.32,58.88-7.31,24.14-24.18,42.38-48.35,50.99-28.75,10.24-60.32,9.95-89.2-.4-19.31-6.92-34.97-20.35-42.74-39.25-10.96-26.66-12.61-61.26,8.14-81.89l3.26,5.45c-9.77,18.96-1.09,41.78,15.9,54.99,26.61,20.69,67.59,23.77,99.13,13.42,23.31-7.65,41.77-24.45,43.02-50.31Z"/>
            <path d="M273.03,387.21c-3.18-7.76-3.4-15.66.18-23.48.53,8.3.57,15.28-.18,23.48Z"/>
            <path d="M420.26,389.59c-.73-2.93.25-5.05,1.31-7.24.75,2.89-.24,5.07-1.31,7.24Z"/>
            <g>
              <path d="M385.49,386.72c10.35,3.19,20.39-.15,30.91-4.15l-5.75,21.86c-24.04,26.01-72.33,27.65-104.26,14.68-11.37-4.62-21.89-11.54-28.06-22.07l-.04-26.75c9.53,8.18,19.34,14.31,31.21,14.64-20.32-8.88-34.61-23.24-41.84-43.21-7.3-20.16-10.21-40.72-11.17-62.22-.96-21.44,2-41.34,4.72-62.5,4.19-32.53,2.98-64.66,4.06-97.3.57-17.23,5.82-38.54,20.93-35.01,5.53,1.29,9.66,6.4,9.71,12.81l.84,108.72c-8.11,3.9-16.04,7.4-22.02,14.56,47.49-21.68,92.45-34.03,144.51-21.35-7.61-5.71-16.75-7.76-25.99-9.42l-2.71-119.41c-.36-15.82,3.06-32.37,18.15-33.85,17.29-1.69,23.06,17.97,23.89,36.06l5.92,127.93c.86,10.29,4.94,20.46,3.64,30.41-1.34,10.25-7.74,19.41-7.01,30.67-39.6.53-72.26,37.27-69.78,76.07,10.68-41.43,27.88-63.33,69.56-73.64.65,1.43.76,2.72,2.01,3.46,9.2-28.13,15.71-60.5,43.2-73.85,8.97-4.36,19.21-4.76,27.08,1.32,5.9,4.56,6.08,12.9,2.45,18.97l-11.26,18.8c-8.06,13.46-12.78,27.42-14.09,43.09-2.31,27.61-21.3,58.46-39.65,79.08-15.52,17.43-35.56,27.5-59.15,31.57Z"/>
              <path class="cls-1" d="M359.14,260.3c-14.87,6.41-27.14,15.06-41.35,22.43,8.18-9.03,17.56-15.82,28.17-21.22,18.41-9.37,37.72-16.91,58.76-17.38-16.02,5.02-30.52,8.9-45.59,16.18Z"/>
              <path class="cls-1" d="M422.2,135l-22.83.11c6.96-3.73,15.22-3.76,22.83-.11Z"/>
              <path class="cls-1" d="M290.8,158.58c-5.84,1.48-10.45.94-16.23,1.73,4.38-3.68,10.5-3.85,16.23-1.73Z"/>
            </g>
            <g>
              <path d="M387.41,189.32c-13.85-.68-26.36-.55-40.15,2.36l-5.25-149.03c-.55-15.52,4.35-31.78,18.59-33.17,17.17-1.67,23.14,16.84,23.55,35.18l3.26,144.66Z"/>
              <path class="cls-1" d="M374.87,111.4c-7.65.17-14.32-.39-22.23,1.14,3.16-3.95,7.79-3.02,12.28-3.02,3.55,0,6.95-.99,9.95,1.88Z"/>
            </g>
            <g>
              <path d="M302.67,204.2l-.83-103.65c-.15-19.01-3.7-42.68,5.87-56.21,3.84-5.42,10.14-8.47,16.47-6.84,5.66,1.46,11.87,5.98,12.12,12.92l5.03,142.3c-7.36,2.14-13.92,4.98-20.36,9.31-6.45-.04-12.51,0-18.29,2.16Z"/>
              <path class="cls-1" d="M330.15,132.72l-19.5,2.47c5.17-3.96,12.37-5.11,19.5-2.47Z"/>
            </g>
          </g>
        </g>
      </g>
      <g class="cls-2">
        <path class="cls-1" d="M272.49,548.51h12.38v15.62h3.67v9.25h-16.06v-24.88Z"/>
        <path class="cls-1" d="M290.6,562.78c0-3.66.83-6.41,2.5-8.26,1.67-1.85,4.4-2.77,8.19-2.77s6.43.77,7.92,2.3c1.49,1.54,2.23,4.06,2.23,7.56l-.18,2.77h-9.94v1.22c.6.14,1.48.22,2.63.22,2.45,0,4.43-.11,5.94-.32l.76-.11v6.77c-.19.12-.5.27-.92.45-.42.18-1.42.41-3.01.7-1.58.29-3.35.43-5.29.43-3.84,0-6.61-.91-8.3-2.74-1.69-1.82-2.54-4.57-2.54-8.23ZM300.79,561.18v1.4h2.05v-1.4c0-.31-.1-.56-.31-.76-.21-.19-.46-.29-.76-.29s-.54.1-.72.29c-.18.19-.27.44-.27.76Z"/>
        <path class="cls-1" d="M314,552.57c0-4.39,2.54-6.59,7.63-6.59,1.34,0,2.54.08,3.58.23,1.04.16,1.76.31,2.14.45l.54.22v7.2h-3.82v1.58h3.82v9.72h-2.59v7.99h-10.69v-7.99h-1.4v-8.89l1.62-.83c-.55-.79-.83-1.82-.83-3.1Z"/>
        <path class="cls-1" d="M342.83,562.15v1.62h3.24v8.5c-.12.12-.32.26-.59.41-.28.16-.99.37-2.14.65-1.15.28-2.48.41-4,.41-5.5,0-8.24-2.4-8.24-7.2v-4.39h-1.4v-8.96c1.03-.31,1.95-.89,2.74-1.73.79-.84,1.33-1.6,1.62-2.27l.43-1.04h9.04v3.96h2.56v10.04h-3.24Z"/>
        <path class="cls-1" d="M372.35,559.74v-11.23h11.84v24.88h-11.84v-8.39h-2.09v8.39h-11.81v-24.88h11.81v11.23h2.09Z"/>
        <path class="cls-1" d="M407.38,559.77l-.18,4.43.9-.04v8.17c-.43.36-1.18.68-2.23.97-1.06.29-2.05.43-2.99.43s-1.68-.08-2.23-.25c-.55-.17-.96-.35-1.22-.56-.27-.2-.47-.44-.61-.7-.21-.38-.32-.71-.32-.97-1.32,1.66-3.42,2.48-6.3,2.48-3.96,0-5.94-1.68-5.94-5.04,0-2.02.77-3.45,2.3-4.3,1.54-.85,4.22-1.36,8.06-1.53,0-.84-.92-1.26-2.77-1.26-1.25,0-2.44.16-3.58.47-1.14.31-1.96.62-2.47.94l-.79.47v-9.47c.22-.17.54-.38.97-.63.43-.25,1.45-.59,3.06-1.01,1.61-.42,3.37-.63,5.29-.63,3.84,0,6.64.65,8.41,1.94,1.76,1.3,2.65,3.32,2.65,6.08ZM397.19,565.5v-1.44l-2.05.58v.86c0,.31.1.56.31.76.2.19.46.29.76.29s.54-.1.72-.29c.18-.19.27-.44.27-.76Z"/>
        <path class="cls-1" d="M420.12,561.97v11.41h-10.19v-21.28h9.04l.36,2.63c.1-.26.31-.59.65-.97.34-.38.7-.71,1.08-.97,1.06-.7,2.46-1.04,4.21-1.04,2.35,0,4.12.65,5.31,1.94,1.19,1.3,1.78,3.18,1.78,5.65v14.04h-10.19v-11.41c0-.29-.1-.53-.31-.74-.21-.2-.45-.31-.74-.31s-.53.1-.72.31c-.19.2-.29.45-.29.74Z"/>
        <path class="cls-1" d="M456.88,573.38h-9.07l-.36-2.63c-.1.26-.29.59-.59.97s-.62.71-.95.97c-.89.7-2.03,1.04-3.42,1.04-2.52,0-4.49-.96-5.9-2.88-1.42-1.92-2.12-4.6-2.12-8.05s.72-6.15,2.16-8.12c1.44-1.97,3.41-2.95,5.9-2.95.77,0,1.45.09,2.05.27.6.18,1.01.35,1.22.52l.32.25v-6.23h10.76v26.82ZM444.64,562.47v3.02c0,.31.09.56.27.76.18.19.42.29.72.29s.55-.1.76-.29c.2-.19.31-.44.31-.76v-3.02c0-.29-.1-.53-.31-.74-.2-.2-.45-.31-.74-.31s-.53.1-.72.31c-.19.2-.29.45-.29.74Z"/>
        <path class="cls-1" d="M160.34,630.98v-16.8h1.46l7.68,13.1h-.77l7.61-13.1h1.46v16.8h-1.7v-14.14h.41l-7.01,12h-.84l-7.06-12h.46v14.14h-1.7Z"/>
        <path class="cls-1" d="M188.03,631.1c-1.22,0-2.31-.28-3.28-.83-.97-.55-1.73-1.31-2.29-2.28-.56-.97-.84-2.08-.84-3.32s.28-2.38.84-3.34c.56-.96,1.32-1.71,2.28-2.26.96-.54,2.05-.82,3.29-.82s2.36.27,3.32.82c.97.54,1.73,1.3,2.28,2.26s.83,2.07.83,3.34-.28,2.36-.83,3.32-1.32,1.73-2.29,2.28c-.98.55-2.08.83-3.31.83ZM188.03,629.59c.91,0,1.72-.2,2.42-.61.7-.41,1.26-.98,1.67-1.73s.61-1.6.61-2.58-.2-1.86-.61-2.59-.96-1.31-1.67-1.72c-.7-.41-1.5-.61-2.4-.61s-1.7.2-2.4.61c-.71.41-1.26.98-1.68,1.72-.42.74-.62,1.6-.62,2.59s.21,1.84.62,2.58c.42.74.98,1.32,1.68,1.73.7.41,1.5.61,2.38.61Z"/>
        <path class="cls-1" d="M200.83,630.98l-5.59-12.6h1.78l5.14,11.69h-.84l5.21-11.69h1.68l-5.62,12.6h-1.75Z"/>
        <path class="cls-1" d="M215.59,631.1c-1.31,0-2.46-.28-3.46-.83-.99-.55-1.77-1.31-2.33-2.28-.56-.97-.84-2.08-.84-3.32s.27-2.35.8-3.31c.54-.96,1.27-1.72,2.21-2.27.94-.55,1.99-.83,3.16-.83s2.24.27,3.16.8c.92.54,1.64,1.29,2.17,2.26.53.97.79,2.08.79,3.35,0,.08,0,.16-.01.25,0,.09-.01.18-.01.28h-10.97v-1.27h10.06l-.67.5c0-.91-.2-1.72-.59-2.44-.39-.71-.92-1.27-1.6-1.67s-1.45-.6-2.33-.6-1.64.2-2.33.6c-.69.4-1.22.96-1.61,1.68-.38.72-.58,1.54-.58,2.47v.26c0,.96.21,1.8.64,2.53.42.73,1.02,1.3,1.78,1.7.76.41,1.63.61,2.6.61.77,0,1.48-.14,2.15-.41s1.24-.69,1.72-1.25l.96,1.1c-.56.67-1.26,1.18-2.1,1.54-.84.35-1.76.53-2.77.53Z"/>
        <path class="cls-1" d="M231.7,619.8v-1.42h7.8v1.42h-7.8ZM237.65,631.1c-1.18,0-2.1-.32-2.74-.96s-.96-1.54-.96-2.71v-11.83h1.7v11.74c0,.74.19,1.3.56,1.7s.92.6,1.62.6c.75,0,1.38-.22,1.87-.65l.6,1.22c-.34.3-.74.53-1.21.67-.47.14-.96.22-1.45.22Z"/>
        <path class="cls-1" d="M248.09,631.1c-1.22,0-2.31-.28-3.28-.83-.97-.55-1.73-1.31-2.29-2.28s-.84-2.08-.84-3.32.28-2.38.84-3.34,1.32-1.71,2.28-2.26,2.06-.82,3.29-.82,2.36.27,3.32.82c.97.54,1.73,1.3,2.28,2.26.55.96.83,2.07.83,3.34s-.28,2.36-.83,3.32c-.55.97-1.32,1.73-2.29,2.28-.98.55-2.08.83-3.31.83ZM248.09,629.59c.91,0,1.72-.2,2.42-.61.7-.41,1.26-.98,1.67-1.73s.61-1.6.61-2.58-.2-1.86-.61-2.59-.96-1.31-1.67-1.72c-.7-.41-1.5-.61-2.4-.61s-1.7.2-2.4.61c-.71.41-1.26.98-1.68,1.72-.42.74-.62,1.6-.62,2.59s.21,1.84.62,2.58c.42.74.97,1.32,1.68,1.73.7.41,1.5.61,2.38.61Z"/>
        <path class="cls-1" d="M270.49,631.1c-.94,0-1.76-.16-2.46-.47s-1.23-.74-1.6-1.3c-.37-.55-.55-1.19-.55-1.91,0-.66.16-1.25.47-1.79s.82-.97,1.54-1.3c.71-.33,1.67-.49,2.87-.49h4.34v1.27h-4.3c-1.22,0-2.06.22-2.53.65s-.71.97-.71,1.61c0,.72.28,1.3.84,1.73s1.34.65,2.35.65,1.79-.22,2.48-.66c.7-.44,1.2-1.08,1.52-1.91l.38,1.18c-.32.83-.88,1.5-1.67,1.99-.79.5-1.79.74-2.99.74ZM274.83,630.98v-2.78l-.07-.46v-4.66c0-1.07-.3-1.9-.9-2.47-.6-.58-1.49-.86-2.68-.86-.82,0-1.59.14-2.33.41-.74.27-1.36.63-1.87,1.08l-.77-1.27c.64-.54,1.41-.96,2.3-1.26s1.84-.44,2.83-.44c1.63,0,2.89.4,3.78,1.21.89.81,1.33,2.04,1.33,3.68v7.82h-1.63Z"/>
        <path class="cls-1" d="M286.33,631.1c-1.25,0-2.36-.28-3.35-.83-.98-.55-1.76-1.31-2.32-2.28-.56-.97-.84-2.08-.84-3.32s.28-2.38.84-3.34c.56-.96,1.33-1.71,2.32-2.26s2.1-.82,3.35-.82c1.07,0,2.04.21,2.9.62.86.42,1.54,1.04,2.04,1.87l-1.27.86c-.43-.64-.97-1.11-1.61-1.42-.64-.3-1.34-.46-2.09-.46-.9,0-1.7.2-2.42.61-.72.41-1.29.98-1.7,1.72-.42.74-.62,1.6-.62,2.59s.21,1.86.62,2.59c.42.74.98,1.31,1.7,1.72.72.41,1.53.61,2.42.61.75,0,1.45-.15,2.09-.46.64-.3,1.18-.77,1.61-1.39l1.27.86c-.5.82-1.18,1.44-2.04,1.86-.86.42-1.83.64-2.9.64Z"/>
        <path class="cls-1" d="M292.78,619.8v-1.42h7.8v1.42h-7.8ZM298.73,631.1c-1.18,0-2.1-.32-2.74-.96-.64-.64-.96-1.54-.96-2.71v-11.83h1.7v11.74c0,.74.19,1.3.56,1.7.38.4.92.6,1.62.6.75,0,1.38-.22,1.87-.65l.6,1.22c-.34.3-.74.53-1.21.67-.47.14-.96.22-1.45.22Z"/>
        <path class="cls-1" d="M305.36,615.6c-.35,0-.65-.12-.89-.36-.24-.24-.36-.53-.36-.86s.12-.62.36-.85c.24-.23.54-.35.89-.35s.65.11.89.34c.24.22.36.5.36.84s-.12.65-.35.89c-.23.24-.53.36-.9.36ZM304.49,630.98v-12.6h1.7v12.6h-1.7Z"/>
        <path class="cls-1" d="M314.19,630.98l-5.59-12.6h1.78l5.14,11.69h-.84l5.21-11.69h1.68l-5.62,12.6h-1.75Z"/>
        <path class="cls-1" d="M327.03,631.1c-.94,0-1.76-.16-2.46-.47-.7-.31-1.23-.74-1.6-1.3-.37-.55-.55-1.19-.55-1.91,0-.66.16-1.25.47-1.79.31-.54.82-.97,1.54-1.3.71-.33,1.67-.49,2.87-.49h4.34v1.27h-4.3c-1.22,0-2.06.22-2.53.65-.47.43-.71.97-.71,1.61,0,.72.28,1.3.84,1.73.56.43,1.34.65,2.35.65s1.79-.22,2.48-.66c.7-.44,1.21-1.08,1.53-1.91l.38,1.18c-.32.83-.88,1.5-1.67,1.99-.79.5-1.79.74-2.99.74ZM331.37,630.98v-2.78l-.07-.46v-4.66c0-1.07-.3-1.9-.9-2.47-.6-.58-1.49-.86-2.68-.86-.82,0-1.59.14-2.33.41-.74.27-1.36.63-1.87,1.08l-.77-1.27c.64-.54,1.41-.96,2.3-1.26.9-.3,1.84-.44,2.83-.44,1.63,0,2.89.4,3.78,1.21.89.81,1.33,2.04,1.33,3.68v7.82h-1.63Z"/>
        <path class="cls-1" d="M335.67,619.8v-1.42h7.8v1.42h-7.8ZM341.62,631.1c-1.18,0-2.1-.32-2.74-.96s-.96-1.54-.96-2.71v-11.83h1.7v11.74c0,.74.19,1.3.56,1.7s.92.6,1.62.6c.75,0,1.38-.22,1.87-.65l.6,1.22c-.34.3-.74.53-1.21.67-.47.14-.96.22-1.45.22Z"/>
        <path class="cls-1" d="M352.28,631.1c-1.31,0-2.46-.28-3.46-.83-.99-.55-1.77-1.31-2.33-2.28s-.84-2.08-.84-3.32.27-2.35.8-3.31,1.27-1.72,2.21-2.27c.94-.55,1.99-.83,3.16-.83s2.24.27,3.16.8c.92.54,1.64,1.29,2.17,2.26.53.97.79,2.08.79,3.35,0,.08,0,.16-.01.25,0,.09-.01.18-.01.28h-10.97v-1.27h10.06l-.67.5c0-.91-.2-1.72-.59-2.44s-.92-1.27-1.6-1.67-1.45-.6-2.33-.6-1.64.2-2.33.6-1.22.96-1.61,1.68c-.38.72-.58,1.54-.58,2.47v.26c0,.96.21,1.8.64,2.53s1.02,1.3,1.78,1.7c.76.41,1.63.61,2.6.61.77,0,1.48-.14,2.15-.41s1.24-.69,1.72-1.25l.96,1.1c-.56.67-1.26,1.18-2.1,1.54-.84.35-1.76.53-2.77.53Z"/>
        <path class="cls-1" d="M368.39,619.8v-1.42h7.8v1.42h-7.8ZM374.34,631.1c-1.18,0-2.1-.32-2.74-.96-.64-.64-.96-1.54-.96-2.71v-11.83h1.7v11.74c0,.74.19,1.3.56,1.7.38.4.92.6,1.62.6.75,0,1.38-.22,1.87-.65l.6,1.22c-.34.3-.74.53-1.21.67-.47.14-.96.22-1.45.22Z"/>
        <path class="cls-1" d="M380.1,630.98v-12.6h1.63v3.43l-.17-.6c.35-.96.94-1.69,1.78-2.2.83-.5,1.86-.76,3.1-.76v1.66c-.06,0-.13,0-.19-.01-.06,0-.13-.01-.19-.01-1.33,0-2.37.4-3.12,1.21-.75.81-1.13,1.96-1.13,3.44v6.43h-1.7Z"/>
        <path class="cls-1" d="M394.76,631.1c-1.31,0-2.46-.28-3.46-.83-.99-.55-1.77-1.31-2.33-2.28-.56-.97-.84-2.08-.84-3.32s.27-2.35.8-3.31c.54-.96,1.27-1.72,2.21-2.27.94-.55,1.99-.83,3.16-.83s2.24.27,3.16.8c.92.54,1.64,1.29,2.17,2.26.53.97.79,2.08.79,3.35,0,.08,0,.16-.01.25,0,.09-.01.18-.01.28h-10.97v-1.27h10.06l-.67.5c0-.91-.2-1.72-.59-2.44-.39-.71-.92-1.27-1.6-1.67s-1.45-.6-2.33-.6-1.64.2-2.33.6c-.69.4-1.22.96-1.61,1.68-.38.72-.58,1.54-.58,2.47v.26c0,.96.21,1.8.64,2.53.42.73,1.02,1.3,1.78,1.7.76.41,1.63.61,2.6.61.77,0,1.48-.14,2.15-.41s1.24-.69,1.72-1.25l.96,1.1c-.56.67-1.26,1.18-2.1,1.54-.84.35-1.76.53-2.77.53Z"/>
        <path class="cls-1" d="M403.91,630.98v-12.6h1.63v3.41l-.26-.6c.38-.91,1-1.63,1.86-2.15s1.87-.78,3.04-.78c1.23,0,2.28.31,3.14.92.86.62,1.42,1.54,1.68,2.77l-.67-.26c.37-1.02,1.02-1.85,1.96-2.48.94-.63,2.06-.95,3.37-.95,1.02,0,1.92.2,2.68.59s1.35.99,1.78,1.79c.42.8.64,1.81.64,3.02v7.32h-1.7v-7.15c0-1.33-.32-2.33-.95-3.01-.63-.68-1.52-1.02-2.68-1.02-.86,0-1.61.18-2.24.54s-1.12.88-1.46,1.56c-.34.68-.52,1.5-.52,2.46v6.62h-1.7v-7.15c0-1.33-.32-2.33-.96-3.01-.64-.68-1.54-1.02-2.69-1.02-.85,0-1.59.18-2.23.54s-1.13.88-1.48,1.56c-.34.68-.52,1.5-.52,2.46v6.62h-1.71Z"/>
        <path class="cls-1" d="M434.51,631.1c-1.22,0-2.31-.28-3.28-.83-.97-.55-1.73-1.31-2.29-2.28s-.84-2.08-.84-3.32.28-2.38.84-3.34,1.32-1.71,2.28-2.26,2.06-.82,3.29-.82,2.36.27,3.32.82c.97.54,1.73,1.3,2.28,2.26.55.96.83,2.07.83,3.34s-.28,2.36-.83,3.32c-.55.97-1.32,1.73-2.29,2.28-.98.55-2.08.83-3.31.83ZM434.51,629.59c.91,0,1.72-.2,2.42-.61.7-.41,1.26-.98,1.67-1.73s.61-1.6.61-2.58-.2-1.86-.61-2.59-.96-1.31-1.67-1.72c-.7-.41-1.5-.61-2.4-.61s-1.7.2-2.4.61c-.71.41-1.26.98-1.68,1.72-.42.74-.62,1.6-.62,2.59s.21,1.84.62,2.58c.42.74.97,1.32,1.68,1.73.7.41,1.5.61,2.38.61Z"/>
        <path class="cls-1" d="M444.42,630.98v-17.81h1.71v17.81h-1.71Z"/>
        <path class="cls-1" d="M456.01,631.1c-1.22,0-2.31-.28-3.28-.83-.97-.55-1.73-1.31-2.29-2.28s-.84-2.08-.84-3.32.28-2.38.84-3.34,1.32-1.71,2.28-2.26,2.06-.82,3.29-.82,2.36.27,3.32.82c.97.54,1.73,1.3,2.28,2.26.55.96.83,2.07.83,3.34s-.28,2.36-.83,3.32c-.55.97-1.32,1.73-2.29,2.28-.98.55-2.08.83-3.31.83ZM456.01,629.59c.91,0,1.72-.2,2.42-.61.7-.41,1.26-.98,1.67-1.73s.61-1.6.61-2.58-.2-1.86-.61-2.59-.96-1.31-1.67-1.72c-.7-.41-1.5-.61-2.4-.61s-1.7.2-2.4.61c-.71.41-1.26.98-1.68,1.72-.42.74-.62,1.6-.62,2.59s.21,1.84.62,2.58c.42.74.97,1.32,1.68,1.73.7.41,1.5.61,2.38.61Z"/>
        <path class="cls-1" d="M465.73,631.1c-.35,0-.65-.13-.9-.38-.25-.26-.37-.57-.37-.94s.12-.7.37-.94c.25-.24.55-.36.9-.36s.65.12.9.36c.25.24.37.55.37.94s-.12.68-.37.94c-.25.26-.55.38-.9.38Z"/>
        <path class="cls-1" d="M487.24,631.13c-1.26,0-2.43-.21-3.5-.64-1.07-.42-2-1.02-2.78-1.79-.78-.77-1.4-1.67-1.84-2.71-.44-1.04-.66-2.18-.66-3.41s.22-2.37.66-3.41c.44-1.04,1.06-1.94,1.85-2.71s1.72-1.36,2.8-1.79c1.07-.42,2.24-.64,3.5-.64s2.36.2,3.43.61c1.07.41,1.98,1.02,2.71,1.84l-1.13,1.13c-.69-.7-1.45-1.21-2.28-1.52s-1.73-.47-2.69-.47c-1.01,0-1.94.17-2.81.52-.86.34-1.62.83-2.26,1.46-.64.63-1.14,1.37-1.5,2.21-.36.84-.54,1.76-.54,2.77s.18,1.93.54,2.77.86,1.58,1.5,2.21c.64.63,1.39,1.12,2.26,1.46.86.34,1.8.52,2.81.52s1.86-.16,2.69-.48c.83-.32,1.59-.83,2.28-1.54l1.13,1.13c-.74.82-1.64,1.43-2.71,1.85-1.07.42-2.22.62-3.46.62Z"/>
        <path class="cls-1" d="M496.6,630.98v-17.81h1.71v8.66l-.34-.65c.4-.91,1.04-1.63,1.92-2.15.88-.52,1.93-.78,3.14-.78,1.02,0,1.92.2,2.7.59.78.39,1.38.99,1.82,1.79.44.8.66,1.81.66,3.02v7.32h-1.71v-7.15c0-1.33-.33-2.33-1-3.01-.66-.68-1.6-1.02-2.79-1.02-.9,0-1.68.18-2.34.54s-1.18.88-1.54,1.56c-.36.68-.54,1.5-.54,2.46v6.62h-1.71Z"/>
        <path class="cls-1" d="M516.38,631.1c-.95,0-1.76-.16-2.46-.47-.7-.31-1.23-.74-1.6-1.3-.37-.55-.55-1.19-.55-1.91,0-.66.16-1.25.47-1.79s.82-.97,1.54-1.3c.71-.33,1.67-.49,2.87-.49h4.34v1.27h-4.3c-1.22,0-2.06.22-2.53.65-.47.43-.71.97-.71,1.61,0,.72.28,1.3.84,1.73s1.34.65,2.35.65,1.79-.22,2.48-.66,1.2-1.08,1.52-1.91l.38,1.18c-.32.83-.88,1.5-1.67,1.99-.79.5-1.79.74-2.99.74ZM520.72,630.98v-2.78l-.07-.46v-4.66c0-1.07-.3-1.9-.9-2.47-.6-.58-1.49-.86-2.68-.86-.82,0-1.59.14-2.33.41-.74.27-1.36.63-1.87,1.08l-.77-1.27c.64-.54,1.41-.96,2.3-1.26s1.84-.44,2.83-.44c1.63,0,2.89.4,3.78,1.21.89.81,1.33,2.04,1.33,3.68v7.82h-1.63Z"/>
        <path class="cls-1" d="M526.98,630.98v-12.6h1.63v3.46l-.26-.65c.4-.91,1.04-1.63,1.92-2.15s1.93-.78,3.14-.78c1.02,0,1.92.2,2.7.59s1.38.99,1.82,1.79c.44.8.66,1.81.66,3.02v7.32h-1.7v-7.15c0-1.33-.33-2.33-1-3.01-.66-.68-1.6-1.02-2.8-1.02-.9,0-1.68.18-2.34.54s-1.18.88-1.54,1.56c-.36.68-.54,1.5-.54,2.46v6.62h-1.7Z"/>
        <path class="cls-1" d="M548.27,630.5c-1.2,0-2.28-.26-3.24-.78s-1.72-1.24-2.27-2.17c-.55-.93-.83-1.99-.83-3.19s.28-2.26.83-3.18c.55-.92,1.31-1.64,2.27-2.15.96-.51,2.04-.77,3.24-.77,1.12,0,2.13.23,3.02.7.9.46,1.61,1.15,2.14,2.06.53.91.79,2.02.79,3.34s-.26,2.42-.79,3.34c-.53.91-1.24,1.61-2.14,2.09s-1.9.72-3.02.72ZM548.58,635.76c-1.15,0-2.26-.17-3.31-.5-1.06-.34-1.91-.82-2.57-1.44l.86-1.3c.59.53,1.32.95,2.2,1.26s1.8.47,2.77.47c1.6,0,2.78-.37,3.53-1.12s1.13-1.9,1.13-3.47v-3.14l.24-2.16-.17-2.16v-3.82h1.63v11.06c0,2.18-.53,3.77-1.6,4.79s-2.64,1.52-4.72,1.52ZM548.44,628.99c.93,0,1.75-.2,2.47-.59.72-.39,1.29-.94,1.7-1.63.42-.7.62-1.5.62-2.41s-.21-1.71-.62-2.4c-.42-.69-.98-1.23-1.7-1.62-.72-.39-1.54-.59-2.47-.59s-1.73.2-2.46.59c-.73.39-1.3.93-1.71,1.62-.41.69-.61,1.49-.61,2.4s.2,1.72.61,2.41c.41.7.98,1.24,1.71,1.63.73.39,1.55.59,2.46.59Z"/>
        <path class="cls-1" d="M565,631.1c-1.31,0-2.46-.28-3.46-.83-.99-.55-1.77-1.31-2.33-2.28s-.84-2.08-.84-3.32.27-2.35.8-3.31,1.27-1.72,2.21-2.27c.94-.55,1.99-.83,3.16-.83s2.24.27,3.16.8c.92.54,1.64,1.29,2.17,2.26.53.97.79,2.08.79,3.35,0,.08,0,.16-.01.25,0,.09-.01.18-.01.28h-10.97v-1.27h10.06l-.67.5c0-.91-.2-1.72-.59-2.44s-.92-1.27-1.6-1.67-1.45-.6-2.33-.6-1.64.2-2.33.6-1.22.96-1.61,1.68c-.38.72-.58,1.54-.58,2.47v.26c0,.96.21,1.8.64,2.53s1.02,1.3,1.78,1.7c.76.41,1.63.61,2.6.61.77,0,1.48-.14,2.15-.41s1.24-.69,1.72-1.25l.96,1.1c-.56.67-1.26,1.18-2.1,1.54-.84.35-1.76.53-2.77.53Z"/>
        <path class="cls-1" d="M208.99,659.9c-1.25,0-2.36-.28-3.35-.83-.98-.55-1.76-1.31-2.32-2.28-.56-.97-.84-2.08-.84-3.32s.28-2.38.84-3.34c.56-.96,1.33-1.71,2.32-2.26.98-.54,2.1-.82,3.35-.82,1.07,0,2.04.21,2.9.62.86.42,1.54,1.04,2.04,1.87l-1.27.86c-.43-.64-.97-1.11-1.61-1.42-.64-.3-1.34-.46-2.09-.46-.9,0-1.7.2-2.42.61-.72.41-1.29.98-1.7,1.72s-.62,1.6-.62,2.59.21,1.86.62,2.59c.42.74.98,1.31,1.7,1.72.72.41,1.53.61,2.42.61.75,0,1.45-.15,2.09-.46.64-.3,1.18-.77,1.61-1.39l1.27.86c-.5.82-1.18,1.44-2.04,1.86-.87.42-1.83.64-2.9.64Z"/>
        <path class="cls-1" d="M222.48,659.9c-1.07,0-2.01-.2-2.81-.6-.8-.4-1.42-1-1.86-1.8-.44-.8-.66-1.8-.66-3v-7.32h1.7v7.13c0,1.34.33,2.36,1,3.04.66.68,1.6,1.02,2.8,1.02.88,0,1.64-.18,2.29-.54s1.14-.88,1.49-1.57.52-1.51.52-2.47v-6.6h1.7v12.6h-1.63v-3.46l.26.62c-.4.93-1.02,1.65-1.86,2.17-.84.52-1.82.78-2.94.78Z"/>
        <path class="cls-1" d="M231.43,648.6v-1.42h7.8v1.42h-7.8ZM237.38,659.9c-1.18,0-2.1-.32-2.74-.96s-.96-1.54-.96-2.71v-11.83h1.7v11.74c0,.74.19,1.3.56,1.7s.92.6,1.62.6c.75,0,1.38-.22,1.87-.65l.6,1.22c-.34.3-.74.53-1.21.67-.47.14-.96.22-1.45.22Z"/>
        <path class="cls-1" d="M247.82,659.9c-1.22,0-2.31-.28-3.28-.83-.97-.55-1.73-1.31-2.29-2.28s-.84-2.08-.84-3.32.28-2.38.84-3.34,1.32-1.71,2.28-2.26,2.06-.82,3.29-.82,2.36.27,3.32.82c.97.54,1.73,1.3,2.28,2.26.55.96.83,2.07.83,3.34s-.28,2.36-.83,3.32c-.55.97-1.32,1.73-2.29,2.28-.98.55-2.08.83-3.31.83ZM247.82,658.39c.91,0,1.72-.2,2.42-.61.7-.41,1.26-.98,1.67-1.73s.61-1.6.61-2.58-.2-1.86-.61-2.59-.96-1.31-1.67-1.72c-.7-.41-1.5-.61-2.4-.61s-1.7.2-2.4.61c-.71.41-1.26.98-1.68,1.72-.42.74-.62,1.6-.62,2.59s.21,1.84.62,2.58c.42.74.97,1.32,1.68,1.73.7.41,1.5.61,2.38.61Z"/>
        <path class="cls-1" d="M255.76,648.6v-1.42h7.8v1.42h-7.8ZM258.02,659.78v-14.18c0-1.12.33-2.02.98-2.71.66-.69,1.6-1.03,2.83-1.03.48,0,.94.06,1.39.19.45.13.82.33,1.13.6l-.58,1.27c-.24-.21-.52-.36-.84-.47-.32-.1-.66-.16-1.03-.16-.72,0-1.27.2-1.66.6-.38.4-.58.99-.58,1.78v1.92l.05.79v11.4h-1.7Z"/>
        <path class="cls-1" d="M263.95,648.6v-1.42h7.8v1.42h-7.8ZM266.2,659.78v-14.18c0-1.12.33-2.02.98-2.71.66-.69,1.6-1.03,2.83-1.03.48,0,.94.06,1.39.19s.82.33,1.13.6l-.58,1.27c-.24-.21-.52-.36-.84-.47-.32-.1-.66-.16-1.03-.16-.72,0-1.27.2-1.66.6-.38.4-.58.99-.58,1.78v1.92l.05.79v11.4h-1.7Z"/>
        <path class="cls-1" d="M282.91,659.78l-4.75-12.6h1.63l4.32,11.69h-.74l4.44-11.69h1.46l4.39,11.69h-.74l4.39-11.69h1.56l-4.78,12.6h-1.61l-4.22-10.99h.5l-4.25,10.99h-1.61Z"/>
        <path class="cls-1" d="M302.3,644.4c-.35,0-.65-.12-.89-.36-.24-.24-.36-.53-.36-.86s.12-.62.36-.85c.24-.23.54-.35.89-.35s.65.11.89.34c.24.22.36.5.36.84s-.12.65-.35.89c-.23.24-.53.36-.9.36ZM301.43,659.78v-12.6h1.7v12.6h-1.7Z"/>
        <path class="cls-1" d="M305.71,648.6v-1.42h7.8v1.42h-7.8ZM311.66,659.9c-1.18,0-2.1-.32-2.74-.96-.64-.64-.96-1.54-.96-2.71v-11.83h1.7v11.74c0,.74.19,1.3.56,1.7.38.4.92.6,1.62.6.75,0,1.38-.22,1.87-.65l.6,1.22c-.34.3-.74.53-1.21.67s-.96.22-1.45.22Z"/>
        <path class="cls-1" d="M317.42,659.78v-17.81h1.7v8.66l-.34-.65c.4-.91,1.04-1.63,1.92-2.15s1.93-.78,3.14-.78c1.02,0,1.92.2,2.7.59s1.38.99,1.82,1.79c.44.8.66,1.81.66,3.02v7.32h-1.7v-7.15c0-1.33-.33-2.33-1-3.01-.66-.68-1.6-1.02-2.8-1.02-.9,0-1.68.18-2.34.54s-1.18.88-1.54,1.56c-.36.68-.54,1.5-.54,2.46v6.62h-1.7Z"/>
        <path class="cls-1" d="M339.93,659.78v-17.81h1.71v8.66l-.34-.65c.4-.91,1.04-1.63,1.92-2.15.88-.52,1.93-.78,3.14-.78,1.02,0,1.92.2,2.7.59.78.39,1.38.99,1.82,1.79.44.8.66,1.81.66,3.02v7.32h-1.71v-7.15c0-1.33-.33-2.33-1-3.01-.66-.68-1.6-1.02-2.79-1.02-.9,0-1.68.18-2.34.54s-1.18.88-1.54,1.56c-.36.68-.54,1.5-.54,2.46v6.62h-1.71Z"/>
        <path class="cls-1" d="M359.71,659.9c-.94,0-1.76-.16-2.46-.47-.7-.31-1.23-.74-1.6-1.3-.37-.55-.55-1.19-.55-1.91,0-.66.16-1.25.47-1.79.31-.54.82-.97,1.54-1.3.71-.33,1.67-.49,2.87-.49h4.34v1.27h-4.3c-1.22,0-2.06.22-2.53.65-.47.43-.71.97-.71,1.61,0,.72.28,1.3.84,1.73.56.43,1.34.65,2.35.65s1.79-.22,2.48-.66c.7-.44,1.21-1.08,1.53-1.91l.38,1.18c-.32.83-.88,1.5-1.67,1.99-.79.5-1.79.74-2.99.74ZM364.05,659.78v-2.78l-.07-.46v-4.66c0-1.07-.3-1.9-.9-2.47-.6-.58-1.49-.86-2.68-.86-.82,0-1.59.14-2.33.41-.74.27-1.36.63-1.87,1.08l-.77-1.27c.64-.54,1.41-.96,2.3-1.26.9-.3,1.84-.44,2.83-.44,1.63,0,2.89.4,3.78,1.21.89.81,1.33,2.04,1.33,3.68v7.82h-1.63Z"/>
        <path class="cls-1" d="M370.31,659.78v-12.6h1.63v3.46l-.26-.65c.4-.91,1.04-1.63,1.92-2.15.88-.52,1.93-.78,3.14-.78,1.02,0,1.92.2,2.7.59.78.39,1.38.99,1.82,1.79.44.8.66,1.81.66,3.02v7.32h-1.7v-7.15c0-1.33-.33-2.33-1-3.01-.66-.68-1.6-1.02-2.8-1.02-.9,0-1.68.18-2.34.54s-1.18.88-1.54,1.56c-.36.68-.54,1.5-.54,2.46v6.62h-1.7Z"/>
        <path class="cls-1" d="M391.55,659.9c-1.2,0-2.28-.27-3.23-.82-.95-.54-1.7-1.3-2.24-2.27-.54-.97-.82-2.08-.82-3.35s.27-2.4.82-3.36c.54-.96,1.29-1.71,2.24-2.24.95-.54,2.03-.8,3.23-.8,1.1,0,2.09.25,2.96.74.87.5,1.57,1.22,2.09,2.17.52.95.78,2.12.78,3.49s-.26,2.52-.77,3.48-1.2,1.69-2.08,2.2c-.87.5-1.87.76-2.99.76ZM391.67,658.39c.9,0,1.7-.2,2.41-.61.71-.41,1.27-.98,1.68-1.73s.61-1.6.61-2.58-.2-1.86-.61-2.59-.97-1.31-1.68-1.72c-.71-.41-1.52-.61-2.41-.61s-1.67.2-2.38.61c-.7.41-1.26.98-1.68,1.72s-.62,1.6-.62,2.59.21,1.84.62,2.58.98,1.32,1.68,1.73c.7.41,1.5.61,2.38.61ZM396.43,659.78v-3.79l.17-2.54-.24-2.54v-8.93h1.7v17.81h-1.63Z"/>
        <path class="cls-1" d="M414.23,659.9c-1.22,0-2.31-.28-3.28-.83-.97-.55-1.73-1.31-2.29-2.28s-.84-2.08-.84-3.32.28-2.38.84-3.34,1.32-1.71,2.28-2.26,2.06-.82,3.29-.82,2.36.27,3.32.82c.97.54,1.73,1.3,2.28,2.26.55.96.83,2.07.83,3.34s-.28,2.36-.83,3.32c-.55.97-1.32,1.73-2.29,2.28-.98.55-2.08.83-3.31.83ZM414.23,658.39c.91,0,1.72-.2,2.42-.61.7-.41,1.26-.98,1.67-1.73s.61-1.6.61-2.58-.2-1.86-.61-2.59-.96-1.31-1.67-1.72c-.7-.41-1.5-.61-2.4-.61s-1.7.2-2.4.61c-.71.41-1.26.98-1.68,1.72-.42.74-.62,1.6-.62,2.59s.21,1.84.62,2.58c.42.74.97,1.32,1.68,1.73.7.41,1.5.61,2.38.61Z"/>
        <path class="cls-1" d="M424.14,664.44v-17.26h1.63v3.79l-.17,2.52.24,2.54v8.4h-1.71ZM430.65,659.9c-1.09,0-2.07-.25-2.95-.76-.88-.5-1.58-1.23-2.1-2.18-.52-.95-.78-2.12-.78-3.49s.26-2.54.77-3.49c.51-.95,1.21-1.68,2.09-2.17.88-.5,1.87-.74,2.98-.74,1.2,0,2.28.27,3.23.8.95.54,1.7,1.29,2.24,2.26.54.97.82,2.08.82,3.35s-.27,2.4-.82,3.36c-.54.96-1.29,1.71-2.24,2.26-.95.54-2.03.82-3.23.82ZM430.53,658.39c.9,0,1.7-.2,2.4-.61.7-.41,1.26-.98,1.68-1.73s.62-1.6.62-2.58-.21-1.83-.62-2.57-.98-1.31-1.68-1.73c-.71-.42-1.5-.62-2.4-.62s-1.7.21-2.41.62c-.71.42-1.27.99-1.68,1.73s-.61,1.59-.61,2.57.2,1.84.61,2.58.97,1.32,1.68,1.73c.71.41,1.52.61,2.41.61Z"/>
        <path class="cls-1" d="M445.77,659.9c-1.31,0-2.46-.28-3.46-.83-.99-.55-1.77-1.31-2.33-2.28-.56-.97-.84-2.08-.84-3.32s.27-2.35.8-3.31c.54-.96,1.27-1.72,2.21-2.27.94-.55,1.99-.83,3.16-.83s2.24.27,3.16.8c.92.54,1.64,1.29,2.17,2.26.53.97.79,2.08.79,3.35,0,.08,0,.16-.01.25,0,.09-.01.18-.01.28h-10.97v-1.27h10.06l-.67.5c0-.91-.2-1.72-.59-2.44-.39-.71-.92-1.27-1.6-1.67s-1.45-.6-2.33-.6-1.64.2-2.33.6c-.69.4-1.22.96-1.61,1.68-.38.72-.58,1.54-.58,2.47v.26c0,.96.21,1.8.64,2.53.42.73,1.02,1.3,1.78,1.7.76.41,1.63.61,2.6.61.77,0,1.48-.14,2.15-.41s1.24-.69,1.72-1.25l.96,1.1c-.56.67-1.26,1.18-2.1,1.54-.84.35-1.76.53-2.77.53Z"/>
        <path class="cls-1" d="M454.91,659.78v-12.6h1.63v3.46l-.26-.65c.4-.91,1.04-1.63,1.92-2.15.88-.52,1.93-.78,3.14-.78,1.02,0,1.92.2,2.7.59.78.39,1.38.99,1.82,1.79.44.8.66,1.81.66,3.02v7.32h-1.71v-7.15c0-1.33-.33-2.33-1-3.01-.66-.68-1.6-1.02-2.79-1.02-.9,0-1.68.18-2.34.54s-1.18.88-1.54,1.56c-.36.68-.54,1.5-.54,2.46v6.62h-1.71Z"/>
        <path class="cls-1" d="M471.14,659.78v-12.6h1.63v3.46l-.26-.65c.4-.91,1.04-1.63,1.92-2.15.88-.52,1.93-.78,3.14-.78,1.02,0,1.92.2,2.7.59.78.39,1.38.99,1.82,1.79.44.8.66,1.81.66,3.02v7.32h-1.7v-7.15c0-1.33-.33-2.33-1-3.01-.66-.68-1.6-1.02-2.8-1.02-.9,0-1.68.18-2.34.54s-1.18.88-1.54,1.56c-.36.68-.54,1.5-.54,2.46v6.62h-1.7Z"/>
        <path class="cls-1" d="M492.71,659.9c-1.31,0-2.46-.28-3.46-.83-.99-.55-1.77-1.31-2.33-2.28s-.84-2.08-.84-3.32.27-2.35.8-3.31c.54-.96,1.27-1.72,2.21-2.27.94-.55,1.99-.83,3.16-.83s2.24.27,3.16.8c.92.54,1.64,1.29,2.17,2.26.53.97.79,2.08.79,3.35,0,.08,0,.16-.01.25,0,.09-.01.18-.01.28h-10.97v-1.27h10.06l-.67.5c0-.91-.2-1.72-.59-2.44s-.92-1.27-1.6-1.67-1.45-.6-2.33-.6-1.64.2-2.33.6-1.22.96-1.61,1.68c-.38.72-.58,1.54-.58,2.47v.26c0,.96.21,1.8.64,2.53.42.73,1.02,1.3,1.78,1.7.76.41,1.63.61,2.6.61.77,0,1.48-.14,2.15-.41s1.24-.69,1.72-1.25l.96,1.1c-.56.67-1.26,1.18-2.1,1.54-.84.35-1.76.53-2.77.53Z"/>
        <path class="cls-1" d="M505.24,659.9c-1.04,0-2.02-.15-2.95-.44-.93-.3-1.66-.67-2.18-1.12l.77-1.34c.51.38,1.17.72,1.97,1,.8.28,1.64.42,2.52.42,1.2,0,2.06-.19,2.59-.56.53-.38.79-.88.79-1.5,0-.46-.15-.83-.45-1.09-.29-.26-.68-.46-1.16-.6-.48-.14-1.02-.25-1.61-.35-.59-.1-1.18-.21-1.76-.34-.58-.13-1.12-.32-1.6-.56-.48-.25-.87-.59-1.16-1.02-.3-.43-.44-1.01-.44-1.73s.19-1.3.58-1.85c.38-.54.95-.97,1.69-1.28.74-.31,1.65-.47,2.72-.47.82,0,1.63.11,2.45.32.82.22,1.49.5,2.02.85l-.74,1.37c-.56-.38-1.16-.66-1.8-.83s-1.28-.25-1.92-.25c-1.14,0-1.97.2-2.51.59-.54.39-.8.89-.8,1.5,0,.48.15.86.44,1.13.3.27.69.48,1.18.64s1.02.28,1.61.37c.58.1,1.17.21,1.75.35.58.14,1.12.32,1.61.55.49.23.88.56,1.18.98.29.42.44.98.44,1.67,0,.74-.2,1.37-.61,1.91s-1,.95-1.78,1.25c-.78.3-1.72.44-2.82.44Z"/>
        <path class="cls-1" d="M516.95,659.9c-1.04,0-2.02-.15-2.95-.44-.93-.3-1.66-.67-2.18-1.12l.77-1.34c.51.38,1.17.72,1.97,1,.8.28,1.64.42,2.52.42,1.2,0,2.06-.19,2.59-.56.53-.38.79-.88.79-1.5,0-.46-.15-.83-.44-1.09-.3-.26-.68-.46-1.16-.6-.48-.14-1.02-.25-1.61-.35-.59-.1-1.18-.21-1.76-.34-.58-.13-1.12-.32-1.6-.56-.48-.25-.87-.59-1.16-1.02-.3-.43-.44-1.01-.44-1.73s.19-1.3.58-1.85c.38-.54.95-.97,1.69-1.28s1.65-.47,2.72-.47c.82,0,1.63.11,2.45.32.82.22,1.49.5,2.02.85l-.74,1.37c-.56-.38-1.16-.66-1.8-.83-.64-.17-1.28-.25-1.92-.25-1.14,0-1.97.2-2.51.59-.54.39-.8.89-.8,1.5,0,.48.15.86.44,1.13.3.27.69.48,1.18.64.49.15,1.02.28,1.61.37.58.1,1.17.21,1.75.35.58.14,1.12.32,1.61.55s.88.56,1.18.98c.3.42.44.98.44,1.67,0,.74-.2,1.37-.61,1.91-.41.54-1,.95-1.78,1.25-.78.3-1.72.44-2.82.44Z"/>
        <path class="cls-1" d="M525.45,659.9c-.35,0-.65-.13-.9-.38-.25-.26-.37-.57-.37-.94s.12-.7.37-.94c.25-.24.55-.36.9-.36s.65.12.9.36c.25.24.37.55.37.94s-.12.68-.37.94c-.25.26-.55.38-.9.38Z"/>
      </g>
      <g class="cls-2">
        <path class="cls-1" d="M780.88,566.11v7.27h-12.38v-24.88h13.07c4.3,0,7.45.7,9.47,2.11,2.02,1.4,3.02,3.83,3.02,7.29,0,2.62-.85,4.55-2.56,5.8,1.44,2.57,2.53,5.8,3.28,9.68h-11.84c-.19-2.42-.53-4.56-1.01-6.41l-.25-.86h-.79ZM780.88,563.19h1.04c.29,0,.53-.1.72-.29.19-.19.29-.44.29-.76v-2.16c0-.31-.1-.56-.29-.74-.19-.18-.43-.27-.72-.27h-1.04v4.21Z"/>
        <path class="cls-1" d="M801.69,553.87c-1.82,0-3.17-.36-4.03-1.08-.86-.72-1.3-1.87-1.3-3.46s.44-2.72,1.31-3.42c.88-.7,2.21-1.04,4.01-1.04,3.6,0,5.4,1.45,5.4,4.36,0,1.66-.44,2.84-1.33,3.56-.89.72-2.24,1.08-4.07,1.08ZM796.36,573.38v-18.68h10.73v18.68h-10.73Z"/>
        <path class="cls-1" d="M823.18,567.01h1.58c3.67,0,5.51,1.52,5.51,4.57,0,1.61-.58,2.87-1.73,3.78-1.15.91-3.18,1.37-6.08,1.37h-5.94c-3.02,0-5.09-.4-6.21-1.19-1.12-.79-1.67-1.85-1.67-3.17,0-2.66,1.39-4,4.18-4h.79c-.41-.07-.78-.23-1.12-.47-.34-.24-.5-.54-.5-.9,0-.72.59-1.19,1.76-1.4-1.49,0-2.68-.5-3.56-1.51-.89-1.01-1.33-2.47-1.33-4.39,0-2.66.69-4.6,2.07-5.81,1.38-1.21,3.63-1.82,6.75-1.82h12.49v10.08h-1.22c-.38,2.71-2.3,4.07-5.76,4.07v.79ZM821.31,569.53h-3.96c-.31,0-.56.09-.76.27s-.29.42-.29.72.1.55.29.76c.19.2.44.31.76.31h3.96c.31,0,.56-.1.76-.31.19-.2.29-.46.29-.76s-.1-.54-.29-.72c-.19-.18-.44-.27-.76-.27ZM818.28,561.18v2.23c0,.67.34,1.01,1.01,1.01.29,0,.53-.1.74-.29.2-.19.31-.43.31-.72v-2.23c0-.31-.1-.56-.31-.76-.2-.19-.46-.29-.76-.29s-.54.1-.72.29c-.18.19-.27.44-.27.76Z"/>
        <path class="cls-1" d="M844.56,573.38v-11.41c0-.29-.1-.53-.31-.74-.2-.2-.45-.31-.74-.31s-.53.1-.72.31c-.19.2-.29.45-.29.74v11.41h-10.19v-26.82h10.73v4.54l-.36,3.1c.1-.31.26-.62.5-.94.24-.31.76-.64,1.55-.99.79-.35,1.76-.52,2.92-.52,2.35,0,4.12.65,5.31,1.94,1.19,1.3,1.78,3.18,1.78,5.65v14.04h-10.19Z"/>
        <path class="cls-1" d="M869.69,562.15v1.62h3.24v8.5c-.12.12-.32.26-.59.41-.28.16-.99.37-2.14.65-1.15.28-2.48.41-4,.41-5.5,0-8.24-2.4-8.24-7.2v-4.39h-1.4v-8.96c1.03-.31,1.94-.89,2.74-1.73.79-.84,1.33-1.6,1.62-2.27l.43-1.04h9.04v3.96h2.56v10.04h-3.24Z"/>
        <path class="cls-1" d="M899.21,559.74v-11.23h11.84v24.88h-11.84v-8.39h-2.09v8.39h-11.81v-24.88h11.81v11.23h2.09Z"/>
        <path class="cls-1" d="M934.24,559.77l-.18,4.43.9-.04v8.17c-.43.36-1.18.68-2.23.97-1.06.29-2.05.43-2.99.43s-1.68-.08-2.23-.25c-.55-.17-.96-.35-1.22-.56-.26-.2-.47-.44-.61-.7-.22-.38-.32-.71-.32-.97-1.32,1.66-3.42,2.48-6.3,2.48-3.96,0-5.94-1.68-5.94-5.04,0-2.02.77-3.45,2.3-4.3,1.54-.85,4.22-1.36,8.06-1.53,0-.84-.92-1.26-2.77-1.26-1.25,0-2.44.16-3.58.47-1.14.31-1.96.62-2.47.94l-.79.47v-9.47c.22-.17.54-.38.97-.63.43-.25,1.45-.59,3.06-1.01,1.61-.42,3.37-.63,5.29-.63,3.84,0,6.64.65,8.41,1.94s2.65,3.32,2.65,6.08ZM924.05,565.5v-1.44l-2.05.58v.86c0,.31.1.56.31.76.2.19.46.29.76.29s.54-.1.72-.29c.18-.19.27-.44.27-.76Z"/>
        <path class="cls-1" d="M946.98,561.97v11.41h-10.19v-21.28h9.04l.36,2.63c.1-.26.31-.59.65-.97.34-.38.7-.71,1.08-.97,1.06-.7,2.46-1.04,4.21-1.04,2.35,0,4.12.65,5.31,1.94,1.19,1.3,1.78,3.18,1.78,5.65v14.04h-10.19v-11.41c0-.29-.1-.53-.31-.74-.2-.2-.45-.31-.74-.31s-.53.1-.72.31c-.19.2-.29.45-.29.74Z"/>
        <path class="cls-1" d="M983.74,573.38h-9.07l-.36-2.63c-.1.26-.29.59-.59.97s-.62.71-.95.97c-.89.7-2.03,1.04-3.42,1.04-2.52,0-4.49-.96-5.9-2.88-1.42-1.92-2.12-4.6-2.12-8.05s.72-6.15,2.16-8.12c1.44-1.97,3.41-2.95,5.9-2.95.77,0,1.45.09,2.05.27.6.18,1.01.35,1.22.52l.32.25v-6.23h10.76v26.82ZM971.5,562.47v3.02c0,.31.09.56.27.76.18.19.42.29.72.29s.55-.1.76-.29c.2-.19.31-.44.31-.76v-3.02c0-.29-.1-.53-.31-.74-.2-.2-.45-.31-.74-.31s-.53.1-.72.31c-.19.2-.29.45-.29.74Z"/>
        <path class="cls-1" d="M671.77,630.98v-16.8h1.46l7.68,13.1h-.77l7.61-13.1h1.46v16.8h-1.7v-14.14h.41l-7.01,12h-.84l-7.06-12h.46v14.14h-1.7Z"/>
        <path class="cls-1" d="M699.47,631.1c-1.22,0-2.31-.28-3.28-.83-.97-.55-1.73-1.31-2.29-2.28-.56-.97-.84-2.08-.84-3.32s.28-2.38.84-3.34c.56-.96,1.32-1.71,2.28-2.26s2.06-.82,3.29-.82,2.36.27,3.32.82,1.73,1.3,2.28,2.26.83,2.07.83,3.34-.28,2.36-.83,3.32-1.32,1.73-2.29,2.28c-.98.55-2.08.83-3.31.83ZM699.47,629.59c.91,0,1.72-.2,2.42-.61.7-.41,1.26-.98,1.67-1.73s.61-1.6.61-2.58-.2-1.86-.61-2.59-.96-1.31-1.67-1.72c-.7-.41-1.5-.61-2.4-.61s-1.7.2-2.4.61c-.71.41-1.26.98-1.68,1.72s-.62,1.6-.62,2.59.21,1.84.62,2.58.98,1.32,1.68,1.73c.7.41,1.5.61,2.38.61Z"/>
        <path class="cls-1" d="M712.26,630.98l-5.59-12.6h1.78l5.14,11.69h-.84l5.21-11.69h1.68l-5.62,12.6h-1.75Z"/>
        <path class="cls-1" d="M727.02,631.1c-1.31,0-2.46-.28-3.46-.83-.99-.55-1.77-1.31-2.33-2.28-.56-.97-.84-2.08-.84-3.32s.27-2.35.8-3.31,1.27-1.72,2.21-2.27c.94-.55,1.99-.83,3.16-.83s2.24.27,3.16.8c.92.54,1.64,1.29,2.17,2.26.53.97.79,2.08.79,3.35,0,.08,0,.16-.01.25,0,.09-.01.18-.01.28h-10.97v-1.27h10.06l-.67.5c0-.91-.2-1.72-.59-2.44-.39-.71-.92-1.27-1.6-1.67s-1.45-.6-2.33-.6-1.64.2-2.33.6c-.69.4-1.22.96-1.61,1.68-.38.72-.58,1.54-.58,2.47v.26c0,.96.21,1.8.64,2.53.42.73,1.02,1.3,1.78,1.7.76.41,1.63.61,2.6.61.77,0,1.48-.14,2.15-.41s1.24-.69,1.72-1.25l.96,1.1c-.56.67-1.26,1.18-2.1,1.54-.84.35-1.76.53-2.77.53Z"/>
        <path class="cls-1" d="M763.96,630.98v-17.81h1.7v8.66l-.34-.65c.4-.91,1.04-1.63,1.92-2.15.88-.52,1.93-.78,3.14-.78,1.02,0,1.92.2,2.7.59.78.39,1.38.99,1.82,1.79.44.8.66,1.81.66,3.02v7.32h-1.7v-7.15c0-1.33-.33-2.33-1-3.01-.66-.68-1.6-1.02-2.8-1.02-.9,0-1.68.18-2.34.54s-1.18.88-1.54,1.56c-.36.68-.54,1.5-.54,2.46v6.62h-1.7Z"/>
        <path class="cls-1" d="M783.74,631.1c-.94,0-1.76-.16-2.46-.47s-1.23-.74-1.6-1.3c-.37-.55-.55-1.19-.55-1.91,0-.66.16-1.25.47-1.79.31-.54.82-.97,1.54-1.3.71-.33,1.67-.49,2.87-.49h4.34v1.27h-4.3c-1.22,0-2.06.22-2.53.65-.47.43-.71.97-.71,1.61,0,.72.28,1.3.84,1.73.56.43,1.34.65,2.35.65s1.79-.22,2.48-.66,1.2-1.08,1.52-1.91l.38,1.18c-.32.83-.88,1.5-1.67,1.99-.79.5-1.79.74-2.99.74ZM788.08,630.98v-2.78l-.07-.46v-4.66c0-1.07-.3-1.9-.9-2.47-.6-.58-1.49-.86-2.68-.86-.82,0-1.59.14-2.33.41-.74.27-1.36.63-1.87,1.08l-.77-1.27c.64-.54,1.41-.96,2.3-1.26.9-.3,1.84-.44,2.83-.44,1.63,0,2.89.4,3.78,1.21.89.81,1.33,2.04,1.33,3.68v7.82h-1.63Z"/>
        <path class="cls-1" d="M794.34,630.98v-12.6h1.63v3.46l-.26-.65c.4-.91,1.04-1.63,1.92-2.15.88-.52,1.93-.78,3.14-.78,1.02,0,1.92.2,2.7.59.78.39,1.38.99,1.82,1.79.44.8.66,1.81.66,3.02v7.32h-1.7v-7.15c0-1.33-.33-2.33-1-3.01-.66-.68-1.6-1.02-2.8-1.02-.9,0-1.68.18-2.34.54s-1.18.88-1.54,1.56c-.36.68-.54,1.5-.54,2.46v6.62h-1.7Z"/>
        <path class="cls-1" d="M815.58,631.1c-1.2,0-2.28-.27-3.23-.82-.95-.54-1.7-1.3-2.24-2.27-.54-.97-.82-2.08-.82-3.35s.27-2.4.82-3.36,1.29-1.71,2.24-2.24c.95-.54,2.03-.8,3.23-.8,1.1,0,2.09.25,2.96.74.87.5,1.57,1.22,2.09,2.17.52.95.78,2.12.78,3.49s-.26,2.52-.77,3.48c-.51.96-1.2,1.69-2.08,2.2-.87.5-1.87.76-2.99.76ZM815.7,629.59c.9,0,1.7-.2,2.41-.61.71-.41,1.27-.98,1.68-1.73s.61-1.6.61-2.58-.2-1.86-.61-2.59-.97-1.31-1.68-1.72c-.71-.41-1.52-.61-2.41-.61s-1.67.2-2.38.61c-.7.41-1.26.98-1.68,1.72-.42.74-.62,1.6-.62,2.59s.21,1.84.62,2.58c.42.74.98,1.32,1.68,1.73.7.41,1.5.61,2.38.61ZM820.46,630.98v-3.79l.17-2.54-.24-2.54v-8.93h1.7v17.81h-1.63Z"/>
        <path class="cls-1" d="M852.67,619.8v-1.42h7.8v1.42h-7.8ZM858.62,631.1c-1.18,0-2.1-.32-2.74-.96-.64-.64-.96-1.54-.96-2.71v-11.83h1.7v11.74c0,.74.19,1.3.56,1.7s.92.6,1.62.6c.75,0,1.38-.22,1.87-.65l.6,1.22c-.34.3-.74.53-1.21.67s-.96.22-1.45.22Z"/>
        <path class="cls-1" d="M869.06,631.1c-1.22,0-2.31-.28-3.28-.83-.97-.55-1.73-1.31-2.29-2.28-.56-.97-.84-2.08-.84-3.32s.28-2.38.84-3.34c.56-.96,1.32-1.71,2.28-2.26s2.06-.82,3.29-.82,2.36.27,3.32.82,1.73,1.3,2.28,2.26.83,2.07.83,3.34-.28,2.36-.83,3.32-1.32,1.73-2.29,2.28c-.98.55-2.08.83-3.31.83ZM869.06,629.59c.91,0,1.72-.2,2.42-.61.7-.41,1.26-.98,1.67-1.73s.61-1.6.61-2.58-.2-1.86-.61-2.59-.96-1.31-1.67-1.72c-.7-.41-1.5-.61-2.4-.61s-1.7.2-2.4.61c-.71.41-1.26.98-1.68,1.72s-.62,1.6-.62,2.59.21,1.84.62,2.58.98,1.32,1.68,1.73c.7.41,1.5.61,2.38.61Z"/>
        <path class="cls-1" d="M912,631.1c-1.25,0-2.36-.28-3.35-.83-.98-.55-1.76-1.31-2.32-2.28-.56-.97-.84-2.08-.84-3.32s.28-2.38.84-3.34c.56-.96,1.33-1.71,2.32-2.26.98-.54,2.1-.82,3.35-.82,1.07,0,2.04.21,2.9.62.86.42,1.54,1.04,2.04,1.87l-1.27.86c-.43-.64-.97-1.11-1.61-1.42-.64-.3-1.34-.46-2.09-.46-.9,0-1.7.2-2.42.61-.72.41-1.29.98-1.7,1.72s-.62,1.6-.62,2.59.21,1.86.62,2.59c.42.74.98,1.31,1.7,1.72.72.41,1.53.61,2.42.61.75,0,1.45-.15,2.09-.46.64-.3,1.18-.77,1.61-1.39l1.27.86c-.5.82-1.18,1.44-2.04,1.86-.86.42-1.83.64-2.9.64Z"/>
        <path class="cls-1" d="M920.09,630.98v-17.81h1.7v8.66l-.34-.65c.4-.91,1.04-1.63,1.92-2.15.88-.52,1.93-.78,3.14-.78,1.02,0,1.92.2,2.7.59.78.39,1.38.99,1.82,1.79.44.8.66,1.81.66,3.02v7.32h-1.7v-7.15c0-1.33-.33-2.33-1-3.01-.66-.68-1.6-1.02-2.8-1.02-.9,0-1.68.18-2.34.54s-1.18.88-1.54,1.56c-.36.68-.54,1.5-.54,2.46v6.62h-1.7Z"/>
        <path class="cls-1" d="M939.87,631.1c-.94,0-1.76-.16-2.46-.47s-1.23-.74-1.6-1.3c-.37-.55-.55-1.19-.55-1.91,0-.66.16-1.25.47-1.79.31-.54.82-.97,1.54-1.3.71-.33,1.67-.49,2.87-.49h4.34v1.27h-4.3c-1.22,0-2.06.22-2.53.65-.47.43-.71.97-.71,1.61,0,.72.28,1.3.84,1.73.56.43,1.34.65,2.35.65s1.79-.22,2.48-.66,1.2-1.08,1.52-1.91l.38,1.18c-.32.83-.88,1.5-1.67,1.99-.79.5-1.79.74-2.99.74ZM944.21,630.98v-2.78l-.07-.46v-4.66c0-1.07-.3-1.9-.9-2.47-.6-.58-1.49-.86-2.68-.86-.82,0-1.59.14-2.33.41-.74.27-1.36.63-1.87,1.08l-.77-1.27c.64-.54,1.41-.96,2.3-1.26.9-.3,1.84-.44,2.83-.44,1.63,0,2.89.4,3.78,1.21.89.81,1.33,2.04,1.33,3.68v7.82h-1.63Z"/>
        <path class="cls-1" d="M950.47,630.98v-12.6h1.63v3.46l-.26-.65c.4-.91,1.04-1.63,1.92-2.15.88-.52,1.93-.78,3.14-.78,1.02,0,1.92.2,2.7.59.78.39,1.38.99,1.82,1.79.44.8.66,1.81.66,3.02v7.32h-1.7v-7.15c0-1.33-.33-2.33-1-3.01-.66-.68-1.6-1.02-2.8-1.02-.9,0-1.68.18-2.34.54s-1.18.88-1.54,1.56c-.36.68-.54,1.5-.54,2.46v6.62h-1.7Z"/>
        <path class="cls-1" d="M971.76,630.5c-1.2,0-2.28-.26-3.24-.78s-1.72-1.24-2.27-2.17c-.55-.93-.83-1.99-.83-3.19s.28-2.26.83-3.18c.55-.92,1.31-1.64,2.27-2.15.96-.51,2.04-.77,3.24-.77,1.12,0,2.13.23,3.02.7.9.46,1.61,1.15,2.14,2.06s.79,2.02.79,3.34-.26,2.42-.79,3.34-1.24,1.61-2.14,2.09c-.9.48-1.9.72-3.02.72ZM972.07,635.76c-1.15,0-2.26-.17-3.31-.5-1.06-.34-1.91-.82-2.57-1.44l.86-1.3c.59.53,1.32.95,2.2,1.26s1.8.47,2.77.47c1.6,0,2.78-.37,3.53-1.12s1.13-1.9,1.13-3.47v-3.14l.24-2.16-.17-2.16v-3.82h1.63v11.06c0,2.18-.53,3.77-1.6,4.79-1.06,1.02-2.64,1.52-4.72,1.52ZM971.93,628.99c.93,0,1.75-.2,2.47-.59.72-.39,1.29-.94,1.7-1.63.42-.7.62-1.5.62-2.41s-.21-1.71-.62-2.4c-.42-.69-.98-1.23-1.7-1.62-.72-.39-1.54-.59-2.47-.59s-1.73.2-2.46.59c-.73.39-1.3.93-1.7,1.62-.41.69-.61,1.49-.61,2.4s.2,1.72.61,2.41c.41.7.98,1.24,1.7,1.63.73.39,1.55.59,2.46.59Z"/>
        <path class="cls-1" d="M988.49,631.1c-1.31,0-2.46-.28-3.46-.83-.99-.55-1.77-1.31-2.33-2.28-.56-.97-.84-2.08-.84-3.32s.27-2.35.8-3.31,1.27-1.72,2.21-2.27c.94-.55,1.99-.83,3.16-.83s2.24.27,3.16.8c.92.54,1.64,1.29,2.17,2.26.53.97.79,2.08.79,3.35,0,.08,0,.16-.01.25,0,.09-.01.18-.01.28h-10.97v-1.27h10.06l-.67.5c0-.91-.2-1.72-.59-2.44-.39-.71-.92-1.27-1.6-1.67s-1.45-.6-2.33-.6-1.64.2-2.33.6c-.69.4-1.22.96-1.61,1.68-.38.72-.58,1.54-.58,2.47v.26c0,.96.21,1.8.64,2.53.42.73,1.02,1.3,1.78,1.7.76.41,1.63.61,2.6.61.77,0,1.48-.14,2.15-.41s1.24-.69,1.72-1.25l.96,1.1c-.56.67-1.26,1.18-2.1,1.54-.84.35-1.76.53-2.77.53Z"/>
        <path class="cls-1" d="M1025.43,630.98v-12.6h1.63v3.46l-.26-.65c.4-.91,1.04-1.63,1.92-2.15s1.93-.78,3.14-.78c1.02,0,1.92.2,2.7.59.78.39,1.38.99,1.82,1.79.44.8.66,1.81.66,3.02v7.32h-1.7v-7.15c0-1.33-.33-2.33-1-3.01-.66-.68-1.6-1.02-2.8-1.02-.9,0-1.68.18-2.34.54s-1.18.88-1.54,1.56c-.36.68-.54,1.5-.54,2.46v6.62h-1.7Z"/>
        <path class="cls-1" d="M1046.79,631.1c-1.22,0-2.31-.28-3.28-.83-.97-.55-1.73-1.31-2.29-2.28-.56-.97-.84-2.08-.84-3.32s.28-2.38.84-3.34c.56-.96,1.32-1.71,2.28-2.26s2.06-.82,3.29-.82,2.36.27,3.32.82,1.73,1.3,2.28,2.26.83,2.07.83,3.34-.28,2.36-.83,3.32-1.32,1.73-2.29,2.28c-.98.55-2.08.83-3.31.83ZM1046.79,629.59c.91,0,1.72-.2,2.42-.61.7-.41,1.26-.98,1.67-1.73s.61-1.6.61-2.58-.2-1.86-.61-2.59-.96-1.31-1.67-1.72c-.7-.41-1.5-.61-2.4-.61s-1.7.2-2.4.61c-.71.41-1.26.98-1.68,1.72s-.62,1.6-.62,2.59.21,1.84.62,2.58.98,1.32,1.68,1.73c.7.41,1.5.61,2.38.61Z"/>
        <path class="cls-1" d="M1054.74,619.8v-1.42h7.8v1.42h-7.8ZM1060.69,631.1c-1.18,0-2.1-.32-2.74-.96s-.96-1.54-.96-2.71v-11.83h1.7v11.74c0,.74.19,1.3.56,1.7.38.4.92.6,1.62.6.75,0,1.38-.22,1.87-.65l.6,1.22c-.34.3-.74.53-1.21.67-.47.14-.96.22-1.45.22Z"/>
        <path class="cls-1" d="M1071.34,631.1c-1.31,0-2.46-.28-3.46-.83-.99-.55-1.77-1.31-2.33-2.28-.56-.97-.84-2.08-.84-3.32s.27-2.35.8-3.31c.54-.96,1.27-1.72,2.21-2.27.94-.55,1.99-.83,3.16-.83s2.24.27,3.16.8c.92.54,1.64,1.29,2.17,2.26.53.97.79,2.08.79,3.35,0,.08,0,.16-.01.25,0,.09-.01.18-.01.28h-10.97v-1.27h10.06l-.67.5c0-.91-.2-1.72-.59-2.44-.39-.71-.92-1.27-1.6-1.67s-1.45-.6-2.33-.6-1.64.2-2.33.6c-.69.4-1.22.96-1.61,1.68-.38.72-.58,1.54-.58,2.47v.26c0,.96.21,1.8.64,2.53s1.02,1.3,1.78,1.7c.76.41,1.63.61,2.6.61.77,0,1.48-.14,2.15-.41s1.24-.69,1.72-1.25l.96,1.1c-.56.67-1.26,1.18-2.1,1.54-.84.35-1.76.53-2.77.53Z"/>
        <path class="cls-1" d="M1080.66,631.1c-.35,0-.65-.13-.9-.38-.25-.26-.37-.57-.37-.94s.12-.7.37-.94c.25-.24.55-.36.9-.36s.65.12.9.36c.25.24.37.55.37.94s-.12.68-.37.94c-.25.26-.55.38-.9.38Z"/>
        <path class="cls-1" d="M700.16,659.93c-1.26,0-2.43-.21-3.5-.64-1.07-.42-2-1.02-2.78-1.79-.78-.77-1.4-1.67-1.84-2.71-.44-1.04-.66-2.18-.66-3.41s.22-2.37.66-3.41c.44-1.04,1.06-1.94,1.85-2.71s1.72-1.36,2.8-1.79c1.07-.42,2.24-.64,3.5-.64s2.36.2,3.43.61c1.07.41,1.98,1.02,2.71,1.84l-1.13,1.13c-.69-.7-1.45-1.21-2.28-1.52-.83-.31-1.73-.47-2.69-.47-1.01,0-1.94.17-2.81.52-.86.34-1.62.83-2.26,1.46-.64.63-1.14,1.37-1.5,2.21-.36.84-.54,1.76-.54,2.77s.18,1.93.54,2.77c.36.84.86,1.58,1.5,2.21.64.63,1.39,1.12,2.26,1.46.86.34,1.8.52,2.81.52s1.86-.16,2.69-.48c.83-.32,1.59-.83,2.28-1.54l1.13,1.13c-.74.82-1.64,1.43-2.71,1.85-1.07.42-2.22.62-3.46.62Z"/>
        <path class="cls-1" d="M714.11,659.9c-1.22,0-2.31-.28-3.28-.83-.97-.55-1.73-1.31-2.29-2.28-.56-.97-.84-2.08-.84-3.32s.28-2.38.84-3.34c.56-.96,1.32-1.71,2.28-2.26s2.06-.82,3.29-.82,2.36.27,3.32.82,1.73,1.3,2.28,2.26.83,2.07.83,3.34-.28,2.36-.83,3.32-1.32,1.73-2.29,2.28c-.98.55-2.08.83-3.31.83ZM714.11,658.39c.91,0,1.72-.2,2.42-.61.7-.41,1.26-.98,1.67-1.73s.61-1.6.61-2.58-.2-1.86-.61-2.59-.96-1.31-1.67-1.72c-.7-.41-1.5-.61-2.4-.61s-1.7.2-2.4.61c-.71.41-1.26.98-1.68,1.72s-.62,1.6-.62,2.59.21,1.84.62,2.58.98,1.32,1.68,1.73c.7.41,1.5.61,2.38.61Z"/>
        <path class="cls-1" d="M724.02,659.78v-12.6h1.63v3.46l-.26-.65c.4-.91,1.04-1.63,1.92-2.15s1.93-.78,3.14-.78c1.02,0,1.92.2,2.7.59.78.39,1.38.99,1.82,1.79.44.8.66,1.81.66,3.02v7.32h-1.7v-7.15c0-1.33-.33-2.33-1-3.01-.66-.68-1.6-1.02-2.8-1.02-.9,0-1.68.18-2.34.54s-1.18.88-1.54,1.56c-.36.68-.54,1.5-.54,2.46v6.62h-1.7Z"/>
        <path class="cls-1" d="M738.27,648.6v-1.42h7.8v1.42h-7.8ZM744.23,659.9c-1.18,0-2.1-.32-2.74-.96s-.96-1.54-.96-2.71v-11.83h1.7v11.74c0,.74.19,1.3.56,1.7.38.4.92.6,1.62.6.75,0,1.38-.22,1.87-.65l.6,1.22c-.34.3-.74.53-1.21.67-.47.14-.96.22-1.45.22Z"/>
        <path class="cls-1" d="M749.99,659.78v-12.6h1.63v3.43l-.17-.6c.35-.96.94-1.69,1.78-2.2.83-.5,1.86-.76,3.1-.76v1.66c-.06,0-.13,0-.19-.01-.06,0-.13-.01-.19-.01-1.33,0-2.37.4-3.12,1.21-.75.81-1.13,1.96-1.13,3.44v6.43h-1.7Z"/>
        <path class="cls-1" d="M764.43,659.9c-1.22,0-2.31-.28-3.28-.83-.97-.55-1.73-1.31-2.29-2.28-.56-.97-.84-2.08-.84-3.32s.28-2.38.84-3.34c.56-.96,1.32-1.71,2.28-2.26s2.06-.82,3.29-.82,2.36.27,3.32.82,1.73,1.3,2.28,2.26.83,2.07.83,3.34-.28,2.36-.83,3.32-1.32,1.73-2.29,2.28c-.98.55-2.08.83-3.31.83ZM764.43,658.39c.91,0,1.72-.2,2.42-.61.7-.41,1.26-.98,1.67-1.73s.61-1.6.61-2.58-.2-1.86-.61-2.59-.96-1.31-1.67-1.72c-.7-.41-1.5-.61-2.4-.61s-1.7.2-2.4.61c-.71.41-1.26.98-1.68,1.72s-.62,1.6-.62,2.59.21,1.84.62,2.58.98,1.32,1.68,1.73c.7.41,1.5.61,2.38.61Z"/>
        <path class="cls-1" d="M774.35,659.78v-17.81h1.7v17.81h-1.7Z"/>
        <path class="cls-1" d="M790.33,659.78l-5.59-12.6h1.78l5.14,11.69h-.84l5.21-11.69h1.68l-5.62,12.6h-1.75Z"/>
        <path class="cls-1" d="M804.87,659.9c-1.22,0-2.31-.28-3.28-.83-.97-.55-1.73-1.31-2.29-2.28-.56-.97-.84-2.08-.84-3.32s.28-2.38.84-3.34c.56-.96,1.32-1.71,2.28-2.26s2.06-.82,3.29-.82,2.36.27,3.32.82,1.73,1.3,2.28,2.26.83,2.07.83,3.34-.28,2.36-.83,3.32-1.32,1.73-2.29,2.28c-.98.55-2.08.83-3.31.83ZM804.87,658.39c.91,0,1.72-.2,2.42-.61.7-.41,1.26-.98,1.67-1.73s.61-1.6.61-2.58-.2-1.86-.61-2.59-.96-1.31-1.67-1.72c-.7-.41-1.5-.61-2.4-.61s-1.7.2-2.4.61c-.71.41-1.26.98-1.68,1.72s-.62,1.6-.62,2.59.21,1.84.62,2.58.98,1.32,1.68,1.73c.7.41,1.5.61,2.38.61Z"/>
        <path class="cls-1" d="M814.78,659.78v-17.81h1.7v17.81h-1.7Z"/>
        <path class="cls-1" d="M826.45,659.9c-1.07,0-2.01-.2-2.81-.6-.8-.4-1.42-1-1.86-1.8-.44-.8-.66-1.8-.66-3v-7.32h1.7v7.13c0,1.34.33,2.36,1,3.04.66.68,1.6,1.02,2.8,1.02.88,0,1.64-.18,2.29-.54.65-.36,1.14-.88,1.49-1.57s.52-1.51.52-2.47v-6.6h1.7v12.6h-1.63v-3.46l.26.62c-.4.93-1.02,1.65-1.86,2.17-.84.52-1.82.78-2.94.78Z"/>
        <path class="cls-1" d="M837.37,659.78v-12.6h1.63v3.41l-.26-.6c.38-.91,1-1.63,1.86-2.15.86-.52,1.87-.78,3.04-.78,1.23,0,2.28.31,3.14.92.86.62,1.42,1.54,1.68,2.77l-.67-.26c.37-1.02,1.02-1.85,1.96-2.48.94-.63,2.06-.95,3.37-.95,1.02,0,1.92.2,2.68.59s1.35.99,1.78,1.79c.42.8.64,1.81.64,3.02v7.32h-1.7v-7.15c0-1.33-.32-2.33-.95-3.01-.63-.68-1.52-1.02-2.68-1.02-.86,0-1.61.18-2.24.54-.63.36-1.12.88-1.46,1.56-.34.68-.52,1.5-.52,2.46v6.62h-1.7v-7.15c0-1.33-.32-2.33-.96-3.01-.64-.68-1.54-1.02-2.69-1.02-.85,0-1.59.18-2.23.54-.64.36-1.13.88-1.48,1.56-.34.68-.52,1.5-.52,2.46v6.62h-1.7Z"/>
        <path class="cls-1" d="M868.19,659.9c-1.31,0-2.46-.28-3.46-.83-.99-.55-1.77-1.31-2.33-2.28-.56-.97-.84-2.08-.84-3.32s.27-2.35.8-3.31,1.27-1.72,2.21-2.27c.94-.55,1.99-.83,3.16-.83s2.24.27,3.16.8c.92.54,1.64,1.29,2.17,2.26.53.97.79,2.08.79,3.35,0,.08,0,.16-.01.25,0,.09-.01.18-.01.28h-10.97v-1.27h10.06l-.67.5c0-.91-.2-1.72-.59-2.44-.39-.71-.92-1.27-1.6-1.67s-1.45-.6-2.33-.6-1.64.2-2.33.6c-.69.4-1.22.96-1.61,1.68-.38.72-.58,1.54-.58,2.47v.26c0,.96.21,1.8.64,2.53.42.73,1.02,1.3,1.78,1.7.76.41,1.63.61,2.6.61.77,0,1.48-.14,2.15-.41s1.24-.69,1.72-1.25l.96,1.1c-.56.67-1.26,1.18-2.1,1.54-.84.35-1.76.53-2.77.53Z"/>
        <path class="cls-1" d="M886.18,659.78l-4.75-12.6h1.63l4.32,11.69h-.74l4.44-11.69h1.46l4.39,11.69h-.74l4.39-11.69h1.56l-4.78,12.6h-1.61l-4.22-10.99h.5l-4.25,10.99h-1.61Z"/>
        <path class="cls-1" d="M905.58,644.4c-.35,0-.65-.12-.89-.36-.24-.24-.36-.53-.36-.86s.12-.62.36-.85c.24-.23.54-.35.89-.35s.65.11.89.34c.24.22.36.5.36.84s-.12.65-.35.89c-.23.24-.53.36-.9.36ZM904.71,659.78v-12.6h1.7v12.6h-1.7Z"/>
        <path class="cls-1" d="M908.98,648.6v-1.42h7.8v1.42h-7.8ZM914.94,659.9c-1.18,0-2.1-.32-2.74-.96s-.96-1.54-.96-2.71v-11.83h1.7v11.74c0,.74.19,1.3.56,1.7.38.4.92.6,1.62.6.75,0,1.38-.22,1.87-.65l.6,1.22c-.34.3-.74.53-1.21.67-.47.14-.96.22-1.45.22Z"/>
        <path class="cls-1" d="M920.7,659.78v-17.81h1.7v8.66l-.34-.65c.4-.91,1.04-1.63,1.92-2.15s1.93-.78,3.14-.78c1.02,0,1.92.2,2.7.59.78.39,1.38.99,1.82,1.79.44.8.66,1.81.66,3.02v7.32h-1.7v-7.15c0-1.33-.33-2.33-1-3.01-.66-.68-1.6-1.02-2.8-1.02-.9,0-1.68.18-2.34.54s-1.18.88-1.54,1.56c-.36.68-.54,1.5-.54,2.46v6.62h-1.7Z"/>
        <path class="cls-1" d="M948.34,659.9c-1.22,0-2.31-.28-3.28-.83-.97-.55-1.73-1.31-2.29-2.28-.56-.97-.84-2.08-.84-3.32s.28-2.38.84-3.34c.56-.96,1.32-1.71,2.28-2.26s2.06-.82,3.29-.82,2.36.27,3.32.82,1.73,1.3,2.28,2.26.83,2.07.83,3.34-.28,2.36-.83,3.32-1.32,1.73-2.29,2.28c-.98.55-2.08.83-3.31.83ZM948.34,658.39c.91,0,1.72-.2,2.42-.61.7-.41,1.26-.98,1.67-1.73s.61-1.6.61-2.58-.2-1.86-.61-2.59-.96-1.31-1.67-1.72c-.7-.41-1.5-.61-2.4-.61s-1.7.2-2.4.61c-.71.41-1.26.98-1.68,1.72s-.62,1.6-.62,2.59.21,1.84.62,2.58.98,1.32,1.68,1.73c.7.41,1.5.61,2.38.61Z"/>
        <path class="cls-1" d="M958.26,664.44v-17.26h1.63v3.79l-.17,2.52.24,2.54v8.4h-1.7ZM964.76,659.9c-1.09,0-2.07-.25-2.95-.76-.88-.5-1.58-1.23-2.1-2.18s-.78-2.12-.78-3.49.26-2.54.77-3.49c.51-.95,1.21-1.68,2.09-2.17.88-.5,1.87-.74,2.98-.74,1.2,0,2.28.27,3.23.8.95.54,1.7,1.29,2.24,2.26.54.97.82,2.08.82,3.35s-.27,2.4-.82,3.36c-.54.96-1.29,1.71-2.24,2.26-.95.54-2.03.82-3.23.82ZM964.64,658.39c.9,0,1.7-.2,2.4-.61.7-.41,1.26-.98,1.68-1.73s.62-1.6.62-2.58-.21-1.83-.62-2.57-.98-1.31-1.68-1.73-1.5-.62-2.4-.62-1.7.21-2.41.62c-.71.42-1.27.99-1.68,1.73s-.61,1.59-.61,2.57.2,1.84.61,2.58.97,1.32,1.68,1.73c.71.41,1.52.61,2.41.61Z"/>
        <path class="cls-1" d="M979.88,659.9c-1.31,0-2.46-.28-3.46-.83-.99-.55-1.77-1.31-2.33-2.28-.56-.97-.84-2.08-.84-3.32s.27-2.35.8-3.31,1.27-1.72,2.21-2.27c.94-.55,1.99-.83,3.16-.83s2.24.27,3.16.8c.92.54,1.64,1.29,2.17,2.26.53.97.79,2.08.79,3.35,0,.08,0,.16-.01.25,0,.09-.01.18-.01.28h-10.97v-1.27h10.06l-.67.5c0-.91-.2-1.72-.59-2.44-.39-.71-.92-1.27-1.6-1.67s-1.45-.6-2.33-.6-1.64.2-2.33.6c-.69.4-1.22.96-1.61,1.68-.38.72-.58,1.54-.58,2.47v.26c0,.96.21,1.8.64,2.53.42.73,1.02,1.3,1.78,1.7.76.41,1.63.61,2.6.61.77,0,1.48-.14,2.15-.41s1.24-.69,1.72-1.25l.96,1.1c-.56.67-1.26,1.18-2.1,1.54-.84.35-1.76.53-2.77.53Z"/>
        <path class="cls-1" d="M989.02,659.78v-12.6h1.63v3.46l-.26-.65c.4-.91,1.04-1.63,1.92-2.15s1.93-.78,3.14-.78c1.02,0,1.92.2,2.7.59.78.39,1.38.99,1.82,1.79.44.8.66,1.81.66,3.02v7.32h-1.7v-7.15c0-1.33-.33-2.33-1-3.01-.66-.68-1.6-1.02-2.8-1.02-.9,0-1.68.18-2.34.54s-1.18.88-1.54,1.56c-.36.68-.54,1.5-.54,2.46v6.62h-1.7Z"/>
        <path class="cls-1" d="M1005.25,659.78v-12.6h1.63v3.46l-.26-.65c.4-.91,1.04-1.63,1.92-2.15s1.93-.78,3.14-.78c1.02,0,1.92.2,2.7.59.78.39,1.38.99,1.82,1.79.44.8.66,1.81.66,3.02v7.32h-1.7v-7.15c0-1.33-.33-2.33-1-3.01-.66-.68-1.6-1.02-2.8-1.02-.9,0-1.68.18-2.34.54s-1.18.88-1.54,1.56c-.36.68-.54,1.5-.54,2.46v6.62h-1.7Z"/>
        <path class="cls-1" d="M1026.82,659.9c-1.31,0-2.46-.28-3.46-.83-.99-.55-1.77-1.31-2.33-2.28-.56-.97-.84-2.08-.84-3.32s.27-2.35.8-3.31,1.27-1.72,2.21-2.27c.94-.55,1.99-.83,3.16-.83s2.24.27,3.16.8c.92.54,1.64,1.29,2.17,2.26.53.97.79,2.08.79,3.35,0,.08,0,.16-.01.25,0,.09-.01.18-.01.28h-10.97v-1.27h10.06l-.67.5c0-.91-.2-1.72-.59-2.44-.39-.71-.92-1.27-1.6-1.67s-1.45-.6-2.33-.6-1.64.2-2.33.6c-.69.4-1.22.96-1.61,1.68-.38.72-.58,1.54-.58,2.47v.26c0,.96.21,1.8.64,2.53.42.73,1.02,1.3,1.78,1.7.76.41,1.63.61,2.6.61.77,0,1.48-.14,2.15-.41s1.24-.69,1.72-1.25l.96,1.1c-.56.67-1.26,1.18-2.1,1.54-.84.35-1.76.53-2.77.53Z"/>
        <path class="cls-1" d="M1039.35,659.9c-1.04,0-2.02-.15-2.95-.44-.93-.3-1.66-.67-2.18-1.12l.77-1.34c.51.38,1.17.72,1.97,1,.8.28,1.64.42,2.52.42,1.2,0,2.06-.19,2.59-.56.53-.38.79-.88.79-1.5,0-.46-.15-.83-.44-1.09s-.68-.46-1.16-.6c-.48-.14-1.02-.25-1.61-.35-.59-.1-1.18-.21-1.76-.34-.58-.13-1.12-.32-1.6-.56-.48-.25-.87-.59-1.16-1.02-.3-.43-.44-1.01-.44-1.73s.19-1.3.58-1.85.95-.97,1.69-1.28c.74-.31,1.65-.47,2.72-.47.82,0,1.63.11,2.45.32.82.22,1.49.5,2.02.85l-.74,1.37c-.56-.38-1.16-.66-1.8-.83s-1.28-.25-1.92-.25c-1.14,0-1.97.2-2.51.59s-.8.89-.8,1.5c0,.48.15.86.44,1.13.3.27.69.48,1.18.64s1.02.28,1.61.37c.58.1,1.17.21,1.75.35.58.14,1.12.32,1.61.55.49.23.88.56,1.18.98.3.42.44.98.44,1.67,0,.74-.2,1.37-.61,1.91s-1,.95-1.78,1.25c-.78.3-1.72.44-2.82.44Z"/>
        <path class="cls-1" d="M1051.06,659.9c-1.04,0-2.02-.15-2.95-.44-.93-.3-1.66-.67-2.18-1.12l.77-1.34c.51.38,1.17.72,1.97,1,.8.28,1.64.42,2.52.42,1.2,0,2.06-.19,2.59-.56.53-.38.79-.88.79-1.5,0-.46-.15-.83-.44-1.09s-.68-.46-1.16-.6c-.48-.14-1.02-.25-1.61-.35-.59-.1-1.18-.21-1.76-.34-.58-.13-1.12-.32-1.6-.56-.48-.25-.87-.59-1.16-1.02-.3-.43-.44-1.01-.44-1.73s.19-1.3.58-1.85.95-.97,1.69-1.28c.74-.31,1.65-.47,2.72-.47.82,0,1.63.11,2.45.32.82.22,1.49.5,2.02.85l-.74,1.37c-.56-.38-1.16-.66-1.8-.83s-1.28-.25-1.92-.25c-1.14,0-1.97.2-2.51.59s-.8.89-.8,1.5c0,.48.15.86.44,1.13.3.27.69.48,1.18.64s1.02.28,1.61.37c.58.1,1.17.21,1.75.35.58.14,1.12.32,1.61.55.49.23.88.56,1.18.98.3.42.44.98.44,1.67,0,.74-.2,1.37-.61,1.91s-1,.95-1.78,1.25c-.78.3-1.72.44-2.82.44Z"/>
        <path class="cls-1" d="M1059.56,659.9c-.35,0-.65-.13-.9-.38-.25-.26-.37-.57-.37-.94s.12-.7.37-.94c.25-.24.55-.36.9-.36s.65.12.9.36c.25.24.37.55.37.94s-.12.68-.37.94c-.25.26-.55.38-.9.38Z"/>
      </g>
    </g>
  </g>
</svg>