<?xml version="1.0" encoding="UTF-8"?>
<svg id="Capa_2" data-name="Capa 2" xmlns="http://www.w3.org/2000/svg" viewBox="0 -142 1174.91 774.87">
  <defs>
    <style>
      .cls-1 {
        letter-spacing: -.03em;
      }

      .cls-2 {
        letter-spacing: 0em;
      }

      .cls-3 {
        font-size: 21px;
      }

      .cls-4, .cls-5 {
        fill: #fff;
      }

      .cls-5 {
        font-family: EricaOne-Regular, 'Erica One';
        opacity: .99;
      }

      .cls-6 {
        letter-spacing: .42em;
      }

      .cls-7 {
        letter-spacing: -.02em;
      }

      .cls-8 {
        letter-spacing: .39em;
      }

      .cls-9 {
        letter-spacing: .39em;
      }

      .cls-10 {
        font-size: 36px;
      }

      .cls-11 {
        letter-spacing: 0em;
      }

      .cls-12 {
        letter-spacing: -.02em;
      }

      .cls-13 {
        letter-spacing: .42em;
      }
    </style>
  </defs>
  <g id="Capa_1-2" data-name="Capa 1">
    <g>
      <g>
        <path class="cls-4" d="M120.59,382.72c-.18,6.86-2.9,16.04-7.27,16.69-8.31,1.24-6.58-16.78-12.24-25.21l-6.54,20.81c-.77,2.44-2.93,4.38-5.11,4.4-2.36.03-4.54-1.76-5.3-4.28l-6.27-20.77-6.97,21.02c-.73,2.19-2.7,3.8-4.58,3.98-2.21.22-4.85-1.4-5.56-3.91l-5.93-21.1c-5.98,5.72-4.22,24.64-12.42,24.93-2.31.08-4.57-1.7-5.33-4.12l-6.52-20.55-6.77,20.53c-.76,2.3-2.47,3.99-4.46,4.21-2.26.26-4.94-1.15-5.68-3.76l-5.96-20.86c-3.55,3-1.88,10.56-4.31,12.12-.98.63-3.51-.1-3.36-1.15,1.07-7.7,2.59-15.59,7.41-15.62,7.42-.04,5.91,16.65,11.37,25.49l6.47-20.68c.84-2.68,2.68-4.69,5.15-4.63,2.28.06,4.67,1.74,5.39,4.36l4.96,17.91c.18.66.72,1.22,1.03,1.53.59.58,1.48.27,1.82-.9l5.4-18.56c.65-2.24,2.7-4.03,4.47-4.26,2.08-.27,4.68.91,5.4,3.21l6.88,21.97,7.06-21.09c.79-2.36,2.51-4.06,4.62-4.2,2.39-.15,4.58,1.79,5.36,4.36l6.28,20.63c5.62-7.14,4.37-21.26,10.17-24.48,3.68-2.04,6.68,1.43,7.58,4.77l5.26,19.63c4.25-3.31,2.58-10.15,5.76-13.22.53-.51,2.77-.29,2.74.76Z"/>
        <polygon class="cls-4" points="179.97 34.62 133.37 34.99 156.64 .2 179.97 34.62"/>
        <polygon class="cls-4" points="1095.13 34.74 1048.36 34.91 1071.89 0 1095.13 34.74"/>
        <polygon class="cls-4" points="1095.46 445.33 1071.88 479.94 1048.24 445.42 1095.46 445.33"/>
        <polygon class="cls-4" points="180.14 445.42 156.65 479.95 133.24 445.41 180.14 445.42"/>
        <path class="cls-4" d="M96.74,129.1c-9.13-9.57-10.9-28.72-20.43-29.66-10.72-1.05-13.09,20.35-21.79,29.51-4.71,4.95-11.83,5.35-16.6.55-9.31-9.36-11.35-29.96-21.48-30.13-2.43-.04-4.54,1.25-6.39,3.28-5.36,5.91-4.05,13.84-8.11,12.3-1.49-.57-1.91-1.79-1.18-3.57,3.44-8.48,7.96-17.19,16.45-16.47,3.47.3,7.63,2.23,9.55,5.96l11.43,22.22c1.61,3.13,4.04,5.35,7.31,5.53s6.58-2.16,8.21-5.44l9.89-20.01c2.52-5.1,8.02-9.21,13.89-8.1,14.41,2.73,15.81,32.91,26.95,33.56,9.8.57,10.46-15.02,14.09-15.94,4.27-1.08,1.46,9.5-4.9,16.4-4.62,5.01-11.94,5.2-16.89,0Z"/>
        <path class="cls-4" d="M156,72.04c1.06-.55,1.8.55,1.97,1.09.24.76.09,1.81-.7,2.08-.88.3-1.52-.02-1.93-.63-.38-.56-.69-1.85.66-2.55Z"/>
        <path class="cls-4" d="M1071.98,121.91c1.28-.52,1.56.79,1.63,1.34.11.87-.09,1.62-.56,1.91-1.06.64-1.87.15-2.09-.37-.32-.77-.32-2.33,1.03-2.88Z"/>
        <path class="cls-4" d="M155.95,170.98c1.14-.58,1.85.56,2.02,1.08.18.56.14,2.05-.63,2.21s-1.67-.29-2-.74c-.39-.52-.72-1.87.61-2.55Z"/>
        <path class="cls-4" d="M155.94,404.99c1.06-.6,1.93.54,2.01,1.07.09.63-.13,1.5-.94,1.98-.62.37-1.25.05-1.64-.54-.42-.64-.68-1.81.57-2.51Z"/>
        <path class="cls-4" d="M156.12,218.64c.84-.46,1.57.03,1.72.41.36.9.27,1.82-.42,2.49-.55.54-1.85.39-2.15-.68-.16-.59-.42-1.53.85-2.23Z"/>
        <path class="cls-4" d="M155.99,281.05c1.01-.62,1.86.52,1.94,1.04.1.63-.09,1.49-.89,1.97-.58.35-1.26.16-1.69-.5-.33-.5-.5-1.8.63-2.51Z"/>
        <path class="cls-4" d="M156.08,328.42c.83-.6,1.62.1,1.79.62.25.75.28,1.77-.45,2.44-.45.41-1.84.3-2.16-.58-.21-.58-.36-1.61.82-2.47Z"/>
        <path class="cls-4" d="M155.17,204.16c.27-1.26,1.58-1.21,2.16-.88.53.3.88,1.43.53,2.31-.17.42-.52.58-1.18.59-.62.01-1.88-.31-1.51-2.02Z"/>
        <path class="cls-4" d="M1071.97,103.87c1.04-.52,1.76.71,1.79,1.24.04.67-.1,1.48-.83,1.91s-1.28-.1-1.61-.52c-.48-.6-.77-1.91.66-2.62Z"/>
        <path class="cls-4" d="M156,343.87c.92-.56,1.89.65,1.94,1.19.06.63-.1,1.44-.95,1.97-.58.37-1.26.08-1.63-.52-.4-.64-.71-1.82.64-2.64Z"/>
        <path class="cls-4" d="M156.12,312.67c.91-.46,1.59.04,1.74.42.38.95.13,1.99-.45,2.5-.7.62-1.99.2-2.3-.61-.23-.61-.13-1.74,1-2.31Z"/>
        <path class="cls-4" d="M1071.96,343.94c1.11-.48,1.77.64,1.82,1.18.07.72-.21,1.56-.82,1.92-.82.49-1.34-.11-1.68-.53-.46-.57-.75-1.95.67-2.57Z"/>
        <path class="cls-4" d="M1071.92,359.01c1.37-.54,1.59.68,1.7,1.23.16.8-.17,1.56-.66,1.85-1,.61-1.39-.15-1.72-.57-.46-.57-.63-2,.68-2.51Z"/>
        <path class="cls-4" d="M155.18,188.16c.29-1.13,1.61-1.06,2.15-.77s.91,1.3.47,2.29c-.16.37-.42.55-1.18.53-.59-.01-1.87-.35-1.44-2.04Z"/>
        <path class="cls-4" d="M1071.91,170.96c1.37-.55,1.61.72,1.64,1.22.06.95-.13,1.64-.66,1.85-1.05.42-1.33-.22-1.64-.59-.48-.58-.59-1.98.66-2.48Z"/>
        <path class="cls-4" d="M1071.97,296.92c1.07-.48,1.78.67,1.83,1.2.07.68-.24,1.57-.86,1.94-.79.46-1.3-.12-1.64-.54-.49-.6-.78-1.94.67-2.6Z"/>
        <path class="cls-4" d="M1071.94,249.94c1.13-.5,1.79.64,1.84,1.16.07.72-.18,1.53-.85,1.91-.76.43-1.27-.11-1.62-.52-.5-.59-.74-1.93.64-2.54Z"/>
        <path class="cls-4" d="M1071.07,329.2c.6-1.18,1.72-.7,2.08-.35.54.53.85,1.44.6,2.05-.31.78-.96.73-1.38.75-.88.04-2.13-.83-1.31-2.45Z"/>
        <path class="cls-4" d="M155.98,296.95c.99-.57,1.9.58,1.97,1.12.09.75-.19,1.47-.97,1.98-.65.42-1.23.06-1.62-.53-.44-.66-.71-1.81.62-2.57Z"/>
        <path class="cls-4" d="M1071.95,404.96c1.13-.5,1.78.64,1.83,1.17.07.66-.21,1.58-.83,1.92-.82.46-1.33-.11-1.67-.52-.51-.63-.74-1.95.66-2.57Z"/>
        <path class="cls-4" d="M155.16,436.15c.26-1.33,1.77-1.18,2.18-.83.48.41.9,1.21.57,2.5-.1.4-.67.73-1.32.59s-1.75-.65-1.44-2.26Z"/>
        <path class="cls-4" d="M1071.9,435c1.39-.52,1.58.72,1.69,1.24.16.71-.08,1.61-.66,1.84-1.04.41-1.35-.19-1.69-.57-.56-.62-.62-2.03.66-2.51Z"/>
        <path class="cls-4" d="M1071.4,138.78c.42-.5,1.45-.27,1.76.06.67.69.57,1.42.41,2.01-.36,1.26-1.72,1.06-2.14.61-.61-.65-.77-1.8-.03-2.68Z"/>
        <path class="cls-4" d="M1071.36,56.79c.5-.54,1.37-.24,1.77.05.84.62.91,1.19.43,1.93-.61.95-1.58,1.14-2.13.69-.75-.61-.8-1.89-.07-2.67Z"/>
        <path class="cls-4" d="M156.13,56.74c.86-.3,1.53-.01,1.73.34.42.75.32,1.97-.44,2.44-.64.4-1.52.18-2.15-.74-.39-.58-.54-1.55.86-2.03Z"/>
        <path class="cls-4" d="M1071.12,42.27c.81-1.42,2.11-.5,2.44.01.64.98,0,1.51-.4,1.93-1.14,1.2-3.09-.13-2.04-1.94Z"/>
        <path class="cls-4" d="M1071.33,265.8c.57-.58,1.35-.22,1.76.05.78.52,1.05,1.16.47,1.89-.53.68-1.62.98-2.12.65-.75-.49-.85-1.85-.12-2.6Z"/>
        <path class="cls-4" d="M156.14,249.65c.91-.4,1.21.43,1.45.74.5.65.5,1.83-.21,2.19-.85.43-2,.02-2.27-.66-.22-.55-.02-1.81,1.03-2.28Z"/>
        <path class="cls-4" d="M156.11,41.63c.85-.42,1.54-.05,1.75.41.32.69.35,1.83-.45,2.48-.51.42-1.51.28-2.13-.78-.35-.6-.57-1.43.83-2.12Z"/>
        <path class="cls-4" d="M1071.11,235.24c.68-1.39,2.06-.63,2.45,0,.51.84.22,1.31-.46,1.86-.95.77-2.89-.02-1.98-1.87Z"/>
        <path class="cls-4" d="M155.8,234.71c1.32-.99,2.45.14,2.29,1.25-.11.74-.18,1.49-1.56,1.45-.86-.02-2.49-1.38-.73-2.69Z"/>
        <path class="cls-4" d="M1072.16,218.63c.7-.3,1.25.46,1.37.83.2.63.17,1.75-.27,2.1-.73.58-2.1.17-2.28-.64-.14-.65.02-1.78,1.18-2.28Z"/>
        <path class="cls-4" d="M1071.35,87.83c.55-.5,1.34-.22,1.75.04.81.52.99,1.21.46,1.89-.59.76-1.64,1.02-2.13.69-.72-.48-.84-1.93-.07-2.62Z"/>
        <path class="cls-4" d="M156.08,265.64c.91-.4,1.51-.03,1.76.4.36.61.22,1.94-.42,2.36-.49.32-1.52.06-2.13-.67-.46-.55-.53-1.52.79-2.1Z"/>
        <path class="cls-4" d="M156.08,122.41c.82-.57,1.63.05,1.79.63.17.64.35,1.71-.45,2.52-.5.5-1.57.37-2.13-.82-.27-.58-.59-1.38.79-2.33Z"/>
        <path class="cls-4" d="M155.18,421.19c.42-1.76,2.38-1.07,2.61-.29.17.57.29,1.21-.57,2.23-.51.6-2.49-.01-2.04-1.94Z"/>
        <path class="cls-4" d="M1072.12,154.56c.74-.34,1.28.47,1.42.83.24.66.16,1.77-.29,2.14-.58.46-2.08.18-2.25-.64-.14-.66-.05-1.8,1.13-2.33Z"/>
        <path class="cls-4" d="M155.82,154.78c1.41-.96,2.33.21,2.25,1.19-.06.83-.19,1.67-1.57,1.58-.88-.05-2.48-1.55-.68-2.77Z"/>
        <path class="cls-4" d="M1071.12,390.27c.78-1.45,2.1-.56,2.45-.02.63.96.08,1.44-.44,1.89-1.18,1.04-3-.03-2.02-1.87Z"/>
        <path class="cls-4" d="M156.11,389.68c.85-.38,1.48-.04,1.74.36.38.6.24,1.99-.4,2.4-.49.31-1.49.1-2.13-.73-.39-.5-.5-1.45.8-2.03Z"/>
        <path class="cls-4" d="M155.18,105.19c.39-1.8,2.35-1.3,2.67-.29.18.57.28,1.14-.62,2.22-.52.62-2.48.04-2.05-1.93Z"/>
        <path class="cls-4" d="M155.83,138.72c.99-.73,1.89-.12,2.06.31.3.75.27,1.8-.47,2.49-.35.33-1.21.21-1.72-.32-.43-.45-1.47-1.3.13-2.48Z"/>
        <path class="cls-4" d="M1071.12,375.23c.69-1.53,2.09-.66,2.47-.03.54.9.2,1.38-.43,1.94-1.04.91-2.89-.03-2.03-1.91Z"/>
        <path class="cls-4" d="M155.84,374.72c.98-.74,1.89-.12,2.05.31.3.78.24,1.79-.47,2.46-.45.42-1.21.3-1.71-.28-.4-.46-1.45-1.29.13-2.49Z"/>
        <path class="cls-4" d="M155.8,359.54c1.21-1.03,2.5.21,2.23,1.42-.13.59-.11,1.51-1.49,1.46-.83-.03-2.54-1.35-.74-2.88Z"/>
        <path class="cls-4" d="M1071.13,420.64c.42-.81,1.75-.75,2.15-.29.36.42.59,1.14.22,2.16-.2.55-.96,1.26-1.76.57-.6-.51-1.15-1.41-.61-2.44Z"/>
        <path class="cls-4" d="M156.11,87.7c.87-.35,1.5,0,1.71.35.4.64.19,2.04-.39,2.41-.5.32-1.55.03-2.15-.71-.44-.55-.47-1.53.83-2.05Z"/>
        <path class="cls-4" d="M1071.87,312.8c1.05-.64,1.48.32,1.67.71.32.67.29,1.82-.25,2.13-.48.26-1.59.2-1.89-.08-.54-.5-.98-1.87.48-2.76Z"/>
        <path class="cls-4" d="M1071.16,73.17c.6-1.49,2.03-.68,2.4.04.43.85.26,1.22-.46,1.94-.77.76-2.64-.27-1.94-1.98Z"/>
        <path class="cls-4" d="M1071.13,188.18c.57-1.6,2.05-.93,2.44,0,.33.8.39,1.14-.45,1.96-.73.71-2.62-.19-1.99-1.97Z"/>
        <path class="cls-4" d="M1071.14,204.14c.55-1.66,2.06-1.05,2.43.04.25.74.41,1.13-.47,1.94-.69.64-2.55-.17-1.96-1.98Z"/>
        <path class="cls-4" d="M1071.13,282.16c.58-1.64,2.04-.96,2.45.03.33.8.42,1.15-.46,1.94-.73.67-2.62-.19-1.99-1.97Z"/>
        <g>
          <path class="cls-4" d="M1170.88,211.38l-39.93-.27-1.04,42c-1.4,8.05-13.98,11.08-20.33,9.3-3.2-1.01-4.39-2.53-5.15-4.08-1.19-2.44-.74-5.39.89-7.53,4.71-6.19,12.94-8.83,21.2-6.05l.16-41.68,48.23.08-.18,50c-4.25,8.22-13.66,11.42-22.21,8.8-2.19-1.12-3.92-2.79-4.3-4.34-.59-2.35-.4-4.87,1.13-6.77,5.14-6.37,13.52-8.87,21.46-6.05l.08-33.41Z"/>
          <path d="M1126.14,253.24c-5.45,6.95-16.68,7.13-18.21,3.52-1.81-4.25,7.36-11.4,16.42-8.77,2.05.59,3.49,3.07,1.79,5.25Z"/>
          <path d="M1170.2,253.31c-5.17,6.73-15.7,6.69-17.71,4.06-.58-.76-.9-2.42-.17-3.54,3.61-5.52,10.51-7.85,16.7-5.55,1.78.66,2.66,3.1,1.18,5.03Z"/>
        </g>
        <g>
          <path d="M1159.19,405.71c2.69,5.41-10.55,13.82-19.37,8.91-2.41-1.34-.87-5.14.72-6.52,6.72-5.84,16.69-6.34,18.65-2.39Z"/>
          <path d="M1159.2,359.71c2.18,4.9-7.43,11.73-17.11,9.85-1.54-.3-2.61-1.21-3.04-1.93-.72-1.19-.62-3.21.51-4.56,5.93-7.13,17.61-7.92,19.65-3.35Z"/>
          <path d="M1159.12,381.59c-7.26-2.98-13.89-1.35-20.62,3.52.23-8.45,14.66-11.67,19.45-8.22,1.07.77,2.29,2.17,1.17,4.7Z"/>
        </g>
        <path d="M1147.5,103.61c2.88,5.38-13.42,13.22-18.02,7.15-2.04-2.69,1.31-6.26,4.2-7.65,3.86-1.86,11.46-3.9,13.82.49Z"/>
        <g>
          <g>
            <path class="cls-4" d="M820.36,475.24c-33.41-16.84-45.33-51.96-48.35-87.65-.81-9.53,1.15-18.2,4.11-26.91-12.98-13.94-22.93-29.34-31.32-46.06-6.76-13.47-10.49-27.13-11.79-42.17-1.15-13.31-5.9-25.19-12.43-36.62l-12.03-21.03c-4.33-7.56-2.48-17.61,4.23-23.46,8.26-7.22,19.69-8.37,29.76-4.48,15.48,6.1,25.55,17.84,33.76,32.92,2.97-12.38,3.85-24.29,4.46-37.38l5.22-112.82c.9-19.41,10.32-39.35,29.41-38.53,8.21.35,15.42,4.79,19.32,12.82-.12-19.71,8.45-39.66,26.82-40.23s26.77,15.86,27.04,34.33c9.47-9.48,23.63-8.47,31.55,1.3,4.93,6.07,7.98,13.18,8.15,20.94l.5,22.95c7.58-6.08,16.14-6.02,23.26-.72,11.76,8.76,13.5,28.54,13.6,44.15.19,30.93.51,60.91,3.29,91.84,8.01,43.07,8.28,87.95-7.96,129.33,23.21,23.87,22.88,56.87,11.7,87.38-7.31,18.68-20.36,32.88-38.92,41.36-35.69,16.31-78.17,16.5-113.36-1.24Z"/>
            <path d="M780.99,365.47c4.75,4.27,9.33,7.97,14.99,11.26.38,15.36,7.83,28.43,19.75,38.08,41.41,33.55,135.86,20.62,143.08-35.3.93-7.18-.44-13.93-4.07-20.05.97-2.27,1.96-3.94,3.68-6.15,17.47,19.93,18.71,45.49,11.39,70.99-3.56,12.39-8.91,23.84-18.23,32.82-12.22,11.79-27.26,18.64-43.91,22.13-24.91,5.22-50.15,4.43-74-4.52-32.03-12.01-46.29-35.46-52.71-68.3-2.9-13.47-4.38-26.72.02-40.97Z"/>
            <path d="M951.22,387.32l-.55-23.13c5.13,7.23,3.59,15.94.55,23.13Z"/>
            <path d="M803.47,388.44c-1.02-2.35-2.16-4.83-1.14-8.09.73,2.3,1.82,4.24,1.14,8.09Z"/>
            <g>
              <path d="M837.78,386.86c-26.95-5.54-46.32-15.69-64.1-38.18-16.93-21.4-31.67-47.1-34.39-74.46-3.39-34.15-19.73-46.91-25.92-63.12-2.01-5.27-1.17-11.42,3-15.13,7.12-6.34,16.57-6.63,25.3-3.18,19.65,7.77,30.44,29.06,36.98,48.98l8.55,26.06,1.74-2.91c1.13-1.89,26.13,6.44,38.67,16.93,17.1,14.3,26.67,34.3,30.85,55.89,2.11-9.36-.37-17.85-3.43-26.43-10.04-28.17-36.72-49.88-66.15-49.32-.68-11.23-4.42-20.64-7.73-30.58l4.72-35.97,5.89-121.83c.81-16.78,6.01-36.45,21.79-36.85,7.11-.18,14.05,4.29,16.93,11.11,3.37,7.97,3.6,15.89,3.4,24.74l-2.66,117.39c-9.87,1.69-18.57,4.38-26.4,9.44,53.44-12.69,96.82-.09,144.11,21.18-5.44-7.94-13.41-10.21-21.4-14.25l1.15-111.77c.05-4.68,4.82-8.2,7.71-9.43,4.2-1.79,9.91-.71,13.25,2.72,5.45,5.61,8.46,13.29,8.78,21.15l1.42,34.5c1.08,26.15.06,51.7,3.79,77.66,3.76,26.14,6.06,51.42,2.85,77.68-4.69,38.43-14.52,70.15-52.01,86.38,12.29-.96,22.07-6.77,31.45-14.58l.25,26.44c-6.05,9.99-16.53,17.26-27.81,21.9-31.43,12.94-79.68,11.64-104.38-13.67l-6.28-22.32c10.03,3.45,18.93,6.84,30.09,3.83Z"/>
              <path class="cls-4" d="M877.12,260.62c10.87,6.45,21.3,12.26,28.98,22.56-27.19-17.88-54.54-30.31-86.09-38.86,20.35-.38,38.69,7.88,57.11,16.3Z"/>
              <path class="cls-4" d="M825.25,135.24l-22.64-.18c7.24-3.57,15.53-3.45,22.64.18Z"/>
              <path class="cls-4" d="M949,160.17l-15.47-1.17c4.42-2.46,11.16-2.94,15.47,1.17Z"/>
            </g>
            <g>
              <path d="M877.18,191.54c-13.77-2.21-26.61-3.15-40.52-1.99l3.06-114.98,1.91-41.48c.39-8.54,4.83-17.05,12.37-21.46,9.65-5.65,21.68.1,25.46,10.22,2.4,6.41,3.26,12.69,2.99,19.73l-3.51,92.84-1.76,57.12Z"/>
              <path class="cls-4" d="M871.04,112.33l-22.33-1.01c5.67-2.79,18.56-3.41,22.33,1.01Z"/>
            </g>
            <g>
              <path d="M921.37,203.99c-6.48-1.82-12.29-2.05-18.63-1.98-6.2-3.83-12.01-7.35-19.74-9.16l5.56-143.46c.25-6.33,7.38-10.85,11.95-11.89,13.38-3.04,22.06,12.84,22,25.22l-.16,31.27-.98,110.01Z"/>
              <path class="cls-4" d="M913.22,134.8l-19.5-1.7c5.96-2.7,13.1-2.83,19.5,1.7Z"/>
            </g>
          </g>
          <g>
            <path class="cls-4" d="M443.04,429.1c-9.12,26.71-29.33,44.62-55.85,52.96-32.16,10.12-67.88,8.49-98.37-6.38-21.16-10.32-35.38-28.85-40.75-51.36-7.33-27.55-5.1-55.96,15.22-76.76-13.71-35.57-15.88-76.78-10.27-114.11,2.23-14.86,3.98-28.75,4.36-43.79l1.85-73.11c.27-10.75,2.95-21.26,8.87-29.69,6.62-9.44,18.76-11.1,27.42-3.95-.3-16.96-1.12-33.19,9.88-45.05,8.33-8.32,21.93-9.02,30.61-.26.78-17.7,8.46-33.28,25.49-34.06,8.77-.4,16.66,4.26,21.46,11.96,5.11,8.2,5.87,17.07,6.93,27.71,5-8.05,12.09-12.17,20.42-12.31s15.66,4.28,20.55,11.8c3.81,6.49,6.55,13.81,6.96,22.01l6.6,131.54,3.41,23.14c7.64-13.83,17.03-24.98,30.71-31.21,10.23-4.66,22.07-5.1,30.97,1.46,8.36,6.16,11.2,16.72,6.04,25.55l-14.34,24.57c-13.82,23.69-8.26,42.78-18.18,65.89-8.68,20.22-20.43,38.4-35.09,55.02,8.02,22.36,2.77,45.44-4.9,68.42Z"/>
            <path d="M427.68,376.96c5.82-3.73,10.63-6.9,15.16-11.87,6.59,18.5,1.29,40.35-4.32,58.88-7.31,24.14-24.18,42.38-48.35,50.99-28.75,10.24-60.32,9.95-89.2-.4-19.31-6.92-34.97-20.35-42.74-39.25-10.96-26.66-12.61-61.26,8.14-81.89l3.26,5.45c-9.77,18.96-1.09,41.78,15.9,54.99,26.61,20.69,67.59,23.77,99.13,13.42,23.31-7.65,41.77-24.45,43.02-50.31Z"/>
            <path d="M273.03,387.21c-3.18-7.76-3.4-15.66.18-23.48.53,8.3.57,15.28-.18,23.48Z"/>
            <path d="M420.26,389.59c-.73-2.93.25-5.05,1.31-7.24.75,2.89-.24,5.07-1.31,7.24Z"/>
            <g>
              <path d="M385.49,386.72c10.35,3.19,20.39-.15,30.91-4.15l-5.75,21.86c-24.04,26.01-72.33,27.65-104.26,14.68-11.37-4.62-21.89-11.54-28.06-22.07l-.04-26.75c9.53,8.18,19.34,14.31,31.21,14.64-20.32-8.88-34.61-23.24-41.84-43.21-7.3-20.16-10.21-40.72-11.17-62.22-.96-21.44,2-41.34,4.72-62.5,4.19-32.53,2.98-64.66,4.06-97.3.57-17.23,5.82-38.54,20.93-35.01,5.53,1.29,9.66,6.4,9.71,12.81l.84,108.72c-8.11,3.9-16.04,7.4-22.02,14.56,47.49-21.68,92.45-34.03,144.51-21.35-7.61-5.71-16.75-7.76-25.99-9.42l-2.71-119.41c-.36-15.82,3.06-32.37,18.15-33.85,17.29-1.69,23.06,17.97,23.89,36.06l5.92,127.93c.86,10.29,4.94,20.46,3.64,30.41-1.34,10.25-7.74,19.41-7.01,30.67-39.6.53-72.26,37.27-69.78,76.07,10.68-41.43,27.88-63.33,69.56-73.64.65,1.43.76,2.72,2.01,3.46,9.2-28.13,15.71-60.5,43.2-73.85,8.97-4.36,19.21-4.76,27.08,1.32,5.9,4.56,6.08,12.9,2.45,18.97l-11.26,18.8c-8.06,13.46-12.78,27.42-14.09,43.09-2.31,27.61-21.3,58.46-39.65,79.08-15.52,17.43-35.56,27.5-59.15,31.57Z"/>
              <path class="cls-4" d="M359.14,260.3c-14.87,6.41-27.14,15.06-41.35,22.43,8.18-9.03,17.56-15.82,28.17-21.22,18.41-9.37,37.72-16.91,58.76-17.38-16.02,5.02-30.52,8.9-45.59,16.18Z"/>
              <path class="cls-4" d="M422.2,135l-22.83.11c6.96-3.73,15.22-3.76,22.83-.11Z"/>
              <path class="cls-4" d="M290.8,158.58c-5.84,1.48-10.45.94-16.23,1.73,4.38-3.68,10.5-3.85,16.23-1.73Z"/>
            </g>
            <g>
              <path d="M387.41,189.32c-13.85-.68-26.36-.55-40.15,2.36l-5.25-149.03c-.55-15.52,4.35-31.78,18.59-33.17,17.17-1.67,23.14,16.84,23.55,35.18l3.26,144.66Z"/>
              <path class="cls-4" d="M374.87,111.4c-7.65.17-14.32-.39-22.23,1.14,3.16-3.95,7.79-3.02,12.28-3.02,3.55,0,6.95-.99,9.95,1.88Z"/>
            </g>
            <g>
              <path d="M302.67,204.2l-.83-103.65c-.15-19.01-3.7-42.68,5.87-56.21,3.84-5.42,10.14-8.47,16.47-6.84,5.66,1.46,11.87,5.98,12.12,12.92l5.03,142.3c-7.36,2.14-13.92,4.98-20.36,9.31-6.45-.04-12.51,0-18.29,2.16Z"/>
              <path class="cls-4" d="M330.15,132.72l-19.5,2.47c5.17-3.96,12.37-5.11,19.5-2.47Z"/>
            </g>
          </g>
        </g>
      </g>
      <text class="cls-5" transform="translate(271.45 573.38)"><tspan class="cls-10"><tspan x="0" y="0">Left Hand</tspan></tspan><tspan class="cls-3"><tspan x="-113.84" y="54">M</tspan><tspan class="cls-1" x="-95.74" y="54">o</tspan><tspan class="cls-7" x="-81.99" y="54">v</tspan><tspan x="-68.67" y="54">e</tspan><tspan class="cls-13" x="-55.32" y="54"> </tspan><tspan class="cls-12" x="-40.56" y="54">y</tspan><tspan x="-27.16" y="54">our</tspan><tspan class="cls-6" x="11.48" y="54"> </tspan><tspan x="26.23" y="54">hand</tspan><tspan class="cls-13" x="82.95" y="54"> </tspan><tspan x="97.71" y="54">up</tspan><tspan class="cls-13" x="126.31" y="54"> </tspan><tspan x="141.07" y="54">and</tspan><tspan class="cls-6" x="183.49" y="54"> </tspan><tspan x="198.24" y="54">d</tspan><tspan class="cls-7" x="212.54" y="54">o</tspan><tspan x="226.4" y="54">wn</tspan><tspan class="cls-13" x="260.66" y="54"> </tspan><tspan x="275.41" y="54">to </tspan></tspan><tspan class="cls-3"><tspan x="-19.14" y="79.2">control </tspan><tspan class="cls-7" x="70.53" y="79.2">e</tspan><tspan x="83.44" y="79.2">xpression.</tspan></tspan><tspan class="cls-3"><tspan x="-113.84" y="129.6">Open</tspan><tspan class="cls-2" x="-55.07" y="129.6"> </tspan><tspan x="-49.16" y="129.6">and</tspan><tspan class="cls-11" x="-6.74" y="129.6"> </tspan><tspan x="-.83" y="129.6">close</tspan><tspan class="cls-2" x="59.36" y="129.6"> </tspan><tspan class="cls-12" x="65.27" y="129.6">y</tspan><tspan x="78.66" y="129.6">our</tspan><tspan class="cls-11" x="117.3" y="129.6"> </tspan><tspan x="123.21" y="129.6">hand</tspan><tspan class="cls-2" x="179.93" y="129.6"> </tspan><tspan x="185.84" y="129.6">to</tspan><tspan class="cls-11" x="210.75" y="129.6"> </tspan><tspan x="216.66" y="129.6">control </tspan></tspan><tspan class="cls-3"><tspan x="53.18" y="154.8">cutoff.</tspan></tspan></text>
      <text class="cls-5" transform="translate(767.45 573.38)"><tspan class="cls-10"><tspan x="0" y="0">Right Hand</tspan></tspan><tspan class="cls-3"><tspan x="-98.42" y="54">M</tspan><tspan class="cls-1" x="-80.32" y="54">o</tspan><tspan class="cls-7" x="-66.56" y="54">v</tspan><tspan x="-53.25" y="54">e</tspan><tspan class="cls-8" x="-39.89" y="54"> </tspan><tspan x="-25.78" y="54">right</tspan><tspan class="cls-9" x="30.14" y="54"> </tspan><tspan x="44.25" y="54">hand</tspan><tspan class="cls-8" x="100.97" y="54"> </tspan><tspan x="115.08" y="54">up</tspan><tspan class="cls-9" x="143.68" y="54"> </tspan><tspan x="157.79" y="54">and</tspan><tspan class="cls-8" x="200.21" y="54"> </tspan><tspan x="214.32" y="54">d</tspan><tspan class="cls-7" x="228.62" y="54">o</tspan><tspan x="242.48" y="54">wn</tspan><tspan class="cls-9" x="276.73" y="54"> </tspan><tspan x="290.84" y="54">to </tspan></tspan><tspan class="cls-3"><tspan x="-39.1" y="79.2">change the note or chord.</tspan></tspan><tspan class="cls-3"><tspan x="-98.42" y="129.6">Open</tspan><tspan class="cls-2" x="-39.64" y="129.6"> </tspan><tspan x="-33.73" y="129.6">and</tspan><tspan class="cls-11" x="8.69" y="129.6"> </tspan><tspan x="14.6" y="129.6">close</tspan><tspan class="cls-2" x="74.78" y="129.6"> </tspan><tspan class="cls-12" x="80.69" y="129.6">y</tspan><tspan x="94.09" y="129.6">our</tspan><tspan class="cls-11" x="132.73" y="129.6"> </tspan><tspan x="138.64" y="129.6">hand</tspan><tspan class="cls-2" x="195.36" y="129.6"> </tspan><tspan x="201.27" y="129.6">to</tspan><tspan class="cls-11" x="226.17" y="129.6"> </tspan><tspan x="232.08" y="129.6">control </tspan></tspan><tspan class="cls-3"><tspan x="-26.76" y="154.8">the instrument </tspan><tspan class="cls-7" x="151.42" y="154.8">v</tspan><tspan x="164.73" y="154.8">olume.</tspan></tspan></text>
    </g>
  </g>
</svg>