<?xml version="1.0" encoding="UTF-8"?>
<svg id="Capa_2" data-name="Capa 2" xmlns="http://www.w3.org/2000/svg" viewBox="0 0 154.14 212.33">
  <defs>
    <style>
      .cls-1 {
        fill: #a9a9a5;
      }

      .cls-2 {
        fill: #333332;
      }

      .cls-3 {
        fill: #daa484;
      }

      .cls-4 {
        fill: #be896b;
      }

      .cls-5 {
        fill: #ae6a51;
      }

      .cls-6 {
        fill: #0c0c0c;
      }
    </style>
  </defs>
  <g id="Capa_1-2" data-name="Capa 1">
    <g>
      <g>
        <path class="cls-1" d="M66.35,211.12c-9.88,2.43-21.74.98-31.43-2.46-6.19-2.19-11.87-5.4-16.95-9.53-5.69-4.63-10.15-10.38-13.29-17-2.53-5.32-4.09-10.92-4.37-16.81-.08-1.7.04-3.28.49-4.78l1.13-.45,3.11-1.89c6.91-4.21,13.16-9.26,19.43-14.36l1.72-1.4,2.75-2.37c.42-.36.73-.82,1.42-.98-2.06,6.47-2.72,12.98-1.94,19.63,1.58,13.46,7.47,27.03,16.13,37.41,4.82,5.77,10.85,10.67,17.97,13.2l3.65,1.3c.17.06.21.44.18.5Z"/>
        <g>
          <path class="cls-2" d="M84.71,158.17c-.22-.77-.26-.91.21-1.52l3.4-4.43c1.06,2.58,1.75,5.17,2.31,7.94,1.63,8.13,1.36,16.31-.79,24.32-1.76,6.56-4.43,12.99-9.14,17.91s-10.19,6.13-16.72,5.61c-5.12-1.64-9.53-4.43-13.48-8.08-10.42-9.64-17.46-24.01-20.01-37.94-1.47-8.03-.97-17.8,2.49-25.24l5.02-5.09c1.41-1.43,3-2.52,4.89-3.36l.62,3.51c-2.98,1.46-5.17,5.33-6.11,8.52-1.51,5.15-1.89,10.52-1.19,15.92,1.45,11.07,5.61,21.47,11.99,30.58,2.3,3.27,4.74,6.26,7.67,8.93,4.11,3.73,9.93,7.65,15.53,6.96,1.77-.22,3.95-.86,3.31-2.06l2.3-2.05c1.78-1.93,3.14-3.97,4.33-6.33,5.21-10.39,6.51-22.79,3.35-34.09Z"/>
          <path class="cls-1" d="M61.56,196.83c-3.23-2.31-5.96-4.95-8.38-8.05l4.52-4.59,11.59-11.64,3.63-3.42,4.95-4.79,5.33-5.45c.34.55.43.97.55,1.54,2.15,9.93,1.09,20.3-3.12,29.56-1.22,2.69-2.66,5.07-4.57,7.26-1.32,1.46-2.86,2.53-4.75,3.18-2.12.03-4.08-.55-5.98-1.43l-3.76-2.17Z"/>
        </g>
      </g>
      <g>
        <path class="cls-6" d="M66.35,211.12c.04-.06-.01-.44-.18-.5l-3.65-1.3c-7.12-2.53-13.15-7.43-17.97-13.2-8.67-10.38-14.55-23.95-16.13-37.41-.78-6.65-.12-13.17,1.94-19.63-.69.16-1,.62-1.42.98l-2.75,2.37-1.72,1.4c-6.27,5.1-12.52,10.15-19.43,14.36l-3.11,1.89-1.13.45c-.16-.63-1.12-.77-.68-2.17.13-.43.54-.7,1.01-.98,9.72-5.84,21.37-15.17,29.82-22.84l5.76-5.73c1.58-1.57,3.46-2.58,5.63-3.33-1.41-8.06-1.89-15.94-2.4-23.99-.25-3.92-.57-7.56-.47-11.49.07-3.05-.72-5.9-1.6-8.8-1.72-5.73-3.9-11.12-6.02-16.7-1.09-2.87-1.86-5.71-2.65-8.67-1.4-5.27-4.73-12.84-3.97-17.38.44-2.61,2.28-4.64,4.58-5.33,2.71-.81,5.35.05,7.13,2.11,2.67,3.09,4.76,9.9,6.21,14.16l2.29,5.06c1.03,2.28,1.91,4.46,2.81,6.79l2.42,4.91,2,4.32c.31.67.57,1.38,1.17,1.87.88-.29,1.15-1.14,1.1-2.02-.13-2.11-.41-4.09-.86-6.2-1.78-8.43-2.95-16.81-3.83-25.39l-.65-6.38c-.51-5-1.9-11.63-1.52-16.43s4.33-8.03,8.92-7.21c2.11.37,4.16,1.77,5.31,3.92s1.72,4.36,2.13,6.74l1.82,10.67,1.44,6.76c.86,4.02,1.48,7.87,2.17,11.92l2.12,12.51c.27,1.57.68,3.93,1.29,3.74s.85-2.33.89-3.8l.36-14.13.92-14.51.62-8.72.34-10.79c.14-4.52.43-9.95,4.49-12.12,3.05-1.63,6.82-.97,9.24,1.51,1.4,1.44,2.21,3.28,2.59,5.25.49,2.54.75,5,.77,7.6l.08,9.75.16,3.78c.2,4.76.1,9.41-.06,14.18l-.17,5.15-.63,13.15c-.09,1.78,0,3.83,1.11,3.81s1.69-2.52,2.18-4.31l3.99-14.62.84-3.14,3.89-13.36c1.09-4.35,2.03-8.56,3.46-12.78.51-1.51,1.06-2.89,1.98-4.19,2.06-2.92,5.87-3.72,9.04-1.94,2.6,1.46,3.94,4.29,4.06,7.33.17,4.46-.43,8.8-1.2,13.22l-1.99,11.52c-.72,4.16-1.52,8.1-2.48,12.21l-3.6,15.41c-.47,2.03-.89,3.88-1.07,5.96-.49,5.81-.57,11.56.2,17.36.24,1.81,1.22,3.32,1.75,5.06,1.29-.65,2.11-1.4,2.97-2.32l4.8-5.11,3.16-3.32c1.79-2.8,3.45-5.52,5.93-7.78,4.47-4.09,11.35-7.57,17.2-5.56,1.97.67,3.7,1.91,4.55,3.82,1.03,2.31.51,5.06-1.22,6.89l-3.91,4.14c-3.29,3.48-4.79,8.14-6.96,10.86-4.38,5.48-8.28,11.15-11.83,17.22-1.64,2.81-3.56,5.24-5.91,7.43l-2.76,2.57c-3.78,3.21-7.33,6.49-10.9,9.94l-6.18,5.47c-3.42,2.62-7.17,4.51-11.29,5.8-.83.26-1.63.51-2.16,1.21,5.47,13.87,5.3,29.24-.45,42.9-3.89,9.23-10.54,17.57-21.19,17.95-.91.03-1.68.03-2.51.23ZM76.77,56.13c-.1.11-.18.28-.19.5l-.13,5.15c-.04,1.48-.18,2.87-.76,4.31.71-.02,1.26-.24,1.87.25l-2.55.71c-.32.09-.6.24-.67.53l-1.3.21h-.27c-.06-.02-.16.09.02.14l-.42.03c-.65.05-1.28.29-2.03.08.35-.59.84-.66,1.44-.89-1.6-1.3-1.84-3.99-2.22-6.17l-1.99-11.66-1.37-8.4-2.19-9.93-1.4-8.72c-.25-1.57-.59-3.02-.98-4.46-.43-1.55-.78-3.18-1.81-4.55s-2.37-2.14-3.91-2.22-3.16.49-4.16,1.77-1.45,2.98-1.37,4.7c.2,4.34.77,8.52,1.39,12.82,1.2,8.36,1.43,16.9,3.16,25.59l1.47,7.4.6,3.73c.52,3.23.87,6.24-2.08,7.63-1.04.49-1.95,1.12-3.08,1.39.09-.69.62-.86,1.13-1.25-1.06-.7-1.66-1.65-2.18-2.75l-4.66-9.83-2.23-5.51-2.85-6.19-1.51-4.48c-.69-2.05-1.44-3.98-2.38-5.83-.7-1.39-1.29-2.87-2.58-3.93-2.02-1.67-4.9-1.28-6.31.96-.81,1.28-.94,2.79-.68,4.29.37,2.11.92,4.09,1.56,6.12l2.06,6.5c1.2,4.84,2.75,9.4,4.61,14.03.95,2.36,1.84,4.63,2.61,6.94,1.67,4.95,3.72,10.78,3.49,15.99-.15,3.48.26,6.72.44,10.24.45,8.43,1.09,16.68,2.55,24.99l1.76,7.99c.52,2.38,1.62,4.4,2.96,6.62-2.13-1.38-3.44-3.4-4.51-5.75-1.41,2.81-3.18,5.06-5.45,7.04-1.15,4.67-1.4,9.26-.71,14.03,1.6,10.98,5.86,21.34,12.42,30.25l15.18-15.15,8.26-7.83,5.98-6,3.55-4.51,3.11-3.78c-2.87-.06-5.6-.27-8.1-1.72,4.44.77,8.38.27,12.43-1.02,5.55-1.77,10.33-4.74,14.52-8.81,4.61-4.46,9.26-8.7,14.13-12.86,3.1-2.64,5.51-5.57,7.59-9.05,3.15-5.3,6.49-10.32,10.31-15.14,1.46-1.85,2.69-3.61,3.72-5.73,1.83-3.78,4.35-6.96,7.38-9.86.95-.91,1.8-1.85,2.12-3.03.45-1.63-.18-3.25-1.67-4.24-4.27-2.84-10.49-.27-14.52,2.77-2.83,2.13-4.98,4.88-6.73,7.86-.38.65-.97,1.25-.76,2.31-.76-.1-1.23.09-1.43.59l-4.31,4.42c-1.55,1.58-2.9,3.22-4.67,4.57-.23.17-.61.2-.63.53-1.3.3-2.4,1.03-4.15.82l-2.75-.32h-.8c-.26-.89,1.99-.57,3.76-1.39l-1.05-2.55c-.92-2.23-1.94-4.32-3.18-6.52,1,.23,1.25,1.13,1.94,1.6-.48-7.42-.63-14.96,1.05-22.15l3.9-16.62c1.12-4.76,2.1-9.34,2.75-14.18l1.6-8.86c.65-3.59,1.17-7.08,1.19-10.63.01-3.13-.41-6.23-3.65-7.49-1.87-.73-3.9-.12-5.13,1.49-.85,1.11-1.33,2.37-1.78,3.72-1.36,4.06-2.27,8.1-3.31,12.27l-3.68,12.7-1.25,4.6c-1.25,4.59-2.68,9.04-3.61,13.57l-1.37,4.14c-.51,1.62-1.85,2.58-3.52,2.45-3.63-.27-3.38-4.48-3.23-7.92l.63-14.2c.25-5.65.48-11.11.11-16.75l-.11-3.09-.04-6.34c-.02-3.04-.04-5.99-.47-8.9-.2-1.36-.31-2.77-.91-4.1-.75-1.68-2.06-3.04-3.82-3.55-2.37-.69-4.72.26-5.88,2.43-.68,1.25-.89,2.65-1.04,4.1-.36,3.52-.32,6.98-.45,10.53l-.18,4.97-.77,10.46c-.52,7.06-1,14.02-.88,21.01ZM84.71,158.17c3.16,11.3,1.86,23.7-3.35,34.09-1.18,2.36-2.54,4.4-4.33,6.33l-2.3,2.05c.64,1.19-1.54,1.84-3.31,2.06-5.61.69-11.43-3.23-15.53-6.96-2.94-2.67-5.38-5.65-7.67-8.93-6.38-9.1-10.54-19.51-11.99-30.58-.71-5.39-.33-10.77,1.19-15.92.94-3.19,3.13-7.06,6.11-8.52l-.62-3.51c-1.89.84-3.48,1.94-4.89,3.36l-5.02,5.09c-3.46,7.44-3.96,17.21-2.49,25.24,2.55,13.93,9.59,28.31,20.01,37.94,3.95,3.65,8.35,6.44,13.48,8.08,6.53.52,12.13-.83,16.72-5.61s7.38-11.35,9.14-17.91c2.15-8.01,2.42-16.19.79-24.32-.55-2.77-1.25-5.37-2.31-7.94l-3.4,4.43c-.47.61-.42.75-.21,1.52ZM61.56,196.83l3.76,2.17c1.9.88,3.86,1.46,5.98,1.43,1.89-.65,3.44-1.72,4.75-3.18,1.92-2.2,3.35-4.57,4.57-7.26,4.2-9.26,5.27-19.63,3.12-29.56-.12-.57-.21-.99-.55-1.54l-5.33,5.45-4.95,4.79-3.63,3.42-11.59,11.64-4.52,4.59c2.42,3.1,5.15,5.75,8.38,8.05Z"/>
        <path class="cls-3" d="M90.69,10.28c-.28.18-.37.55-.37.91-.03,3.24-.32,10.76-1.85,12.51-.59.67-1.6.61-2.34.88,2.14.45,2.87.64,3.25,2.9.83,4.84.58,9.73-.56,14.49-.36,1.5-1.41,2.26-3.06,2.23l2.06.75c1.44.53,1.51,6.3,1.44,8.8-.08,2.74-.45,5.36-.84,8.05-.16,1.15-.48,2.27-1.01,3.26-.76.74-1.71.67-2.78,1.09,3.02.58,5.8.96,8.51,2.18,4.39-.74,8.64.09,12.33,2.37,1.2.74,1.97,1.8,2.3,3.21.7,3.02.68,6.13.37,9.25-.28,2.82-1.55,5.4-4.35,5.82l-4.04.6c-9.16,1.02-17.65,5.01-24.01,11.71-2.34,2.46-4.44,5.1-5.87,8.34,2.5-2.87,4.58-5.75,7.4-8.17,7.44-6.38,16.45-10.15,26.13-11.4,1.74-.23,3.1.32,4.23,1.6,1.25,1.42,2.19,3.05,2.73,4.95.22.75.2,2.37-.63,2.68-2.09.76-4.29,1.01-6.04,2.53,1.96-.35,3.67-.49,5.44-.52h.8c0,.14.09.32.29.4,1.36.53,2.35,1.53,3.03,2.81,1.29,2.42,2.11,4.92,3.15,7.45l-1.2-6.18c-.61-3.15,1.59-4.22,1.64-5,.02-.32.4-.35.63-.53,1.78-1.36,3.13-2.99,4.67-4.57l4.31-4.42.85.36c1.15,2.42,2.95,4.59,5.44,5.85-1.05-1.52-2.14-2.69-2.68-4.33l-1.19-2.39-.23-2.39c1.75-2.97,3.9-5.72,6.73-7.86,4.03-3.04,10.25-5.61,14.52-2.77,1.49.99,2.12,2.61,1.67,4.24-.33-.11-.37.31-.55.46l-3.81,3.22-3,3c-2.7,2.7-4.78,7.46-7.38,9.36-.87.64-1.93.55-2.79.11l-.24.21c.85.7,1.1,1.8.43,2.73l-2.29,3.19-5.24,7.76c-1.74,2.57-3.39,5.05-5.68,7.14l-2.87,2.61-1.18.71-2.83,2.82-7.09,6.93c-2.27,2.22-4.48,4.25-7.04,6.15-6.56,4.87-14.42,5.44-21.76,1.97-1.44-.68-2.52-1.62-3.41-3.12-.74,2.12-2.18,3.49-4.13,4.35-3.39,1.51-7.07,1.58-10.68.76-7.68-1.74-10.46-7.78-12.37-14.9-1.67-6.24-2.81-12.52-3.44-18.97-.2-2.06-.16-3.98.28-5.93s2.57-2.12,4.7-2.38c4.09-.5,7.97-1.44,11.91-2.78,6.68-2.28,13.03-5.15,19.1-8.75,2.81-1.67,5.47-3.37,7.82-5.71l-8.13,4.2c-6.49,3.35-12.92,6.58-19.81,9.06-3.67,1.33-7.21,2.46-11.02,3.2-1.39.27-2.85.45-4.17-.12-.87-.38-1.39-1.42-1.59-2.34-.87-3.85-1.58-11.8.58-14.32,1.68-1.96,3.58-3.44,5.82-4.64l4.55-2.45c.49-.26.85-.45,1.29-.78,2.26-1.72,4.77-2.86,7.32-4.18-2.01.04-3.75.48-4.32-1.35l-1.74-5.62c-.08-.25-.22-.35-.43-.34l-1.47-7.4c-1.73-8.69-1.96-17.23-3.16-25.59-.62-4.3-1.19-8.48-1.39-12.82-.08-1.72.33-3.37,1.37-4.7s2.61-1.85,4.16-1.77,2.93.91,3.91,2.22,1.38,3,1.81,4.55c-.22.08-.26.3-.23.54.36,3.06,1.15,12.03-.15,12.83l-1.6.99c.65.11,1.38-.1,1.93.22.83.48,1.28,1.42,1.62,2.34,1.51,4.06,2,8.35,1.84,12.7-.08,2.15-.48,2.34-2.31,3.24.93.07,1.9-.22,2.5.49.82.96,1.16,2.21,1.54,3.43,1.04,3.29,1.4,6.66,1.59,10.12.06,1.07.14,2.21-.38,3.17s-1.59,1.08-2.39,1.92l6.36-1.39c.26-.06.43-.22.45-.43l.42-.03c0,.06.03.14.07.16.09.06.16-.02.17-.07l.02-.23,1.3-.21,2.64-.64,4.09-.63c.06-.26-.06-.32-.21-.33-2.08-.22-3.16-.43-3.45-2.47-.34-2.4-.46-4.75-.47-7.18,0-.13-.1-.2-.17-.19-.12-6.99.37-13.95.88-21.01l.77-10.46.18-4.97c.13-3.56.09-7.01.45-10.53.15-1.45.36-2.84,1.04-4.1,1.17-2.17,3.52-3.12,5.88-2.43,1.76.51,3.07,1.87,3.82,3.55.6,1.34.71,2.74.91,4.1ZM88.15,82.83l-.09.09.09.09.09-.09-.09-.09ZM96.02,94.29l-.09.09.09.09.09-.09-.09-.09ZM77.81,127.55c.96-8.66,4.71-17.13,9.68-24.07,2.39-3.34,5.1-6.1,8.21-8.85-2.45,1.11-4.21,2.9-6.08,4.66-6.28,6.15-10.58,15.14-12.15,23.75l-.43,4.05c-.21,1.99.09,4.02.67,5.93l.09-5.46ZM133.95,98.12c-.14-.16-.33.05-.16.17l.16-.17ZM69.84,109.69l-.09.09.09.09.09-.09-.09-.09Z"/>
        <path class="cls-3" d="M121.09,20.02c-.12-.04-.3.02-.33.2l-.82,4.63c-.43,2.44-1.18,4.77-2.27,6.98-.76,1.54-1.77,1.12-3.14,1.29l1.73.98c.52.49.6,1.27.61,2.03.04,4.16-.89,8.22-2.57,12-.3.68-.79,1.36-1.46,1.62l-2.52.12,2.24,1.26c1.04.59.5,5.46-.07,7.72-.84,3.33-2.01,6.53-3.52,9.57-.57,1.14-1.53,1.7-2.8,1.4-2.08-.48-3.96-1.43-5.91-2.29-1.19-.52-2.03-1.47-1.82-2.89l.24-3.79c.93-4.53,2.36-8.98,3.61-13.57l1.25-4.6,3.68-12.7c1.04-4.17,1.95-8.22,3.31-12.27.45-1.35.93-2.61,1.78-3.72,1.23-1.61,3.27-2.22,5.13-1.49,3.23,1.26,3.66,4.36,3.65,7.49Z"/>
        <path class="cls-3" d="M37.13,40.2c-.14.64.07,1.28.26,1.95.73,2.53,1.37,5.02,1.55,7.66.07,1.01-.36,1.62-1.31,2.28,1.34-.24,2.07-.14,2.71.81,1.76,2.62,2.91,5.57,3.48,8.69.2,1.12-.2,1.9-1.19,2.55.62.12,1.31-.38,1.76-.11,2.55,1.5,4.75,7.78,5.34,11.08.23,1.3-.47,2.21-1.36,2.94-1.38,1.14-2.85,2.18-4.52,2.8-1.07.4-1.92-.06-2.5-.94-.89-1.34-1.56-2.74-2.29-4.2-.16-.31-.24-.64-.65-.61-.78-2.31-1.67-4.58-2.61-6.94-1.86-4.63-3.41-9.19-4.61-14.03l-2.06-6.5c-.65-2.04-1.19-4.01-1.56-6.12-.26-1.49-.13-3.01.68-4.29,1.41-2.23,4.3-2.63,6.31-.96,1.28,1.06,1.87,2.54,2.58,3.93Z"/>
        <path class="cls-4" d="M98.69,60.88l-.24,3.79c-.21,1.42.63,2.37,1.82,2.89,1.95.86,3.83,1.81,5.91,2.29,1.27.29,2.23-.26,2.8-1.4,1.52-3.04,2.68-6.24,3.52-9.57.57-2.26,1.11-7.14.07-7.72l-2.24-1.26,2.52-.12c.67-.26,1.15-.94,1.46-1.62,1.68-3.78,2.61-7.85,2.57-12,0-.76-.09-1.54-.61-2.03l-1.73-.98c1.36-.17,2.38.25,3.14-1.29,1.09-2.21,1.83-4.54,2.27-6.98l.82-4.63c.03-.19.22-.24.33-.2-.02,3.55-.54,7.04-1.19,10.63l-1.6,8.86c-.64,4.84-1.63,9.42-2.75,14.18l-3.9,16.62c-1.69,7.19-1.53,14.72-1.05,22.15-.69-.47-.95-1.37-1.94-1.6,1.24,2.2,2.26,4.28,3.18,6.52l1.05,2.55c-1.77.81-4.02.5-3.76,1.4-1.78.03-3.48.18-5.44.52,1.76-1.52,3.95-1.77,6.04-2.53.83-.3.85-1.93.63-2.68-.55-1.9-1.48-3.52-2.73-4.95-1.13-1.28-2.49-1.83-4.23-1.6-9.68,1.25-18.69,5.02-26.13,11.4-2.83,2.42-4.91,5.3-7.4,8.17,1.43-3.24,3.53-5.88,5.87-8.34,6.36-6.7,14.85-10.69,24.01-11.71l4.04-.6c2.8-.42,4.07-3,4.35-5.82.31-3.12.33-6.23-.37-9.25-.33-1.42-1.1-2.47-2.3-3.21-3.68-2.28-7.94-3.11-12.33-2.37-2.71-1.22-5.5-1.61-8.51-2.18,1.07-.42,2.03-.35,2.78-1.09.53-1,.84-2.11,1.01-3.26.39-2.7.76-5.32.84-8.05.07-2.51,0-8.28-1.44-8.8l-2.06-.75c1.65.03,2.71-.73,3.06-2.23,1.14-4.76,1.38-9.65.56-14.49-.39-2.26-1.11-2.45-3.25-2.9.74-.27,1.75-.21,2.34-.88,1.53-1.74,1.82-9.26,1.85-12.51,0-.35.09-.73.37-.91.42,2.91.45,5.86.47,8.9l.04,6.34.11,3.09c.37,5.64.14,11.1-.11,16.75l-.63,14.2c-.15,3.44-.4,7.65,3.23,7.92,1.66.12,3.01-.84,3.52-2.45l1.37-4.14Z"/>
        <path class="cls-4" d="M72.36,67.95c-.02.21-.18.37-.45.43l-6.36,1.39c.8-.84,1.9-1,2.39-1.92.52-.97.44-2.11.38-3.17-.19-3.46-.55-6.82-1.59-10.12-.38-1.21-.72-2.47-1.54-3.43-.61-.71-1.58-.42-2.5-.49,1.83-.9,2.23-1.08,2.31-3.24.16-4.35-.33-8.64-1.84-12.7-.34-.92-.79-1.86-1.62-2.34-.54-.31-1.27-.1-1.93-.22l1.6-.99c1.3-.8.52-9.77.15-12.83-.03-.24.01-.46.23-.54.4,1.44.73,2.89.98,4.46l1.4,8.72,2.19,9.93,1.37,8.4,1.99,11.66c.37,2.18.61,4.87,2.22,6.17-.6.23-1.09.3-1.44.89.75.21,1.38-.03,2.03-.08Z"/>
        <path class="cls-4" d="M116.84,100.8c-.05.77-2.26,1.84-1.64,5l1.2,6.18c-1.04-2.53-1.86-5.03-3.15-7.45-.68-1.28-1.67-2.29-3.03-2.81-.2-.08-.29-.26-.29-.41l2.75.32c1.76.2,2.86-.52,4.15-.82Z"/>
        <path class="cls-5" d="M74.33,67.57c.07-.29.35-.44.67-.53l2.55-.71c-.61-.49-1.16-.26-1.87-.25.58-1.44.72-2.82.76-4.31l.13-5.15c0-.22.09-.4.19-.5.07-.01.17.05.17.19.01,2.43.14,4.78.47,7.18.29,2.04,1.37,2.25,3.45,2.47.15.01.27.07.21.33l-4.09.63-2.64.64Z"/>
        <path class="cls-4" d="M128.64,88.38l.23,2.39,1.19,2.39c.55,1.65,1.64,2.82,2.68,4.33-2.49-1.26-4.28-3.43-5.44-5.85l-.85-.36c.19-.51.66-.69,1.43-.59-.22-1.06.37-1.66.76-2.31Z"/>
        <path class="cls-5" d="M73.03,67.78l-.02.23s-.08.13-.17.07c-.04-.03-.07-.1-.07-.16-.18-.04-.07-.15-.02-.15h.27Z"/>
        <path class="cls-4" d="M77.81,127.55l-.09,5.46c-.58-1.9-.88-3.94-.67-5.93l.43-4.05c1.58-8.61,5.87-17.6,12.15-23.75,1.86-1.75,3.63-3.54,6.08-4.66-3.11,2.76-5.83,5.51-8.21,8.85-4.96,6.94-8.71,15.41-9.68,24.07Z"/>
        <rect class="cls-5" x="88.09" y="82.85" width=".12" height=".12" transform="translate(-32.81 86.61) rotate(-45)"/>
        <rect class="cls-5" x="95.96" y="94.32" width=".12" height=".12" transform="translate(-38.61 95.54) rotate(-45)"/>
        <path class="cls-4" d="M56.38,63.29c.21-.02.35.09.43.34l1.74,5.62c.56,1.83,2.3,1.39,4.32,1.35-2.55,1.31-5.05,2.45-7.32,4.18-.43.33-.8.52-1.29.78l-4.55,2.45c-2.25,1.21-4.14,2.68-5.82,4.64-2.16,2.52-1.45,10.47-.58,14.32.21.92.72,1.96,1.59,2.34,1.31.57,2.78.39,4.17.12,3.81-.74,7.35-1.87,11.02-3.2,6.89-2.49,13.31-5.71,19.81-9.06l8.13-4.2c-2.35,2.34-5.01,4.04-7.82,5.71-6.06,3.59-12.42,6.47-19.1,8.75-3.94,1.34-7.82,2.28-11.91,2.78-2.12.26-4.27.46-4.7,2.38s-.48,3.87-.28,5.93c.63,6.45,1.77,12.73,3.44,18.97,1.91,7.12,4.69,13.16,12.37,14.9,3.61.82,7.29.75,10.68-.76,1.95-.87,3.38-2.24,4.13-4.35.89,1.5,1.97,2.44,3.41,3.12,7.34,3.47,15.21,2.9,21.76-1.97,2.56-1.9,4.77-3.93,7.04-6.15l7.09-6.93,2.83-2.82,1.18-.71,2.87-2.61c2.29-2.09,3.95-4.57,5.68-7.14l5.24-7.76,2.29-3.19c.67-.93.42-2.03-.43-2.73.03-.03.02-.06,0-.08-.17-.13.02-.33.16-.17.01.02.05.04.09.04.86.44,1.92.53,2.79-.11,2.6-1.9,4.68-6.66,7.38-9.36l3-3,3.81-3.22c.19-.16.22-.57.55-.46-.32,1.18-1.17,2.12-2.12,3.03-3.03,2.9-5.54,6.09-7.38,9.86-1.03,2.12-2.26,3.88-3.72,5.73-3.83,4.82-7.16,9.85-10.31,15.14-2.07,3.48-4.49,6.41-7.59,9.05-4.87,4.16-9.53,8.4-14.13,12.86-4.19,4.06-8.97,7.04-14.52,8.81-4.05,1.29-8,1.8-12.43,1.02,2.49,1.45,5.23,1.66,8.1,1.72l-3.11,3.78-3.55,4.51-5.98,6-8.26,7.83-15.18,15.15c-6.56-8.91-10.82-19.27-12.42-30.25-.7-4.77-.44-9.36.71-14.03,2.28-1.98,4.04-4.23,5.45-7.04,1.08,2.35,2.38,4.37,4.51,5.75-1.34-2.22-2.43-4.24-2.96-6.62l-1.76-7.99c-1.46-8.31-2.1-16.56-2.55-24.99-.19-3.51-.59-6.76-.44-10.24.22-5.21-1.83-11.04-3.49-15.99.41-.03.49.3.65.61.73,1.46,1.41,2.85,2.29,4.2.58.88,1.42,1.33,2.5.94,1.67-.62,3.14-1.66,4.52-2.8.89-.73,1.59-1.64,1.36-2.94-.59-3.3-2.79-9.59-5.34-11.08-.45-.27-1.14.23-1.76.11.99-.65,1.39-1.43,1.19-2.55-.57-3.13-1.71-6.07-3.48-8.69-.64-.95-1.37-1.05-2.71-.81.95-.65,1.38-1.26,1.31-2.28-.18-2.64-.82-5.13-1.55-7.66-.19-.67-.4-1.31-.26-1.95.94,1.86,1.69,3.79,2.38,5.83l1.51,4.48,2.85,6.19,2.23,5.51,4.66,9.83c.52,1.09,1.12,2.05,2.18,2.75-.51.38-1.04.56-1.13,1.25,1.13-.27,2.05-.9,3.08-1.39,2.94-1.39,2.59-4.4,2.08-7.63l-.6-3.73ZM74.58,148.91l-11.12-.8c3.66,1.15,7.39,1.4,11.12.8Z"/>
        <rect class="cls-5" x="69.78" y="109.71" width=".12" height=".12" transform="translate(-57.17 81.54) rotate(-45)"/>
        <path class="cls-6" d="M74.58,148.91c-3.73.6-7.46.35-11.12-.8l11.12.8Z"/>
      </g>
    </g>
  </g>
</svg>