<?xml version="1.0" encoding="UTF-8"?>
<svg id="Capa_2" data-name="Capa 2" xmlns="http://www.w3.org/2000/svg" viewBox="0 0 1209.84 422.27">
  <defs>
    <style>
      .cls-1 {
        fill: #f2f2f2;
      }

      .cls-2 {
        fill: #daa484;
      }

      .cls-3 {
        fill: #b2b4b5;
      }

      .cls-4 {
        fill: #1b1b1b;
      }

      .cls-5 {
        fill: #be896b;
      }
    </style>
  </defs>
  <g id="Capa_1-2" data-name="Capa 1">
    <g>
      <g>
        <g>
          <path class="cls-4" d="M208.95,321.57c-4.13-2.39-5.92-6.59-9.91-9.39-4.21,29.33-13.99,71.58-36.39,88.76-6.45,4.95-14.38,6.32-21.85,9.12-3.23,1.21-6.24.17-9.28.89-22.07,5.24-43.75,10.02-66.35,11.24-6.55.35-12.02-.28-17.49-3.9-8.8-5.83-15.96-13.03-22.18-21.76C1.33,362.64-6.96,314.15,6.29,274.61c2.17-6.48,6.06-10.61,11.09-15.01,23.9-20.9,47.35-41.78,72.71-60.91,3.56-2.69,5.33-4.92,8.37-8,8.23-8.33,18.63-15.38,29.25-20.12,11.71-5.22,24.28-4.43,34.98,3.08l9.79-13.78c5.06-7.13,10.02-13.6,17.06-18.9,5.09-3.83,9.01-8.5,11.77-14.27,4.1-8.58,10.56-14.54,18.79-19,8.25-15.39,14.5-30.92,23.81-45.49,12.92-10.92,23.76-18.93,37.24-7.53l9.16-11.81c3.92-5.04,8.27-7.15,14.18-8.88,16.05-4.71,29.68-14.94,40.85-27,5.78-6.23,13.08-7.7,21.12-6.17,15.51,2.94,28.68-4.72,37.14,2.1,2.96,2.38,4.72,6.7,5.05,11.45.8,11.48-5.27,21.61-13.15,29.48-8.77,8.76-19.75,10.48-31.01,14.54l-22.05,13.49-11.96,21c4.16,2.02,7.49,2.62,10.77,5.12,4.7,3.6,5.4,9.88,3.59,15.63-2.47,7.83-8.78,13.13-16.02,16.91,3.97,1.31,7.13,0,10.41-.73l28.53-6.36c5.33-1.19,10.17.64,15.36,1.69,15,3.06,30.12,2.93,45.35,1.15,8.3-.97,15.38,3.68,17.32,12.01,1.94,8.31-.91,16.61-6.94,23.21-15.6,17.07-40.13,22.86-62.84,15.83-14.05,3.49-27.26,8.08-40.59,14.45-12.01,17.57-28.17,29.78-48.27,36.63l-29.23,9.96c-4.81,1.64-8.17,7.43-12.37,10.58l-24.48,18.41c10.48,15.06,17.9,23.99,12.95,41.16-1.54,5.35-4.23,9.77-8.42,12.26-5.01,2.97-11.22,3.94-16.67.79ZM298.26,72.09c7.74,6.44,15.78,12.68,25.51,18.2l9.61-16.31c.26-.44.48-.79.75-1.03.68-.62.79-2-.78-2.12-.35-.03-1.63-.3-1.82-.51-.27-.3.66-1.08.82-1.45,9.27-2.88,17.39-8.75,25.23-14.52-1.73-1.04-2.72-1.18-3.37-2.64,22.83-.27,43.54-11.22,47.69-33.8.47-2.55-.75-4.54-1.06-6.23-1.96-10.43-15.88-1.91-39.85-5.53-5.14-.78-9.67,1.33-13.23,5.09-13.76,14.52-29.92,24.98-49.24,30.31-5.32,6.35-9.77,12.36-14.21,18.92l13.97,11.62ZM148.16,288.41c10.47,5.69,24.33,7.1,34.79-.2l-10.81-15.31c-3.1-4.4-9.33-5.92-12.06-10.89,2.17-.22,3.52,1.12,4.7,1.81l.94-.81c-.77-3.04-2.72-6.61-4.22-9.24-.34-1.88-1.39-3.86.34-6.19,1.3,3.75,2.46,7.3,4.71,11.02,12.51,20.62,27.36,39.37,44.38,56.45,1.52,1.52,3.54,2.02,5.19,1.77,2.68-.39,6.82-.87,8.76-3.51,12.78-17.37-4.19-35.11-15.27-51.06,1.43-.29,2.38-.72,2.8-1.17.25-.27-1.44-18.05-3.93-26.51,2.38.42,2.69,1.94,3.53,2.41,1.41,7.79,4.18,15.12,4.28,24.31l15.45-11.17c6.64-4.8,13.22-9.15,18.89-15.12-8.01-3.05-14.54-6.91-21.02-11.54l-12.2-8.72c-2.5-1.79-4.96-4.63-8.29-5.77l-7.82-2.68,2.53-1.96c-5.74-4.74-12.59-11.4-10.24-12.02.98-.26,1.75.51,1.74,1.55,14.21,11.9,29.09,22.36,44.78,32.15,3.94,1.94,7.35,3.54,11.25,3.92,9.49.94,18.19-5.04,22.17-14.07,2.41-5.46,1.36-11.18-3.18-15.21l-31.69-28.14c-2.6-2.31-4.58-3.75-7.18-5.2l-18.51-10.33c1.86-1.51,3.29-.39,4.21-.4,6.85,3.33,14.2,6.13,20.25,11.02l14.5,11.71c4.9-7.46,9.9-13.43,16.32-17.79l.18,2.52c-4.95,5.22-10.56,9.86-14.61,17.08l18.87,16.26c5,4.31,8.14,9.33,6.26,16.23-1.03,3.79-2.91,6.8-5.79,11.15,22.99-4.51,43.55-17.83,57.22-37.75,13.83-7.73,27.89-12.4,42.58-16.09l3.67-.4c21.89,6.7,46.67,1.73,60-17.35,3.18-4.55,3.6-9.87,1.98-14.47-1.4-3.99-5.4-6.86-10.24-6.11-19.52,2.99-38.07.38-57.05-3.6l-30.68,5.97c-6,1.17-11.06,2.4-17.73.14l.32,5.69c-3.29-1.1-3.59-7.84-5.72-7.33-9.03,2.16-17.41,1.83-25.53-2.6l-15.16-8.27c-.78-.54-1.77-2.68-3.27-2.05-2.89,1.21-3.88,4.45-5.53,6l-6.9,6.47c1.75-5.93,5.17-9.98,7.92-15.26l-8.56-7.76,1.24-.54,25.87,15.16c4.91,2.21,9.6,5.28,15.14,5.92,10.45,1.21,21.23-2.48,29.04-9.17,7.17-6.14,10.06-16.17,4.31-16.88.91-1.8-.28-4.03-2.45-5.09-12.29-6.02-23.1-13.53-33.72-22.14l-23.2-18.79c-5.29-4.28-12.51-4.46-18.02-.26-3.3,2.51-8.7,4.15-11.02,7.94-11.18,18.28-19.68,37.27-29.55,57-1.08-3.27.99-5.97,1.65-9.42-13.31,6.76-14.39,19.71-24.79,28.77l-11.75,10.23c-15.37,20.44-27.96,41.78-41.11,64.49.78-9.57,8.11-16.15,10.63-26.25-10.79,7.46-19.94,14.54-30.83,20.55-15.75,37.37-16.49,78.49-6.49,118.7,14.99-11.77,29.8-21.55,45.75-32.68-6.45-1.61-11.62-3.86-15.89-9.13.88-.96,2.12-.45,2.86.02ZM61.82,417.96c21.58-1.2,41.1-5.05,62.15-10.25-19.35-12.33-31.52-36.59-38.65-58.01-11.69-35.14-13.3-72.23-6.72-108.62,2.21-12.19,6.66-22.41,10.08-35.4-24.68,18.66-45.98,38.41-68.78,57.51-4.36,3.66-7.58,7.36-9.4,12.96-12.64,38.95-4.02,87.09,20.4,120.03,4.41,5.95,9.5,11.01,15.08,15.91,3.97,3.48,9.75,6.23,15.83,5.89ZM166.19,263.19l-.98,1.18c.99,1.17,2.39-.41.98-1.18Z"/>
          <path class="cls-3" d="M61.82,417.96c-6.08.34-11.86-2.4-15.83-5.89-5.59-4.9-10.67-9.96-15.08-15.91-24.42-32.94-33.04-81.07-20.4-120.03,1.82-5.6,5.03-9.31,9.4-12.96,22.8-19.09,44.09-38.85,68.78-57.51-3.42,12.99-7.88,23.21-10.08,35.4-6.58,36.39-4.97,73.48,6.72,108.62,7.13,21.43,19.3,45.68,38.65,58.01-21.05,5.2-40.57,9.05-62.15,10.25Z"/>
        </g>
        <g>
          <path class="cls-5" d="M336.08,104.47c-4.89.47-8.85,3.13-13.46,5.66-16.26,8.89-15.18,10.98-32.58,1.98-13.8-7.14-25.76-15.72-38.42-24.77l.99,10.33c-2.38-.63-2.32-2.54-3.49-4.81l-20.7,36.16c-3.94,6.88-4.71,14.08,2.28,19.73.97.79,2.61,2,2.6,4.03-4.87.71-7.49-2.24-9.3-7.78-3.08,4.11-5.05,7.63-6.82,11.6-.93.01-2.35-1.11-4.21.4l18.51,10.33c.23,1.49.55,3.44,1.75,4.66,9.63,9.8,19.29,19.16,29.93,27.9,2.43,2,5.53,3.18,6.18,6.63-8.07,6.88-19.13,15.13-17.98,23.42-3.9-.39-7.31-1.98-11.25-3.92-15.69-9.79-30.57-20.25-44.78-32.15.01-1.04-.76-1.81-1.74-1.55-2.35.62,4.5,7.28,10.24,12.02l-2.53,1.96c-2.76-.94-5.11-1.46-8.02-4.71-1.4,6.25-1.36,11.41-3.76,16.51-1.07,2.29-5.27,2.09-8.05,2.49,4.6,4.96,8.03,9.33,9.58,15.48,4.25,9.04,6.85,18.23,8.84,28.19,7.12,8.75,14.12,17.38,19.74,27.03,6.18,12.07-1.26,16.15-3.52,25.55-1.65.24-3.67-.25-5.19-1.77-17.02-17.08-31.87-35.83-44.38-56.45-2.26-3.72-3.41-7.27-4.71-11.02-1.73,2.33-.68,4.31-.34,6.19-4.22-.23-3.02-4.91-5.7-9.39-5.11,9-9.69,18.23-11.93,28.64-1.29,6.03,5.59,10.85,4.29,15.39-.74-.48-1.98-.98-2.86-.02,4.27,5.27,9.45,7.52,15.89,9.13-15.95,11.13-30.76,20.91-45.75,32.68-10.01-40.21-9.26-81.32,6.49-118.7,10.89-6.02,20.04-13.09,30.83-20.55-2.52,10.09-9.85,16.68-10.63,26.25,13.15-22.71,25.74-44.05,41.11-64.49l11.75-10.23c10.4-9.05,11.48-22.01,24.79-28.77-.67,3.45-2.74,6.15-1.65,9.42,9.87-19.73,18.37-38.72,29.55-57,2.32-3.79,7.72-5.43,11.02-7.94,5.51-4.2,12.73-4.02,18.02.26l23.2,18.79c10.63,8.61,21.43,16.12,33.72,22.14,2.18,1.07,3.37,3.3,2.45,5.09Z"/>
          <path class="cls-2" d="M400.82,11.68c.32,1.68,1.53,3.68,1.06,6.23-4.15,22.57-24.86,33.52-47.69,33.8.64,1.46,1.64,1.6,3.37,2.64-7.84,5.78-15.96,11.64-25.23,14.52-4.76,1.48-10.14-.53-15.52.47,2.98,2.88,6.95,2.3,9.94,3.85,2.41,1.25,4.36,1.82,6.63.79l-9.61,16.31c-9.73-5.52-17.77-11.76-25.51-18.2l7.07-12.9c1.7,1.85,1.77,3.65,4.39,4.21-.89-3.36-2.39-4.67-2.41-6.97,11.98-2.84,21.15-9.52,31.02-15.57,2.6-1.6,3.61-2.07,5.52-4.63,3.75-5.04,9.17-8.77,12.56-14.05,11.42,1.57,22.11-.76,31.6-6.72,3.96-2.49,8.4-3.4,12.81-3.78Z"/>
          <path class="cls-5" d="M400.82,11.68c-4.41.38-8.85,1.29-12.81,3.78-9.5,5.96-20.18,8.3-31.6,6.72-3.39,5.28-8.81,9.01-12.56,14.05-1.91,2.57-2.91,3.04-5.52,4.63-9.87,6.05-19.04,12.72-31.02,15.57.02,2.29,1.52,3.61,2.41,6.97-2.63-.56-2.69-2.36-4.39-4.21l-7.07,12.9-13.97-11.62c4.43-6.56,8.88-12.57,14.21-18.92,19.31-5.33,35.48-15.79,49.24-30.31,3.56-3.76,8.09-5.87,13.23-5.09,23.97,3.62,37.88-4.9,39.85,5.53Z"/>
          <path class="cls-2" d="M201.31,206.29l7.82,2.68c3.34,1.14,5.8,3.98,8.29,5.77l-4.5,15.61c-.66,2.22-1.27,4.61-.9,6.64-.84-.47-1.15-1.99-3.53-2.41,2.49,8.46,4.18,26.25,3.93,26.51-.42.45-1.37.88-2.8,1.17,11.07,15.95,28.05,33.69,15.27,51.06-1.94,2.64-6.08,3.12-8.76,3.51,2.26-9.4,9.7-13.48,3.52-25.55-5.62-9.65-12.62-18.28-19.74-27.03-1.99-9.95-4.59-19.15-8.84-28.19-1.54-6.15-4.97-10.51-9.58-15.48,2.77-.4,6.97-.21,8.05-2.49,2.39-5.1,2.35-10.26,3.76-16.51,2.91,3.24,5.26,3.76,8.02,4.71Z"/>
          <path class="cls-5" d="M438.62,138.7c-2.17.03-4.48-.12-6.88.54-10,2.75-19.89,4.85-30.33,5.63-9.88.74-18.83-2.1-28.36-3.57-5.97-.92-12.51,2.34-18.17,4.03l-23.95,7.15c.11,3.39.7,6.3-1.72,8.92-1.41-8.41-5.6-13.98-5.97-20.61l-.32-5.69c6.67,2.25,11.73,1.02,17.73-.14l30.68-5.97c18.98,3.98,37.53,6.59,57.05,3.6,4.84-.74,8.84,2.12,10.24,6.11Z"/>
          <path class="cls-5" d="M212.02,236.98c-.37-2.03.24-4.41.9-6.64l4.5-15.61,12.2,8.72c6.48,4.63,13,8.49,21.02,11.54-5.66,5.96-12.24,10.31-18.89,15.12l-15.45,11.17c-.1-9.19-2.87-16.51-4.28-24.31Z"/>
          <path class="cls-2" d="M251.36,229.94c-1.15-8.29,9.92-16.54,17.98-23.42-.65-3.45-3.75-4.64-6.18-6.63-10.64-8.74-20.29-18.1-29.93-27.9-1.2-1.22-1.53-3.17-1.75-4.66,2.6,1.45,4.57,2.89,7.18,5.2l31.69,28.14c4.54,4.04,5.59,9.75,3.18,15.21-3.99,9.02-12.69,15.01-22.17,14.07Z"/>
          <path class="cls-5" d="M268.44,164.05l-.18-2.52c1.77-3.03,4.61-5.09,7.91-6.93l17.73-9.87c-7.09,8.83-16.41,14.18-25.46,19.32Z"/>
          <path class="cls-5" d="M332.34,68.87c-.17.37-1.09,1.15-.82,1.45.19.21,1.47.48,1.82.51,1.58.11,1.47,1.5.78,2.12-.27.24-.49.59-.75,1.03-2.27,1.03-4.22.46-6.63-.79-2.98-1.55-6.96-.97-9.94-3.85,5.38-.99,10.77,1.01,15.52-.47Z"/>
          <path class="cls-5" d="M376.64,170.52l-3.67.4c-2.46-4.59-5.5-8.9-3.71-14.81,2.36,6.6,6.18,10.4,7.38,14.41Z"/>
          <path class="cls-5" d="M276.82,122.59c-3.18,3.97-8.22,6.45-8.81,3.95,1.65-1.55,2.64-4.78,5.53-6,1.5-.63,2.49,1.52,3.27,2.05Z"/>
          <path class="cls-5" d="M261.73,109.45l-1.24.54c-.27-.24-.21-1.19-.14-1.66.06-.4.74-.82.99-.08l.4,1.19Z"/>
          <path class="cls-2" d="M336.08,104.47c5.76.71,2.87,10.73-4.31,16.88-7.81,6.69-18.59,10.39-29.04,9.17-5.54-.64-10.23-3.71-15.14-5.92l-25.87-15.16-.4-1.19c-.25-.74-.93-.33-.99.08-.07.47-.13,1.42.14,1.66l8.56,7.76c-2.75,5.28-6.17,9.33-7.92,15.26l6.9-6.47c.59,2.5,5.62.03,8.81-3.95l15.16,8.27c8.12,4.43,16.5,4.76,25.53,2.6,2.13-.51,2.43,6.23,5.72,7.33.37,6.63,4.56,12.2,5.97,20.61,2.42-2.62,1.83-5.53,1.72-8.92l23.95-7.15c5.66-1.69,12.2-4.95,18.17-4.03,9.53,1.47,18.48,4.31,28.36,3.57,10.43-.78,20.33-2.87,30.33-5.63,2.39-.66,4.71-.52,6.88-.54,1.62,4.6,1.2,9.91-1.98,14.47-13.34,19.09-38.12,24.05-60,17.35-1.2-4.01-5.02-7.81-7.38-14.41-1.8,5.91,1.25,10.22,3.71,14.81-14.69,3.7-28.75,8.37-42.58,16.09-13.67,19.92-34.22,33.24-57.22,37.75,2.89-4.35,4.76-7.36,5.79-11.15,1.88-6.9-1.26-11.92-6.26-16.23l-18.87-16.26c4.05-7.22,9.66-11.86,14.61-17.08,9.05-5.14,18.37-10.49,25.46-19.32l-17.73,9.87c-3.31,1.84-6.14,3.91-7.91,6.93-6.42,4.36-11.42,10.34-16.32,17.79l-14.5-11.71c-6.05-4.89-13.39-7.69-20.25-11.02,1.77-3.97,3.74-7.49,6.82-11.6,1.81,5.54,4.42,8.48,9.3,7.78.01-2.03-1.62-3.24-2.6-4.03-6.99-5.65-6.22-12.85-2.28-19.73l20.7-36.16c1.17,2.27,1.1,4.19,3.49,4.81l-.99-10.33c12.66,9.06,24.62,17.63,38.42,24.77,17.39,9,16.31,6.91,32.58-1.98,4.62-2.52,8.57-5.19,13.46-5.66ZM259.19,107.83c-1.58-4.4-3.29-7.34-6.86-9.44.51,4.42,3.43,7.99,6.86,9.44ZM245.02,146.84c6.68-2.15,11.94-6.18,15.38-12.78-5.61,3.35-11.05,6.92-15.38,12.78ZM289.81,206.02c2.44-6.33,5.13-13.56,3.79-20.78l-3-16.16c-4.77,7.42,2.66,17.3-.55,29.33-.61,2.29-1.24,4.84-.23,7.61Z"/>
          <path class="cls-2" d="M161.51,253.78c1.49,2.63,3.45,6.2,4.22,9.24l.47.17c1.42.77.01,2.35-.98,1.18l-.44-.54c-1.18-.69-2.53-2.03-4.7-1.81,2.73,4.98,8.95,6.5,12.06,10.89l10.81,15.31c-10.46,7.3-24.32,5.89-34.79.2,1.3-4.54-5.58-9.37-4.29-15.39,2.23-10.4,6.82-19.64,11.93-28.64,2.68,4.48,1.48,9.16,5.7,9.39Z"/>
          <path class="cls-5" d="M289.81,206.02c-1.01-2.76-.38-5.32.23-7.61,3.22-12.03-4.21-21.91.55-29.33l3,16.16c1.34,7.21-1.35,14.45-3.79,20.78Z"/>
          <path class="cls-4" d="M245.02,146.84c4.33-5.86,9.77-9.43,15.38-12.78-3.44,6.6-8.71,10.63-15.38,12.78Z"/>
          <path class="cls-5" d="M259.19,107.83c-3.42-1.45-6.35-5.02-6.86-9.44,3.57,2.1,5.27,5.05,6.86,9.44Z"/>
        </g>
      </g>
      <g>
        <g>
          <g>
            <path class="cls-4" d="M1060.6,367.98c-13.65-.52-28.82-17.83-36.82-30.64-6.06-9.71-10.02-19.7-14.77-31.09l-10.16,17.89c-4.44,7.81-10.52,11.96-18.5,15.69l-42.77,20.03c-5.77,2.7-10.15,6.31-17.26,4.38-4.5-1.22-10.08-4.93-12.62-10.95-2.36-5.58-.58-12.3,1.29-18.4-9.46-4.54-13.37-14.2-11.09-24.04,2.16-9.34,9.68-15.13,17.56-20.04l8.67-9.29,12.26-11.95c-1.62-19.8,2.89-38.38,12.13-55.71,2.86-5.36,6.36-10.25,7.83-16.3,2-8.18-13.18-28.74-1.32-64.29l5.14-15.39-6.89-11.07c-25.35-17.18-35.9-61.23-14.74-82.85,5.34-5.46,12.46-7.84,20.26-6.14,17.49,3.81,17.27,31.86,28.57,45.93l11.19,13.93,13.97,13.82,11.26,6.91c7.29,6.89,12.01,15.35,16.83,24.88,6.84-2.67,14.13-4.05,21.13-1.67l24.43,8.33,10.24,5.89,84.02,40.76c4.82,2.34,8.35,5.45,11.1,9.97,7.9,12.98,12.65,26.86,15.41,41.91,5.42,29.52,3.34,59.38-7.37,87.53-4.55,11.97-10.45,22.68-18.6,32.24-5.13,6.02-11.36,9.36-19.16,10.82-22.92,4.28-45.62,6.06-68.83,7.41l-10.63,2.34-21.76-.83ZM942.91,27.37c-2.04,2.17-4.47,3.95-5.94,7.28-9.33,21.16-3.14,43.8,11.29,61.1l7.7,5.7,16.18,22c-2.99.13-3.75-1.92-6.16-3.32-9.74,25.94-12.63,40.24-4.36,67.1,1.61,5.24,3.39,9.94,3.74,15.4-1.38-.43-1.68-1.39-2.65-3.44l-5.46,12.53c-3.54,8.13-8.3,15.55-10.83,24.18-3.35,11.44-3.42,22.96-3.41,34.66,1.56-.28,2.19-.93,3.78-.09-10.2,7.33-18.64,16.16-27.39,25.31-2.44,2.55-21.4,11.36-13.3,27.1,1.12,2.17,2.5,6.97,6.26,6.11l9.19-11.06c5.36-6.46,13.92-9.26,21.37-13.74l9.56-16.11,3.34-2.21-8.59,17.01c1.88-.65,3.16-1.61,4.59-.13l-22.19,15.27c-9.37,6.44-16.02,16.94-16.02,28.4,0,6.48,5.36,10.6,10.66,10.83,1.88.08,3.31.19,5.56-.94l30.04-14.98c8.81-4.39,18.89-6.45,26.99-12.24,9.2-6.58,17.51-28.29,23.4-32.43l25.92-18.22,16.74-57.97c0,11.95-3.98,23.08-5.93,35.6l24.73-.67c4.36-5.14,3.72-11.47,6.13-17.91,1.48,6.36-.89,12.73-4.58,18.88l24.99,8.42c1.67-20.89-.65-40.79-6.1-60.79-3.57-13.12-7.9-25.48-15.04-36.96l-15.09-5.58c-.22.37-.48.66-.69.9,5.47,10.39,10.16,21.95,9.53,34.72-3.39-11.66-4.95-22.94-11.64-33.4.18-1.27.81-3.43-1.37-4.32l-.18,9.14c-8.89-20.26-17.98-39.55-29.67-58.18-3.07-4.9-6.63-8.64-11.24-11.96-11.7-8.43-21.28-18.26-30.66-29.74l-1.86,3.63-3.97-10.35-11.64-29.12c-2.16-5.39-6.52-8.93-11.09-9.97-5.87-1.33-11.01.74-14.64,4.6ZM1162.23,354.38c6.59-1.1,11.12-4.23,15.05-8.8,9.42-10.97,15.21-23.5,19.93-37.29,11.45-33.41,11.22-69.73-1.3-102.83-3.01-7.97-6.52-15.1-11.56-21.64l-32.55-16.62-47.19-22.05c8.6,11.9,14.43,23.01,19.5,36.03,13.38,35.56,15.99,73.92,9.16,111.38-5.1,24.36-14.57,51.13-33.32,68.29,21.4-.84,41.29-2.98,62.29-6.48ZM1060.03,161.53l1.47-.57-1.47.57Z"/>
            <path class="cls-3" d="M1162.23,354.38c-21,3.5-40.89,5.64-62.29,6.48,18.76-17.16,28.22-43.94,33.32-68.29,6.83-37.46,4.22-75.82-9.16-111.38-5.07-13.02-10.9-24.13-19.5-36.03l47.19,22.05,32.55,16.62c5.03,6.54,8.54,13.67,11.56,21.64,12.52,33.11,12.75,69.42,1.3,102.83-4.72,13.79-10.51,26.32-19.93,37.29-3.93,4.57-8.46,7.7-15.05,8.8Z"/>
          </g>
          <g>
            <path class="cls-2" d="M974.77,316.14c-2.53.02-4.8-.33-6.82-2.05-10.84-9.22-4.89-27.21,4.19-35.58l27.93-25.75c-1.43-1.86-3.02-.8-4.77.36,2.48-14.71,6.63-27.58,11.43-41.97-4.83,2.9-5.88,8.2-7.22,12.54-1.98.07-3.7,1.45-4.93,3.35-10.2,15.86-23.22,28.67-39.62,38.08,2.92,1.46,4.79.03,7.73-.48l-10.11,19.4c-.69,1.32-1.33,2.98-.13,4.02l-9.56,16.11c-7.45,4.47-16,7.28-21.37,13.74-4.9-.3-9.05,4.52-15.45,4.95-8.11-15.74,10.86-24.55,13.3-27.1,8.75-9.14,17.19-17.98,27.39-25.31-1.59-.84-2.22-.18-3.78.09-.01-11.7.06-23.22,3.41-34.66,2.53-8.63,7.29-16.05,10.83-24.18l5.46-12.53c.98,2.05,1.28,3.01,2.65,3.44-.36-5.45-2.13-10.16-3.74-15.4-8.26-26.86-5.38-41.16,4.36-67.1,2.41,1.4,3.17,3.45,6.16,3.32l-16.18-22-7.7-5.7c-14.43-17.3-20.62-39.94-11.29-61.1,1.47-3.33,3.9-5.11,5.94-7.28,1.29,2.14,4.2,1.27,6.01,1.83,17.83,5.47,10.1,34.3,26.53,58.49,5.51,8.11,14.1,13.26,21.1,19.82l11.97,11.22,9.24,26.7,18.59,43.37c-5.72,10.43-8.79,21.38-10.99,33.02-1.96,10.33-4.36,20.06-4.21,30.87l-33.6,29.18c-10.12,8.79-15.36,21.32-12.79,34.28ZM987.88,127.88l-14.56-5.77c-1.39.78-1.29,2.07-.94,3.04.19.52,11.11,5.5,15.49,2.74ZM988.04,198.41c4.15-9.56,9.74-17.59,16.93-25.28-3.19-.7-4.56,2.45-6.03,3.15-2.75-.83-2.47-3.59-3.45-4.56-8.1-8.02-11.8-17.4-15.31-28.75-.79,6.6,1.75,12.89,4.85,18.26l10.56,18.28-8.34,16.04-6,13.58c-.72,2.1,2.7,2.43,2.1.11l4.7-10.81ZM1006.33,211.09l9.16-11.33c-4.28,2.81-8.31,6.12-9.16,11.33ZM1011.66,247.47c-4.11-1.04-8.9-.09-10.37,4.1l10.37-4.1Z"/>
            <path class="cls-5" d="M924.27,357.24c1.92-13.05,9.94-22.61,20.63-30.01l17.61-12.95c3.71,4.11,10.33,7.38,15.79,5.29l13.55-8.33c2.7-1.66,6.01-3.02,5.84-7.2l-18.18,10.88c-1.52.91-2.94,1.21-4.73,1.23-2.57-12.96,2.67-25.49,12.79-34.28l33.6-29.18c-.15-10.81,2.25-20.54,4.21-30.87,2.21-11.64,5.28-22.58,10.99-33.02l-18.59-43.37-9.24-26.7-11.97-11.22c-7-6.55-15.59-11.7-21.1-19.82-16.43-24.19-8.7-53.01-26.53-58.49-1.81-.56-4.72.31-6.01-1.83,3.63-3.86,8.77-5.93,14.64-4.6,4.57,1.04,8.93,4.58,11.09,9.97l11.64,29.12,3.97,10.35,1.86-3.63c9.37,11.48,18.96,21.31,30.66,29.74,4.61,3.32,8.17,7.07,11.24,11.96,11.69,18.63,20.77,37.92,29.67,58.18l.18-9.14c2.18.89,1.55,3.05,1.37,4.32,6.69,10.46,8.25,21.74,11.64,33.4.63-12.78-4.06-24.33-9.53-34.72l-1.31-.8,1.47-.57.54.47,15.09,5.58c7.13,11.49,11.46,23.84,15.04,36.96,5.45,20,7.77,39.9,6.1,60.79l-24.99-8.42c3.69-6.15,6.06-12.52,4.58-18.88-2.41,6.44-1.77,12.77-6.13,17.91l-24.73.67c1.95-12.52,5.93-23.64,5.93-35.6l-16.74,57.97-25.92,18.22c-5.89,4.14-14.2,25.86-23.4,32.43-8.1,5.79-18.18,7.85-26.99,12.24l-30.04,14.98c-2.25,1.12-3.68,1.02-5.56.94Z"/>
            <path class="cls-5" d="M999.52,223.7l-3.68,11.88c-7.53,3.93-12.93,9.94-18.53,16.11-7.66,8.44-14.12,17.19-17.72,28.15l-3.78,6.01-3.34,2.21c-1.2-1.03-.56-2.7.13-4.02l10.11-19.4c-2.94.51-4.81,1.94-7.73.48,16.4-9.41,29.42-22.22,39.62-38.08,1.22-1.9,2.95-3.28,4.93-3.35Z"/>
            <path class="cls-5" d="M921.54,317.92l-9.19,11.06c-3.76.86-5.14-3.93-6.26-6.11,6.4-.43,10.55-5.25,15.45-4.95Z"/>
            <path class="cls-2" d="M962.51,314.28l-17.61,12.95c-10.69,7.4-18.7,16.96-20.63,30.01-5.3-.23-10.66-4.35-10.66-10.83,0-11.46,6.65-21.95,16.02-28.4l22.19-15.27c-1.43-1.49-2.72-.52-4.59.13l8.59-17.01,3.78-6.01c3.6-10.96,10.07-19.71,17.72-28.15,5.6-6.17,11-12.18,18.53-16.11l-5.55,21.03c-8.9,7.6-17.52,14.97-24.9,24.1-8.09,10.01-9.84,25.86-2.89,33.57Z"/>
            <path class="cls-4" d="M974.77,316.14c1.8-.01,3.22-.32,4.73-1.23l18.18-10.88c.18,4.19-3.14,5.54-5.84,7.2l-13.55,8.33c-5.46,2.08-12.08-1.19-15.79-5.29-6.95-7.71-5.2-23.56,2.89-33.57,7.38-9.13,16.01-16.5,24.9-24.1l5.55-21.03,3.68-11.88c1.34-4.34,2.39-9.65,7.22-12.54-4.8,14.39-8.96,27.26-11.43,41.97,1.75-1.16,3.33-2.22,4.77-.36l-27.93,25.75c-9.08,8.37-15.03,26.36-4.19,35.58,2.02,1.72,4.29,2.07,6.82,2.05Z"/>
            <path class="cls-5" d="M988.04,198.41l-4.7,10.81c.6,2.32-2.82,1.99-2.1-.11l6-13.58,8.34-16.04-10.56-18.28c-3.1-5.36-5.64-11.65-4.85-18.26,3.52,11.35,7.21,20.73,15.31,28.75.98.97.7,3.74,3.45,4.56,1.47-.7,2.84-3.85,6.03-3.15-7.19,7.69-12.78,15.73-16.93,25.28Z"/>
            <path class="cls-5" d="M987.88,127.88c-4.38,2.76-15.3-2.22-15.49-2.74-.36-.96-.45-2.26.94-3.04l14.56,5.77Z"/>
            <path class="cls-5" d="M1011.66,247.47l-10.37,4.1c1.47-4.19,6.26-5.15,10.37-4.1Z"/>
            <path class="cls-5" d="M1006.33,211.09c.85-5.21,4.88-8.52,9.16-11.33l-9.16,11.33Z"/>
          </g>
        </g>
        <g>
          <path class="cls-4" d="M751.03,211.59c0-75.4-61.14-136.53-136.57-136.53s-136.57,61.13-136.57,136.53,61.14,136.53,136.57,136.53,136.57-61.13,136.57-136.53ZM614.48,342.52c-72.29,0-130.89-58.59-130.89-130.86s58.6-130.86,130.89-130.86,130.89,58.59,130.89,130.86-58.6,130.86-130.89,130.86Z"/>
          <path class="cls-1" d="M745.37,211.66c0,72.27-58.6,130.86-130.89,130.86s-130.89-58.59-130.89-130.86,58.6-130.86,130.89-130.86,130.89,58.59,130.89,130.86ZM523.69,152.12c5.76-9.35,12.52-17.2,19.94-26.53-5.18.83-7.9,5.38-11.47,9.04-11.37,13.16-20.76,28.43-23.21,46.04,5.58-10.09,7.65-20.23,14.74-28.56ZM708.2,147.65c-8.18-1.85-11.71-5.62-12.21-13.02.15-1.61-1.69-2.38-1.86-.42-.17,7.54-3.98,11.94-11.86,13.25,4.69,2.08,8,2.57,10,6.54,1.27,2.52.99,5.42,3.23,7.87.89-8.34,4.8-12.22,12.69-14.23ZM659.28,218.4c4.4-2.65,6.46-5.89,6.44-10.17-.02-3.77-1.74-7.27-5.41-9.53l-67.32-41.45c-3.9-2.4-7.77-3.62-12.02-1.4-3.07,1.61-6,5.37-6,9.97v84.87c.01,4.15,2.6,7.49,5.2,8.91,2.99,1.62,7.22,2.1,10.36.21l68.74-41.41ZM668,301.95c23.86-11.82,38.29-33.91,46.32-57.08-3.96,2.97-4.52,7.36-6.7,11.11-10.48,18.07-24.91,32.55-39.62,45.97ZM607.68,322.07c-13.32-2.83-25.18-5.55-37.68-9.76-15.01-5.06-26.1-15.06-38.21-26.49,2.89,7,8.85,11.41,14.41,16.15,17,14.49,39.06,22.19,61.48,20.1Z"/>
          <path class="cls-4" d="M659.28,218.4l-68.74,41.41c-3.14,1.89-7.38,1.41-10.36-.21-2.6-1.41-5.19-4.76-5.19-8.91v-84.87c-.01-4.6,2.91-8.36,5.98-9.97,4.24-2.22,8.12-1,12.02,1.4l67.32,41.45c3.67,2.26,5.39,5.76,5.41,9.53.02,4.28-2.04,7.52-6.44,10.17Z"/>
          <path class="cls-4" d="M607.68,322.07c-22.43,2.1-44.48-5.61-61.48-20.1-5.55-4.73-11.52-9.14-14.41-16.15,12.11,11.42,23.2,21.43,38.21,26.49,12.5,4.21,24.36,6.93,37.68,9.76Z"/>
          <path class="cls-4" d="M668,301.95c14.71-13.42,29.14-27.9,39.62-45.97,2.18-3.75,2.75-8.14,6.7-11.11-8.03,23.17-22.46,45.26-46.32,57.08Z"/>
          <path class="cls-1" d="M708.2,147.65c-7.89,2.01-11.8,5.89-12.69,14.23-2.24-2.46-1.96-5.35-3.23-7.87-2.01-3.98-5.31-4.46-10-6.54,7.88-1.31,11.7-5.72,11.86-13.25.16-1.96,2-1.19,1.86.42.49,7.4,4.03,11.17,12.21,13.02Z"/>
          <path class="cls-4" d="M523.69,152.12c-7.09,8.33-9.17,18.47-14.74,28.56,2.45-17.62,11.84-32.88,23.21-46.04,3.57-3.66,6.3-8.21,11.47-9.04-7.42,9.33-14.18,17.18-19.94,26.53Z"/>
        </g>
      </g>
    </g>
  </g>
</svg>