<?xml version="1.0" encoding="UTF-8"?>
<svg id="Capa_2" data-name="Capa 2" xmlns="http://www.w3.org/2000/svg" viewBox="0 0 968.71 530.47">
  <defs>
    <style>
      .cls-1 {
        fill: #f8f8f8;
      }

      .cls-2 {
        fill: #a2a1a1;
      }

      .cls-3 {
        fill: #392922;
      }

      .cls-4 {
        fill: #151719;
      }

      .cls-5 {
        fill: #eaaa7e;
      }

      .cls-6 {
        fill: #eaa97d;
      }

      .cls-7 {
        fill: #1a1d20;
      }

      .cls-8 {
        fill: #a69b95;
      }

      .cls-9 {
        fill: #bb7c59;
      }

      .cls-10 {
        fill: #2b2d2e;
      }

      .cls-11 {
        fill: #1e2226;
      }

      .cls-12 {
        fill: #2a201d;
      }

      .cls-13 {
        fill: #7a7b81;
      }

      .cls-14 {
        fill: #3c4044;
      }
    </style>
  </defs>
  <g id="Capa_1-2" data-name="Capa 1">
    <g>
      <path class="cls-4" d="M565.65,44.98v-3c.9.03,1.09.73,1.09,1.5,0,.77-.19,1.47-1.09,1.5Z"/>
      <g>
        <path class="cls-14" d="M542.67,70c.06-.92.07-1.69.99-2.04,0,.83-.18,1.69-.99,2.04Z"/>
        <path class="cls-3" d="M614,148.47c-11.18-1.13-21.75-3.87-32.37-7.67-5.03,1.61-8.69-.68-12.68,4.94,4.12,6.31,7.2,15.23,4.81,17.78-.43.46-1.61.34-2.23.45l-.89.16c-3.88-5.34-9.31-10.17-10.94-17.37-.41-1.8,8.25-2.56,6.95-5.32-1.53-3.27-7.35.46-12.15-2.75l-3.35-5.55c-3.07-3.18-10.5-2.79-13.5-.33-1.39,1.14-3.11,2.11-3.91,3.27-2.36-1.49-4.33-1.1-6.84,1.26-1.77-4.48-4.86-6.33-7.9-8.76-2.32-1.85-3.7-2.99-6.01-2.03-2.83,1.18-2.3,2.92-3.32,4.81-1.98,3.69-5.91,7.87-9.52,11.18-1.33,1.22-6.46-.33-6.21,3.78.07,1.13.83,3.3.06,4.31-2.59,3.4-6.75,1.71-7.01,2.95l-.6,2.82c-2.45,3.31-5.65,5.89-9.21,7.99-2.03.1-4.36-.63-5.3,1.23l-2.54,5.01c-1.98,3.9-6.39,6.37-10.81,8.66,2.21-14.15,5.43-27.03,11.17-39.41,1.66-3.58,4.37-6.49,4.91-10.17l9.88-10.08c1.19-1.21,3.06-1.32,3.28-3.84-8.12-2.31-14.22-6.76-20.09-11.8-1.3-1.11-3.02-1.09-4.1-2.8,0-1.41,1.16-3.08,1.23-4.15l8.86-1.15,14.53-.34c4.01,3.3,10.35,2.61,14.08-2.31-7.11-3.39-7.75-10.5-11.68-15.22-5.78-6.95-18.85-8.45-25.09-15.89-1.88-2.24-4.77-2.84-7.53-1.38-2.3-6.15-4.24-13.16-1.82-20.04l24.57,10.24c15.77,6.57,29.02,16.23,40.57,29.52l.3-26.02c4.16,1.72,5.62,5.39,8.18,8.46,5.55,6.63,10.64,13.73,12.67,22.29,10.29-5,19.12-9.95,30.48-11.64-1.22,8.65-3.73,15.93-7.5,23.25-1.55.42-2.88.43-3.78,1.95l6.96-1.25c13.04-.72,25.45.57,38.23,3.02,1.29.25.89,2.58-.37,3.35-6.87,4.17-13.61,9.01-17.76,16.11-.57.98.1,3.98-.98,4.43-.93.38-9.57-.76-7.52,2.15,2.64,3.74,7.15,1.13,9.57-.57,5.15.75,9.59,5.87,13.02,9.61,4.16,4.52,9.11,7.82,11.2,12.83Z"/>
        <path class="cls-12" d="M419.42,112.9c2.15.58,2.23,2.71,2.34,3.93l-2.45.19c-.87.07-.8,1.75-.18,2.03l2.31,1.02c5.39,2.38,9.53,6.32,15.55,7.5.74.15,1.53.66,1.81,1.03.48.62.42,1.63.19,2.49l-2.74,2.29c-3.39-.09-5.96,2.15-8.39,4.73-9.68,10.3-31,40.04-25.7,43.87,1.4,1.01,3.8.84,5.62.95l3.05,12.53c-7.92,6.31-15.81,10.34-14.57,4.37l3.4-16.4c-8.28,1.95-16.31,2.66-25.22,2.48,1.81-5.38,5.09-9.11,8.29-13.08l8.62-10.68c-10.73-.9-20.33-1.61-30.2-6.19-1-.47,1.67-3.13,2.69-3.01,15.97.53,32.26-3.06,47.05-11.6-5.43-2.9-9.04-4.51-12.77-8.13-.9,1.79-1.93,2.65-2.77,2.68-2.28.1-.5-3.71-1.29-6.1-.18-.56.03-1.47-.52-2.06-.68-.73-13.26-3.26-23.93-15.86,1.31-.75,2.98-1.08,4.56-.52,10.49,3.71,32.44,5.6,36.01,2.92.58-.43,2.7,1.09,3.04.6.38-.55.6-1.81.45-3.53l5.75,1.56Z"/>
        <path class="cls-12" d="M467.68,104.01c5.87,5.03,11.98,9.48,20.09,11.8-.23,2.53-2.1,2.63-3.28,3.84l-9.88,10.08-1.69,1.32-11.22,18.92c-15.41,18.51-56.34,32.68-56.35,27.48,0-.61.44-1.07,1.03-1.62,1.24,1.42,2.64.12,3.96-.38,14.93-5.71,27.32-14.25,38.84-25.07,5.53-5.19,11.72-10.32,14.71-17.46-2.79-5.04-7.05.96-13.12,1.58,2.28-7.22-1.42-1.26-8.82.49l.87-5.95c.42-.41,1.71-2.52.67-3.01-7.72-.41-16.92-3.54-21.72-9.19l2.26-.28c.77-.1.87-1.13.36-1.75l10.59,4.06c6.02,2.31,12.34,5.09,18.82,3.33l2.58-1.76s5.31,9.01,17.35.25l-16.23-12.57c-1.22-.95-1.95-1.76-1.95-3.45,3.03-1.11,6.45-3.69,9.53.12.36.45,1.26,1.19,2.05,1.03.52-.1.77-1.29.57-1.8Z"/>
        <path class="cls-3" d="M457.64,71.74c-.22,2.11.59,4.21,2.12,6.23l4.67,6.12c3.43,2.47,4.89,4.93,4.33,9.13-4.46-.11-8.44-1.47-13.26-2.07l2.81,9.33-36.59,9.68c-.71.19-1.71.18-1.95.47-.41.49-.43,1.56-.36,2.28l-5.75-1.56c.15,1.72-.08,2.98-.45,3.53-.34.49-2.47-1.03-3.04-.6-3.57,2.68-25.52.8-36.01-2.92-1.58-.56-3.25-.23-4.56.52-.46-.54-1.73-.88-1.78-1.61-.14-1.84.93-1.72,2.14-2.27l28.31-12.75c9.1-4.09,18.19-6.86,28.15-6.45,2.13.09,3.81-2.87,3.28-4.16-1.87-4.57-7.05-1.51-8.85-3.8-4.16-5.29-7.67-11.07-9.53-18.15,15.2.46,28.68,4.66,42.44,8.68,1.3.38,2.95-.25,3.87.36Z"/>
        <path class="cls-12" d="M614,148.47c-.94,5.66-11.49,5.06-20.43,6.41,2.9,6.44,6.35,12.82,5.5,19.23-.87,2.52-4.95,4.14-6.86,3.95-2.27-.23-4.44-1.22-7.27-3.39l-2.95,17.01-3.62-2.35-7.1,24.25c-2.44-6.63-.19-12.01-1.37-18.04l-6.96-12.85c-1.63-5.96.06-12.49-.05-18.7,4.46,1.43,6.81,6.72,9.94,6.41,1.73-.17-.22-3.04-1.3-6.43.62-.11,1.8,0,2.23-.45,2.39-2.55-.69-11.48-4.81-17.78,3.99-5.62,7.65-3.33,12.68-4.94,10.62,3.8,21.19,6.54,32.37,7.67Z"/>
        <path class="cls-3" d="M406.37,175.83c6.74-16.15,17.46-30.17,29.88-42.45l2.74-2.29c.88-.73,2.69-1.4,3.82-2.05l-.87,5.95c7.4-1.75,11.1-7.71,8.82-.49,6.07-.62,10.33-6.62,13.12-1.58-2.99,7.14-9.18,12.26-14.71,17.46-11.51,10.82-23.9,19.36-38.84,25.07-1.32.51-2.72,1.81-3.96.38Z"/>
        <path class="cls-12" d="M488.2,95.57c.09-.3.2-.94.08-1.23-.14-.33-.67-.66-1.43-.68l-18.08-.46c.56-4.2-.9-6.66-4.33-9.13l-4.67-6.12c-1.54-2.01-2.34-4.12-2.12-6.23,1.88,1.25,3.18,2.65,6.34,2.91-3.85-4.28-4.3-9.32-6.01-13.88,2.76-1.46,5.65-.86,7.53,1.38,6.24,7.44,19.31,8.95,25.09,15.89,3.93,4.72,4.57,11.83,11.68,15.22-3.73,4.92-10.07,5.61-14.08,2.31Z"/>
        <path class="cls-3" d="M394.05,129.8c.79,2.4-.99,6.2,1.29,6.1.85-.04,1.88-.89,2.77-2.68,3.73,3.63,7.34,5.23,12.77,8.13-14.79,8.54-31.08,12.14-47.05,11.6l26.17-20.76c1-1.62,2.5-2.26,4.05-2.39Z"/>
        <path class="cls-12" d="M533.75,136.09c-1.92,3.52-4.81,5.73-7.94,8.91-2.21-6.93-7.07-11.49-12.9-14.89l-3.23,1.26c1.02-1.89.49-3.63,3.32-4.81,2.31-.96,3.69.18,6.01,2.03,3.04,2.43,6.12,4.28,7.9,8.76,2.51-2.36,4.49-2.74,6.84-1.26Z"/>
        <circle class="cls-12" cx="598.97" cy="179.2" r="1.77"/>
        <path class="cls-4" d="M468.76,93.21l18.08.46c.77.02,1.29.34,1.43.68.12.29.01.93-.08,1.23l-14.53.34-8.86,1.15c-.28-1.78-2.84-3.17-4.92-2.94-.37,3.33,2.43,5.09,3.69,7.09,1.08,1.71,2.81,1.69,4.1,2.8.2.51-.05,1.69-.57,1.8-.79.16-1.69-.58-2.05-1.03-3.08-3.81-6.5-1.24-9.53-.12l-8.93.96-23.49,6.79c-.98.28.56,2.12,1.27,2.39.52.62.41,1.66-.36,1.75l-2.26.28c-.11-1.22-.19-3.35-2.34-3.93-.08-.72-.05-1.79.36-2.28.24-.29,1.24-.28,1.95-.47l36.59-9.68-2.81-9.33c4.82.59,8.8,1.95,13.26,2.07Z"/>
        <path class="cls-4" d="M421.76,116.84c4.8,5.65,14,8.79,21.72,9.19,1.03.48-.25,2.6-.67,3.01-1.12.65-2.94,1.32-3.82,2.05.23-.85.3-1.86-.19-2.49-.29-.37-1.07-.88-1.81-1.03-6.02-1.18-10.16-5.11-15.55-7.5l-2.31-1.02c-.62-.28-.7-1.96.18-2.03l2.45-.19Z"/>
        <path class="cls-12" d="M464.8,97.06c-.07,1.07-1.22,2.74-1.23,4.15-1.26-2-4.06-3.75-3.69-7.09,2.08-.23,4.64,1.16,4.92,2.94Z"/>
        <path class="cls-3" d="M455.53,104.66c0,1.69.73,2.5,1.95,3.45l16.23,12.57c-12.04,8.76-17.39-.22-17.35-.25l-2.58,1.76c-6.49,1.76-12.8-1.02-18.82-3.33l-10.59-4.06c-.71-.27-2.25-2.11-1.27-2.39l23.49-6.79,8.93-.96Z"/>
        <g>
          <path class="cls-4" d="M186.94,55.91c.15.77.49,1.55.72,2.3.23.74.47,1.48.72,2.22.16.47.34.93.62,1.34.11.16.23.32.32.49.09.18.15.38.2.58.1.38.15.83.33,1.18.16.31.33.57.44.91.26.82.38,1.68.51,2.53.17,1.08.47,2.11.64,3.18.38,2.36,1.48,4.54,1.83,6.91s.97,4.71,1.67,7.07c.28.95.55,1.91.76,2.87.09.41.17.83.34,1.22.18.39.52.66.69,1.03.24.51.31,1.17.44,1.71.29,1.17.56,2.35.82,3.52.53,2.35,1.02,4.71,1.58,7.06,1.09,4.65,2.41,9.28,4.54,13.58l12.89,26.06c1.97,3.99,4.06,7.74,7.91,10.61,9.93-9.39,7.66-20.76,21.14-33.28,8.2-7.62,19.9-12.74,30.9-10.52,7.52,1.52,12.52,6.38,14.23,12.74,1.73,6.45-1.4,12.95-6.62,17.48-13.62,11.82-22.73,26.82-26,44.85-2.55,14.04-3.56,28.51-13.83,41.14-.97,1.19-1.04,3.04-.82,4.34s1.98,1.62,3.07,2.57c6.5,5.65,10.65,12.63,14.99,20.14,18.38,9.08,32.97,23.52,43.81,40.91,9.3,1.35,17.19,4.24,24.25,10.13,4.15-.35,8.03-1.26,11.79-3.17,3.28-6.52,8.58-13.39,16.18-13.53l20.8-.38c8.95-10.79,20.83-17.97,33.97-22.89,4.49-1.68,9.19-2.24,13.73-5.11-19.56-12.92-29.86-27.47-25.76-50.38-3.91,2.15-9.5,1.8-8.95-1.37l3.03-17.5c-9.41,1.34-22.57,3.05-24.62-.69-.55-1-.58-2.94.33-4.21l13.1-18.19c-10.07-2.12-27.57-4.6-27.92-9.08-.07-.9.15-2.58,1.24-3.35,10.57-7.47,20.38-15.24,29.92-23.49-9.37-4.77-16.71-10.91-23.78-17.82-1-.98-.41-3.79.15-4.64.5-.75,1.69-1.07,2.97-1.65l21.35-9.68c10.22-4.63,20.51-8.38,31.64-10.32-.07.01-.5-.68-.56-.77-.19-.26-.38-.52-.57-.79-.37-.51-.73-1.03-1.09-1.54-.69-.99-1.37-1.98-2.03-2.99-1.24-1.89-2.41-3.83-3.48-5.82-.46-.87-.91-1.74-1.33-2.63-.1-.22-.21-.44-.31-.66s-.09-.43-.13-.66c-.1-.57-.24-1.13-.41-1.68-.09-.3-.2-.6-.28-.9-.17-.61-.28-1.23-.38-1.86-.1-.62-.21-1.24-.31-1.86-.11-.67-.22-1.35-.14-2.03.05-.44.22-.92.61-1.13.1-.06.1-.13.16-.2.1-.11.3-.18.42-.26.26-.15.53-.29.8-.42.5-.23,1.03-.42,1.57-.55,1.03-.25,2.09-.28,3.14-.17.65.07,1.3.18,1.94.33l1.34.29,3.47.74,4.78,1.02,5.27,1.13,4.94,1.06,3.79.81c.61.13,1.22.25,1.83.39,1.16.26,2.3.6,3.44.95,3.38,1.03,6.82,1.89,10.29,2.57.04,0,.09.02.13,0,.04-.03.06-.08.06-.13.28-1.71-.59-3.38-.99-5.06-.13-.54-.21-1.08-.36-1.61-.25-.84-.69-1.61-.9-2.46-.06-.22-.1-.45-.18-.67-.07-.18-.16-.34-.26-.51-.36-.63-.72-1.26-1.08-1.88-.11-.2-.28-.45-.53-.42-.14-.52-.16-1.1-.24-1.64-.08-.57-.16-1.15-.25-1.72-.24-1.66-.47-3.31-.71-4.97-.14-.96-.08-1.96.23-2.89.2-.59.52-1.13.85-1.66.56-.93,1.13-1.86,1.69-2.8.22-.37.45-.74.76-1.04.24-.23.53-.41.76-.65.17-.18.32-.4.56-.47.13-.04.26-.03.4-.02.7.06,1.39.17,2.08.33.65.15,1.28.34,1.92.53.7.21,1.42.37,2.1.62s1.28.59,1.92.88c1.34.62,2.68,1.25,4.03,1.87,3.13,1.45,6.26,2.91,9.39,4.36l1.79.83c1.6.74,3.28,1.27,4.89,2.01l4.75,2.18c.87.22,1.79.82,2.61,1.2.93.43,1.87.86,2.8,1.29.78.36,1.49.79,2.31,1.09.9.32,1.81.58,2.7.93,2.1.82,4.01,2.12,5.54,3.78.44.47.85.98,1.36,1.37.38.29.82.41,1.18.72.64.53,1.26,1.09,1.89,1.63,1.01.87,2.03,1.75,3.04,2.62,1.15.99,3.78,1.18,4.75-.16.23-.32.46-.65.55-1.03.11-.48-.02-.99-.04-1.48-.02-.47.07-.94.16-1.4.1-.54.2-1.09.29-1.63.13-.84.23-1.69.3-2.53s.17-1.76.06-2.6c-.08-.64-.58-1.34-.9-1.9s-.67-1.1-.97-1.67c-.33-.62-.62-1.32-.57-2.03.02-.36.14-.71.34-1.02.23-.36.56-.43.97-.51.09-.02.18-.04.27-.03.12.01.23.07.34.13.27.14.56.26.84.37.33.13.67.24,1,.36.53.2,1.05.45,1.57.69.43.2.85.4,1.28.6.37.17.74.35,1.08.57s.61.49.94.7c.8.5,1.57,1.12,2.26,1.75.39.35.76.73,1.09,1.14s.75.72,1.08,1.12c.54.66.9,1.44,1.36,2.15.2.3.45.57.68.85,3.61,4.15,5.07,9.86,8.8,13.9.48.52.99,1.01,1.42,1.57,1.13,1.46,1.64,3.35,2.96,4.67.61.62,1.27,1.08,2.17,1.01s1.74-.45,2.56-.77c2.2-.85,4.31-1.92,6.45-2.88,3.05-1.37,6.15-2.55,9.39-3.42.76-.2,1.53-.38,2.3-.53.8-.15,1.6-.27,2.4-.38,2.51-.34,5.04-.56,7.57-.66.24,0,.52,0,.66.19.1.13.1.31.1.47,0,.29-.03.58-.01.86.02.26.1.52.15.78.1.59.16,1.18.18,1.78.02.72.17,1.41.16,2.15,0,.81-.08,1.62-.21,2.42-.11.71-.19,1.41-.4,2.1-.23.75-.62,1.47-.94,2.19-.7,1.62-1.34,3.27-1.92,4.94-.16.46-.31.91-.51,1.35-.46,1.01-1.15,1.88-1.72,2.82-.16.26-.83,1.15-.72,1.46.12.35,1.3.13,1.6.13,2.58-.06,5.16-.04,7.75.05,5.12.18,10.24.63,15.32,1.31s10.23,1.58,15.29,2.62c.23.05.46.09.69.14,1.03,4.23-1.42,7.1-3.53,10.2-3.84,5.63-7.36,10.76-13.18,15.87l23.64,23.05c1.48,1.44,2.25,5.67-.09,6.23l-19.91,4.77,5.38,22.63c.37,1.55-.04,3.62-1.3,4.3-3.3,1.78-10.14-4.42-14.96-2.93-2.28.71-2.9,7.3-1.31,9.16,14.39,10.33,11.11,31.83.19,46.24-5.07,6.69-10.86,12.49-19.49,14.96,2.08,1.41,3.74,3.04,5.58,3.43,13.87,2.95,27.76,8.66,37.4,19.39,2.83,3.15,5.46,3.14,9.84,3.52,11.61.99,21.79,8.88,25.95,19.79.75,1.98.15,6.38,2.82,7.09l13.4,3.54c4.7,1.24,10.29-2.87,15.07-3.74,11.33-16.75,25.8-34.68,44.32-40.93,3.96-9.07,10.58-15.06,18.98-20.51-3.49-5.99-5.97-11.21-6.77-17.43l-4.19-32.65c-2.67-13.71-9.96-25.35-18.99-35.93-7.14-8.36-6.99-21.7,2.79-27.26,17.4-9.91,40.87,7.45,46.6,25.69l4.59,14.61c2.82,8.98,19.74-17.72,24.54-23.84l5.26-6.7,7.98-14.18c13.65-24.27,26.19-48.72,42.15-71.45,4.1-5.84,8.91-10.56,14.26-14.92,5.05-4.11,12.3-5.53,18.51-3.46,9.58,3.2,13.3,14.23,8.83,22.88l-17.67,34.17-19.93,35.2c-3.45,6.09-7.4,11.55-8.62,17.9l13.21-13.4,9.54-10.47,11.02-11.98,12.97-13.99,10.49-11.49c7.09-7.77,14.47-15.27,23.92-19.77,7.01-3.33,16.11-1.77,20.69,4.22s3.87,14.85-.04,21.05l-5.83,9.27-29.49,35.37-17.95,21.02-7.55,8.53c-2.68,3.03-6.55,5.22-7.25,10.23l24.51-14.04,29.23-17.76c11.61-7.06,27.88-17.39,36.89-7.03,5.01,5.76,4.91,16.01.03,21.88-7.37,8.86-15.83,15.38-25.08,22.07l-49.84,36c-.88.63-.94,2.22-.62,2.79.3.53,1.24,1.24,2.35,1.29l11.63.49,14.09,1,15.05,1.6c5.78.61,10.04,4.77,10.51,10.7.65,8.33-5.2,16.03-13.54,17.59l-14.06,2.63-13.03,1.05-14.2.86c-5.22.32-11.33.83-15.48,4.64l-7.87,7.23c-17.66,16.21-36.26,22.17-35.85,21.6-3.04,4.17,8.86,28.79-13.43,50.19l-.68,17.91c-1.93,15.69-9.22,27.96-20.7,38.54l-17.7,11.97c-17.03,24.7-31.31,25.55-54.21,32.86l-15.22,4.86c-18.95,4.77-37.81,7.22-57.64,8.56l3.06,19.8,4.05,29.89c.71,5.23.01,11.32,2.06,15.9,1.67,3.73,5.59,6.27,5.8,10.13h-5.27s-19.9-32-19.9-32l1.28-1.05,12.36,16.73c-.59-20.78-4.5-39.62-7.62-58.6-15.85-10.08-26.54-30.36-30.94-47.1-4.16-15.83-4.59-32.92-1.19-49.44,2.61-12.67,6.18-25.54,15.78-34.72-9.83,16.48-14.72,33.19-15.49,51.44-.33,7.8.14,15.66,1.24,23.53.29,2.1.03,4.13,1.81,5.58,2.93,17.48,12.43,33.79,26.19,45.84,22.98-.27,45.01-3.37,66.54-9.67-6.92-3.08-13.58-.03-19.41-4.39,24.39,3.3,47.84.03,67.91-13.78,4.83-3.33,8.25-7.79,12.22-12.53-7.6,1.05-13.15,5.69-21.47,3.8,12.6-4.82,24.99-8.62,36.5-15.96,18.62-11.88,28.52-32.19,26.1-54.21l-16.55,12.64c-2.76,2.11-3.6,2.95-6.8,4.1-24.04,8.66-49.62,1.2-64.08-20.28-5.82-8.65-9.49-18.64-10.94-28.71-1.94-13.46.09-26.8,5.56-40.32-4.63.82-7.3,3.18-10.39,5.75-25.84,21.43-41.24,51.66-45.29,84.56l-1.88-.91,2.95-21.55c-5.22,4.65-5.72,13.34-9.8,17.72-.67-.76-.77-1.89-.3-3.34l2.24-6.96c.23-.7.91-1.95,1.32-2.65l6.97-11.78c1.46-2.47,2.68-4.28,3.68-6.47l6.98-15.3c-18.14,4.23-29.75,19.08-40.63,32.64-.16-2.47,1.51-4.62,2.74-6.2l12.64-16.27,10-8.11c-10.13-4.47-20.46-4.55-29.94-.98-14.26,5.38-22.86,15.41-31.9,28.25-.72,1.8.54,4.63.84,5.92-.07,14.6-4.42,28.37-12.2,40.66l-14.32,13.53c-10.48,9.9-22.56,2.39-21.85,8.7l2.39,21.2,3.74,24.06c.47,3.03-.66,4.67-3.12,4.89-2.89.26-3.84-1.28-4.28-4.25l-3.09-20.88-2.27-25.79c-2.08-.35-3.75-.54-5.84-.22l2.28,26.19,3.6,24.96-1.85-.13-3.63-24.07-2.2-22.93c-.16-1.72.51-3.68-.7-4.92-.94-.97-4.93-1.84-4.85-.49l1.51,27.53c3.73,32.69,10.06,65.06,18.43,96.75h-4.01c-6.08-23.04-10.94-46.48-15.03-70.26l-3.95,1.16c-.76.22-2.37-1.72-1.2-2.81.79-.42,4.93.13,4.72-1.93l-4.33-42.45c-1.93-.12-4.36-1.97-3.47-3.14,1.33-1.75,3.71-2.45,3.88-3.9.63-5.5-5.56-5.48-12.02-14.7-.81-1.15-3.35-1.17-4.25-1.63-4.8-2.48-8.66-.34-11.32,3.48-1.82,2.61-6.67,2.27-9.15,2.1-3.95-.28-4.39-2.79-6.16-4.99-2.17-2.7-6.1-3.35-9.8-5.63-2.79,7.09-11.37,14.72-18.12,19.31l-5.9,4.01-8.29,24.74c-.81,2.41-2.49,5.58-2.61,8-.17,3.4.07,5.95-4.29,7.14-7.48,18.29-16.33,35.45-26.5,52.66.83,2.23,3.18,6.12,5.27,5.62l7.92-1.89c-.03,4.61.78,9.15-.79,13.17l-2.78,2.65c-.53.5,1.14,3.23.73,4.11-.81,1.73-2.64,3.37-2.46,5.17l-30.97.02c11.58-17.52,23.07-34.66,32.52-53.75,8.29-16.76,16.28-32.8,22.2-49.98l7.61-22.1c-1.25-.8-5.04-1.1-5.56.23l-4.27,10.87c-.64,1.63-1.23,2.1-2.06,2.83l3.93-14.01c.24-.85-2.73-1.87-3.53-1.45-.88.46-.91,2.36-1.32,3.59l-6.28,18.85-10.51,25.38c-.86,2.08-2.65,3.36-4.66,2.67-1.66-.57-3.13-3.12-2.13-5.48l12.02-28.35,7.12-18.8c-6.26-1.92-11.89-4.83-15.95-10.12l-9.42-12.26c-6.79-12.56-8.29-26.46-8.24-41.25-9.07-19.35-25.23-32.9-48.03-32.97-5.22-.01-10.4-.46-14.67,2.01,9.47,8.66,17.72,17.64,21.4,29.95-9.52-13.96-19.36-26.12-33.79-34.51-4.11-2.39-7.86-4.51-13.52-4.39l6.33,15.24c1.95,4.69,5.76,9.94,9.07,14.13.27.4.82,1.36.93,1.99,1.12,6.07,5.56,12.8,4.45,20.41-4.23-9.33-5.54-19.43-12.19-27.83,2.24,12.23,4.39,23.26,3.79,35.38-.04.9-.69,1.76-1.77,1.89.22-5.69-.31-10.94-1.53-15.9-2.95-34.83-21.64-66.56-51.67-84.65l-1.1,1.36c4.67,13.87,5.44,28.94,1.84,43.18-3.24,12.86-9.64,24.64-19.57,33.96-15.79,14.82-37.87,18.29-57.62,9.73-2.67-1.16-5.19-1.87-6.2-4.53,2.23-.37,4.29.39,6.73,1.26,23.71,8.5,47.13,2.78,61.25-17.14,19.14-27.02,19.17-56.67.09-84.27-2.72-3.94-6.43-6.59-9.94-9.67-2.37,1.97-3.34,3.33-4.4,6.33,10.25,1.99,8.53,10.37,8.41,19.49s-1.21,18.02-5.27,25.86c-1.66,1.35-2.49,3.19-3.26,5.04-.4.97-.85,1.81-.77,2.93-1.49-.02-1.98.84-3.06,2.17-10.83,13.36-26.51,22.53-44,23.17s-15.48,2.93-26.42-13.18c-1.82-2.68-2.94-6.07-1.71-9.46l3.93,9.88c4.02,6.73,11.6,9.4,19.76,8.86-.48-4.27-4.26-3.65-7.1-3.3-1.49-1.63.91-4.02,2-5.02l-8.71-12.24c-1.88-2.64-2.29-5.39-4.62-7.77l-4.43-4.54c-1.18-1.21-1.13-5.74-4.76-4.33-2.51.97-2.75,6.94-3.36,9.63-2.63,11.63-.4,22.8,5.56,32.3,8.75,13.95,21.22,14.51,21.89,23.1l-8.41-3.94c-.36,11.76,3.92,21,8.59,30.5,15.4,31.39,46.71,36.31,80,39.54-9.67,1.68-18.93.12-29.77-.66,7.82,7.03,16.65,10.53,25.93,13.99,16.84,6.29,31.08,4.92,48.42,4.98-6.44,2.81-12.38.6-19.44,2.84l45.45,8.82c11.14-7.22,18.03-17.31,27.28-26.78-6.35,13.56-17.52,23.26-29.32,31.02l-6.89,14.3-15.37,33.04,8.37-3.29.16,1.3c-19.98,11.34-38.24,25.48-52.35,43.94h-3.63c-.27-3,1.47-5.08,3.73-7.32l7.54-7.46c8.26-10.24,20.29-16.58,29.71-25.11l23.65-45.41c.64-1.23.54-3.07.3-3.93-.38-1.36-1.98-1.64-3.72-2.01l-49.31-10.62c-18.87-3.93-36.01-11.7-50.28-24.62-14.99-3.53-27.71-10.96-36.92-22.95-10.46-14.3-16.43-30.39-16.67-47.95l-7.53-6.9c-13.12-12.01-14.52-36.66-6.89-55.13-16.89-3.32-30.21-13.01-39.88-26.98l-22.45-32.46-8.95-10.08-35.34-15.59-17-8.01c-13.11-6.17-28.03-15.06-29.71-29.03-1.08-8.96,5.63-17.32,15.04-16.48,9.05.81,17.14,6.05,25.44,9.69l16.06,7.05,32.31,12.62,1.5,1.01c.28.19,1.07-1.7.62-2.16l-21.09-21.8-19.52-20.41-11.07-12.1c-6.73-7.35-13.81-14.09-19.13-22.63-6.56-10.53-7.16-24.75,4.12-29.77,7.39-3.29,17.66-.13,24.18,6.45l39.78,40.08c9.15,9.22,16.99,18.87,27.99,27.08l-26.9-49.21c-8.76-16.03-18.2-31.09-24.53-48.23-2.81-7.6-2.74-15,2.58-21.06,4.55-5.19,12.77-7.44,20.1-4.42s12.4,9.59,16.41,16.34l14.51,24.45,17.9,32.04,21.61,36.47c.91,1.53,2.58.81,2.2-.93l-10.28-40.03-9.26-35.87c-3.39-13.12-6.01-27.71,4.47-34.52,5.35-3.47,11.78-3.28,17.47-.22,10.99,5.92,16.51,25.57,20.53,39.32.71,2.43,1.58,4.8,2.32,7.21.36,1.17.69,2.35.95,3.54s.29,2.32.5,3.46c0,.01,0,.02,0,.03ZM169.88,115.12l-.18,1.96-18.77,3.93c-.01-.59.06-.97.22-1.23.52-.87,1.43-1.43,3.59-2.42l-22.52-38.64-30.95-53.93c-6.79-11.83-17.25-22.59-27.74-15.6-12.23,8.14-3.21,25.38,4.63,39.63l43.9,79.79c1.09,1.97,1.06,2.88,4.44,3.43l-14.56,11.16-1.24-.96,3.58-4.13c.61-.52,2.62-.85,2.84-2.36l-25.2-25.8-20.95-21.15-2.91-2.97c-8.17-8.34-15.77-16.65-24.63-24.31-4.25-3.68-10.04-6.76-15.63-4.7-8.33,3.06-10.3,13-6.26,20.62,4.64,8.75,10.92,15.83,17.91,23.08l54.4,56.42c1.27,1.32,3.02,1.34,4.3,1.43l-6.19,11.44c-.56-.26-.91-.47-1.22-.77.26-.92.02-2.34-.82-2.61l-2.66-.84-40.41-16.11c-2.39-.95-5.01-2.35-7.35-3.46l-18.79-8.94c-4.92-2.34-10.57-1.27-13.74,2.47-3.36,3.99-2.91,9.2-1.32,13.49,4.61,12.39,27.57,22.68,42.22,29l37.83,16.3c1.61,2.78,4.58,6.27,7.1,8.73,6.5,6.36,10.34,14.77,15.55,22.26,12.2,17.56,21.38,31.94,43.4,36.67l7.82,3.91,21.08,29.02,10.26,14.24c28.49-3.61,50.77-27.3,50.01-56.28l-8.22-16.68c-5.16,3.35-8.69,7.42-15.29,8.52l9.55-8.77c15.2-13.96,24.57-32.18,26.94-53.15,2.26-20.06,11.92-36.8,26.69-50.09,3.62-3.26,7.23-7.48,6.76-12.5-.79-8.42-9.22-13.23-17.68-12.32-15.13,1.63-26.95,12.78-32.1,26.89-1.22,3.34-2.09,6.97-4.11,9.84-4.83,6.87-11.53,11.9-18.19,16.61-.89-1.42.29-2.3.18-2.78s-1.36-1.03-2.66-1.29c1.12-2.02,3.85-2.37,5.46-3.78.79-.69,3.56-.52,3.46-2.51l-6.51-7.9c-3.19-3.87-15.56-29.34-16.93-34.46l-7.58-28.26c-5.26-19.64-10.12-38.82-16.88-57.94-4.61-13.03-12.6-26.25-24.47-21.48-11.55,4.64-7.53,22.08-3.99,35.7l19.35,74.44c1.36.89,4.08.36,5.17.18ZM753.5,254.73c3.98,4.91,8.77,8.67,14.22,12.97-7.65-1.46-12.38-6.31-18.7-11.7l-8.6,15.96c-2.28,28.34,16.99,55.18,46.03,57.31l27.05-34.53c2.76-3.52,5.87-6.67,10.02-7.76,5.92-1.57,12-2.99,17.77-6.43,10.48-6.26,19.82-13.83,28.33-22.68,4.6-1.08,6.84-4.56,9.25-8.18.73,1.37.82,2.65,1.29,3.15.59.62,2.15.43,3.32.33l38.72-3.51c5.84-.53,11.38-2.59,14.84-7.18s3.23-11.42-2.03-14.32c-2.11-1.17-4.49-1.77-6.87-2.07-4.54-.57-9.12-.13-13.67-.52-1.08-.09-2.15-.18-3.23-.28s-2.11-.27-3.15-.27c-1.57-.13-3.14-.3-4.72-.4-.49-.03-.97.09-1.46.04-.8-.08-1.6-.35-2.41-.47-1.66-.24-3.34-.27-5-.06-1.99.25-4.22.05-6.14-.52-.79-.23-1.35-1.8-3.22-.99.59-2.48-1.25-7.32,1.24-9.09l41.43-29.29c11.23-7.94,22-15.65,31.62-25.27,7.29-7.29,6.85-17.66.73-21.46-7.15-4.43-16.73,1.23-25.51,6.61l-57.58,35.24c-.31,1.62-.18,2.73-1.64,4.03l-8.19-11.42c3.09-.02,3.9-1.25,5.44-3.03l44.78-51.98,19.04-24c5.86-7.38,6.8-18.08.21-22.94-7.47-5.52-17.56-.4-24.41,6.92l-44.41,47.38-21.25,23.72c-.69.77-2,1.32-2.19,2.48-.14.83.22,1.81.91,2.53.03.55-.23,1.07-1.04,1.35l-11.53-5.36-.06-2.03c1.42.49,2.22-.27,3.07-1.81l22.68-41.26,15.48-27.59c7.03-12.53,15.4-27.01,5.08-34.6-4.22-3.11-10.88-3.31-15.67.29-9.52,7.16-16.71,16.56-22.76,27.14l-41.46,72.47-6.59,8.3c-5.83,9.69-12.41,18.63-21,26.11,1.22,3.43,4.63,5.08,6.97,7.96-8.4-1.24-17.17-8.21-19.07-16.85-3.37-15.38-11.91-28.57-26.98-34.43-5.9-2.29-12.69-1.74-17.67,2.37-6.61,5.45-5.84,14.37-.11,20.58,14.22,15.41,21.42,33.96,21.72,55.01.25,16.97,6.95,31.47,17.06,43.98ZM457.98,60.76c1.71,4.56,2.16,9.6,6.01,13.88-3.16-.26-4.47-1.66-6.34-2.91-.93-.62-2.57.02-3.87-.36-13.76-4.01-27.24-8.22-42.44-8.68,1.86,7.09,5.36,12.86,9.53,18.15,1.8,2.29,6.97-.77,8.85,3.8.53,1.29-1.15,4.25-3.28,4.16-9.95-.42-19.05,2.35-28.15,6.45l-28.31,12.75c-1.21.54-2.27.43-2.14,2.27.05.73,1.32,1.07,1.78,1.61,10.67,12.6,23.25,15.13,23.93,15.86.54.59.33,1.5.52,2.06-1.55.14-3.05.78-4.05,2.39l-26.17,20.76c-1.02-.12-3.69,2.54-2.69,3.01,9.87,4.58,19.48,5.29,30.2,6.19l-8.62,10.68c-3.2,3.96-6.48,7.69-8.29,13.08,8.91.18,16.94-.54,25.22-2.48l-3.4,16.4c-1.24,5.97,6.65,1.95,14.57-4.37l-3.05-12.53c-1.81-.11-4.21.06-5.62-.95-5.3-3.83,16.02-33.57,25.7-43.87,2.43-2.58,5-4.83,8.39-4.73-12.42,12.28-23.14,26.3-29.88,42.45-.59.55-1.03,1.01-1.03,1.62.01,5.2,40.95-8.97,56.35-27.48l11.22-18.92,1.69-1.32c-.54,3.68-3.25,6.59-4.91,10.17-5.74,12.38-8.96,25.27-11.17,39.41,4.42-2.29,8.83-4.76,10.81-8.66l2.54-5.01c.94-1.86,3.27-1.13,5.3-1.23,3.56-2.1,6.76-4.68,9.21-7.99l.6-2.82c.27-1.25,4.42.45,7.01-2.95.77-1.01,0-3.18-.06-4.31-.26-4.11,4.88-2.56,6.21-3.78,3.61-3.31,7.54-7.49,9.52-11.18l3.23-1.26c5.84,3.4,10.69,7.96,12.9,14.89,3.13-3.18,6.02-5.39,7.94-8.91.8-1.17,2.52-2.14,3.91-3.27.25.06,1.1.3,1.13.64.03.37-.36,1.43-.68,1.81l-6.76,8.03c6.6.35,11.32-4,12.27-1.85.8,1.8-3.45,1.72-2.97,3.86.78,3.47,11.64-1.68,17.98,10.65l9.35,7.55c.8.65,2.11.73,2.67.63l.89-.16c1.08,3.38,3.03,6.25,1.3,6.43-3.13.31-5.48-4.98-9.94-6.41.11,6.21-1.58,12.74.05,18.7l6.96,12.85c1.18,6.03-1.07,11.41,1.37,18.04l7.1-24.25,3.62,2.35,2.95-17.01c2.83,2.17,5,3.17,7.27,3.39,1.92.19,5.99-1.42,6.86-3.95.85-6.41-2.6-12.79-5.5-19.23,8.94-1.36,19.49-.76,20.43-6.41-2.09-5.01-7.04-8.31-11.2-12.83-3.43-3.73-7.87-8.86-13.02-9.61-2.42,1.69-6.93,4.31-9.57.57-2.05-2.91,6.59-1.77,7.52-2.15,1.08-.45.4-3.44.98-4.43,4.15-7.1,10.89-11.94,17.76-16.11,1.26-.77,1.66-3.1.37-3.35-12.77-2.45-25.18-3.73-38.23-3.02l-6.96,1.25c.9-1.52,2.22-1.53,3.78-1.95,3.77-7.32,6.28-14.61,7.5-23.25-11.36,1.68-20.19,6.64-30.48,11.64-2.03-8.56-7.13-15.66-12.67-22.29-2.57-3.07-4.03-6.75-8.18-8.46l-.3,26.02c-11.55-13.3-24.8-22.95-40.57-29.52l-24.57-10.24c-2.42,6.88-.49,13.89,1.82,20.04ZM519.63,147.09l-2.01-.76c-.55-.21-1.18,1.32-1.37,2.44-5.03-.64-10.29-.89-15.66-.08-5.47,9.66-10.43,19.2-12.59,29.53-.7.93-1.34,2.93-3.22,2.77-.04-1.08-.29-2.21-1.1-3.19.79-.98.62-3.01,1.04-4.12l6.17-16.11-29.2,24.18c-1.79,1.49-4.09,1.82-6.31,2.09-.81-2.75-.88-7.1-.35-10.21.01-.08-.14-.22-.14-.33.55-.7.95-1.52,1.15-2.39l2.84-12.44c-9.79,6.78-18.85,12.67-29.47,17.1l2.12,19.33c.2,1.8-1.72,3.75-2.53,5.06-1.78,2.68-1.74,5.38.1,7.33-.36,1.43-.47,2.96-.3,4.44.05.45.47.93.7,1.23l1.29,13.99c1.41,15.36,6.74,30.03,12.02,44.53,4.49,12.34,30.77,30.31,44.41,38.9,8.16.09,18.22,2.76,25.65-1.55,13.2-7.67,24.05-18.54,34.77-29.03,5.93-5.8,10.02-12.64,11.61-20.61l7.3-36.49-.52-9.68c.56.05,1.34-.16,1.54-.83.16-.53-.56-1.18-.91-1.46l.05-12.58c0-1.28,1.14-2.15-.41-4.05l-5.34-6.56c-1.27-1.56-2.06-3.27-2.34-4.95l.29-3.76c.51-6.65-4.01-6.68-4.19-11.74,2.63-.84,1.6,3.12,4.83,4.81.01-3.81.59-7.18-.3-10.82-.39-1.58-3.61-1.5-4.77-1.03l-.89-8.23c-11.08-3.92-23.13-1.12-19.65-5.82-2.97.32-5.04,1.12-6.25,2.86-1.58-.03-3.4.42-4.62-.93,2.18-3.75-3.75-11.31-9.22-14.39l-9.08,9.86c1.92,1.96,5.47,2.61,7.44-.5l-2.66-3.04c5.16-.16,9.71,2.65,10.1,7.24ZM427.16,220.49c-1.12-7.07-2.72-14.28-.97-20.39,1.31-4.59,2.55-7.66,1.06-12.9-.83-2.89.5-7.24-2.46-9.92l-12.29,4.12c-1.46.49-2.46,1.85-2.02,3.48,2.86,10.65,7.63,19.82,12.29,29.88.97,2.11.03,6.67,4.4,5.73ZM600.74,179.2c0-.97-.79-1.77-1.77-1.77s-1.77.79-1.77,1.77.79,1.77,1.77,1.77,1.77-.79,1.77-1.77ZM575.36,212.75c-2.05,1.21-2.71,4.51-2.63,6.73s-2.1,3.61-2.54,5.81l-2.07,10.35-.4,2.06-1.33,10.09c5.11,1.03,7.93-1.96,10.55-4.62l6.51-6.62c13.3-13.52,11.1-40.64,1.54-41.28-2.14-.14-5.13,1.57-5.83,3.99l-3.8,13.48ZM419.07,215.64c-1.65-3.96-2.48-8.65-5.23-11.97-2.02-2.44-6.53-.22-7.82,2.52-3.95,8.37-2.82,17.83.99,26.34,4.1,9.15,16.42,22.12,25.84,21.79l-2.16-9.56c-4.76-1.56-8.93-4.91-10-9.94-.49-2.31-.27-4.44,1.94-5.37-1.81,5.22,1.38,9.41,6.84,13-.58-3.66-.52-7.72-2.47-10.95l-4.68-7.75c-2.91,5.6-1.84-2.78-11.32-10.15-1.92,3.18-.37,6.3-2.47,8.43-1.12-4.06-.01-7.56-.14-11.33,4.88.58,7.7,3.17,9.76,6.23l.92-1.28ZM419.43,216.41l-.94,1.01.6.65.85-.87c-.1-.3-.26-.61-.51-.78ZM420.35,217.6l-.5,1.87c.07-.63,1.74-.29.5-1.87ZM725,334.97c4.6,9.86,13.41,16.86,23.85,21.65,12.74,5.45,27.52,4.7,40.29-.37l-1.52-4.08c-.25-.68,1.95-1.2,2.42-1.85,2.23-3.08,5.75-1.49,8.04-2.14,5.12-1.44,8.76-6.27,13.01-9.35l-4.26-6.48c2.4-3.05,6.39-2.32,9.96.21,9.9-11.79,11.69-27.65,6.08-41.58l-7.46,8.81-19.54,24.34c-.69.86-.77,2.26-.57,2.93.88,2.98,7.86.94,11.9-2.64,1.77-1.57,3.22-2.71,5.31-2.77-3.5,6.36-10.55,10.55-18.57,11.38-20.55,2.13-40.48-9.25-50.03-27.45l-2.34-2.95c-1.6-2.02-1.82-4.62-2.59-7.36-3.8-13.54-4.26-28.1,2.27-40.69l3.04-2.69c.62-.55-.79-3.46-1.99-3.81-9.22,4.97-14.74,13.76-19.48,23.17-10.24,20.33-10.04,44.95,2.16,63.72ZM583.26,288.57c2.79,1.08,5.55,2.36,7.3,4.54-.34-11.25-5.49-19.9-13.16-27.17-3.79-3.59-7.3-8.28-12.81-9.41-1.05-.22-1.5,3.59-.56,4.21l2.84,1.88c2.69,1.78,5.05,3.25,8.06,3.85,2.22.45,1.09,4.13,1.77,5.16,3.21,4.92,5.41,10.62,6.57,16.93ZM265.37,257.96c-.65-1.22-2.27-.11-1.17.94l1.17-.94ZM579.81,261.12c-.7-1.09-2.17.15-.9.95l.9-.95ZM589.38,275.92c.99,1.67,2.47,4.84,2.81,6.8l1.43,8.06,1,7.79c3.28,1.37,3.7,3.51,3.84,7.83l12.58-10.49-2.09-3.78c3.43.15,5.83,3.31,8.78.25.89-.92,1.36-2.55.42-4.07-.86-1.44.83-2.32,1.16-.71,6.86,7.44-10.34,9.2-21.27,23.6l-3.75,12.24c-.67,2.18-.47,3.82.09,5.41l2.22,6.34c11.83-15.81,27-30.77,46.98-29.69,1.16-.84-.33-2.98-.5-3.92-1.95-11.1-13.97-19.47-26.68-19.63.44,1.59,1.55,2.76,1.19,4.83-3.91-2.34-5.93-5.92-9.07-8.98-8.03-7.83-17.89-13.3-28.14-16.49l-1.14,1.2c3.76,4.11,7.25,8.56,10.13,13.42ZM580.69,289.05c-1.14-5.05-2.45-9.56-5.56-13.17-2.43,1.71-4.66,2.31-6.61,1.94-1.39-.26-4.26-1.53-3.45-3.92.55-1.61,4.43-3.43,3.54-6.08-.89-2.67-3.97-4.71-6.7-5.14-1.22,6.87-4.15,11.94-8.98,17.15l10.83,6.98c3.29,2.12,4.56,6.92,8.82,8.48,2.55-2.59,5.21-4.59,8.09-6.23ZM381.52,288.65c-.52.78-2.45,1.52-2.37,2.64.06.91,2.98,2.85,3.83,2.4,3.42-1.83,6.49-3.04,9.74-4.35.65,3.27-.71,5.92-3.51,8.69l10.85,8.28.8-8.63c1.81-.44,3.39-1.8,3.89-4.06l1.5-6.7.54-1.15.05-1.06,5.98-8.93,12.21-12.28c-15.69,2.83-35.62,13.35-43.51,25.16ZM416.29,287.7c1.73-7.35,6.67-12.77,11.61-17.7.63-1.3-.86-3.28-2.18-2.68-6.9,6.63-13.32,13.2-16.14,22.44l6.71-2.06ZM430.78,293.92c4.27-3.82,8.4-6.98,13.98-10.06l-8.71-16.04c-4.48,2.74-7.8,5.13-10.61,8.93l1.41,4.99c-3.44-.84-5.2.15-6.38,2.91-.6,1.41-1.96,2.76-1.34,4.2.44,1.01,1.48,3.19,3.04,3.48l8.62,1.59ZM570.86,308.03c1.83-2.48.99-5.25-.74-7.83l-4.78-7.14-6.5-5.53-8.24-3.97c-7.35,3.23-9.32,15.82-5.35,19.12s12.5-2.85,25.6,5.36ZM456.22,308.15c1.29-5.67-.81-7.45-1.88-11.39.41-3.56-2.55-9.89-6.34-10.11-7.98,2.09-13.38,8.06-18.49,13.91-1.18,1.35-4.19,1.44-3.59,4.62,10.35-5.68,21.51-4.64,30.3,2.96ZM348.68,296.48c-.84,1.16-3.09,1.68-2.68,4.14,23.89-1.85,39.4,11.99,52.32,30.72,5.32-8.1,5.08-12.4,2.48-20.76-1.24-2.52-4.8-4-6.86-5.63-6.99-5.54-14.36-9.14-22.87-13.17l6.1-1.67c-9.95-3.19-22.2-2.32-28.49,6.36ZM435.57,365.18c.23,11.63-3.31,24.33-15.12,25.51,3.18,4.2,7.66,6.64,12.72,6.34,11.69-.68,17.1-17.46,17.12-30.93.02-17.12-5.24-34.38-16.37-47.33-4.76-5.53-11.31-8.4-18.63-5.56-1.59-7.52-1.12-14.43-.93-22.28-11.66,7.58-12.1,12.09-8.43,26.01,2.35-1.91,3.42-4.79,7.24-4.11l-5.7,9.24c7.13-1.85,12.5,1.11,16.58,6.45,7.96,10.41,11.26,23.39,11.52,36.66ZM579.44,307.67c-1.06-3.58,2.21-7.68-.9-11.97-3.36,4.45-4.44,10.57-3.72,15.73.2,1.47,3.55,1.52,4.14,1.06l.6,4.63c-5.48-2.95-11.04-2.39-16.51.97-16.24,9.97-26.12,32.94-26.85,51.52-.33,8.27.06,16.96,5.14,24.21,3.17,4.52,7.77,7.3,12.08,8.03,6.28,1.07,11.39-.7,15.68-5.22-14.28-1.1-18.91-14.27-17.38-27.04,1.88-15.76,7.4-30.38,20.38-40.32,5.05-3.87,10.7-4.17,16.75-.98-.87-5.92-5.97-8.09-8.17-11.66,3.93-1.21,6.82,1.98,10.35,6.14,1.56-6.07,4.79-13.01,3.36-18.82-1.2-4.89-6.83-8.86-10.83-12.12l-2.15,13.77c-.17,1.12-.81,1.86-1.96,2.08ZM474.9,312.17c-.24-.14-.78-.03-.94-.26l-13.96-15.34.32,15.27c9.01,10.13,13.94,22.29,16.32,35.73,3.07,1.41,6.11,2.04,7.92,4.34l-7.53-2.24,1.56,16.62c2.02,4.64,10.01,8.76,14.87,9.31s8.65-2.51,12.18-3.91c1.31-.52,3.45-1.21,4.2-2.8.92-1.96.4-4.3.43-6.09.07-3.37,1.51-6.79.68-10.07-.15-.61-.34-1.4-.35-1.99,1.82-.65,2.36-2.21,2.97-4.2,4.48-14.69,12.37-28.01,24.87-37.1l1.1-16.07-8.05,7.18c-15.61,13.93-27.93,28.84-49.54,15.86l-7.05-4.23ZM419.43,296.94c-3.84.54-3.87,10.09-.83,11.56,4.27,2.06,4.99-12.15.83-11.56ZM430.95,306.94c-.8,1.09.21,2.13,1.28,1.83.4-.11,1,.29,1.49-.6.41-.76-.16-1.36-.56-1.47-.51-.14-1.91-.16-2.2.24ZM456.68,362.88c-6.04.44.93,15.54-11.16,31.45l-5.94,4.94c8.26,2.63,16,.49,22.82-4.02,3.84-2.53,5.02-7.16,7.2-10.69,3.39-5.47,3.15-10.23,3.36-16.01.13-3.48,1.54-6.99,1.14-10.86-1.51-14.54-4.9-28.92-14.65-40.72-3.7-4.49-8.54-10.06-14.57-10.09-1.99,1.09-4.55,3.98-8.72,2.91,2.47,3.48,3.99,5.2,2.58,8.65l4.99,6.21c7.23,11.83,10.83,24.89,12.95,38.23ZM514.32,362.21c-2.2,16.33,2.78,35.25,19.5,40l4.25-6.76c-2.37-4.78-5.19-9.42-5.24-14.83l-.16-15.59c-.04-3.64.93-6.41,1.73-9.72,4.21-17.25,13.42-27.14,12.88-29.14-.28-1.04-2.57-1.35-3.8-2.91l5.97,1.79c3.63-4.85,7.61-7.94,12.98-11.08-2.35-1.87-3.53-3.9-4.35-6.33-6.97-1.21-14.03,1.88-19.89,6.78-14.15,11.82-21.39,29.34-23.88,47.79ZM410.46,326.06c-3.62-.19-7.11,3.11-8.18,7.56-6.62,27.56,11.09,58.89,18.86,51.69,3.39-3.15,3.77-7.14,5.75-10.97.44,1.68,3.16,4.36,3.7,3.33,2.47-4.67,2.24-10.17,2.07-14.85-.39-10.65-3.77-21.15-9.38-30.57-3.37-5.67-10.22-9.68-12.83-6.18ZM557.72,368.39c.42.5.74,1.4.71,1.93-.03.51-6.43,3.13-1.7,14.2l5.42.74c1.84,2.76,3.85,6.7,7.73,7.23,3.4.47,7.4-2.26,9.79-4.96,9.58-10.79,14.61-24.98,14.69-39.42.05-8.64-4.66-18.19-11.78-17.68-2.3-1.86-5.77-1.26-8.48.74-8.4,6.2-13.83,15.36-16.68,25.37-2.03,7.16-3.93,12.59.3,11.85ZM476.48,377.05c-.39,1.96-1.89,4.09-1.24,6.17,2.29,2.83,6.51,3.54,9.26,5.27,6.06,3.83,10.76,3.59,17.12.27,2.78-1.45,7.92-1.94,9.78-5.29,1.75-3.16-5.95-7.64-6.11-7.65-1.59-.08-2.84,1.07-4.29,1.53-2.05.64-4.3,1.7-6.5,1.73-8.64.12-16.16-11.35-18.02-2.03ZM423.24,385.62l-.5.5.5.5.5-.5-.5-.5ZM547.53,427.29l3.85,26.62.19,2.03c.05.48,2.25.13,2.18-.37l-4.22-27.56-2.49-20.5c-.62-.12-1.05.26-1,.8l1.5,18.97ZM425.74,420.36l-11.83,30.8c6.18-9.07,9.18-19.13,13.13-29.05,1.74-4.37,4.39-8.53,4.59-13.79-3.41,3.46-3.56,8.06-5.88,12.04Z"/>
          <path class="cls-4" d="M377.76,530.47h-2c-.25-1.46.66-2.79,2.15-2.83l-.15,2.83Z"/>
          <path class="cls-4" d="M434.41,425.55c-10.61,25.75-22.74,50.92-37.29,75.14-1.04,1.73-2.33,2.4-3.48,2.89,14.46-24.78,27.97-50.6,38.15-77.38.97-2.54,2.12-5.59,4.02-7.66-.64,2.29-.48,4.78-1.4,7Z"/>
          <path class="cls-4" d="M377.91,527.64c.08-1.47.72-2.8,1.76-4.28l13.97-19.78c.53,1.13,0,2.55-.88,3.88l-11.99,18.07c-.85,1.27-1.54,2.09-2.85,2.11Z"/>
          <path class="cls-13" d="M317.32,342.71c1.22,4.96,1.75,10.21,1.53,15.9,1.08-.14,1.72-1,1.77-1.89.6-12.13-1.56-23.16-3.79-35.38,6.65,8.4,7.96,18.5,12.19,27.83,1.11-7.61-3.33-14.34-4.45-20.41.92-.28,2.22.28,2.74,1.47l11.68,27.16c3.05,7.1,5.91,14.34,7.13,21.99,2.41,1.27,5.01-1.07,6.08-3.28,4.78-9.92,5.6-19.61,2.21-30.65,3.43,3.31,3.57,7.19,5.77,11.55l8.56-3.32c.92.55,2.12,2.05,3.14,2.06.17,12.32-1.96,24.62-6.27,36.62l-4.54,12.63c1.26.12,2.01-.17,2.49-.64,1.11,3.27-.72,6.1-1.86,9.26-6.28,17.48-13.35,33.83-21.4,50.92l33.41-25.44c-.92,4.05-3.15,7.1-5.79,9.65l-19.26,18.64c-14.52,11.11-27.31,23.06-38.11,37.83-2.55,3.48-5.85,6.28-6.66,10.5l-3.4,2.42-14.81,8.26c-1.54.86-1.87,2.77-2.25,4.07l-19.96.02c14.11-18.46,32.37-32.6,52.35-43.94.77-.44,2.64-.72,3.07-1.88.11-1.43-1.49-1.39-2.05-.75l-1.17,1.34-8.37,3.29,15.37-33.04,6.89-14.3c11.81-7.76,22.98-17.47,29.32-31.02-9.25,9.47-16.14,19.57-27.28,26.78l-45.45-8.82c7.06-2.25,13-.03,19.44-2.84-17.34-.06-31.59,1.31-48.42-4.98-9.28-3.47-18.11-6.96-25.93-13.99,10.83.77,20.1,2.34,29.77.66-33.29-3.23-64.6-8.14-80-39.54-4.66-9.5-8.95-18.74-8.59-30.5l8.41,3.94,2.19.89c1.01,2.66,3.54,3.38,6.2,4.53,19.75,8.56,41.83,5.09,57.62-9.73,9.93-9.32,16.32-21.1,19.57-33.96,4.37,1.47,5.51,5.37,5.93,9.68,1.31,13.25.13,26.05-2.37,39.1l15.26,14.05c7.09-13.09,10.53-27.15,10.41-41.75,5.4,15.49,6.01,30.5,4.96,45.74-.17,2.49-1.2,4.79.67,7.43l8.97-15.81c3.17-5.59,4.23-11.75,4.73-18.21.24-.44,2.13-.36,2.36-.12ZM364.11,391.78c2.35-5.53,1.92-11.19.89-17.27-.64-3.8-.06-7.59-1.87-10.95-.99,4.69.29,8.75.44,13.17l.53,15.06ZM325.3,479.52l-.5.5.5.5.5-.5-.5-.5ZM319.71,483.19c2.74.57,3.4-1.48,3.94-2.34-1.58.34-3.91.26-3.94,2.34Z"/>
          <path class="cls-2" d="M405.07,378.56c-.85.2-1.78.95-1.7,2.06,1.11,14.14,7.58,34.6,19.95,39.12l-12.02,28.35c-1,2.36.47,4.91,2.13,5.48,2.01.69,3.8-.59,4.66-2.67l10.51-25.38,3.18.68c-10.18,26.77-23.69,52.6-38.15,77.38l-13.97,19.78c-1.04,1.47-1.68,2.81-1.76,4.28-1.49.04-2.39,1.37-2.15,2.83h-62.33c1.45-1.51,3.4-2.08,5.36-3.09l42.15-21.72c3.14-1.62-3.14-14.09-6.19-13.59-6.37,1.04-12.09,4.78-17.87,7.58l-33,16.04c.8-4.22,4.11-7.02,6.66-10.5,10.79-14.77,23.59-26.72,38.11-37.83l19.26-18.64c2.64-2.55,4.88-5.6,5.79-9.65l-33.41,25.44c8.05-17.08,15.13-33.44,21.4-50.92,1.13-3.16,2.96-5.99,1.86-9.26,12.86-26.03,16.71-67.9-2.02-89.85l-.9.84c8.38,11.71,11.04,26.08,11.24,40.4-1.02-.01-2.23-1.52-3.14-2.06l-8.56,3.32c-2.2-4.36-2.34-8.24-5.77-11.55,3.39,11.04,2.56,20.73-2.21,30.65-1.06,2.21-3.67,4.55-6.08,3.28-1.22-7.64-4.08-14.89-7.13-21.99l-11.68-27.16c-.51-1.2-1.81-1.75-2.74-1.47-.12-.63-.66-1.58-.93-1.99,1.07.03,1.31-.96.89-1.69l-5.91-10.18c-.92-1.59-2.43-2.3-4.05-2.26l-6.33-15.24c5.66-.12,9.4,2,13.52,4.39,14.43,8.39,24.27,20.56,33.79,34.51-3.68-12.31-11.93-21.28-21.4-29.95,4.27-2.48,9.45-2.03,14.67-2.01,22.8.06,38.96,13.62,48.03,32.97-.05,14.78,1.45,28.69,8.24,41.25ZM361.1,313.98c-.61-1.1-1.98-.02-.95.83l.95-.83ZM356.28,336.67l-.5.5.5.5.5-.5-.5-.5Z"/>
          <path class="cls-2" d="M440.08,426.72c-5.92,17.19-13.91,33.22-22.2,49.98-9.45,19.09-20.94,36.24-32.52,53.75h-7.6s.15-2.82.15-2.82c1.31-.02,2-.84,2.85-2.11l11.99-18.07c.88-1.32,1.41-2.75.88-3.88,1.15-.48,2.44-1.16,3.48-2.89,14.55-24.22,26.67-49.39,37.29-75.14,1.44,1.7,3.67,1.73,5.68,1.17Z"/>
          <path class="cls-2" d="M667.77,325.73c-2.17.02-3.46,1.53-4.75,3.37-4.08,5.81-9.16,13.17-5.9,14.88-.41.7-1.09,1.95-1.32,2.65-4.13,1.81-5.66,7.47-4.27,12.02-.86.92-1.76,1.36-3.16,1.94l-13.38,36.53c-6.07-4.87-12.31-11.91-12.53-17.62.29-5.28,1.76-11.34,3.74-16.39,1.2-3.05,2.57-5.81,3.1-9.84-4.94,6.08-9.58,12.09-12.45,19.51-.71,1.83-1.42,3.1-3.41,2.97.77-18.25,5.66-34.96,15.49-51.44-9.6,9.18-13.17,22.05-15.78,34.72-3.4,16.53-2.97,33.61,1.19,49.44-1.14-.27-2.65-.16-2.74.69l-.34,3.14-17.9,69.53,8.25-8.68c1.41,6.77,5.42,12.9,5.01,19.27l-1.3,17.34-5.69-4.28c-1.42-1.07-2.88-2.22-4.47-2.12-3.83.26-10.17,9.14-9.04,11.75,1.42,3.29,5.44,5.81,7.9,7.76-3.53.5-1.2,3.08-1.39,7.61h-33.31c-6.8-23.48-12.3-47.48-15.8-71.76l-3.6-24.96c1.95.21,3.88.11,5.84-.18l3.09,20.88c.44,2.98,1.39,4.51,4.28,4.25,2.46-.22,3.59-1.87,3.12-4.89l-3.74-24.06c4.2.75,8.12-1.86,11.59-4.8,10.61-8.98,17.01-20.98,21.9-34,.59-1.58,2.33-3.31.29-4.62,7.78-12.28,12.13-26.05,12.2-40.66,1.63.19,2.79-.85,3.5-2.61,4.42-10.93,16.32-23.74,26.17-28.81,1.1-.57,1.47-1.79,1.38-2.75,9.47-3.57,19.81-3.49,29.94.98l-10,8.11-12.64,16.27c-1.23,1.58-2.89,3.73-2.74,6.2,10.87-13.56,22.48-28.4,40.63-32.64l-6.98,15.3ZM633.11,343.67l-.5.5.5.5.5-.5-.5-.5Z"/>
          <path class="cls-11" d="M492.28,530.46h-72.87s.86-8.15.86-8.15l20.06-24.34-6.77,1.27c14.65-23.79,26.9-48.07,33.54-75.14,11.42-4.86,8.63-18.94,7.73-32.91l10.96,8.37c7.46,5.69,11.08-2.28,17.75-1.96-3.54,15.92-5.04,22.41,7.48,33.67l-.83,9.59.63,12.52c2.35,9.55,2.91,18.15.38,27.57l-7.87,29.2c-2.14,7.95-8.87,14.2-11.06,20.3Z"/>
          <path class="cls-7" d="M546.24,530.46h-53.96c2.19-6.1,8.92-12.34,11.06-20.3l7.87-29.2c2.54-9.42,1.97-18.02-.38-27.57l-.63-12.52.83-9.59c-12.53-11.26-11.02-17.75-7.48-33.67-6.67-.32-10.29,7.65-17.75,1.96l-10.96-8.37c.9,13.98,3.69,28.06-7.73,32.91-6.64,27.07-18.89,51.35-33.54,75.14l6.77-1.27-20.06,24.34-.86,8.13h-3.08c-.18-1.81,1.65-3.45,2.46-5.18.41-.88-1.25-3.61-.73-4.11l2.78-2.65c1.57-4.02.76-8.56.79-13.17l-7.92,1.89c-2.09.5-4.45-3.39-5.27-5.62,10.17-17.21,19.02-34.37,26.5-52.66,4.36-1.2,4.12-3.75,4.29-7.14.12-2.42,1.8-5.59,2.61-8l8.29-24.74,5.9-4.01c6.74-4.58,15.33-12.22,18.12-19.31,3.7,2.28,7.63,2.93,9.8,5.63,1.77,2.2,2.21,4.72,6.16,4.99,2.49.17,7.33.51,9.15-2.1,2.67-3.82,6.52-5.96,11.32-3.48.9.46,3.44.48,4.25,1.63,6.46,9.22,12.65,9.2,12.02,14.7-.17,1.45-2.55,2.15-3.88,3.9-.89,1.17,1.54,3.03,3.47,3.14l4.33,42.45c.21,2.06-3.94,1.51-4.72,1.93-1.17,1.09.44,3.04,1.2,2.81l3.95-1.16c4.09,23.78,8.95,47.22,15.03,70.26Z"/>
          <path class="cls-13" d="M614.35,408.46c4.4,16.74,15.1,37.02,30.94,47.1,3.13,18.98,7.03,37.81,7.62,58.6l-12.36-16.73-9.31-14.73-.8.46,8.83,15.32,19.9,32.01-28.96-.06c.52-1.39-.4-1.94-1.63-2.89l-23.25-17.77,1.3-17.34c.41-6.38-3.6-12.5-5.01-19.27l-8.25,8.68,17.9-69.53.34-3.14c.09-.85,1.6-.96,2.74-.69ZM629.11,479.52l-.5.5.5.5.5-.5-.5-.5ZM629.8,482.68l.54-1.35-.54,1.35Z"/>
          <path class="cls-2" d="M538.05,434.52l3.63,24.07c3.67,24.31,8.97,48.33,15.58,71.88h-7.01c-8.37-31.71-14.7-64.07-18.43-96.77,1.92.68,3.98,1.13,6.23.82Z"/>
          <path class="cls-14" d="M307.39,530.41l-5.98.03,1.4-9.94,51.69-25.87c2.37,2.98,3.56,5.61,3.87,9.17l-48.18,24.1c-1.46.73-2.41,1.18-2.8,2.52Z"/>
          <path class="cls-4" d="M313.43,530.46l-6.04-.05c.39-1.33,1.34-1.79,2.8-2.52l48.18-24.1c-.31-3.56-1.5-6.19-3.87-9.17l-51.69,25.87-13,6.98c-1.26.68-1.86,1.98-2.4,2.96h-3.99c.38-1.3.71-3.21,2.25-4.07l14.81-8.26,3.4-2.42,33-16.04c5.77-2.81,11.49-6.54,17.87-7.58,3.05-.5,9.33,11.97,6.19,13.59l-42.15,21.72c-1.96,1.01-3.91,1.58-5.36,3.08Z"/>
          <path class="cls-14" d="M626.22,530.46l-19-.02c.17-1.45-1.07-2.14-2.37-3.17l-15.96-12.64c1.52-3.71,3.61-6.28,6.78-8.48l30.54,24.3Z"/>
          <path class="cls-4" d="M605.34,509.75l23.25,17.77c1.23.94,2.15,1.49,1.63,2.89l-4,.05-30.54-24.3c-3.18,2.2-5.26,4.77-6.78,8.48l15.96,12.64c1.3,1.03,2.54,1.72,2.37,3.17l-3.98.03-9.21-7.61c-2.46-1.95-6.48-4.47-7.9-7.76-1.13-2.61,5.21-11.49,9.04-11.75,1.59-.11,3.05,1.05,4.47,2.12l5.69,4.28Z"/>
          <path class="cls-10" d="M543.53,458.72c3.5,24.28,8.99,48.28,15.8,71.76h-2.07c-6.61-23.56-11.92-47.58-15.58-71.88l1.85.13Z"/>
          <path class="cls-10" d="M301.42,530.44h-14c.54-.98,1.14-2.28,2.4-2.96l13-6.98-1.4,9.94Z"/>
          <path class="cls-13" d="M594.03,522.86l9.21,7.61h-10.61c.2-4.53-2.13-7.11,1.39-7.61Z"/>
          <path class="cls-13" d="M712.7,311.69c1.45,10.07,5.12,20.07,10.94,28.71,14.45,21.48,40.04,28.94,64.08,20.28,3.2-1.15,4.04-2,6.8-4.1l16.55-12.64c2.42,22.02-7.47,42.33-26.1,54.21-11.51,7.34-23.9,11.14-36.5,15.96,8.32,1.89,13.87-2.75,21.47-3.8-3.97,4.74-7.39,9.21-12.22,12.53-20.07,13.81-43.51,17.08-67.91,13.78,5.82,4.36,12.49,1.31,19.41,4.39-21.53,6.3-43.56,9.4-66.54,9.67-13.77-12.06-23.26-28.36-26.19-45.84,1.36-.59,1.64-1.95,1.8-3.42l2-19.12c.18-1.68,1.24-2.36,2.17-2.81.22,5.71,6.46,12.75,12.53,17.62l13.38-36.53c1.4-.57,2.3-1.02,3.16-1.94-1.39-4.54.14-10.21,4.27-12.02l-2.24,6.96c-.47,1.45-.37,2.58.3,3.34l-.23,1.74c-5.71,11.94-12.04,24.48-12.4,38.46l8.6-26.27c.37-1.08,1.19-1.81,1.88-2.23.4,7.86,2.25,15.77,5.27,23.46l5.25-10.9c1.07,4.05,1.23,7.06,3.34,9.92-.39-11.2.54-20.65,4.12-31.6,5.97,14.79,17.07,23.19,31.02,28.1,6.34,2.23,12.57,3.92,18.74-1.22-10.26-22.81-12.65-46.97-8.67-71.64.11-.68-.54-2.54.32-3,.39-.21,1.03-.18,1.61-.04ZM745.49,415.57c.92.03,1.63.25,3.2-.27-.76-.95-1.58-.8-2.77-.73-2.14.13-4.16.12-5.97,2.31,2.35,1.44,4.05-.29,5.53-1.31Z"/>
          <path class="cls-2" d="M712.7,311.69c-.59-.14-1.22-.17-1.61.04-.85.46-.21,2.32-.32,3-3.98,24.67-1.58,48.83,8.67,71.64-6.17,5.14-12.4,3.46-18.74,1.22-13.95-4.91-25.05-13.31-31.02-28.1-3.58,10.95-4.51,20.4-4.12,31.6-2.11-2.85-2.27-5.87-3.34-9.92l-5.25,10.9c-3.02-7.69-4.87-15.6-5.27-23.46l1.92-9.96.23-1.74c4.08-4.38,4.57-13.07,9.8-17.72l-2.95,21.55c-.36,2.62-1.46,5.51.4,8.51,1.65-3.09,1.2-5.39,1.47-7.6,4.05-32.9,19.45-63.13,45.29-84.56,3.09-2.56,5.76-4.93,10.39-5.75-5.47,13.52-7.5,26.87-5.56,40.32Z"/>
          <path class="cls-2" d="M317.32,342.71c-.23-.24-2.12-.32-2.36.12-.49,6.46-1.56,12.62-4.73,18.21l-8.97,15.81c-1.88-2.64-.84-4.94-.67-7.43,1.04-15.24.44-30.25-4.96-45.74.12,14.6-3.33,28.66-10.41,41.75l-15.26-14.05c2.5-13.04,3.68-25.85,2.37-39.1-.43-4.31-1.56-8.21-5.93-9.68,3.59-14.24,2.82-29.31-1.84-43.18-.08-.24-.25-.46-.35-.53-1.1-1.05.52-2.15,1.17-.94.05.04.15.08.28.1,30.04,18.09,48.72,49.82,51.67,84.65Z"/>
          <path class="cls-11" d="M725,334.97c6.76-3.07,16.24-15.59,17.51-22.3.69-3.64-3.69-8.52-.94-10.04l2.34,2.95c9.54,18.21,29.48,29.58,50.03,27.45,8.02-.83,15.07-5.02,18.57-11.38,5.3-.15,8.29-11.37,6.55-19.44-.95-.72-3.56-.99-3.64-2.43l7.46-8.81c5.61,13.92,3.82,29.78-6.08,41.58-3.57-2.53-7.56-3.27-9.96-.21l4.26,6.48c-4.25,3.08-7.89,7.91-13.01,9.35-2.29.64-5.81-.94-8.04,2.14-.47.65-2.67,1.17-2.42,1.85l1.52,4.08c-12.78,5.07-27.55,5.82-40.29.37-10.44-4.79-19.24-11.79-23.85-21.65Z"/>
          <path class="cls-11" d="M235.84,291.59c.13,1.83-.85,3.32-2.16,4.91l-5.13,6.24c2.61,2.09,3.4,4.74,5.19,7.12l10.24,13.63c1.8,2.4,4.41,3,7,2.37-14.11,19.92-37.54,25.64-61.25,17.14-2.44-.88-4.51-1.63-6.73-1.26l-2.19-.89c-.67-8.59-13.14-9.15-21.89-23.1,1.6-.38,3.61-.59,4.5-1.33,2.17-1.8-1.28-5.93-3.95-12.69h2.89c10.94,16.11,8.91,13.83,26.42,13.19s33.16-9.81,44-23.17c1.09-1.34,1.57-2.19,3.06-2.17Z"/>
          <path class="cls-14" d="M250.98,325.88c-2.59.63-5.2.02-7-2.37l-10.24-13.63c-1.79-2.38-2.58-5.04-5.19-7.12l5.13-6.24c1.31-1.59,2.28-3.09,2.16-4.91-.08-1.12.37-1.97.77-2.93,2.05-.16,4.67-3.09,3.26-5.04,4.05-7.84,5.14-16.59,5.27-25.86s1.85-17.49-8.41-19.49c1.05-3,2.03-4.36,4.4-6.33,3.51,3.08,7.22,5.73,9.94,9.67,19.08,27.6,19.05,57.25-.09,84.27Z"/>
          <path class="cls-11" d="M557.72,368.39c2.55-1.52,3.19-3.79,4.01-6.75,2.79-10.07,7.11-19.89,15.23-26.63,1.97-1.64,5.14-1.94,5.61-4.58,7.13-.51,11.83,9.03,11.78,17.68-.08,14.44-5.11,28.63-14.69,39.42-2.39,2.7-6.39,5.43-9.79,4.96-3.88-.53-5.88-4.47-7.73-7.23l-5.42-.74c-4.73-11.07,1.67-13.69,1.7-14.2.03-.54-.29-1.43-.71-1.93Z"/>
          <path class="cls-14" d="M741.57,302.63c-2.75,1.52,1.63,6.4.94,10.04-1.27,6.71-10.75,19.23-17.51,22.3-12.2-18.77-12.4-43.39-2.16-63.72,4.74-9.4,10.25-18.2,19.48-23.17,1.2.35,2.61,3.26,1.99,3.81l-3.04,2.69c-6.53,12.59-6.07,27.15-2.27,40.69.77,2.74.99,5.34,2.59,7.36Z"/>
          <path class="cls-11" d="M410.46,326.06l7.19,6.74c12.43,16.09,6.65,34.51,15.02,30.01.17,4.68.4,10.18-2.07,14.85-.54,1.03-3.25-1.66-3.7-3.33-1.97,3.83-2.35,7.82-5.75,10.97-7.77,7.21-25.48-24.13-18.86-51.69,1.07-4.45,4.56-7.75,8.18-7.56Z"/>
          <path class="cls-10" d="M532.67,365.04c-8.77,2.84-11.82-3.63-18.35-2.82,2.49-18.45,9.72-35.97,23.88-47.79,5.86-4.89,12.91-7.99,19.89-6.78.82,2.43,2,4.46,4.35,6.33-5.37,3.13-9.34,6.23-12.98,11.08l-5.97-1.79c1.22,1.56,3.52,1.88,3.8,2.91.55,1.99-8.67,11.89-12.88,29.14-.81,3.31-1.77,6.08-1.73,9.72Z"/>
          <path class="cls-14" d="M450.29,366.1c-7.66,2.57-8.71,1.02-14.72-.92-.26-13.27-3.56-26.25-11.52-36.66-4.08-5.34-9.45-8.3-16.58-6.45l5.7-9.24c-3.82-.68-4.88,2.2-7.24,4.11-3.67-13.92-3.23-18.43,8.43-26.01-.19,7.85-.66,14.76.93,22.28,7.31-2.84,13.87.02,18.63,5.56,11.13,12.95,16.39,30.21,16.37,47.33Z"/>
          <path class="cls-10" d="M474.1,357.69c-1.75.05-3.04.9-4.42,1.88-4.04,2.9-8.68,2.99-13,3.3-2.12-13.34-5.72-26.4-12.95-38.23l-4.99-6.21c1.41-3.46-.11-5.18-2.58-8.65,4.18,1.07,6.74-1.81,8.72-2.91,6.03.03,10.87,5.61,14.57,10.09,9.75,11.81,13.14,26.18,14.65,40.72Z"/>
          <path class="cls-14" d="M579.56,317.12c.26-.43.79-.38,1.12-.48,2.2,3.57,7.3,5.74,8.17,11.66-6.05-3.18-11.7-2.89-16.75.98-12.98,9.93-18.5,24.56-20.38,40.32-8.22,4.53-9.62.43-15.52.02.73-18.58,10.61-41.55,26.85-51.52,5.47-3.36,11.04-3.92,16.51-.97Z"/>
          <path class="cls-2" d="M643.08,301.56c-15.69-1.48-32.48,14.08-44.77,25.8-1.18,1.12-2.68,1.39-3.93,1.47-.55-1.59-.76-3.22-.09-5.41l3.75-12.24c10.93-14.39,28.13-16.15,21.27-23.6-.33-1.62-2.02-.73-1.16.71-11.33-.42-18.27-10.34-28.77-12.39-2.89-4.86-6.37-9.31-10.13-13.42-.1-.14-.24-.37-.33-.43-1.28-.81.2-2.04.9-.95l.58.18c10.26,3.19,20.12,8.66,28.14,16.49,3.14,3.06,5.16,6.64,9.07,8.98.36-2.07-.75-3.24-1.19-4.83,12.71.15,24.72,8.53,26.68,19.63Z"/>
          <path class="cls-11" d="M474.1,357.69c.4,3.87-1.01,7.38-1.14,10.86-.21,5.78.03,10.54-3.36,16.01-2.19,3.52-3.37,8.15-7.2,10.69-6.83,4.51-14.57,6.66-22.82,4.02l5.94-4.94c12.09-15.91,5.12-31,11.16-31.45,4.32-.32,8.96-.4,13-3.3,1.38-.99,2.68-1.84,4.42-1.88Z"/>
          <path class="cls-13" d="M552.53,429.75l-2.39-21.2c-.71-6.31,11.37,1.2,21.85-8.7l14.32-13.53c2.04,1.32.3,3.04-.29,4.62-4.89,13.02-11.29,25.02-21.9,34-3.47,2.94-7.39,5.55-11.59,4.8Z"/>
          <path class="cls-7" d="M532.67,365.04l.16,15.59c.05,5.41,2.87,10.05,5.24,14.83l-4.25,6.76c-16.72-4.75-21.71-23.66-19.5-40,6.53-.81,9.58,5.66,18.35,2.82Z"/>
          <path class="cls-10" d="M551.71,369.59c-1.52,12.77,3.1,25.94,17.38,27.04-4.29,4.52-9.4,6.29-15.68,5.22-4.31-.73-8.91-3.51-12.08-8.03-5.08-7.25-5.47-15.94-5.14-24.21,5.89.41,7.3,4.51,15.52-.02Z"/>
          <path class="cls-2" d="M393.93,304.95c1.73,5.5,5.89,9.41,5.12,18.45l-15.27-13.78c-9.68-8.74-22.23-13.44-35.11-13.14,6.29-8.69,18.54-9.56,28.49-6.36l-6.1,1.67c8.51,4.03,15.88,7.63,22.87,13.17Z"/>
          <path class="cls-13" d="M423.33,419.74c-12.37-4.51-18.84-24.98-19.95-39.12-.09-1.11.84-1.86,1.7-2.06l9.42,12.26c4.06,5.29,9.7,8.2,15.95,10.12l-7.12,18.8Z"/>
          <path class="cls-10" d="M450.29,366.1c-.02,13.47-5.43,30.25-17.12,30.93-5.06.29-9.54-2.14-12.72-6.34,11.81-1.18,15.35-13.88,15.12-25.51,6.01,1.94,7.07,3.49,14.72.92Z"/>
          <path class="cls-13" d="M570.86,308.03c-13.1-8.21-21.47-1.93-25.6-5.36s-2-15.88,5.35-19.12l8.24,3.97,6.5,5.53,4.78,7.14c1.73,2.58,2.57,5.36.74,7.83Z"/>
          <path class="cls-7" d="M580.69,289.05c-2.87,1.65-5.53,3.64-8.09,6.23-4.27-1.57-5.53-6.36-8.82-8.48l-10.83-6.98c4.82-5.21,7.76-10.28,8.98-17.15,2.72.43,5.8,2.47,6.7,5.14.89,2.65-3,4.48-3.54,6.08-.81,2.39,2.06,3.66,3.45,3.92,1.95.37,4.18-.24,6.61-1.94,3.11,3.61,4.42,8.11,5.56,13.17Z"/>
          <path class="cls-7" d="M430.78,293.92l-8.62-1.59c-1.56-.29-2.6-2.46-3.04-3.48-.62-1.43.74-2.79,1.34-4.2,1.18-2.76,2.94-3.75,6.38-2.91l-1.41-4.99c2.81-3.79,6.13-6.18,10.61-8.93l8.71,16.04c-5.58,3.08-9.71,6.23-13.98,10.06Z"/>
          <path class="cls-7" d="M162.36,303.75h-2.89c-2.89-7.32-1.44-16.12,2-23.58l4.43,4.54c2.32,2.38,2.74,5.13,4.62,7.77l8.71,12.24c-1.08.99-3.48,3.38-2,5.02,2.85-.35,6.62-.97,7.1,3.3-8.16.54-15.74-2.14-19.76-8.86l-3.93-9.88c-1.23,3.39-.11,6.78,1.71,9.46Z"/>
          <path class="cls-7" d="M812.51,321.66c-2.09.06-3.54,1.2-5.31,2.77-4.04,3.58-11.01,5.62-11.9,2.64-.2-.67-.11-2.07.57-2.93l19.54-24.34c.09,1.43,2.69,1.71,3.64,2.43,1.75,8.06-1.25,19.29-6.55,19.44Z"/>
          <path class="cls-13" d="M456.22,308.15c-8.8-7.61-19.96-8.64-30.3-2.96-.6-3.19,2.41-3.27,3.59-4.62,5.11-5.85,10.51-11.83,18.49-13.91,3.8.22,6.75,6.55,6.34,10.11,1.08,3.94,3.17,5.72,1.88,11.39Z"/>
          <path class="cls-13" d="M393.93,304.95c2.06,1.63,5.62,3.1,6.86,5.63,2.59,8.36,2.84,12.66-2.48,20.76-12.91-18.73-28.43-32.56-52.32-30.72-.41-2.47,1.84-2.98,2.68-4.14,12.88-.3,25.42,4.4,35.11,13.14l15.27,13.78c.77-9.04-3.39-12.95-5.12-18.45Z"/>
          <path class="cls-10" d="M580.67,316.64c-.33.1-.86.05-1.12.48l-.6-4.63c-.15-.96.27-1.79,1.07-2.2.26-.13.45-.72.49-1.12.04-.43-.13-.82-.66-.78.04-.25.06-.61-.41-.73,1.15-.21,1.78-.96,1.96-2.08l2.15-13.77c4.01,3.27,9.63,7.23,10.83,12.12,1.43,5.82-1.8,12.76-3.36,18.82-3.53-4.16-6.41-7.35-10.35-6.14Z"/>
          <path class="cls-2" d="M412.82,275.77c-2.93-.75-5.28.71-7.77,2.24l-14.25,8.73-9.28,1.91c7.89-11.82,27.81-22.33,43.51-25.16l-12.21,12.28Z"/>
          <path class="cls-11" d="M501,377.35l.62,11.4c-6.37,3.32-11.07,3.56-17.12-.27.25-2.87.89-6.03-.4-9.31-2.94,0-6.02.04-7.62-2.13,1.86-9.32,9.38,2.16,18.02,2.03,2.2-.03,4.45-1.09,6.5-1.73Z"/>
          <path class="cls-10" d="M161.47,280.17c-3.44,7.46-4.89,16.26-2,23.58,2.67,6.77,6.12,10.89,3.95,12.69-.89.74-2.91.94-4.5,1.33-5.96-9.5-8.19-20.67-5.56-32.3.61-2.69.85-8.65,3.36-9.63,3.63-1.41,3.58,3.13,4.76,4.33Z"/>
          <path class="cls-10" d="M582.58,330.43c-.47,2.64-3.64,2.95-5.61,4.58-8.12,6.75-12.44,16.56-15.23,26.63-.82,2.96-1.46,5.23-4.01,6.75-4.23.75-2.33-4.69-.3-11.85,2.84-10.01,8.27-19.17,16.68-25.37,2.71-2,6.18-2.61,8.48-.74Z"/>
          <path class="cls-14" d="M432.66,362.81c-8.36,4.5-2.58-13.92-15.02-30.01l-7.19-6.74c2.61-3.51,9.45.5,12.83,6.18,5.6,9.43,8.99,19.92,9.38,30.57Z"/>
          <path class="cls-10" d="M583.26,288.57c-1.16-6.31-3.36-12.01-6.57-16.93-.68-1.04.46-4.72-1.77-5.16-3.01-.61-5.37-2.08-8.06-3.85l-2.84-1.88c-.94-.62-.49-4.43.56-4.21,5.52,1.13,9.03,5.82,12.81,9.41,7.67,7.27,12.82,15.92,13.16,27.17-1.75-2.18-4.51-3.46-7.3-4.54Z"/>
          <path class="cls-13" d="M643.08,301.56c.16.94,1.65,3.08.5,3.92-19.97-1.07-35.14,13.89-46.98,29.69l-2.22-6.34c1.25-.08,2.75-.35,3.93-1.47,12.29-11.73,29.08-27.29,44.77-25.8Z"/>
          <path class="cls-13" d="M626.2,363.1c-1-.57-1.62,0-1.92,1.09-5.04,11.25-7.33,22.96-7.88,34.99-.66.28-1.34.14-1.71.08-1.1-7.87-1.57-15.72-1.24-23.53,1.98.13,2.7-1.14,3.41-2.97,2.86-7.42,7.51-13.42,12.45-19.51-.53,4.03-1.9,6.79-3.1,9.84Z"/>
          <path class="cls-13" d="M629.56,311.5c.09.96-.29,2.18-1.38,2.75-9.85,5.07-21.75,17.87-26.17,28.81-.71,1.76-1.87,2.8-3.5,2.61-.3-1.29-1.56-4.13-.84-5.92,9.05-12.84,17.64-22.87,31.9-28.25Z"/>
          <path class="cls-10" d="M606.12,290.95l1.51.76c.38.18.9.39,1.32.4l2.09,3.78-12.58,10.49c-.13-4.32-.55-6.46-3.84-7.83l-1-7.79c5.46-2.83,6.42.97,12.5.19Z"/>
          <path class="cls-13" d="M538.05,434.52c-2.25.31-4.31-.14-6.23-.82l-1.51-27.53c-.07-1.34,3.92-.47,4.85.49,1.2,1.24.53,3.2.7,4.92l2.2,22.93Z"/>
          <path class="cls-13" d="M545.77,433.58c-1.95.29-3.88.39-5.84.18l-2.28-26.19c2.09-.32,3.75-.14,5.84.22l2.27,25.79Z"/>
          <path class="cls-13" d="M412.82,275.77l-5.98,8.93-1.18-.05c-4.85-.23-8.88,3.04-12.95,4.68-3.24,1.31-6.32,2.53-9.74,4.35-.85.46-3.78-1.48-3.83-2.4-.07-1.12,1.85-1.87,2.37-2.64l9.28-1.91,14.25-8.73c2.49-1.53,4.84-2.99,7.77-2.24Z"/>
          <path class="cls-13" d="M618.15,288.3c.94,1.52.47,3.14-.42,4.07-2.95,3.06-5.35-.1-8.78-.25-.42-.02-.94-.22-1.32-.4l.19-1.08-7.3-5.8c-2.45-1.95-5.28-2.63-8.34-2.12-.35-1.95-1.82-5.13-2.81-6.8,10.5,2.04,17.45,11.96,28.77,12.39Z"/>
          <path class="cls-13" d="M440.08,426.72c-2.01.56-4.23.53-5.68-1.17.92-2.22.76-4.71,1.4-7,.82-.73,1.41-1.19,2.06-2.83l4.27-10.87c.52-1.33,4.31-1.03,5.56-.23l-7.61,22.1Z"/>
          <path class="cls-13" d="M435.81,418.55c-1.9,2.07-3.05,5.11-4.02,7.66l-3.18-.68,6.28-18.85c.41-1.23.44-3.13,1.32-3.59.8-.42,3.76.61,3.53,1.45l-3.93,14.01Z"/>
          <path class="cls-10" d="M405.66,284.65v1.05s-.92,1.09-.92,1.09c-3.58,4.22-11.15,2.24-9.94,4.9s4.01,4.47,6.05,5.98l-.8,8.63-10.85-8.28c2.8-2.77,4.17-5.42,3.51-8.69,4.07-1.65,8.1-4.91,12.95-4.68Z"/>
          <path class="cls-10" d="M416.29,287.7l-6.71,2.06c2.82-9.24,9.24-15.81,16.14-22.44,1.32-.61,2.82,1.38,2.18,2.68-4.94,4.94-9.88,10.35-11.61,17.7Z"/>
          <path class="cls-14" d="M622.46,379.49c-.93.45-1.99,1.14-2.17,2.81l-2,19.12c-.15,1.47-.44,2.83-1.8,3.42-1.78-1.45-1.52-3.48-1.81-5.58.38.06,1.05.21,1.71-.08.55-12.03,2.84-23.74,7.88-34.99.3-1.1.92-1.66,1.92-1.09-1.98,5.05-3.46,11.12-3.74,16.39Z"/>
          <path class="cls-7" d="M501.62,388.76l-.62-11.4c1.45-.46,2.7-1.61,4.29-1.53.16,0,7.86,4.49,6.11,7.65-1.85,3.35-7,3.84-9.78,5.29Z"/>
          <path class="cls-11" d="M607.83,290.63l-1.71.32c-6.08.78-7.03-3.01-12.5-.19l-1.43-8.06c3.06-.51,5.89.17,8.34,2.12l7.3,5.8Z"/>
          <path class="cls-13" d="M549.53,428.02l4.22,27.56c.08.5-2.13.85-2.18.37l-.19-2.03-3.85-26.62,2,.73Z"/>
          <path class="cls-7" d="M484.5,388.48c-2.75-1.73-6.97-2.44-9.26-5.27-.65-2.07.85-4.21,1.24-6.17,1.6,2.17,4.68,2.13,7.62,2.13,1.29,3.28.65,6.44.4,9.31Z"/>
          <path class="cls-14" d="M406.25,286.91l-1.5,6.7c-.51,2.26-2.08,3.62-3.89,4.06-2.04-1.5-4.83-3.28-6.05-5.98s6.37-.68,9.94-4.9l1.5.11Z"/>
          <path class="cls-13" d="M427.03,422.12c-3.94,9.92-6.94,19.97-13.13,29.05l11.83-30.8,1.29,1.76Z"/>
          <path class="cls-11" d="M579.44,307.67c.47.12.45.48.41.73l.17,1.9c-.79.41-1.21,1.23-1.07,2.2-.58.45-3.93.41-4.14-1.06-.71-5.16.36-11.28,3.72-15.73,3.11,4.29-.16,8.38.9,11.97Z"/>
          <path class="cls-11" d="M419.43,296.94c4.17-.59,3.44,13.62-.83,11.56-3.04-1.47-3.01-11.01.83-11.56Z"/>
          <path class="cls-13" d="M667.77,325.73c-1,2.19-2.22,4-3.68,6.47l-6.97,11.78c-3.27-1.71,1.82-9.07,5.9-14.88,1.29-1.84,2.58-3.35,4.75-3.37Z"/>
          <path class="cls-14" d="M549.53,428.02l-2-.73-1.5-18.97c-.04-.54.38-.92,1-.8l2.49,20.5Z"/>
          <path class="cls-13" d="M323.63,326.77c-3.32-4.18-7.13-9.44-9.07-14.13,1.62-.03,3.13.68,4.05,2.26l5.91,10.18c.42.73.18,1.71-.89,1.69Z"/>
          <polygon class="cls-10" points="640.56 497.42 639.28 498.47 630.45 483.15 629.8 482.68 630.33 481.33 631.25 482.69 640.56 497.42"/>
          <path class="cls-14" d="M427.03,422.12l-1.29-1.76c2.31-3.97,2.46-8.57,5.88-12.04-.2,5.26-2.85,9.42-4.59,13.79Z"/>
          <path class="cls-14" d="M662.58,361.67c-.27,2.2.18,4.51-1.47,7.6-1.86-3-.76-5.89-.4-8.51l1.88.91Z"/>
          <path class="cls-10" d="M430.95,306.94c.29-.4,1.7-.37,2.2-.24.4.11.97.71.56,1.47-.48.89-1.09.49-1.49.6-1.07.3-2.08-.73-1.28-1.83Z"/>
          <path class="cls-14" d="M315.81,486.53l-.16-1.3,1.17-1.34c.56-.64,2.16-.68,2.05.75-.43,1.16-2.29,1.44-3.07,1.88Z"/>
          <path class="cls-11" d="M236.61,288.66c.77-1.85,1.6-3.69,3.26-5.04,1.41,1.95-1.21,4.88-3.26,5.04Z"/>
          <polygon class="cls-13" points="406.79 285.75 406.25 286.91 404.74 286.79 405.67 285.7 406.79 285.75"/>
          <rect class="cls-11" x="422.88" y="385.77" width=".71" height=".71" transform="translate(-149.06 412.5) rotate(-45.01)"/>
          <polygon class="cls-14" points="406.79 285.75 405.67 285.7 405.66 284.65 406.84 284.7 406.79 285.75"/>
          <path class="cls-11" d="M363.56,404.34c-.49.46-1.23.76-2.49.64l4.54-12.63c4.31-12,6.44-24.3,6.27-36.62-.2-14.31-2.85-28.68-11.24-40.4l-.49-.53c-1.03-.84.34-1.92.95-.83l.44.51c18.74,21.95,14.89,63.82,2.02,89.85Z"/>
          <path class="cls-14" d="M364.11,391.78l-.53-15.06c-.16-4.42-1.43-8.47-.44-13.17,1.8,3.36,1.23,7.15,1.87,10.95,1.02,6.09,1.46,11.75-.89,17.27Z"/>
          <path class="cls-14" d="M319.71,483.19c.04-2.08,2.36-2.01,3.94-2.34-.55.86-1.2,2.91-3.94,2.34Z"/>
          <rect class="cls-14" x="324.94" y="479.67" width=".71" height=".71" transform="translate(-244.18 370.74) rotate(-45.01)"/>
          <rect class="cls-4" x="355.92" y="336.82" width=".71" height=".71" transform="translate(-134.06 350.79) rotate(-45.01)"/>
          <rect class="cls-4" x="632.76" y="343.81" width=".71" height=".71" transform="translate(-57.88 548.64) rotate(-45.01)"/>
          <rect class="cls-10" x="628.76" y="479.67" width=".71" height=".71" transform="translate(-155.14 585.62) rotate(-45.01)"/>
          <path class="cls-14" d="M651.71,368.63c-.69.43-1.51,1.16-1.88,2.23l-8.6,26.27c.36-13.98,6.69-26.52,12.4-38.46l-1.92,9.96Z"/>
          <path class="cls-14" d="M745.93,414.57l-.44,1c-1.48,1.02-3.18,2.75-5.53,1.31,1.81-2.19,3.83-2.18,5.97-2.31Z"/>
          <path class="cls-4" d="M745.49,415.57l.44-1c1.19-.07,2-.22,2.77.73-1.57.52-2.28.31-3.2.27Z"/>
          <path class="cls-4" d="M580.02,310.3l-.17-1.9c.53-.04.7.35.66.78-.04.4-.23.98-.49,1.12Z"/>
          <polygon class="cls-4" points="607.63 291.71 606.12 290.95 607.83 290.63 607.63 291.71"/>
        </g>
        <g>
          <path class="cls-6" d="M523.05,147.91c1.22,1.35,3.04.89,4.62.93,2.12.05,3.62,2.25,5.08,3.92l14.03,16.02c3.59,4.1,6.94,8.6,12.12,10.04l-.29,3.76c-.16,2.13-.7,4.27.8,6.55l5.14,7.87c.54.82,1.33,1.16,2.15,1.14l-.05,12.58c-1.21.36-.67,1.59-.63,2.3l.52,9.68-7.3,36.49c-1.59,7.97-5.68,14.81-11.61,20.61-10.72,10.49-21.57,21.36-34.77,29.03-7.43,4.31-17.49,1.64-25.65,1.55-13.64-8.59-39.92-26.55-44.41-38.9-5.27-14.5-10.6-29.17-12.02-44.53l-1.29-13.99c-.05-.56-.19-.95-.7-1.23-.17-1.48-.06-3.01.3-4.44.54.34,1.07-.09,1.2-.74,1.53-7.99,12.81-23.67,20.18-30.05,1.43-1.24,2.38-3.22,4.55-2.88-.52,3.11-.45,7.46.35,10.21.56,1.9-.77,6.65,3.41,6.26,8.72-.83,16.5-13.11,25.93-16.41-.43,1.11-.25,3.15-1.04,4.12s-1.63,1.6-1.77,2.7c-.15,1.16.38,2.66,1.77,2.55.96-.08,1.27-1.65,1.1-2.07,1.88.16,2.52-1.84,3.22-2.77,3.1-.94,7.03-2.46,9.4-5.65,3.89-5.24,9.04-8.86,13.44-13.54l10.16-10.8c.42-.36,1.47-.39,2.05-.32ZM518.92,220.82c-1.18,5.73,2.08,13.51,8.38,15.01,7.13,1.7,19.48-2.43,21.52-11.41,2.55-1.7,4.74-6.06,3.46-9.13-1.86-4.44-5.98-6.36-11.09-7.82l15.81-7.37c-2.81-4.38-4.68-8.32-8.26-11.77l-27.61,15c-4.07,2.21-7.64,4.47-12.42,5.64.56,3.38,1.64,7.46,4.58,9.03l5.65,2.83ZM448.12,228.62c2.6,5.58,6.25,9.02,12.74,10.1,3.94.65,8.81,1.76,12.15-1.78,2.95-3.13,3.89-8.26,3.71-12.15,1.74.04,4.1.22,5.54-1.34.64-.7.97-1.68,1.05-2.4.09-.77-.94-1.51-1.87-1.45l.04-1.76c.45.03,2.18.29,2.98-.56,2.42-2.6,3.41-8.13.77-10.85-.1,3.91.52,8.33-3,9.16.59-1.12,1.74-3.79.94-5.13l-38.08-17.86c-2.97,4.01-5.23,7.7-6.8,12.41l15.8,6.39c-4.93,1.33-7.93,3.93-9.77,8.25-1.37,3.21,1.25,7.5,3.81,8.98ZM509.42,216.91l-3.63-11.7c-1.52,4.61-.33,9.7,3.63,11.7ZM497.42,262.93l-2.26-9.59c-.29-6.94,1.13-13.82-1.96-21.1l-4.44,20.74c-1.06,4.96,4.25,10.1,8.66,9.95ZM487.75,277.9l21.95-2.31c11.63-1.22,20.88-7.58,18.26-10.49-3.22-3.58-2.36,4.58-13.86,7.21-9.98,2.28-20.03,2.99-30.28,3.32-6.66.22-10.39-7.52-10.91-3.21-.45,3.7,7,6.3,14.84,5.47Z"/>
          <path class="cls-9" d="M510.59,350.74c-2.67.95-6.47,1.65-6.88,5.01l-4.83,3.21c-1.64,1.09-3.49,4.21-6.07,2.8-3.85-2.1-5.92-7.06-8.25-9.86-1.81-2.29-4.85-2.92-7.92-4.34-2.38-13.43-7.3-25.6-16.32-35.73l-.32-15.27,13.96,15.34c-.54,2.21.24,4.45,1.05,6.65,2.33,6.31,3.29,12.69,7.29,18.28-.97-8.88-6.67-16.54-7.41-24.67l7.05,4.23c21.61,12.98,33.93-1.92,49.54-15.86l8.05-7.18-1.1,16.07c-12.5,9.09-20.39,22.41-24.87,37.1-.61,1.99-1.14,3.55-2.97,4.2Z"/>
          <path class="cls-9" d="M418.15,216.92c-2.06-3.06-4.88-5.65-9.76-6.23.13,3.77-.98,7.27.14,11.33,2.1-2.12.56-5.25,2.47-8.43,9.49,7.37,8.41,15.74,11.32,10.15l4.68,7.75c1.95,3.23,1.89,7.28,2.47,10.95-5.46-3.58-8.65-7.78-6.84-13-2.21.93-2.43,3.06-1.94,5.37,1.07,5.03,5.24,8.38,10,9.94l2.16,9.56c-9.43.33-21.75-12.63-25.84-21.79-3.81-8.51-4.93-17.96-.99-26.34,1.29-2.74,5.8-4.97,7.82-2.52,2.75,3.32,3.58,8.01,5.23,11.97,0,.5.18.65.36.78.25.18.41.48.51.78.08.25.35.4.41.41,1.24,1.58-.44,1.23-.5,1.87-.39-.94-.68-1.31-.76-1.4l-.6-.65-.34-.51Z"/>
          <path class="cls-6" d="M484.56,351.9c2.33,2.79,4.4,7.75,8.25,9.86,2.58,1.41,4.43-1.71,6.07-2.8l4.83-3.21c2.14-1.42,4.58-2.5,7.24-3.03.83,3.29-.61,6.7-.68,10.07-.53-.25-2.23-.36-2.77.59-1.52,2.63-1.75,5.64-1.86,8.31-3.53,1.4-7.28,4.46-12.18,3.91s-12.85-4.67-14.87-9.31l-1.56-16.62,7.53,2.24Z"/>
          <path class="cls-9" d="M456.04,170.91c-.81-.36-1.16.17-1.15.61v1.78c0,.11.15.25.14.33-2.17-.34-3.12,1.64-4.55,2.88-7.37,6.38-18.64,22.06-20.18,30.05-.12.65-.65,1.08-1.2.74-1.84-1.95-1.87-4.66-.1-7.33.81-1.3,2.73-3.26,2.53-5.06l-2.12-19.33c10.61-4.43,19.67-10.33,29.47-17.1l-2.84,12.44Z"/>
          <path class="cls-12" d="M570.64,164.14c-.56.1-1.86.02-2.67-.63l-9.35-7.55c-6.34-12.33-17.2-7.19-17.98-10.65-.48-2.14,3.77-2.06,2.97-3.86-.95-2.14-5.67,2.2-12.27,1.85l6.76-8.03c.32-.38.71-1.44.68-1.81-.03-.34-.88-.58-1.13-.64,3-2.46,10.43-2.85,13.5.33l3.35,5.55c4.79,3.2,10.62-.52,12.15,2.75,1.29,2.75-7.36,3.52-6.95,5.32,1.63,7.2,7.06,12.03,10.94,17.37Z"/>
          <path class="cls-12" d="M427.16,220.49c-4.37.94-3.42-3.62-4.4-5.73-4.66-10.06-9.43-19.23-12.29-29.88-.44-1.63.56-2.98,2.02-3.48l12.29-4.12c2.96,2.68,1.63,7.03,2.46,9.92,1.5,5.24.26,8.31-1.06,12.9-1.75,6.11-.15,13.31.97,20.39Z"/>
          <path class="cls-9" d="M519.63,147.09c.44.17.91.65,1.37,1.15l-10.16,10.8c-4.4,4.68-9.55,8.3-13.44,13.54-2.37,3.2-6.3,4.72-9.4,5.65,2.16-10.33,7.11-19.87,12.59-29.53,5.36-.82,10.63-.56,15.66.08.18-1.13.82-2.65,1.37-2.44l2.01.76Z"/>
          <path class="cls-9" d="M554.46,160.04l.25,7.05c.18,5.06,4.7,5.08,4.19,11.74-5.18-1.44-8.53-5.94-12.12-10.04l-14.03-16.02c-1.46-1.67-2.96-3.88-5.08-3.92,1.21-1.74,3.28-2.54,6.25-2.86-3.49,4.71,8.56,1.91,19.65,5.82l.89,8.23Z"/>
          <path class="cls-9" d="M589.43,211.9c-.09,8.96-2.96,16.31-9.16,23.51-2.15,2.5-4.54,4.09-3.33,7.76-2.62,2.66-5.44,5.65-10.55,4.62l1.33-10.09c3.75.41,6.2-2.45,7.87-4.69,5.75-7.71-4.71-16.85,6.2-18.89-1.13-2.32-.84-3.6-.08-4.83.82-1.32,3.18-4.33,4.83-2.52,1.14,1.36.78,5.06,2.91,5.13Z"/>
          <path class="cls-9" d="M484.72,173.68c-9.43,3.31-17.21,15.59-25.93,16.41-4.18.4-2.85-4.36-3.41-6.26,2.22-.27,4.52-.6,6.31-2.09l29.2-24.18-6.17,16.11Z"/>
          <path class="cls-6" d="M576.94,243.17c-1.21-3.67,1.19-5.26,3.33-7.76,6.2-7.21,9.07-14.56,9.16-23.51.02-2.17-.54-6.94-2.52-8.19-4.45-2.84-7.49,6.66-11.56,9.04l3.8-13.48c.71-2.43,3.69-4.14,5.83-3.99,9.56.65,11.76,27.77-1.54,41.28l-6.51,6.62Z"/>
          <path class="cls-3" d="M589.43,211.9c-2.13-.07-1.77-3.77-2.91-5.13-1.65-1.8-4.01,1.2-4.83,2.52-.76,1.23-1.05,2.5.08,4.83-10.91,2.04-.44,11.18-6.2,18.89-1.67,2.24-4.12,5.09-7.87,4.69l.4-2.06c2.46.6,3.65-1.42,5.21-3.15,3.75-4.16,3.6-9.72-.6-13.01-.08-2.22.58-5.52,2.63-6.73,4.07-2.39,7.11-11.88,11.56-9.04,1.97,1.26,2.54,6.02,2.52,8.19Z"/>
          <path class="cls-12" d="M523.05,147.91c-.58-.07-1.63-.05-2.05.32-.46-.49-.93-.98-1.37-1.15-.39-4.6-4.95-7.41-10.1-7.24l2.66,3.04c-1.97,3.11-5.52,2.46-7.44.5l9.08-9.86c5.48,3.08,11.4,10.63,9.22,14.39Z"/>
          <path class="cls-9" d="M568.11,235.64l2.07-10.35c.44-2.2,2.63-3.59,2.54-5.81,4.2,3.29,4.34,8.85.6,13.01-1.56,1.73-2.75,3.75-5.21,3.15Z"/>
          <path class="cls-14" d="M473.96,311.91c.16.23.7.12.94.26.73,8.13,6.43,15.79,7.41,24.67-4-5.59-4.97-11.97-7.29-18.28-.81-2.2-1.59-4.44-1.05-6.65Z"/>
          <path class="cls-3" d="M554.71,167.08l-.25-7.05c1.16-.47,4.38-.55,4.77,1.03.89,3.64.32,7.01.3,10.82-3.22-1.69-2.19-5.65-4.83-4.81Z"/>
          <path class="cls-9" d="M566.7,198.15c-.82.02-1.61-.32-2.15-1.14l-5.14-7.87c-1.49-2.29-.96-4.42-.8-6.55.27,1.68,1.07,3.39,2.34,4.95l5.34,6.56c1.55,1.91.42,2.78.41,4.05Z"/>
          <path class="cls-9" d="M510.27,362.8c-.04,1.8.49,4.13-.43,6.09-.75,1.59-2.88,2.28-4.2,2.8.11-2.66.33-5.68,1.86-8.31.55-.94,2.24-.84,2.77-.59Z"/>
          <path class="cls-14" d="M510.59,350.74c.01.58.2,1.38.35,1.99-2.65.52-5.1,1.61-7.24,3.03.42-3.36,4.21-4.07,6.88-5.01Z"/>
          <path class="cls-9" d="M484.78,180.99c.17.41-.15,1.99-1.1,2.07-1.39.11-1.93-1.39-1.77-2.55.15-1.1,1.01-1.76,1.77-2.7.81.98,1.06,2.11,1.1,3.19Z"/>
          <path class="cls-3" d="M566.02,213.03c-.04-.71-.58-1.94.63-2.3.35.28,1.07.93.91,1.46-.21.67-.98.89-1.54.83Z"/>
          <path class="cls-6" d="M454.89,173.31v-1.78c0-.44.34-.97,1.15-.61-.2.87-.6,1.7-1.15,2.39Z"/>
          <path class="cls-9" d="M429.5,212.97c-.23-.3-.65-.79-.7-1.23.51.28.65.68.7,1.23Z"/>
          <g>
            <path class="cls-5" d="M215.21,146.93c-.23,3.71.91,7.35,3.05,10.42-1.61,1.41-4.34,1.77-5.46,3.78,1.3.26,2.54.8,2.66,1.29s-1.06,1.36-.18,2.78c6.66-4.71,13.36-9.74,18.19-16.61,2.02-2.87,2.89-6.51,4.11-9.84,5.15-14.11,16.97-25.26,32.1-26.89,8.46-.91,16.9,3.9,17.68,12.32.47,5.03-3.14,9.24-6.76,12.5-14.77,13.3-24.42,30.04-26.69,50.09-2.37,20.97-11.73,39.19-26.94,53.15-1.98-.25-3.64.48-5.35,1.63-9.75,6.56-20.81,9.93-32.87,8.63-8.65,9.24-19.69,13.29-32.2,14.07-1.79.11-3.82-.06-4.79,1.71-22.02-4.74-31.2-19.12-43.4-36.67-5.21-7.5-9.05-15.9-15.55-22.26-2.51-2.46-5.49-5.95-7.1-8.73l-37.83-16.3c-14.65-6.31-37.61-16.6-42.22-29,5.04-3.63,10.63-5.36,16.88-5.71l16.96-1.31c2.34,1.11,4.96,2.51,7.35,3.46-.1,2.45,1.27,3.35,3.3,4.22l39.06,16.98c-.73,3.05-2.38,5.77-1.69,9.38l4.44-10.24,6.19-11.44c-1.29-.08-3.03-.11-4.3-1.43l-54.4-56.42c-6.99-7.25-13.27-14.33-17.91-23.08-4.04-7.62-2.07-17.56,6.26-20.62,5.59-2.05,11.38,1.03,15.63,4.7,8.86,7.66,16.46,15.97,24.63,24.31l2.91,2.97c-.2,2.07.82,3.38,2.23,4.96l37.31,41.53c1.26,1.4,2.01,2.56,3.76,2.83l-3.58,4.13c-2.34,2.7-5.41,4.83-6.89,8.76l8.13-7.8,14.56-11.16c-3.38-.55-3.35-1.45-4.44-3.43l-43.9-79.79c-7.84-14.26-16.86-31.49-4.63-39.63,10.5-6.99,20.96,3.77,27.74,15.6l30.95,53.93c-.81,3.16,1.12,5.63,2.5,8.42l13.58,27.41c.92,1.86.9,3.86.52,5.4-4.12,1.44-8.87,2.29-12.95,6.2l15.06-5.14,18.77-3.93,10.23-1.75c-3.3-.68-7.52-.62-10.06-.21-1.09.18-3.8.71-5.17-.18l-19.35-74.44c-3.54-13.62-7.56-31.06,3.99-35.7,11.87-4.77,19.86,8.45,24.47,21.48,6.76,19.12,11.61,38.31,16.88,57.94l7.58,28.26c1.37,5.12,13.74,30.58,16.93,34.46ZM202.42,163.2c-7.62-.31-12.24,4.81-19.27,7.93.36-5.71,5.23-9.82,8.15-15.32-25.63,4.64-47.59,20.29-59.56,42.16,10.4-6.52,18.08-13.2,29.38-15.34-6.63,15.98-2.91,28.23,7.04,41.6-3.58-26.14,11.55-49.55,34.26-61.04Z"/>
            <path class="cls-9" d="M226.98,239.93l-9.55,8.77c6.59-1.1,10.13-5.17,15.29-8.52l8.22,16.68c.77,28.98-21.51,52.67-50.01,56.28l-10.26-14.24-21.08-29.02-7.82-3.91c.98-1.77,3-1.6,4.79-1.71,12.52-.78,23.56-4.83,32.2-14.07,12.06,1.3,23.13-2.07,32.87-8.63,1.71-1.15,3.36-1.88,5.35-1.63Z"/>
            <path class="cls-9" d="M39.52,145.99l-16.96,1.31c-6.25.35-11.84,2.08-16.88,5.71-1.6-4.29-2.05-9.5,1.32-13.49,3.16-3.75,8.82-4.82,13.74-2.47l18.79,8.94Z"/>
            <path class="cls-9" d="M114.28,138.1c-1.75-.27-2.5-1.43-3.76-2.83l-37.31-41.53c-1.41-1.57-2.43-2.88-2.23-4.96l20.95,21.15,25.2,25.8c-.22,1.51-2.23,1.84-2.84,2.36Z"/>
            <path class="cls-9" d="M90.75,169.02c-.43.42-1.38,1.03-1.53,1.63l-39.06-16.98c-2.03-.87-3.4-1.76-3.3-4.22l40.41,16.11,2.66.84c.84.27,1.07,1.69.82,2.61Z"/>
            <path class="cls-9" d="M151.16,119.77c-.65.08-1.66-.06-2.33.17.38-1.54.4-3.54-.52-5.4l-13.58-27.41c-1.38-2.79-3.32-5.26-2.5-8.42l22.52,38.64c-2.16.98-3.06,1.54-3.59,2.42Z"/>
            <path class="cls-14" d="M148.83,119.94c.67-.23,1.68-.09,2.33-.17-.16.27-.23.64-.22,1.23l-15.06,5.14c4.08-3.91,8.83-4.76,12.95-6.2Z"/>
            <path class="cls-9" d="M218.26,157.35c-2.14-3.06-3.29-6.71-3.05-10.42l6.51,7.9c.11,1.99-2.67,1.82-3.46,2.51Z"/>
            <path class="cls-3" d="M91.97,169.79l-4.44,10.24c-.69-3.6.97-6.33,1.69-9.38.15-.61,1.1-1.21,1.53-1.63.31.29.65.51,1.22.77Z"/>
            <path class="cls-3" d="M111.94,143.18l-8.13,7.8c1.48-3.93,4.56-6.06,6.89-8.76l1.24.96Z"/>
            <path class="cls-14" d="M169.7,117.08l.18-1.96c2.53-.41,6.76-.47,10.06.21l-10.23,1.75Z"/>
            <path class="cls-9" d="M202.42,163.2c-22.71,11.49-37.84,34.89-34.26,61.04-9.95-13.37-13.66-25.62-7.04-41.6-11.3,2.14-18.98,8.82-29.38,15.34,11.97-21.88,33.92-37.52,59.56-42.16-2.92,5.49-7.79,9.61-8.15,15.32,7.03-3.12,11.65-8.24,19.27-7.93Z"/>
          </g>
          <g>
            <path class="cls-6" d="M832.72,147.02c-4.43-1.81-9.12-4.22-14.77-3.28l14.83,5.32,11.53,5.36,12.65,7.5c-2.54-4.64-7.33-6.94-11.61-8.86-.69-.72-1.04-1.7-.91-2.53.19-1.17,1.5-1.71,2.19-2.48l21.25-23.72,44.41-47.38c6.85-7.31,16.94-12.43,24.41-6.92,6.58,4.86,5.64,15.56-.21,22.94l-19.04,24-44.78,51.98c-1.53,1.78-2.35,3.01-5.44,3.03l8.19,11.42c1.46-1.3,1.33-2.42,1.64-4.03l57.58-35.24c8.78-5.37,18.37-11.04,25.51-6.61,6.13,3.8,6.56,14.17-.73,21.46-9.62,9.62-20.39,17.33-31.62,25.27l-41.43,29.29c-2.5,1.77-.65,6.61-1.24,9.09l-4.35,18.2c.46-.11.9-.18,1.34-.11l3.65-12.19c.6-2.02.47-4.15,2.59-4.9,1.78.53,3.77.7,5.62.57,1.08-.08,2.11-.14,3.19-.09,1.3.05,2.59.17,3.87.35,2.08.29,4.24.25,6.37.52l7.89.67c4.46.38,9-.13,13.46.53,2.17.32,4.32.92,6.25,1.99,5.26,2.91,5.53,9.67,2.03,14.32s-9,6.65-14.84,7.18l-38.72,3.51c-1.17.11-2.72.29-3.32-.33-.47-.49-.57-1.78-1.29-3.15-2.41,3.62-4.64,7.1-9.25,8.18-8.51,8.85-17.84,16.42-28.33,22.68-5.77,3.45-11.85,4.87-17.77,6.43-.24-.88-.89-1.49-2-1.57-14.01-.5-27.08-6.35-32.74-18.73-12.15.32-23.02-3.74-31.98-11.23-1.01-.84-2.4-.85-3.3-.73-10.12-12.5-16.82-27.01-17.06-43.98-.31-21.05-7.51-39.6-21.72-55.01-5.73-6.21-6.5-15.13.11-20.58,4.98-4.11,11.77-4.66,17.67-2.37,15.07,5.85,23.61,19.05,26.98,34.43,1.9,8.64,10.67,15.6,19.07,16.85-2.34-2.88-5.75-4.54-6.97-7.96,8.6-7.49,15.17-16.42,21-26.11l6.59-8.3,41.46-72.47c6.05-10.58,13.24-19.98,22.76-27.14,4.8-3.61,11.45-3.4,15.67-.29,10.32,7.59,1.95,22.07-5.08,34.6l-15.48,27.59-22.68,41.26c-.85,1.54-1.65,2.29-3.07,1.81ZM857.97,161.87l-.02.65v.67l.02.65.02-.65v-.67l-.02-.65ZM802.01,185.83l-.5.5.5.5.5-.5-.5-.5ZM800.53,195.73h-1.4s-.54,1-.54,1c6.52,7.15,10.92,18.81,11.79,28.99.72,8.35-.5,15.77-3.96,24.39,12.2-7.88,18.39-21.08,14.84-35.71,9.46,2.99,16.33,9.23,22.6,15.48l.98-.76c-7.68-18.79-21.76-34.78-41.89-42.97l3.57,13.04c-2.11-1.98-3.6-3.45-6-3.46ZM884.01,202.94c-.39-5.74-1.35-12.17-6.04-16.18l6.04,16.18ZM791.01,188.83l-.5.5.5.5.5-.5-.5-.5ZM794.63,190.83c0-.61-.5-1.11-1.11-1.11s-1.11.5-1.11,1.11.5,1.11,1.11,1.11,1.11-.5,1.11-1.11ZM796.01,191.83l-.5.5.5.5.5-.5-.5-.5ZM797.4,195.42c.74,1.28,2.11-.15.71-.86l-.71.86ZM845.33,229.59l-.63,1.38c-.33-.62.88-.59.63-1.38Z"/>
            <path class="cls-9" d="M823.53,286.98c-4.15,1.1-7.26,4.24-10.02,7.76l-27.05,34.53c-29.04-2.14-48.31-28.97-46.03-57.31l8.6-15.96c6.31,5.39,11.05,10.24,18.7,11.7-5.46-4.3-10.25-8.06-14.22-12.97.91-.12,2.3-.11,3.3.73,8.96,7.49,19.82,11.55,31.98,11.23,5.67,12.37,18.74,18.23,32.74,18.73,1.12.08,1.76.69,2,1.57Z"/>
            <path class="cls-3" d="M888.35,223.62c-2.12.76-1.98,2.89-2.59,4.9l-3.65,12.19c-.44-.07-.88,0-1.34.11l4.35-18.2c1.88-.81,2.43.75,3.22.99Z"/>
            <path class="cls-14" d="M832.72,147.02l.06,2.03-14.83-5.32c5.65-.94,10.34,1.47,14.77,3.28Z"/>
            <path class="cls-3" d="M844.31,154.42c.8-.28,1.07-.8,1.04-1.35,4.28,1.92,9.08,4.22,11.61,8.86l-12.65-7.5Z"/>
            <path class="cls-3" d="M800.53,195.73c5.81,9.42,10.57,16.41,10.89,28.99.02.83-.51,1.23-1.03,1-.87-10.17-5.27-21.83-11.79-28.99l-1.19-1.31c.74,1.28,2.11-.15.71-.86l1.02,1.16h1.4Z"/>
            <path class="cls-14" d="M884.01,202.94l-6.04-16.18c4.69,4.01,5.64,10.44,6.04,16.18Z"/>
            <circle class="cls-9" cx="793.51" cy="190.83" r="1.11"/>
            <polygon class="cls-3" points="857.97 161.87 857.99 162.52 857.99 163.2 857.97 163.85 857.96 163.2 857.96 162.52 857.97 161.87"/>
            <path class="cls-9" d="M810.38,225.71c.52.24,1.05-.17,1.03-1-.32-12.58-5.08-19.57-10.89-28.99,2.4,0,3.89,1.47,6,3.46l-3.57-13.04c20.14,8.19,34.21,24.18,41.89,42.97.04.1.18.29.48.48.25.79-.96.76-.63,1.38l-.84-1.1c-6.26-6.25-13.14-12.49-22.6-15.48,3.55,14.63-2.64,27.83-14.84,35.71,3.46-8.62,4.67-16.04,3.96-24.39Z"/>
            <rect class="cls-9" x="790.66" y="188.98" width=".71" height=".71" transform="translate(97.9 614.94) rotate(-45.01)"/>
            <rect class="cls-9" x="795.66" y="191.97" width=".71" height=".71" transform="translate(97.25 619.35) rotate(-45.01)"/>
            <rect class="cls-9" x="801.65" y="185.98" width=".71" height=".71" transform="translate(103.24 621.84) rotate(-45.01)"/>
          </g>
          <path class="cls-4" d="M548.82,224.43c.48-2.12.42-4.03.27-6.35-.3-4.6-5.64-6.49-9.64-5.88l.93,4.38c1.01,4.74-.89,16.39-6.59,18.11-2.61.79-5.83.8-7.63-1.41-3.72-4.58-4.39-10.47-3.67-16.4-1.89.28-3.13,1.85-3.57,3.96l-5.65-2.83c-2.94-1.57-4.02-5.65-4.58-9.03,4.79-1.16,8.35-3.42,12.42-5.64l27.61-15c3.58,3.45,5.45,7.4,8.26,11.77l-15.81,7.37c5.11,1.46,9.23,3.38,11.09,7.82,1.29,3.07-.91,7.43-3.46,9.13Z"/>
          <path class="cls-4" d="M482.21,215.59c-.6.16-.73,1.64-.75,2.25l-.04,1.76c-1.69,1.13-3.48.76-5.94.03-1.41.03-.92,2.39-.87,3.32.36,7.85-2.06,15.05-8.59,15.52-6.06.43-10.9-10.85-9.98-17.84l.71-5.37c-5.3-.35-9.37,2.7-9.6,7.1-.12,2.27.08,4.34.97,6.25-2.57-1.47-5.18-5.77-3.81-8.98,1.84-4.32,4.84-6.92,9.77-8.25l-15.8-6.39c1.57-4.71,3.83-8.4,6.8-12.41l38.08,17.86c.8,1.34-.36,4.01-.94,5.13Z"/>
          <path class="cls-1" d="M540.38,216.57l8.71,1.51c.15,2.32.21,4.23-.27,6.35-2.04,8.98-14.4,13.11-21.52,11.41-6.3-1.5-9.56-9.28-8.38-15.01.43-2.11,1.68-3.68,3.57-3.96-.72,5.92-.05,11.82,3.67,16.4,1.8,2.21,5.02,2.2,7.63,1.41,5.7-1.72,7.6-13.36,6.59-18.11Z"/>
          <path class="cls-3" d="M487.75,277.9c-7.84.82-15.29-1.78-14.84-5.47.52-4.31,4.25,3.43,10.91,3.21,10.25-.34,20.3-1.04,30.28-3.32,11.5-2.63,10.64-10.79,13.86-7.21,2.62,2.91-6.64,9.26-18.26,10.49l-21.95,2.31Z"/>
          <path class="cls-1" d="M456.04,220.64c-.92,6.99,3.92,18.28,9.98,17.84,6.53-.47,8.95-7.67,8.59-15.52.87.07,2.05.85,2.1,1.83.18,3.89-.76,9.02-3.71,12.15-3.34,3.54-8.21,2.43-12.15,1.78-6.49-1.08-10.13-4.52-12.74-10.1-.89-1.9-1.09-3.98-.97-6.25,3.03-.23,5.62-2.03,8.89-1.73Z"/>
          <path class="cls-9" d="M497.42,262.93c-4.42.15-9.73-4.99-8.66-9.95l4.44-20.74c3.09,7.28,1.67,14.16,1.96,21.1l2.26,9.59Z"/>
          <path class="cls-9" d="M481.43,219.61c.94-.06,1.96.68,1.87,1.45-.08.72-.41,1.7-1.05,2.4-1.44,1.56-3.79,1.38-5.54,1.34-.05-.98-1.23-1.76-2.1-1.83-.04-.93-.54-3.29.87-3.32,2.46.73,4.26,1.09,5.94-.03Z"/>
          <path class="cls-9" d="M481.46,217.84c.01-.62.14-2.09.75-2.25,3.52-.83,2.89-5.25,3-9.16,2.64,2.72,1.65,8.25-.77,10.85-.8.86-2.52.59-2.98.56Z"/>
          <path class="cls-9" d="M509.42,216.91c-3.96-2-5.14-7.08-3.63-11.7l3.63,11.7Z"/>
          <path class="cls-2" d="M549.09,218.08l-8.71-1.51-.93-4.38c4-.61,9.34,1.28,9.64,5.88Z"/>
          <path class="cls-8" d="M456.04,220.64c-3.27-.3-5.87,1.5-8.89,1.73.23-4.4,4.3-7.45,9.6-7.1l-.71,5.37Z"/>
        </g>
      </g>
    </g>
  </g>
</svg>