<?xml version="1.0" encoding="UTF-8"?>
<svg id="Capa_2" data-name="Capa 2" xmlns="http://www.w3.org/2000/svg" viewBox="0 0 1261.14 774.87">
  <defs>
    <style>
      .cls-1 {
        letter-spacing: .81em;
      }

      .cls-2 {
        fill: #eaebeb;
      }

      .cls-3 {
        font-size: 21px;
      }

      .cls-4 {
        fill: #fff;
        font-family: EricaOne-Regular, 'Erica One';
        opacity: .99;
      }

      .cls-5 {
        letter-spacing: -.02em;
      }

      .cls-6 {
        letter-spacing: .81em;
      }

      .cls-7 {
        fill: #030304;
      }

      .cls-8 {
        letter-spacing: .56em;
      }

      .cls-9 {
        fill: #040505;
      }

      .cls-10 {
        letter-spacing: .56em;
      }

      .cls-11 {
        font-size: 36px;
      }

      .cls-12 {
        letter-spacing: -.02em;
      }
    </style>
  </defs>
  <g id="Capa_1-2" data-name="Capa 1">
    <g>
      <g>
        <g>
          <g>
            <path class="cls-2" d="M1008.63,356.21c-5.75-11.52-8.66-24.03-11.78-36.89-12.59-13.58-22.29-28.54-28.64-45.64-11.47-8.59-20.31-19.23-26.77-31.7-8.02-15.81-11.72-36.44,1.63-47.68,9.7-8.18,22.6-6.16,30.15,3.81l18.35,24.21,35.67,42.07,11.42,13.58c-.8-5.94-.5-11.76-2.98-16.3-10.79-19.75-21.2-51-12.23-70.63,5.63-12.32,19.85-17.85,31.85-11.03,4.95,2.81,8.14,8.3,10.25,13.52l13.06,32.36,12.7,31.77,13.92,39.23c-.22-21.34-4.77-48.64,11.17-60.9,6.08-4.68,13.45-6.33,20.93-3.55,6.1,2.27,11,8.52,12.31,16.03l.54,11.36,6.43,56.49c4.21,36.94-6.44,58.72-5.38,85.29l5,41.45,2.12,88.78c9.63,3.35,18.48,8.03,25.08,15.79l19.19,22.57,46.08,49.29c4.96,5.3,10.31,10.7,11.29,18.17,6.26,47.47-13.35,98.07-54.06,124.02-20.31,12.94-43.05,15.93-66.3,10.31-26.58-6.42-51.78-15.67-75.68-28.95-16.73-4.69-29.85-15-38.64-29.93-20.23-35.43-15.82-77.18,2.08-112.9-13.16-4.27-24.74-10.15-36.37-17.03-14.94-8.84-27.25-20.33-38.55-33.53-12.34-14.42-25.99-25.9-42.08-35.78-9.08-5.57-15.64-13.16-19.76-22.78-1.8-4.22-3.3-8.5-6.05-12.11l-61.48,145.61c13.53,16.08,15.24,38.86,4.42,56.37-8.94,14.48-24.23,23.25-40.69,23.08-16.89-.18-32.09-8.96-40.84-24.01-13.66-23.49-5.02-54.03,18.81-67.03,19.23-10.49,41.81-6.51,56.79,9.82l5.13-14.4,55.91-134.47-9.7-13.06-73.2,62.39-10.9,8.96c9.17,19.91,4.19,42.13-12.1,56.27-9.85,8.55-21.71,12.4-35.05,11.18-20.34-1.87-36.51-17.38-40.9-36.29-4.76-20.49,4.13-40.99,22.14-51.78,22.68-13.59,51.41-4.91,65.31,19.32l10.59-10.4,71.31-61.7c-4.64-7.34-9.45-10.56-8.22-21.83l-79.24,5.13c-2.56.17-4.96-1.15-7.51.29.07,26.54-21.22,48.79-47.95,48.32-22.67-.4-40.89-16.95-45.13-38.16s6.95-44.15,27.67-53.27c19.99-8.8,42.43-2.25,55.44,15.02,5.83,7.75,9.52,16.21,9.8,26.52l15.96-2.15,71.68-5c2.17-4.82,6.86-7.72,10.5-10.85-1.43-4.03-4.16-8.88-3.06-13.91l-58.72-41.65-25.16-18.91c-9.49,26.56-38.3,39.58-63.41,28.54-20.76-9.13-31.98-31.2-27.66-53.14,4.17-21.15,22.53-37.73,44.85-38.4,15.41-.46,29.16,6.91,37.97,17.93,10.05,12.57,13.3,28.1,8.64,43.9l28.7,19.01,55.07,39.46,11.37-17.06-55.97-122.6-4.84-12.31c-9.09,13.12-22.68,20.44-37.25,21.12-15.39.73-29.68-6.27-39.25-18.48-14.78-18.86-13.96-44.84,1.86-62.41,19.98-22.18,53.69-21.05,72.31,2.16,12.85,16.01,14.6,37.77,3.68,55.55-1.01,1.65,1.29,3.29,1.92,4.65l59.91,128.65,9.68-12.08c5.41-6.75,11.79-10.49,19.64-13.78l40.39-16.92c6.18-2.59,12.95-3.92,19.11-.96l33.81,16.3,1.92-1.32ZM825.37,226.41c0-24.14-19.57-43.72-43.72-43.72s-43.72,19.57-43.72,43.72,19.57,43.72,43.72,43.72,43.72-19.57,43.72-43.72ZM926.39,458.88c-.31,1.89.41,3.57-1.46,5.06-1.55-14.01-14.05-28.65-27.37-33.59-6.4.92-12.27.52-18.01-2.87-3.97.84-8.16,3.53-9.95,7.3-3.41,7.21,0,13.97,4.97,19.32,7.12,7.69,13.11,15.67,17.59,25.1,9.22,19.4,6.94,20.12,27.67,33.53,11.37,7.35,20.85,15.67,30.31,25.37l26.58,27.25c20.34,16.96,44.57,27.74,70.05,34.7l18.1,2.7c-8.69,2.65-16.74,1.59-26.13.81l37.18,45.06,35.91,45.11c20.64-12.66,36.05-31.08,46.73-52.52,6.81-13.66,11.9-27.22,14.18-42.44,1.04-6.95,2.66-14.8.4-21.66-3.36-10.22-10.23-18.51-15.46-28.46-2.99,8.67-5.09,17.91-12.32,25.19,3.59-8.66,7.03-16.67,6.88-26.24l-1.35-86.63-5.35-52.11c-1.24-12.11.42-23.81,1.74-35.86l4.28-39.1-3.55-34.34-4.53-48.12c-.5-5.36-2.68-9.83-6.56-12.09-4.4-2.56-9.77-2.74-14.24-.07-16.06,9.57-12.85,39.31-10.52,58.64-1.18,14.91-2.02,29.27.13,44.25-5.94,15.66-9.84,31.55-13.13,47.84,3.83,3,7.77,4.71,9.2,9.57l-21.34-13.1c3.22-.8,5.37.68,8.05,1.15l.5-7.9c1.9-12.69,5.49-24.44,10.06-36.52l-5.07-36.89-24.35-69.45-17.55-43.54c-2.01-4.99-6.27-8.54-10.03-9.53-5.63-1.48-10.93-.11-15.03,3.67-15.79,14.55-3.18,53.03,8.17,72.49.54.93,2.06,1.43,1.86,2.02-.16.47-1.05,1.79-.9,2.45l5.84,25.8c2.01,8.89,5.15,17.21,9.12,25.32l12.57,1.24c-3.95,2.56-8.12,1.24-12.59,1.27l1.75,31.57.51,24.44c5.63.93,9.85,2.83,14.16,5.93,1.98,1.42,4.75,1.26,6.27,3.99-5.08-1.01-9.66-1.82-14.2-3.84l-6.46-5.04c-9.92,3.64-20.09,5.26-30.41,2.94-3.31-.75-6.22-1.7-9.46-1.01.6-1.46,1.39-1.77,2.39-2.55-3.08-3.63-6.91-5.61-11.2-7.78l-37.49-18.92c-4.87-2.46-10.26-2.64-15.33-.6l-24.47,9.85-22.56,9.79c-3.85,1.67-7.45,3.4-10.04,6.92l-23.1,31.39c-4.48,6.08-1.65,14.02,5.07,17.5,14.78,7.65,34.64-7.23,43.17-22.2.64,1.43,1.83,2.95,3.69,2.56,10.86-2.22,21.52-5.42,30.71-11.53,3.94-2.61,4.73-7.68,7.34-11.65.75,5.11-1.59,9.21-4.12,13.79,8.2,6.16,17.04,12.01,27.38,14.21,3.25.69,6-2.12,9.24-2.85-1.64,3.04-4.6,3.83-7.99,5.1,1.17,6.16,3.19,11.88,5.86,17.51,8.51,18-1.41,35.89-18.9,45.64-13.31,7.42-13.54,27.08-13.89,42.5-3.77-11.68-3.92-25.18.97-36.46-14.8-4.2-24.81-18.18-40.18-20.42ZM1019.07,364.75l9.08,6.35c3.15,2.2,7.33,2.5,11.16,2.59l17.12.41c-2.98-12.76-3.36-24.78-4.13-37.41-.39-6.29-.88-12.17.17-18.57l-8.74-19.17c-4.77-10.47-11.87-19.22-19.22-28.04l-25.28-30.36c-11.41-12.28-21.33-24.91-30.78-38.57-2.89-4.19-7.69-6.6-12.07-6.73s-9.13,2.57-12.02,6.83c-4.87,7.17-4.73,16.46-2.1,25.03,4.99,16.27,15.13,30.4,28.29,41.17,1.81,1.48,4.53.63,6.98.53-.95,1.62-2.38,1.52-4.25,2.39,6.95,15.91,16.71,33.97,29.78,45.3l11.32-.74c-3.68,2.29-7.18,2.55-11.33,3.41,3.57,15.93,8.18,31.04,16,45.6ZM784.53,333.14c0-23.84-19.33-43.17-43.17-43.17s-43.17,19.33-43.17,43.17,19.33,43.17,43.17,43.17,43.17-19.33,43.17-43.17ZM1008.99,357.14l-1.51.61c.42,1.16,1.98.57,1.51-.61ZM957.69,468.84c4.22,2.75,8.32,4.1,13.09,3.75l14.68-10.76c9.79-8.63,12.44-21.91,6.82-33.43-2.57-5.28-4.02-10.49-5.09-16.25-10.17-2.37-18.54-7.32-26.74-13.71-10.36,5.83-21.23,9.25-32.77,10.47-6,8.04-12.69,14.1-22.01,18.73,10.18,6.29,17.98,14.29,22.1,25.44,4.05,1.08,8.19,1.59,11.74,3.9l18.18,11.86ZM771.08,443.12c0-23.76-19.26-43.02-43.02-43.02s-43.02,19.26-43.02,43.02,19.26,43.02,43.02,43.02,43.02-19.26,43.02-43.02ZM789.22,552.67c0-23.66-19.18-42.84-42.84-42.84s-42.84,19.18-42.84,42.84,19.18,42.84,42.84,42.84,42.84-19.18,42.84-42.84ZM1039.65,613.63l-7.54-9.32c-6.38,14.78-11.64,28.95-13.36,44.75-2.6,23.87,2.25,48.63,16.74,67.59,8.98,11.74,21.82,19.71,36.26,21.22,11.86,1.24,23.04-1.73,34.07-5.7,34.84-12.54,62.29-37.9,79.8-70.36,10.62-19.69,17.43-40.2,18.66-62.78.4-7.32-.82-15.06-4.64-21.31-8.56-14.01-25.26-33.6-40.79-38.95-.85,2.84-.98,8.11,1.06,9.87,14.8,5.58,21.01,22.92,20.41,38.38-.7,18.28-5.92,34.99-13.43,51.55-13.39,29.51-35.56,53.46-64.79,67.64-20.8,10.08-44.35,18.63-60.03-1.51-14.75-18.94-15.58-44.83-10.61-68.19,1.71-8.05,3.78-15.41,8.19-22.86ZM1145.66,766.68c33.97,7.07,63.74-8.82,83.68-35.16,19.39-25.61,27.86-56.89,25.19-88.9-.55-6.61-2.74-11.27-7.4-16.07l-39.26-40.43c2.28,15.29,1.59,28.4-2.03,42.42-6.81,23.89-17.99,45.87-34.19,64.75-17.24,20.41-38.7,35.63-63.84,44.48-9.17,3.41-17.82,4.87-28.33,6.13,21.04,10.21,42.68,17.89,66.18,22.78ZM830.78,655.68c0-24.13-19.56-43.69-43.69-43.69s-43.69,19.56-43.69,43.69,19.56,43.69,43.69,43.69,43.69-19.56,43.69-43.69ZM1075.07,710.33c11.3-2.78,21.21-7.5,31.94-13.15l-47.79-59.54-15.97-19.48c-11.37,26.69-13.68,56.13,1.11,80.36,6.78,10.73,18.06,15.45,30.7,11.81Z"/>
            <path class="cls-9" d="M926.39,458.88c15.37,2.24,25.38,16.22,40.18,20.42-4.89,11.28-4.74,24.78-.97,36.46.35-15.42.58-35.08,13.89-42.5,17.49-9.75,27.41-27.64,18.9-45.64-2.66-5.63-4.68-11.34-5.86-17.51,3.39-1.26,6.34-2.06,7.99-5.1-3.24.73-6,3.54-9.24,2.85-10.34-2.21-19.18-8.05-27.38-14.21,2.53-4.58,4.87-8.69,4.12-13.79-2.61,3.96-3.4,9.03-7.34,11.65-9.19,6.1-19.85,9.31-30.71,11.53-1.86.38-3.05-1.13-3.69-2.56-8.53,14.97-28.39,29.85-43.17,22.2-6.72-3.48-9.55-11.42-5.07-17.5l23.1-31.39c2.59-3.52,6.2-5.25,10.04-6.92l22.56-9.79,24.47-9.85c5.07-2.04,10.46-1.86,15.33.6l37.49,18.92c4.29,2.17,8.12,4.14,11.2,7.78-1,.78-1.78,1.09-2.39,2.55,3.24-.69,6.15.26,9.46,1.01,10.32,2.32,20.49.71,30.41-2.94l6.46,5.04c4.55,2.02,9.12,2.83,14.2,3.84-1.51-2.73-4.29-2.56-6.27-3.99-4.32-3.1-8.53-5-14.16-5.93l-.51-24.44-1.75-31.57c4.47-.03,8.63,1.29,12.59-1.27l-12.57-1.24c-3.98-8.11-7.11-16.43-9.12-25.32l-5.84-25.8c-.15-.66.74-1.98.9-2.45.2-.59-1.31-1.08-1.86-2.02-11.35-19.46-23.96-57.95-8.17-72.49,4.1-3.78,9.41-5.15,15.03-3.67,3.76.99,8.02,4.54,10.03,9.53l17.55,43.54,24.35,69.45,5.07,36.89c-4.57,12.08-8.16,23.83-10.06,36.52l-.5,7.9c-2.68-.47-4.83-1.96-8.05-1.15l21.34,13.1c-1.43-4.86-5.37-6.56-9.2-9.57,3.29-16.29,7.19-32.17,13.13-47.84-2.15-14.98-1.32-29.34-.13-44.25-2.34-19.33-5.54-49.07,10.52-58.64,4.48-2.67,9.84-2.49,14.24.07,3.88,2.26,6.05,6.73,6.56,12.09l4.53,48.12,3.55,34.34-4.28,39.1c-1.32,12.05-2.99,23.75-1.74,35.86l5.35,52.11,1.35,86.63c.15,9.57-3.29,17.58-6.88,26.24,7.23-7.28,9.32-16.52,12.32-25.19,5.23,9.95,12.1,18.25,15.46,28.46,2.26,6.86.64,14.71-.4,21.66-2.27,15.22-7.36,28.78-14.18,42.44-10.69,21.44-26.09,39.86-46.73,52.52l-35.91-45.11-37.18-45.06c9.39.79,17.43,1.84,26.13-.81l-18.1-2.7c-25.48-6.96-49.71-17.74-70.05-34.7l-26.58-27.25c-9.46-9.7-18.94-18.02-30.31-25.37-20.73-13.41-18.46-14.13-27.67-33.53-4.48-9.43-10.47-17.41-17.59-25.1-4.96-5.35-8.38-12.11-4.97-19.32,1.79-3.77,5.99-6.46,9.95-7.3,5.73,3.39,11.6,3.79,18.01,2.87,13.32,4.94,25.82,19.58,27.37,33.59,1.87-1.49,1.15-3.17,1.46-5.06ZM1086.33,462.98c-11.48-11.8-24.25-21.96-39.79-27.65l-26.83-9.83,19.24,10.83c16.55,8.21,32.03,17.53,46.94,27.75l.44-1.11ZM1015.29,451.93c-.98-.9-2.57-1.51-3.8-.79l3.33,1.65.47-.85ZM1015.93,452.18l-.34,1.06c26.52,15.72,41.72,48.69,42.87,79.8,3.04-6.72.69-13.4,1.12-20.32-2.08-24.91-21.1-53.55-43.65-60.53ZM1087.13,463.7l-.63,1.45c1.31,1.12,2.36-.87.63-1.45Z"/>
            <path class="cls-9" d="M1145.66,766.68c-23.5-4.89-45.14-12.57-66.18-22.78,10.51-1.26,19.16-2.72,28.33-6.13,25.14-8.84,46.6-24.07,63.84-44.48,16.19-18.88,27.38-40.86,34.19-64.75,3.62-14.02,4.31-27.13,2.03-42.42l39.26,40.43c4.66,4.8,6.85,9.45,7.4,16.07,2.67,32.01-5.8,63.29-25.19,88.9-19.94,26.34-49.71,42.23-83.68,35.16Z"/>
            <path class="cls-9" d="M1019.07,364.75c-7.82-14.56-12.43-29.67-16-45.6,4.15-.86,7.65-1.12,11.33-3.41l-11.32.74c-13.08-11.32-22.83-29.39-29.78-45.3,1.87-.87,3.31-.76,4.25-2.39-2.45.1-5.17.96-6.98-.53-13.16-10.77-23.3-24.9-28.29-41.17-2.63-8.57-2.77-17.86,2.1-25.03,2.89-4.25,7.44-6.97,12.02-6.83s9.17,2.55,12.07,6.73c9.44,13.66,19.37,26.29,30.78,38.57l25.28,30.36c7.35,8.82,14.45,17.58,19.22,28.04l8.74,19.17c-1.05,6.4-.55,12.28-.17,18.57.77,12.63,1.15,24.65,4.13,37.41l-17.12-.41c-3.84-.09-8.01-.39-11.16-2.59l-9.08-6.35Z"/>
            <path class="cls-9" d="M1039.65,613.63c-4.41,7.45-6.48,14.82-8.19,22.86-4.97,23.36-4.14,49.25,10.61,68.19,15.67,20.13,39.23,11.59,60.03,1.51,29.23-14.18,51.4-38.12,64.79-67.64,7.51-16.56,12.73-33.27,13.43-51.55.59-15.46-5.61-32.8-20.41-38.38-2.04-1.75-1.91-7.03-1.06-9.87,15.53,5.36,32.23,24.95,40.79,38.95,3.82,6.25,5.04,14,4.64,21.31-1.23,22.58-8.05,43.09-18.66,62.78-17.51,32.46-44.96,57.83-79.8,70.36-11.03,3.97-22.21,6.94-34.07,5.7-14.43-1.51-27.28-9.48-36.26-21.22-14.49-18.96-19.35-43.72-16.74-67.59,1.72-15.8,6.98-29.97,13.36-44.75l7.54,9.32Z"/>
            <path class="cls-9" d="M957.69,468.84l-18.18-11.86c-3.55-2.32-7.68-2.82-11.74-3.9-4.12-11.15-11.92-19.15-22.1-25.44,9.31-4.63,16.01-10.7,22.01-18.73,11.54-1.22,22.41-4.64,32.77-10.47,8.21,6.39,16.57,11.34,26.74,13.71,1.07,5.76,2.52,10.97,5.09,16.25,5.62,11.53,2.97,24.81-6.82,33.43l-14.68,10.76c-4.77.35-8.88-.99-13.09-3.75Z"/>
            <path class="cls-9" d="M1075.07,710.33c-12.65,3.64-23.93-1.08-30.7-11.81-14.79-24.23-12.49-53.67-1.11-80.36l15.97,19.48,47.79,59.54c-10.73,5.65-20.64,10.37-31.94,13.15Z"/>
            <text/>
            <path class="cls-2" d="M1085.89,464.08c-14.91-10.22-30.39-19.55-46.94-27.75l-19.24-10.83,26.83,9.83c15.54,5.69,28.31,15.86,39.79,27.65l.79.72c1.72.58.68,2.57-.63,1.45-.19-.81-.6-1.15-.6-1.06Z"/>
          </g>
          <g>
            <path class="cls-9" d="M825.37,226.41c0,24.14-19.57,43.72-43.72,43.72s-43.72-19.57-43.72-43.72,19.57-43.72,43.72-43.72,43.72,19.57,43.72,43.72ZM752.06,208.69v35.61s59.38.02,59.38.02v-35.61s-59.38-.02-59.38-.02Z"/>
            <path class="cls-2" d="M752.06,208.69l59.4.02v35.61s-59.41-.02-59.41-.02v-35.61ZM774.01,231.77c-.13.98-2.22,1.05-2.41.12l-.11-12.27c-.82-.62-3.74-.59-4.31.47-.04,4.12,1.83,8.33-.37,12.65-2.59-6.4,1.04-13.24-3.04-13.36-.56-.02-1.46.27-1.49,1.56l-.5,20.05,20.75.08.15-19.34c.01-1.87-.82-2.63-2.25-2.44-1.1.15-1.62.98-1.65,2.44l-.24,10.15-1.24.22c-1.97-6.81,1.33-13.21-2.58-12.82-2.77.28.35,4.76-.69,12.49ZM790.82,222.16l-.23,9.55c-.03,1.1-2.97.85-2.94-.61l.22-11.05c.02-1.01-3.34-1.09-3.39-.23l-.19,21.24,11.24.05-.82-18.5c-.04-.98.24-2.97-.6-3.17-.53-.13-1.74-.13-2.31.03-.52.14-.95,1.33-.98,2.71ZM802.04,240.89l-.48-18.82c-.02-.89.21-2.45-.42-2.6-.89-.22-2.22-.22-2.87.01-.5.18-.63,1.56-.56,2.25.46,4.39-.59,7.99-.78,12.18l-.33,7.12c1.93.23,3.54.34,5.44-.14ZM808.75,240.46c1.14-7.18.75-14.22.14-20.91l-4.56.03c-.21,3.29,1.04,7.11.07,10.32-1.07,3.52-1.63,6.4-1.17,10.89.98.54,4.36.89,5.52-.33ZM759.4,229.67l-.04-9.79c-1.62-.47-2.93-.45-4.62,0l-.15,21.15c2.46.47,4.21.34,6.2-.25.56-3.79-1.37-7.11-1.39-11.09Z"/>
            <path class="cls-9" d="M774.01,231.77c1.04-7.73-2.09-12.21.69-12.49,3.91-.39.61,6.01,2.58,12.82l1.24-.22.24-10.15c.03-1.46.55-2.29,1.65-2.44,1.44-.19,2.27.57,2.25,2.44l-.15,19.34-20.75-.08.5-20.05c.03-1.28.93-1.57,1.49-1.56,4.08.13.45,6.96,3.04,13.36,2.2-4.32.33-8.52.37-12.65.57-1.06,3.49-1.09,4.31-.47l.11,12.27c.19.93,2.28.86,2.41-.12Z"/>
            <path class="cls-9" d="M790.82,222.16c.03-1.38.46-2.56.98-2.71.58-.16,1.79-.15,2.31-.03.84.2.56,2.19.6,3.17l.82,18.5-11.24-.05.19-21.24c.04-.85,3.41-.78,3.39.23l-.22,11.05c-.03,1.46,2.91,1.71,2.94.61l.23-9.55Z"/>
            <path class="cls-9" d="M808.75,240.46c-1.15,1.22-4.53.88-5.52.33-.46-4.49.1-7.38,1.17-10.89.98-3.21-.28-7.04-.07-10.32l4.56-.03c.6,6.68,1,13.72-.14,20.91Z"/>
            <path class="cls-9" d="M759.4,229.67c.02,3.98,1.95,7.3,1.39,11.09-1.99.59-3.74.72-6.2.25l.15-21.15c1.7-.44,3-.46,4.62,0l.04,9.79Z"/>
            <path class="cls-9" d="M802.04,240.89c-1.9.47-3.5.37-5.44.14l.33-7.12c.19-4.19,1.24-7.79.78-12.18-.07-.7.06-2.08.56-2.25.65-.23,1.97-.23,2.87-.01.63.15.4,1.71.42,2.6l.48,18.82Z"/>
          </g>
          <g>
            <path class="cls-9" d="M771.08,443.12c0,23.76-19.26,43.02-43.02,43.02s-43.02-19.26-43.02-43.02,19.26-43.02,43.02-43.02,43.02,19.26,43.02,43.02ZM760.95,445.4c1.02-.26,3.57-1.55,2.13-3.17-.91-1.03-4.15-.49-5.73-.08-.26,6.54-3.1,13.04-5.7,12.18-.5-.16-1.36-.85-1.66-1.71l-6.23-17.74c-.98-2.79-3.75-4.44-6.15-4.51-2.7-.09-5.45,1.35-6.4,4.18l-5.81,17.19c-.6,1.79-2.03,3.32-3.63,3.49-1.49.16-3.14-1.24-3.75-3.01l-5.94-17.21c-.98-2.83-3.48-4.6-5.99-4.69s-5.21,1.05-6.29,3.48l-4.23,9.58c-.63,1.43-1.4,2.53-.32,3.23.89.57,2.59.52,3.05-.58l4.27-10.4c.58-1.42,2.22-2.11,3.51-1.94,1.16.15,2.42,1.18,2.93,2.67l5.89,17.11c1.07,3.12,3.97,5.05,6.97,5.09s5.52-2.38,6.53-5.46l5.47-16.65c.59-1.8,2.15-3,3.74-2.82,1.14.13,2.55,1.13,3.07,2.59l6.27,17.69c.74,2.08,3.06,3.55,4.79,3.79,2.07.29,4.51-.75,5.37-2.86l3.85-9.43Z"/>
            <path class="cls-9" d="M784.53,333.14c0,23.84-19.33,43.17-43.17,43.17s-43.17-19.33-43.17-43.17,19.33-43.17,43.17-43.17,43.17,19.33,43.17,43.17ZM757.68,350.06l7.11,7.68c1.05-.57,2.03-1.76,2.29-2.56-1.22-3.06-4.47-4.44-6.54-6.81-.85-1.64,2.13-3.56,3.22-4.52-.75-3.37.26-6.65.68-10.08.28-2.34-1.87-5.12-.16-7.92.66-1.09.43-2.78.11-3.82-.29-.91-2.63-1.1-3.34-1.84l-7.17-7.47c-1.72-1.79-2.11-3.93-5.74-2.97-2.35.62-5.37-.62-7.21-1.27-3.11,1.34-6.52,2.35-10.69.9l-9.87,11.27c-.64.73-3.78.7-3.4,1.89l1.1,3.41c-.67,5.71-1.34,11.85.13,17.59,1,1.17,3.9,2.79,3.08,5.04-1.54,4.24-6.84,5.72-4.91,8.33,2.64,3.58,3.81-3.62,7.71-6.18l7.28,5.77c3.24,1.11,7.57,1.13,11.23.96,8.07-.39,9.82-.43,15.08-7.41Z"/>
            <path class="cls-2" d="M760.95,445.4l-3.85,9.43c-.86,2.11-3.3,3.15-5.37,2.86-1.72-.24-4.05-1.71-4.79-3.79l-6.27-17.69c-.52-1.46-1.93-2.46-3.07-2.59-1.58-.18-3.15,1.02-3.74,2.82l-5.47,16.65c-1.01,3.08-3.59,5.5-6.53,5.46s-5.9-1.97-6.97-5.09l-5.89-17.11c-.51-1.49-1.77-2.52-2.93-2.67-1.29-.17-2.93.52-3.51,1.94l-4.27,10.4c-.45,1.11-2.16,1.15-3.05.58-1.09-.7-.32-1.8.32-3.23l4.23-9.58c1.08-2.44,3.79-3.57,6.29-3.48s5.02,1.86,5.99,4.69l5.94,17.21c.61,1.77,2.26,3.17,3.75,3.01,1.61-.17,3.03-1.7,3.63-3.49l5.81-17.19c.96-2.83,3.7-4.27,6.4-4.18,2.4.08,5.17,1.72,6.15,4.51l6.23,17.74c.3.87,1.17,1.55,1.66,1.71,2.6.85,5.44-5.65,5.7-12.18,1.58-.41,4.82-.95,5.73.08,1.43,1.62-1.11,2.91-2.13,3.17Z"/>
            <path class="cls-2" d="M757.68,350.06c-5.26,6.98-7.01,7.02-15.08,7.41-3.67.18-7.99.15-11.23-.96l-7.28-5.77c-3.9,2.56-5.06,9.76-7.71,6.18-1.92-2.6,3.38-4.08,4.91-8.33.82-2.25-2.08-3.88-3.08-5.04-1.47-5.74-.8-11.88-.13-17.59l-1.1-3.41c-.38-1.18,2.76-1.16,3.4-1.89l9.87-11.27c4.18,1.45,7.58.45,10.69-.9,1.84.64,4.86,1.89,7.21,1.27,3.62-.96,4.02,1.17,5.74,2.97l7.17,7.47c.71.74,3.05.93,3.34,1.84.33,1.04.56,2.73-.11,3.82-1.71,2.8.45,5.58.16,7.92-.42,3.44-1.43,6.72-.68,10.08-1.09.96-4.07,2.89-3.22,4.52,2.08,2.37,5.32,3.76,6.54,6.81-.27.8-1.24,1.99-2.29,2.56l-7.11-7.68ZM745.41,339.84c-2.71,2.09-4.99,1.2-6.16-.19-1.24-1.47-1.21-4.09-.27-5.34,1.45-1.93,3.75-1.49,5.52-.85,1.9.68,1.5,3.17,2.37,4.51,1.71,2.64,4.42,3.85,7.36,6.21,5.59-6.09,5.46-15.2.59-21.76-4.49-6.04-13.21-8.83-20.6-5.46-6.49,2.96-10.02,9.05-10.27,16.01-.26,7.39,3.81,13.57,9.61,16.44,6.71,3.32,14.18,1.93,19.64-3.44l-7.79-6.13Z"/>
            <path class="cls-9" d="M745.41,339.84l7.79,6.13c-5.46,5.36-12.93,6.76-19.64,3.44-5.8-2.87-9.87-9.05-9.61-16.44.25-6.96,3.78-13.05,10.27-16.01,7.39-3.37,16.11-.59,20.6,5.46,4.87,6.55,5,15.67-.59,21.76-2.94-2.36-5.65-3.56-7.36-6.21-.87-1.34-.47-3.83-2.37-4.51-1.77-.63-4.07-1.08-5.52.85-.94,1.25-.98,3.88.27,5.34,1.17,1.39,3.45,2.28,6.16.19Z"/>
          </g>
          <g>
            <path class="cls-9" d="M789.22,552.67c0,23.66-19.18,42.84-42.84,42.84s-42.84-19.18-42.84-42.84,19.18-42.84,42.84-42.84,42.84,19.18,42.84,42.84ZM730.7,580.12c5.03,1.86,10.62-1.14,10.89-6.1.46-8.35,9.19-5.31,9.68-10.76.13-1.39-.68-2.98-2.09-3.75-1.27-.7-2.82.91-5.42.24l22.91-24.13c2.53.7,4.16.18,5.68-1.53,1.92-2.16,2.57-4.5,1.45-7.38-.76-1.95-3.3-2.22-5.82-2.88l-2.34-.61c-.08-.02-3.76,3.39-3.62,3.87l.9,3.15-22.78,22.55c-2.96-2.56,2.94-5.15,1.63-9.55-.21-.72-1.5-1.9-2.69-1.43-4.04,1.63-6.06,5.95-7.33,9.94-1.87,5.91-8.8,1.76-12.61,7.59-4.66,7.12,3.79,17.89,11.56,20.76Z"/>
            <path class="cls-2" d="M737.15,558.89c.04-.68.93-.93,1.27-.32-.06.66-1,.66-1.27.32Z"/>
            <path class="cls-2" d="M735.59,560.99s.28-.32.82-1.07c-.33.29-.68.69-.82,1.07Z"/>
            <path class="cls-2" d="M730.7,580.12c-7.76-2.88-16.21-13.64-11.56-20.76,3.81-5.83,10.74-1.68,12.61-7.59,1.26-3.99,3.28-8.31,7.33-9.94,1.18-.48,2.47.71,2.69,1.43,1.31,4.41-4.59,6.99-1.63,9.55l22.78-22.55-.9-3.15c-.14-.48,3.53-3.89,3.62-3.87l2.34.61c2.52.66,5.07.93,5.82,2.88,1.12,2.89.47,5.22-1.45,7.38-1.52,1.71-3.15,2.23-5.68,1.53l-22.91,24.13c2.61.67,4.15-.94,5.42-.24,1.4.77,2.21,2.36,2.09,3.75-.49,5.44-9.21,2.4-9.68,10.76-.28,4.96-5.87,7.96-10.89,6.1ZM735.59,560.99c-.48,1.35-.95,2.6-2.7,3.62-.49.75.25,1.77,1.8,1.61l5.75-6.03c.46-.49-1.17-2.43-2.02-1.62.19-1.93-1.14-2.48-1.81-1.24l-5.87,7.29,4.84-3.64ZM734.09,570.07c-.18-1.48-1.13-2.08-1.86-3.19-.44-.67-2.36.94-3.43.65-1-.27-4.08-1.64-4.23.14.22,2.96,3.17,5.92,6.44,7.01-.11-2.44.6-4.11,3.07-4.62Z"/>
            <path class="cls-2" d="M736.41,559.92c.3-.27.72-.57.74-1.03-.4.51-.87,1.1-.74,1.03Z"/>
            <path class="cls-9" d="M734.09,570.07c-2.47.51-3.18,2.18-3.07,4.62-3.27-1.09-6.23-4.05-6.44-7.01.15-1.78,3.23-.41,4.23-.14,1.07.29,2.99-1.32,3.43-.65.73,1.11,1.68,1.71,1.86,3.19Z"/>
            <path class="cls-9" d="M738.42,558.57c-.35-.62-1.23-.37-1.27.32-.03.46-.45.76-.74,1.03-.54.75-.86,1.02-.82,1.07l-4.84,3.64,5.87-7.29c.67-1.23,2-.69,1.81,1.24Z"/>
            <path class="cls-9" d="M735.59,560.99c.13-.37.49-.77.82-1.07-.12.07.35-.52.74-1.03.27.34,1.21.34,1.27-.32.85-.81,2.49,1.13,2.02,1.62l-5.75,6.03c-1.56.16-2.3-.86-1.8-1.61,1.75-1.01,2.21-2.27,2.7-3.62Z"/>
          </g>
          <g>
            <path class="cls-9" d="M830.78,655.68c0,24.13-19.56,43.69-43.69,43.69s-43.69-19.56-43.69-43.69,19.56-43.69,43.69-43.69,43.69,19.56,43.69,43.69ZM811.16,673.67c2.22,0,5.43.11,5.42-2.44l-.08-32.31-56.13-.29c-1.5,0-3.1,1.54-3.09,3.05l.22,29.58c.01,1.82,2.27,2.31,3.75,2.31l49.9.1Z"/>
            <path class="cls-2" d="M811.16,673.67l-49.9-.1c-1.48,0-3.74-.49-3.75-2.31l-.22-29.58c-.01-1.51,1.59-3.06,3.09-3.05l56.13.29.08,32.31c0,2.55-3.2,2.44-5.42,2.44ZM764.63,660.37l-.41-10.49c-.23-1-3.84-.98-4.25.05l-.04,19.76c0,1.2,4.34,1.83,5.19.71,1.59-2.61-.36-6.53-.5-10.03ZM771.88,669.7l-.47-20.35-4.03-.12-.25,20.95c.38,1.17,4.78.78,4.76-.49ZM777.56,667.17l-.53-17.36c-.03-1.07-3.5-1.12-3.52.04l-.3,19.78c-.02,1.19,2.55,1.47,3.36.94s1.04-1.63.99-3.4ZM782.53,649.3c-.29-.49-2.5-.47-2.51-.02l-.33,10.81c-.1,3.26-1.92,5.8-1.2,9.63.18.93,2.58,1.32,3.6.81,2.13-1.08-.86-12.12.44-21.23ZM788.38,670.09l.66-20.81-4.54.02-.03,20.91c.09.7,3.88.78,3.91-.13ZM795.65,649.45l-.35,12.5c-.02.75-2.44.59-2.56-.9-.34-4.22,1.47-8.4-1.04-12.8l-1.47,22.26,10.05.05c.7-3.76-.39-6.86-.39-10.39v-10.93c-1.35-.1-2.73-.18-4.24.2ZM806.86,666.3l-.46-17.01c-1.08-.28-2.02-.39-3.49.02l-.27,11.61s-2.71,8.62-.17,9.63c.82.32,2.75.33,3.73-.02.83-.3.7-2.72.66-4.24ZM813.91,670.03l.1-20.79-4.53.07-.26,10.78c-.09,3.49-1.68,6.67-.63,10.28,1.29.65,4.47.79,5.33-.34Z"/>
            <path class="cls-9" d="M795.65,649.45c1.5-.38,2.88-.3,4.23-.2v10.93c0,3.53,1.09,6.63.39,10.39l-10.05-.05,1.47-22.26c2.52,4.4.7,8.58,1.04,12.8.12,1.48,2.54,1.64,2.56.9l.35-12.5Z"/>
            <path class="cls-9" d="M813.91,670.03c-.85,1.13-4.04.99-5.33.34-1.05-3.6.55-6.79.63-10.28l.26-10.78,4.53-.07-.1,20.79Z"/>
            <path class="cls-9" d="M788.38,670.09c-.03.91-3.82.82-3.91.13l.03-20.91,4.54-.02-.66,20.81Z"/>
            <path class="cls-9" d="M764.63,660.37c.14,3.5,2.08,7.42.5,10.03-.85,1.12-5.19.49-5.19-.71l.04-19.76c.41-1.03,4.02-1.05,4.25-.05l.41,10.49Z"/>
            <path class="cls-9" d="M771.88,669.7c.03,1.27-4.38,1.66-4.76.49l.25-20.95,4.03.12.47,20.35Z"/>
            <path class="cls-9" d="M806.86,666.3c.04,1.51.18,3.94-.66,4.24-.98.35-2.91.34-3.73.02-2.55-1.01.17-9.64.17-9.63l.27-11.61c1.47-.41,2.41-.3,3.49-.02l.46,17.01Z"/>
            <path class="cls-9" d="M777.56,667.17c.05,1.77-.21,2.88-.99,3.4s-3.38.25-3.36-.94l.3-19.78c.02-1.16,3.48-1.11,3.52-.04l.53,17.36Z"/>
            <path class="cls-9" d="M782.53,649.3c-1.3,9.11,1.69,20.15-.44,21.23-1.02.52-3.43.13-3.6-.81-.72-3.84,1.1-6.37,1.2-9.63l.33-10.81c.01-.45,2.22-.47,2.51.02Z"/>
          </g>
        </g>
        <g>
          <g>
            <path class="cls-2" d="M395.45,452.63c-4.05,2.92-6.2,6.57-9.54,10.37l60.86,110.96c1.06,1.94.81,3.9,2.76,4.85,17.87-20.7,47.39-23.45,67.37-5.02,13.11,12.09,18.9,29.48,14.16,47.25-4.19,15.7-16.66,29.18-33.77,33.67-19.36,5.09-39.03-3.04-49.92-18.7-11.58-16.63-11.29-37.82.12-54.7,1.59-2.35-2.35-4.82-3.21-6.37l-30.92-56.14-29.5-52.81c-10.5,11.2-12.46,29.48-23.59,39.77l-13.77,10.28-22.2,16.81-19.8,20.97c-10.85,11.49-22.04,21.89-35.67,29.95-11.2,6.62-22.45,11.98-35.2,16.42,17.99,36.23,22.13,80.44.07,115.42-8.39,13.16-20.34,22.17-35.34,26.74-24.88,13.37-50.74,23.51-78.23,30.03-22.9,5.43-45.21,1.99-65.01-10.53C14.82,736.39-3.76,687.68.63,640.8c.71-7.58,4.21-13.7,9.62-18.99,18.51-18.13,36.31-36.35,52.42-56.72l14.43-16.26c6.96-7.85,15.61-13.51,26.17-16.92l.35-53.4c.13-20.37,1.51-39.91,4.9-59.89,2.01-11.83,2.43-22.81.83-34.73l-5.38-40.21c-1.77-13.24.51-26.09,2.5-39.35,2.68-17.84,4.3-35.04,5.17-52.81.44-9.01,5.75-16.47,12.91-19.06,8.7-3.15,17.19-.75,23.17,5.98,9.39,10.56,10.4,28.85,9.08,43.57-.48,5.34-1.43,10.42-.54,15.98l14.12-41.68,7.19-18.8,18.94-45.71c3.57-8.62,10.16-14.3,18.63-14.96,9.34-.72,17.24,3.74,21.77,12.35,10.32,19.59-.52,52.29-11.64,72.3-2.18,3.93-1.9,8.53-3.07,13.18.07.3.74.99,1.9,1.54l33.59-40.82c10.07-12.24,20.54-23.22,29.4-36.33,4.58-6.77,11.37-10.71,19.15-10.09,7.4.59,14.15,5.01,17.68,12.3,3.9,8.07,3.5,17.04,1.34,25.9-5.81,18.53-17.01,34.13-32.6,46.33-6.62,17.08-16.42,32.17-29.02,45.82-2.46,13.25-6.36,24.98-11.14,38.71,12.09-6.37,22.18-12.34,33.95-16.8,6.85-2.6,13.72-2.74,20.81.16,16.98,6.94,33.82,13.56,50.25,21.89,6.51,3.3,10.79,9.9,14.89,15.58l17.34,24.01,52.98-97.52c-9.81-28.31,8.2-59.02,37.66-63.63,15.36-2.41,29.87,3.02,40.35,13.81,15.97,16.44,18.27,40.87,6.04,59.54-12.24,18.69-35.83,26.89-57.02,18.35-11.4-4.6-19.54-12.75-25.81-24.36l-53,98.91c-.43,4.89.73,10.28-4.07,14.15,2.08,1.56,3.23,2.17,5.67,3.1l57.43-21.5,20.74-7.34c.5-14.9,7.24-28.44,17.76-36.71,12.1-9.52,27.22-12.98,42-8.73,20.25,5.83,34.67,24.62,34.58,46.04-.11,23.67-17.9,43.71-41.15,46.75-27.6,3.6-51.45-17.49-53.08-45.01-3.89.51-6.01,2.61-8.98,3.72l-67.06,25.18c5.31,6.22,5.91,14.32,2.07,22.03l66.61,36.63c3.09,1.7,4.8,4.5,9.06,5.26,4.79-14.04,15.91-24.46,28.09-28.9,15.08-5.49,30.38-3.27,42.81,5.64,18.51,13.28,25.33,36.88,16.32,57.51-8.67,19.85-30.06,31.96-52.21,27.33-26.89-5.62-43.22-33.24-35.78-59.37-2.97-3.08-6.34-3.15-9.42-4.83l-66.88-36.27ZM306.6,473.36c-3.84,2.49-7.39,4.4-12.11,6.03,4.71,11.91,4.76,24.21,1.35,36.51-.92-15.86-.47-35.13-14.18-42.66-17.3-9.5-27.04-27.36-19.12-45.79,2.44-5.67,4.42-11.3,5.61-17.39-3.18-1.43-6.03-2.1-8.45-4.93,3.47-.02,5.62,1.89,8.8,2.93,10.47-2.48,20.08-7.38,28.28-14.53-2.47-4.41-3.96-8.42-3.96-13.11,3.41,3.52,3.64,8.17,7.29,10.68,11.5,7.88,33.15,13.42,33.73,10.75l.71-3.29c7.63,17.68,34.2,34.94,47.36,20.45,4.28-4.72,3.76-11.52.2-16.39l-19.99-27.3c-3.48-4.76-8.15-7.44-13.59-9.77l-42.1-18.01c-6.79-2.9-13.24-3.04-20.01-.03-12.43,5.53-24.16,11.83-35.99,18.57-4.61,2.62-8.68,4.91-12.59,8.49,1.29.93,2.12,1.25,2.44,2.58-3.43-1.49-5.8-.24-8.75.59-10.03,2.81-20.35,1.08-30.07-2.36l-5.73,4.51c-5.02,1.92-9.77,3.2-15.07,3.72l9.17-5.57c3.34-2.03,6.77-3.29,11.01-4.08l.17-12.31,2.36-43.39c-4.84.41-9.11.12-13.21-1.65,4.9-.57,9.15-.16,13.47-1.67,5.32-11.17,8.84-22.41,11.32-34.35l3.77-18.11c-2.9-.3-5.08.27-7.03-1.48,2.14.04,6.43.83,7.8-1.63l5.01-9.03c8.99-19.9,19.32-58.25-2.24-66.42-7.69-2.91-16.08.63-19.45,8.85l-20.7,50.54c-8.79,21.47-15.72,43.08-21.66,65.46l-5.01,34.39c5,12.02,8.01,23.79,10.23,36.4l.46,8.27c2.25-1.16,4.21-2.24,6.99-.61l-21.51,13.42c1.65-5.21,6.57-7.45,10.47-11.11-3.55-16.56-7.5-32.37-13.22-47.65,2.73-14.72.5-28.7.66-43.12.12-10.57,2.71-20.76,1.75-31.49-1.16-13.02-4.89-27.85-17.65-29.71-8.32-1.21-15.12,4.85-15.51,13.32-.69,15.14-2.35,29.66-4.36,44.78-1.79,13.46-3.95,26.44-3.9,40.09.07,19.57,8.47,51.8,6.52,67.58l-4.84,39.19c-2.29,30.37-2.01,60.15-2.11,90.62-.06,18.28-.31,29.35,11.32,45.7-9.93-7.8-13.84-19.77-17.05-31.21l-1.74,4.83c-6.01,7.82-10.66,16.18-14.62,25.36-1.3,13.65,1.46,26.59,5.59,39.52,9.93,31.12,28.34,59.03,56.34,76.3l22.79-28.59c16.59-20.82,32.98-40.85,50.87-61.39-10.08.27-18,2.3-26.79-1.16,15.1-.79,28.15-5.13,41.84-10.29,53-19.99,66.81-53.46,86.56-67.49l28.14-19.98c5.63-4,9.23-9.07,11.68-15.49,5.66-14.81,13.77-27.65,24.45-39.26,3.82-4.16,5.06-9.53,3.21-14.79-1.42-4.03-5.5-7.63-10.73-8.26-5.51,3.39-11.36,3.76-17.75,2.94-14.84,5.66-24.57,19.09-28.12,33.96-.42-1.99-.12-3.78-1.15-5.11-6.33,1.47-11.34,4.08-16.39,7.35l-11.25,7.29ZM249.27,348.42l8.94-29.36c-4.1-.49-6.94-.69-10.16-2.7l10.72-.22c12.45-13.16,21.59-28.5,29.12-44.97-2.67-1.42-6.03-1.25-6.9-3.74,2.33-.6,6.24,2.95,8.2,1.42,13.65-10.7,23.97-24.79,29.58-40.97,3.25-9.35,3.56-18.7-2.13-26.77-2.99-4.24-7.71-6.39-12.7-6.17-4.12.18-8.75,2.64-11.5,6.75-9.65,14.45-20.96,26.67-32.02,40.07l-31.47,38.1c-7,8.47-11.67,17.92-15.55,28.13-1.27,3.34-2.72,6.32-4.93,9.44.5,19.19-.08,37.99-3.12,56.57,9.74-1.57,19.94,1.64,26.3-2.48,3.4-2.2,8.21-4.49,10.52-7.78,3.23-4.58,5.48-10.02,7.1-15.32ZM530.53,289.07c0-23.88-19.36-43.24-43.24-43.24s-43.24,19.36-43.24,43.24,19.36,43.24,43.24,43.24,43.24-19.36,43.24-43.24ZM222.27,276.46l-.02.6v.63l.02.6.02-.6v-.63l-.02-.6ZM560.93,396.65c0-23.74-19.24-42.98-42.98-42.98s-42.98,19.24-42.98,42.98,19.24,42.98,42.98,42.98,42.98-19.24,42.98-42.98ZM304.18,468l12.18-8.01c5.19-3.41,10.66-5.68,16.78-7.11,4.18-11.28,11.6-19.72,22.59-25.57-9.3-4.67-16.64-10.91-22.72-19.15-11.87.12-22.04-4.47-32.23-9.73l-15.05,9.6c-3.6,2.29-7.51,3.14-11.97,3.85l-4.83,15.68c-1.22,3.97-3.33,7.94-3.34,12.24-.04,11.12,6.35,20.9,15.96,26.2l9.16,6.3c4.29,1.5,9.78-1.87,13.45-4.29ZM559.63,506.92c0-23.62-19.14-42.76-42.76-42.76s-42.76,19.14-42.76,42.76,19.14,42.76,42.76,42.76,42.76-19.14,42.76-42.76ZM230.33,679.8c-2.8,12.11-8.01,22.67-17.63,30.67-14.8,12.32-35.56,4.61-52.44-3.63-20.73-10.12-38.38-24.68-51.69-43.73-13.62-19.49-22.85-41.41-26.67-64.87-3.28-20.17.75-40.24,19.07-49.65,1.92-2.37,2.41-6.63,2.18-10.28-15.68,5.12-32.48,25.35-41.64,39.39-3.85,5.9-4.68,13.34-4.54,20.42.4,19.53,5.89,37.57,14.07,55.13,18.05,38.76,50.42,68.48,91.37,81.17,9.84,3.05,19.89,4.9,29.99,2.98,17.05-3.24,30.73-14.55,38.99-29.65,17.65-32.3,13.48-70.1-2.46-103.33l-7.75,9.53c10.94,18.23,13.89,45.33,9.15,65.84ZM528.6,608.94c0-23.66-19.18-42.84-42.84-42.84s-42.84,19.18-42.84,42.84,19.18,42.84,42.84,42.84,42.84-19.18,42.84-42.84ZM132.79,762.77c17.22-5.4,33.25-11.1,48.96-18.95-14.04-1.56-25.75-4.16-37.75-9.71-25.6-11.41-47.16-29.31-63.53-52.08-18.89-27.73-32.57-60.98-27.08-95.74l-41.04,42.32c-3.59,4.33-5.37,9.14-5.78,14.94-2.68,37.97,9.73,76.2,37.9,102.23,14.37,13.29,32.44,21.89,52.15,22.7,12.54.51,23.78-2.5,36.17-5.73ZM217.28,697.66c14.83-23.97,11.92-53.55.65-79.82l-63.56,79.12c23.18,12.52,47.1,24.37,62.91.7Z"/>
            <path class="cls-9" d="M306.6,473.36l11.25-7.29c5.04-3.27,10.05-5.88,16.39-7.35,1.03,1.34.72,3.13,1.15,5.11,3.55-14.86,13.28-28.3,28.12-33.96,6.39.82,12.24.46,17.75-2.94,5.24.63,9.31,4.22,10.73,8.26,1.85,5.25.61,10.63-3.21,14.79-10.67,11.61-18.78,24.44-24.45,39.26-2.45,6.42-6.05,11.49-11.68,15.49l-28.14,19.98c-19.75,14.02-33.56,47.49-86.56,67.49-13.69,5.16-26.73,9.5-41.84,10.29,8.79,3.46,16.71,1.43,26.79,1.16-17.89,20.54-34.28,40.58-50.87,61.39l-22.79,28.59c-28.01-17.27-46.41-45.18-56.34-76.3-4.13-12.93-6.88-25.87-5.59-39.52,3.96-9.18,8.61-17.54,14.62-25.36l1.74-4.83c3.22,11.44,7.12,23.42,17.05,31.21-11.63-16.35-11.38-27.42-11.32-45.7.1-30.47-.18-60.25,2.11-90.62l4.84-39.19c1.95-15.78-6.45-48.01-6.52-67.58-.05-13.65,2.11-26.62,3.9-40.09,2.01-15.12,3.67-29.64,4.36-44.78.39-8.47,7.18-14.54,15.51-13.32,12.76,1.86,16.49,16.69,17.65,29.71.96,10.73-1.63,20.93-1.75,31.49-.16,14.42,2.07,28.4-.66,43.12,5.72,15.28,9.67,31.09,13.22,47.65-3.9,3.66-8.82,5.9-10.47,11.11l21.51-13.42c-2.78-1.63-4.74-.55-6.99.61l-.46-8.27c-2.22-12.61-5.24-24.38-10.23-36.4l5.01-34.39c5.94-22.38,12.87-43.99,21.66-65.46l20.7-50.54c3.36-8.22,11.75-11.76,19.45-8.85,21.56,8.17,11.23,46.52,2.24,66.42l-5.01,9.03c-1.37,2.47-5.66,1.67-7.8,1.63,1.95,1.75,4.13,1.18,7.03,1.48l-3.77,18.11c-2.49,11.94-6,23.18-11.32,34.35-4.32,1.51-8.57,1.1-13.47,1.67,4.1,1.77,8.37,2.07,13.21,1.65l-2.36,43.39-.17,12.31c-4.24.79-7.67,2.05-11.01,4.08l-9.17,5.57c5.3-.52,10.05-1.8,15.07-3.72l5.73-4.51c9.73,3.44,20.04,5.17,30.07,2.36,2.95-.83,5.32-2.08,8.75-.59-.32-1.33-1.15-1.65-2.44-2.58,3.91-3.58,7.99-5.86,12.59-8.49,11.83-6.74,23.55-13.04,35.99-18.57,6.77-3.01,13.22-2.88,20.01.03l42.1,18.01c5.44,2.33,10.11,5.02,13.59,9.77l19.99,27.3c3.57,4.87,4.08,11.67-.2,16.39-13.15,14.49-39.73-2.77-47.36-20.45l-.71,3.29c-.58,2.67-22.22-2.87-33.73-10.75-3.65-2.5-3.88-7.16-7.29-10.68,0,4.69,1.49,8.7,3.96,13.11-8.2,7.15-17.81,12.05-28.28,14.53-3.18-1.04-5.32-2.95-8.8-2.93,2.42,2.82,5.27,3.5,8.45,4.93-1.18,6.1-3.17,11.72-5.61,17.39-7.93,18.43,1.81,36.28,19.12,45.79,13.71,7.53,13.26,26.81,14.18,42.66,3.41-12.3,3.36-24.6-1.35-36.51,4.71-1.63,8.27-3.54,12.11-6.03ZM171.78,466.11l11.51-7.69c17.92-11.98,36.57-21.44,55.87-31.31-15.81,2.17-42.69,15.39-52.87,25.13l-14.51,13.88ZM243.91,453.41c-7.74.3-12.22,5.85-18.01,9.92-15.27,14.48-24.32,34.54-24.37,55.92-.01,4.67-1.28,9.28,1.32,13.83,1.3-32.3,14.28-60.34,41.07-79.68Z"/>
            <path class="cls-9" d="M132.79,762.77c-12.39,3.22-23.63,6.24-36.17,5.73-19.71-.81-37.78-9.41-52.15-22.7-28.16-26.04-40.58-64.26-37.9-102.23.41-5.8,2.19-10.61,5.78-14.94l41.04-42.32c-5.49,34.75,8.2,68.01,27.08,95.74,16.38,22.76,37.93,40.66,63.53,52.08,12,5.55,23.71,8.15,37.75,9.71-15.7,7.85-31.74,13.54-48.96,18.95Z"/>
            <path class="cls-9" d="M249.27,348.42c-1.61,5.3-3.87,10.75-7.1,15.32-2.32,3.28-7.13,5.57-10.52,7.78-6.36,4.13-16.56.92-26.3,2.48,3.03-18.58,3.61-37.38,3.12-56.57,2.21-3.12,3.66-6.1,4.93-9.44,3.88-10.21,8.55-19.66,15.55-28.13l31.47-38.1c11.07-13.4,22.37-25.62,32.02-40.07,2.74-4.11,7.37-6.56,11.5-6.75,4.99-.22,9.71,1.93,12.7,6.17,5.69,8.07,5.38,17.42,2.13,26.77-5.62,16.18-15.93,30.27-29.58,40.97-1.95,1.53-5.86-2.02-8.2-1.42.87,2.49,4.24,2.33,6.9,3.74-7.52,16.47-16.66,31.82-29.12,44.97l-10.72.22c3.22,2.01,6.06,2.22,10.16,2.7l-8.94,29.36Z"/>
            <path class="cls-9" d="M230.33,679.8c4.74-20.5,1.79-47.61-9.15-65.84l7.75-9.53c15.94,33.22,20.11,71.02,2.46,103.33-8.25,15.1-21.94,26.41-38.99,29.65-10.1,1.92-20.15.07-29.99-2.98-40.95-12.69-73.32-42.41-91.37-81.17-8.18-17.56-13.67-35.6-14.07-55.13-.15-7.08.69-14.52,4.54-20.42,9.15-14.04,25.95-34.27,41.64-39.39.23,3.64-.26,7.9-2.18,10.28-18.32,9.41-22.35,29.48-19.07,49.65,3.82,23.46,13.05,45.37,26.67,64.87,13.31,19.04,30.96,33.61,51.69,43.73,16.88,8.24,37.64,15.95,52.44,3.63,9.62-8.01,14.83-18.56,17.63-30.67Z"/>
            <path class="cls-9" d="M304.18,468c-3.67,2.41-9.16,5.79-13.45,4.29l-9.16-6.3c-9.61-5.3-16-15.08-15.96-26.2.01-4.29,2.12-8.27,3.34-12.24l4.83-15.68c4.46-.71,8.37-1.56,11.97-3.85l15.05-9.6c10.18,5.25,20.36,9.85,32.23,9.73,6.08,8.24,13.42,14.49,22.72,19.15-10.99,5.85-18.41,14.3-22.59,25.57-6.13,1.43-11.59,3.7-16.78,7.11l-12.18,8.01Z"/>
            <path class="cls-9" d="M217.28,697.66c-15.81,23.67-39.74,11.81-62.91-.7l63.56-79.12c11.27,26.27,14.18,55.85-.65,79.82Z"/>
            <polygon class="cls-7" points="222.27 276.46 222.28 277.07 222.28 277.69 222.27 278.3 222.25 277.69 222.25 277.07 222.27 276.46"/>
            <path class="cls-2" d="M243.91,453.41c-26.79,19.34-39.76,47.38-41.07,79.68-2.6-4.55-1.33-9.17-1.32-13.83.05-21.38,9.1-41.44,24.37-55.92,5.79-4.07,10.27-9.63,18.01-9.92Z"/>
            <path class="cls-2" d="M171.78,466.11l14.51-13.88c10.18-9.74,37.06-22.96,52.87-25.13-19.3,9.87-37.95,19.33-55.87,31.31l-11.51,7.69Z"/>
          </g>
          <g>
            <g>
              <path class="cls-9" d="M528.6,608.94c0,23.66-19.18,42.84-42.84,42.84s-42.84-19.18-42.84-42.84,19.18-42.84,42.84-42.84,42.84,19.18,42.84,42.84ZM513.84,620.66l3.86-9.02c.22-.52,2.43-.41,2.86-.7s.47-1.84,0-2.26c-1.15-.84-4.97-.93-5.57.7l-3.24,8.87c-.49,1.34-1.81,2.21-2.95,1.94-.71-.17-1.73-1.19-2.09-2.25l-5.85-17.11c-1.04-3.05-4.02-4.52-6.87-4.29s-5.19,2.09-6.22,5.14l-5.61,16.57c-.52,1.54-1.99,2.68-3.15,2.74-1.41.08-2.9-.98-3.44-2.55l-5.82-17.16c-1.07-3.17-4.18-5.36-7.29-4.93-2.5.35-4.95,2.57-6.17,5.3l-4.26,9.53c-.49,1.09,1.86,1.85,2.69,1.38s1.4-.79,1.91-2.1l3.36-8.62c.65-1.67,2.52-2.56,4.1-2.12,1,.28,2.18,1.5,2.65,2.9l5.81,17.21c.95,2.81,3.92,4.27,6.42,4.22s5.08-1.79,6.08-4.62l6-17.06c.63-1.79,2.13-2.94,3.72-2.84,1.12.07,2.66,1.03,3.17,2.51l6.12,17.81c.68,1.97,3.05,3.42,4.77,3.61,1.62.18,4.06-.63,4.99-2.8Z"/>
              <path class="cls-9" d="M559.63,506.92c0,23.62-19.14,42.76-42.76,42.76s-42.76-19.14-42.76-42.76,19.14-42.76,42.76-42.76,42.76,19.14,42.76,42.76ZM503.24,524.26l.09-32.74c0-1.68-1.16-3.2-2.87-3.16l-11.11.25v36.07c5.05.66,9.36,1.06,13.89-.42ZM517.76,496.89c-1.12-2.55-2.92-4.53-6.03-4.44l.05,31.45c8.71-1.05,10-17.81,5.97-27.01ZM527.75,498.69l.35,23.59c7.93-2.07,7.52-22.42-.35-23.59ZM541.06,519.98c6.14-4.54,5.83-13.7-.34-17.12-.44,6.02-1,11.21.34,17.12Z"/>
              <path class="cls-2" d="M513.84,620.66c-.93,2.18-3.37,2.98-4.99,2.8-1.72-.19-4.09-1.63-4.77-3.61l-6.12-17.81c-.51-1.48-2.05-2.44-3.17-2.51-1.59-.1-3.09,1.05-3.72,2.84l-6,17.06c-1,2.83-3.48,4.57-6.08,4.62s-5.48-1.42-6.42-4.22l-5.81-17.21c-.47-1.4-1.65-2.62-2.65-2.9-1.57-.45-3.45.45-4.1,2.12l-3.36,8.62c-.51,1.31-1.1,1.64-1.91,2.1s-3.18-.29-2.69-1.38l4.26-9.53c1.22-2.74,3.67-4.96,6.17-5.3,3.1-.43,6.21,1.77,7.29,4.93l5.82,17.16c.53,1.57,2.03,2.63,3.44,2.55,1.16-.07,2.63-1.21,3.15-2.74l5.61-16.57c1.03-3.05,3.4-4.91,6.22-5.14s5.83,1.25,6.87,4.29l5.85,17.11c.36,1.06,1.38,2.08,2.09,2.25,1.14.27,2.46-.59,2.95-1.94l3.24-8.87c.59-1.62,4.42-1.53,5.57-.7.46.42.42,1.97,0,2.26s-2.64.19-2.86.7l-3.86,9.02Z"/>
              <path class="cls-2" d="M503.24,524.26c-4.54,1.48-8.84,1.08-13.91.42v-36.07s11.12-.25,11.12-.25c1.71-.04,2.88,1.49,2.87,3.16l-.09,32.74Z"/>
              <path class="cls-2" d="M517.76,496.89c4.03,9.2,2.74,25.96-5.97,27.01l-.05-31.45c3.1-.09,4.91,1.89,6.03,4.44Z"/>
              <path class="cls-2" d="M527.75,498.69c7.87,1.18,8.28,21.52.35,23.59l-.35-23.59Z"/>
              <path class="cls-2" d="M541.06,519.98c-1.33-5.91-.78-11.1-.34-17.12,6.17,3.42,6.47,12.58.34,17.12Z"/>
            </g>
            <g>
              <path class="cls-9" d="M560.93,396.65c0,23.74-19.24,42.98-42.98,42.98s-42.98-19.24-42.98-42.98,19.24-42.98,42.98-42.98,42.98,19.24,42.98,42.98ZM528.93,382.81l6.12,30.8,15.69-.09c.86-.52.41-3.77-.59-3.8l-11.63-.37-6.7-30.8-28.14-.09-6.07,31.06-12.85.12c-.29,1.44-.27,2.85-.02,4.27l15.98-.33,6.09-31,22.12.23Z"/>
              <path class="cls-9" d="M530.53,289.07c0,23.88-19.36,43.24-43.24,43.24s-43.24-19.36-43.24-43.24,19.36-43.24,43.24-43.24,43.24,19.36,43.24,43.24ZM514.51,299.82c5.39-8.07,4.18-17.97-2.27-24.24-6.59-6.32-16.7-7.26-24.58-1.06-7.03-5.39-15.87-5.53-22.6-.85-6.92,4.75-9.47,13.19-6.98,21.45,1.86,6.16,6.66,10.02,11.15,11.86,6.89,2.83,12.92.18,18.47-2.25,8.93,5.06,20.46,4.59,26.81-4.91Z"/>
              <path class="cls-2" d="M528.93,382.81l-22.12-.23-6.09,31-15.98.33c-.25-1.42-.27-2.84.02-4.27l12.85-.12,6.07-31.06,28.14.09,6.7,30.8,11.63.37c1,.03,1.44,3.28.59,3.8l-15.69.09-6.12-30.8Z"/>
              <path class="cls-2" d="M514.51,299.82c-6.35,9.49-17.87,9.97-26.81,4.91-5.56,2.42-11.59,5.07-18.47,2.25-4.48-1.84-9.28-5.7-11.15-11.86-2.5-8.26.05-16.7,6.98-21.45,6.73-4.68,15.57-4.53,22.6.85,7.87-6.2,17.99-5.26,24.58,1.06,6.45,6.28,7.67,16.18,2.27,24.24ZM484.69,277.13c-7.41-5.02-15.95-3.17-20.65,2.79s-4.17,14.38.96,19.78,13,6.24,19.88,1.79c-5.64-7.38-5.25-16.5-.19-24.36ZM490.08,301.6c7.55,4.67,15.27,3.02,20.13-2.4,4.61-5.15,5.16-13.1.85-19.15-4.61-6.47-13.95-7.77-20.59-2.8,5.12,7.92,5.18,16.81-.39,24.36ZM487.67,298.34c4.16-6.34,3.69-13.3-.35-17.91-3.8,6.1-3.68,13.24.35,17.91Z"/>
              <path class="cls-9" d="M484.69,277.13c-5.06,7.86-5.45,16.98.19,24.36-6.88,4.45-14.88,3.46-19.88-1.79s-5.58-13.93-.96-19.78,13.24-7.81,20.65-2.79Z"/>
              <path class="cls-9" d="M490.08,301.6c5.57-7.55,5.5-16.43.39-24.36,6.64-4.97,15.99-3.67,20.59,2.8,4.31,6.05,3.76,14.01-.85,19.15-4.86,5.42-12.59,7.07-20.13,2.4Z"/>
              <path class="cls-9" d="M487.67,298.34c-4.03-4.67-4.16-11.8-.35-17.91,4.04,4.6,4.51,11.57.35,17.91Z"/>
            </g>
          </g>
        </g>
      </g>
      <text class="cls-4" transform="translate(128.23 30.44)"><tspan class="cls-11"><tspan x="0" y="0">Left Pinch</tspan></tspan><tspan class="cls-3"><tspan x="-108.93" y="54">Choose</tspan><tspan class="cls-6" x="-25.54" y="54"> </tspan><tspan x="-2.43" y="54">bet</tspan><tspan class="cls-5" x="35.83" y="54">w</tspan><tspan x="55.34" y="54">een</tspan><tspan class="cls-1" x="96.35" y="54"> </tspan><tspan x="119.46" y="54">different</tspan><tspan class="cls-6" x="222.13" y="54"> </tspan><tspan x="245.23" y="54">w</tspan><tspan class="cls-5" x="265.18" y="54">av</tspan><tspan x="291.88" y="54">e </tspan></tspan><tspan class="cls-3"><tspan x="-6.59" y="79.2">types and effects.</tspan></tspan></text>
      <text class="cls-4" transform="translate(906.66 30.44)"><tspan class="cls-11"><tspan x="0" y="0">Right Pinch</tspan></tspan><tspan class="cls-3"><tspan x="-93.5" y="54">Select</tspan><tspan class="cls-8" x="-21.56" y="54"> </tspan><tspan class="cls-12" x="-3.89" y="54">y</tspan><tspan x="9.51" y="54">our</tspan><tspan class="cls-10" x="48.15" y="54"> </tspan><tspan x="65.81" y="54">instrument</tspan><tspan class="cls-8" x="193.72" y="54"> </tspan><tspan x="211.39" y="54">and</tspan><tspan class="cls-10" x="253.81" y="54"> </tspan><tspan x="271.48" y="54">pl</tspan><tspan class="cls-12" x="293.44" y="54">a</tspan><tspan x="306.9" y="54">y </tspan></tspan><tspan class="cls-3"><tspan x="-50.57" y="79.2">with it. Add effects to them.</tspan></tspan></text>
    </g>
  </g>
</svg>