<?xml version="1.0" encoding="UTF-8"?>
<svg id="Capa_2" data-name="Capa 2" xmlns="http://www.w3.org/2000/svg" viewBox="0 0 165.61 216.55">
  <defs>
    <style>
      .cls-1 {
        fill: #a9a9a5;
      }

      .cls-2 {
        fill: #f39a49;
      }

      .cls-3 {
        fill: #333332;
      }

      .cls-4 {
        fill: #daa484;
      }

      .cls-5 {
        fill: #291f46;
      }

      .cls-6 {
        fill: #be896b;
      }

      .cls-7 {
        fill: #070707;
      }

      .cls-8 {
        fill: #dddede;
      }

      .cls-9 {
        fill: #6e6e6e;
      }

      .cls-10 {
        fill: #ae6b51;
      }
    </style>
  </defs>
  <g id="Capa_1-2" data-name="Capa 1">
    <g>
      <path class="cls-5" d="M73.31,215.11c-.4.33-1.12.37-1.51-.07.47-.08,1.07-.38,1.51.07Z"/>
      <g>
        <g>
          <path class="cls-1" d="M70.15,215.33c-7.73,1.84-15.7,1.45-23.54-.19-15.82-3.31-29.73-12.48-38.61-25.99-4.94-7.52-7.74-16.2-7.68-25.23,0-1.29.09-2.37.49-3.45.47-.04.91-.2,1.44-.5,7.77-4.46,15.19-9.26,22.45-14.53l9.95-7.76c-1.13,3.88-1.97,7.3-2.27,11.13-1.3,16.63,4.61,34.18,13.97,47.85,5.65,8.26,13.37,15.54,23.16,18.14.39.1.61.18.65.55Z"/>
          <path class="cls-6" d="M162.07,110.31c-.12.34-.35.6-.68.87l-2.86,2.32c-4.65,3.43-8.49,7.58-11.64,12.42-1.12,1.72-2.56,2.84-4.46,3.57-8.84,3.37-16.13,6.75-23.34,13.01-5.55,4.81-12.04,8.02-19.33,9.09l-7.65,1.12c-.26.04-.13.65.08.62.09-.01.28.03.59.22l-9.5,7.83c-10.11,8.34-19.79,16.9-29.07,26.31-5.73-9.32-9.72-19.8-11.28-30.46-.8-5.85-.54-11.51.93-17.17,3.53-3.36,6.4-7.2,8.76-11.33l.23.92c-.06,3.98,1.09,7.59,3.06,11,1.18,2.04,2.9,3.48,4.61,5.08.86.8,1.5,2.12,2.98,2.07.03-.55-.52-.73-.71-1.18,5.5,2.03,11.41,1.91,16.67-.73l4.3.51c2.06.79,3.88,1.75,6.15,2.02,3.94.47,7.83.23,11.71-.8,3.76-1,7.36-2.31,10.57-4.48l4.37-2.95c.14-.09.27-.39.38-.4s.33.2.42.52c.54-1.39,1.43-3.54,2.12-3.45.25.04.31.4.45.89,2.25-1.79,4.47-3.36,7.05-4.61l6.1-2.95,9.12-3.56c2.45-.96,5.85-7.36,12.99-11.97l5.5-3.55c.47-.3.77-.9,1.4-.79ZM63.74,147.74l-.11.11.11.11.11-.11-.11-.11Z"/>
          <path class="cls-3" d="M40.42,144.08c-.66,5.14-.68,10.36.26,15.68,1.78,10.05,5.44,19.64,10.73,28.35,4.3,7.08,10.77,15.03,18.42,18.16,4.02,1.65,7.79.65,7.57-.07-.04-.14-.23-.3-.46-.45,2.92-1.93,5.29-4.52,7.08-7.73,6.22-11.18,8.21-25.18,4.48-37.58l5.04-4.11c1.79,5.41,2.44,10.92,2.49,16.58l-.18,4.1c-.23,5.38-1.4,10.42-3.08,15.51-2.6,7.89-7.96,17.21-16.45,19.16-2.81.79-5.63.92-8.53.86-8.13-2.64-15.1-9.42-19.93-16.34-5.34-7.64-9.25-16.03-11.74-25.02-1.3-4.71-2.3-9.31-2.38-14.05.16.07.32,0,.34-.1l.11-.48c.66-.45,1.06-1.36,1.52-2.06l1.8-2.72c.73,16.38,6.46,31.81,16.48,44.47l.19-.19c.07-.84-.39-1.51-.89-2.25-1.59-2.34-3.06-4.66-4.46-7.13l-1.72-3.02c-1.33-2.35-2.06-4.78-3.11-7.27-4.54-10.68-5.75-21.73-4.67-33.25.03-.34.25-.61.51-.59.61.04.07.94.59,1.55ZM54.23,196.51l.08-.31c.1.03-.4-.02-.08.31ZM56.89,199.47c-.02-1.51-1.1-1.99-2.15-2.48.62,1.06,1.23,1.99,2.15,2.48ZM57.06,199.61l-.11.11.11.11.11-.11-.11-.11Z"/>
          <path class="cls-1" d="M83.71,195.36c-2.01,4.06-4.93,8.3-9.17,10.03-8.12-2.13-14.1-8.61-18.86-15.43l12.25-11.88,14.86-12.89,4.5-3.62c1.03,2.93,1.28,5.66,1.51,8.55.68,8.44-1.36,17.68-5.1,25.24Z"/>
          <path class="cls-3" d="M33.67,152.7c-.1-5.8.98-11.54,3.29-17.02,1.85-2.16,3.7-4.18,5.76-6.02-2.78,6.01-4.58,12.4-5.12,19.14-1.5.83-2.55,2.09-3.32,3.6-.12.23-.43.3-.61.3Z"/>
          <path class="cls-3" d="M42.66,135.98c-.11-2.14.72-4.26,1.76-6.15.38-.69.9-1.2.88-2.01,1.45-1.04,3.29-1.5,5.15-1.62l-1.22,3.93-2.38.85c-1.85,1.3-2.99,3.18-4.2,5.01Z"/>
          <rect class="cls-2" x="63.66" y="147.77" width=".15" height=".15" transform="translate(-85.87 88.37) rotate(-45)"/>
          <path class="cls-9" d="M56.89,199.47c-.92-.49-1.54-1.41-2.15-2.48,1.05.49,2.13.97,2.15,2.48Z"/>
          <path class="cls-9" d="M45.3,127.81c.02.82-.5,1.32-.88,2.01-1.04,1.9-1.87,4.01-1.76,6.15-1.07,2.55-1.74,5.28-2.24,8.1-.52-.61.02-1.51-.59-1.55-.26-.02-.48.25-.51.59-1.08,11.52.14,22.57,4.67,33.25,1.06,2.49,1.78,4.92,3.11,7.27l1.72,3.02c1.4,2.47,2.87,4.78,4.46,7.13.5.74.97,1.41.89,2.25.03.02.08.05.13.15.1.03-.4-.02-.08.31-.15-.24-.25-.29-.24-.27-10.02-12.66-15.76-28.09-16.48-44.47l-1.8,2.72c-.46.7-.87,1.61-1.52,2.06l-.11.48c-.02.09-.18.17-.34.1l-.07-4.43c.18,0,.49-.06.61-.3.77-1.51,1.82-2.77,3.32-3.6.54-6.74,2.34-13.13,5.12-19.14l2.57-1.86Z"/>
          <rect class="cls-2" x="56.99" y="199.65" width=".15" height=".15" transform="translate(-124.51 98.85) rotate(-45)"/>
        </g>
        <g>
          <path class="cls-7" d="M73.31,215.11c-.44-.45-1.04-.15-1.51-.07l-1.65.29c-.04-.37-.27-.45-.65-.55-9.79-2.6-17.51-9.88-23.16-18.14-9.36-13.67-15.27-31.22-13.97-47.85.3-3.83,1.14-7.25,2.27-11.13l-9.95,7.76c-7.26,5.27-14.68,10.07-22.45,14.53-.53.3-.97.46-1.44.5-.39-.28-.77-.63-.81-1.07s.08-1.21.59-1.52c12.5-7.37,24.58-15.3,35.32-25.11l4.91-5.23c2.82-2.5,6.11-4.01,10.11-4.17l3.27-21.44c1.11-7.25,2.4-14.18,4.13-21.35l-2.09-23.89,1.23-17.53c1.27-5.81,1.68-11.48,1.81-17.36.06-2.53,1.46-4.78,3.62-5.84,3.38-1.66,7.22-.7,9.72,2.03,4.51,4.94,4.45,13.31,3.34,19.84-.28,1.66-1.15,3.38-1.07,5.06.35,4.37,1.05,8.54,1,12.93-.02,1.6.21,3.08.96,4.62l3.67-13.35c.46-1.68.97-3.18,1.74-4.76l8.84-18.21,2.11-3.31c3.32-5.2,6.45-10.33,9-15.96.8-1.77,2.04-3.32,3.78-4.14,3.3-1.56,7.07-.49,9.33,2.35,3.77,4.74,1.9,13.05-.67,18.57-2,4.31-4.61,8.03-7.68,11.72-1.87,6.21-3.99,12.18-6.59,18.12-.23.53-.27,1.26-.18,1.87l8.49-11.26,12.01-11.19,6.84-6.29c5.53-4.08,10.81-8.09,15.53-13.1,1.98-2.1,4.78-3.16,7.58-2.66,3.53.63,5.86,3.51,6.26,7.03.33,2.91-.26,5.75-1.46,8.46-3.13,7.1-10.07,12.46-16.96,15.93-4.31,6.66-9.55,12.41-15.63,17.55-2.32,4.39-4.62,8.59-7.31,12.83l11.69-3.28c2.5-.65,4.87-.27,7.06,1.09,5.2,3.04,10.34,5.89,15.76,8.52,1.9.92,3.31,2.29,4.27,4.13l2.5,4.81c1.51,2.89,3.41,5.33,5.63,7.7,2.05,2.19,2.47,5.23.8,7.89,3.19,3.19,3.09,8.1-.18,11.15l-3.32,2.72c-4.16,3.4-7.84,7.06-10.78,11.58-1.33,2.05-3.02,3.67-5.33,4.56-4.47,1.71-8.72,3.53-12.94,5.79-3.82,2.05-7.11,4.45-10.38,7.29-5.33,4.64-11.48,7.79-18.43,9.09l-5.97,1.11c4.49,14.54,3.47,31.37-3.14,44.92-1.79,3.67-3.96,6.89-6.86,9.71-3.5,3.37-7.9,5.35-12.64,5.66ZM79.5,59.85l-1.52,5.88c.68,2.74,1.25,5.37,1.57,8.17.12,1.02.2,2.01-.36,2.9-.85-.47-.84-1.23-.96-2.03-.86-5.4-2.61-10.44-4.31-15.62-.5-1.52-.23-3.24-.3-4.84-.18-3.73-.58-7.27-1.02-10.98-.26-2.17,1.94-6.84,1.67-13.98-.05-1.37-.36-2.54-.58-3.75-.8-4.2-3.47-8.46-7.79-8.06-2.49.23-4.22,2.02-4.28,4.48l-.13,5.17c-.11,4.42-.98,8.6-1.69,12.95l-1.12,16.12,1.85,20.48c.14,1.55.49,3.15.14,4.7-1.2,5.41-2.3,10.59-3.16,16.08l-4.32,27.49-.56,3.7c-2.37,4.13-5.23,7.97-8.76,11.33-1.47,5.66-1.73,11.32-.93,17.17,1.56,10.66,5.55,21.15,11.28,30.46,9.27-9.41,18.95-17.97,29.07-26.31l9.5-7.83c-.31-.19-.49-.23-.59-.22-.21.03-.34-.58-.08-.62l7.65-1.12c7.3-1.07,13.79-4.27,19.33-9.09,7.21-6.26,14.5-9.64,23.34-13.01,1.91-.73,3.35-1.85,4.46-3.57,3.15-4.84,6.99-8.99,11.64-12.42l2.86-2.32c.33-.27.56-.53.68-.87,1.57-1.67,1.61-4.44.21-6.26-.08-.2-.52-1.03-.86-.86-3.9,2-8.03,1.44-11.95-.51-1.87.3-3.42,1.31-4.94,2.15-2.96,1.64-5.34,3.99-7.33,6.72-.49.67-1.32,1.44-2.08,1.7l-10.78,3.65-1.54.19c-1.5.19-2.99-.17-4.02-1.24-.3-.31-.52-.61-.92-.65-1.56-2.92-3.19-5.84-4.21-9-.67-2.08-1.12-4.26-1.24-6.45-.31.03-.38.23-.38.31-.03.23-.54.03-.45-.07.7-.66,1.13-1.23,1.49-2.05l2.64-5.96c.31-.7.21-1.35-.26-1.84.29-.18.71-.42.95-.34,2.67.88,8.41-1.38,11.53-3.03.73-.38,1.93-.95,2.7-.42,2.95,2.06,6.06,3.62,9.61,4.39.54.12,1.38.4,1.69.87l3.19,4.79c3.31,4.03,8.2,7.06,13.39,5.93,1.25-.27,2.22-1,2.85-1.95.69-1.05,1.09-2.36.51-3.46l-.45-.85c-.44-.84-1.16-1.51-1.81-2.31l-2.68-3.31-.89-1.45-3.67-6.7c-.74-1.34-1.66-2.32-3.07-3.02-5.66-2.82-11.11-5.8-16.58-8.99-1.21-.71-2.64-1.16-3.96-.78l-8.45,2.42-7.78,2.27c-1.68,1.71-3.84,4.64-3.96,2.62-.02-.31.26-.48.48-.78,4.13-5.59,7.76-11.45,10.87-17.67.8-1.6,1.71-2.55,3.02-3.71,5.39-4.76,10.04-10.09,13.97-16.12,7.12-3.51,14.39-9.1,16.94-16.54.68-1.98,1.12-4.08.71-6.23s-1.8-3.68-3.54-4.27c-2.14-.73-4.28-.12-5.89,1.47-4.66,4.62-9.47,8.88-14.91,12.57l-3.28,2.81-16.41,15.21-9.31,12.88-2.59,3.8c-.79,3.33-2.19,12.36-3.76,13.12-.26-.1-.65-.54-.58-.81,1.19-4.29,1.86-8.63,2.67-13.13.49-2.73.27-5.68,1.23-8.28,2.31-6.3,5.01-12.26,6.66-18.81,4.88-5.57,9.42-12.99,10.19-20.22.37-3.32-.24-7.33-3.23-8.96-2.77-1.51-6.02-.44-7.36,2.5-2.54,5.6-5.44,10.86-8.94,15.97-1.57,2.3-2.77,4.54-3.96,7.07l-7.78,16.46-4.27,14.71ZM100.11,53.45l-.11.11.11.11.11-.11-.11-.11ZM134,111.07c.79-.27,1.23-.77,1.68-1.3,2.78-3.91,6.51-6.71,11.03-8.7-2.73-2.36-4.69-4.91-6.34-7.95-3.54-.83-6.78-2.16-9.77-4.17-.49-.44-1.13-.49-1.69-.13-3.45,1.8-7.01,3.08-10.98,3.46-.69,2.2-1.61,4.14-2.66,6.15-.54,1.03-.82,2.09-.4,3.25.63,3.92,2.39,7.35,4.16,10.86.86,1.72,2.28,2.81,4.33,2.12l10.64-3.59ZM45.3,127.81l-2.57,1.86c-2.07,1.84-3.91,3.86-5.76,6.02-2.31,5.48-3.39,11.22-3.29,17.02l.07,4.43c.08,4.74,1.08,9.34,2.38,14.05,2.49,8.99,6.41,17.38,11.74,25.02,4.83,6.92,11.8,13.7,19.93,16.34,2.9.06,5.72-.07,8.53-.86,8.48-1.95,13.84-11.27,16.45-19.16,1.68-5.09,2.85-10.13,3.08-15.51l.18-4.1c-.05-5.66-.7-11.18-2.49-16.58l-5.04,4.11c3.73,12.41,1.75,26.4-4.48,37.58-1.78,3.21-4.16,5.8-7.08,7.73.23.15.42.31.46.45.22.72-3.55,1.71-7.57.07-7.64-3.13-14.12-11.08-18.42-18.16-5.29-8.71-8.94-18.29-10.73-28.35-.94-5.32-.92-10.54-.26-15.68.5-2.82,1.17-5.56,2.24-8.1,1.21-1.83,2.35-3.71,4.2-5.01l2.38-.85,1.22-3.93c-1.86.12-3.71.58-5.15,1.62ZM83.71,195.36c3.74-7.56,5.78-16.8,5.1-25.24-.23-2.88-.48-5.61-1.51-8.55l-4.5,3.62-14.86,12.89-12.25,11.88c4.76,6.82,10.74,13.3,18.86,15.43,4.24-1.72,7.16-5.97,9.17-10.03Z"/>
          <path class="cls-4" d="M73.68,25.61c-.46,5.88-1.37,12.42-4.66,17.4.96.94,1.55,1.95,1.9,3.2,1.1,3.99,1.1,8.2.09,12.24-.13.53-.83,1.32-.42,1.82.32.39.81.74,1.17,1.23,2.34,3.16,3.64,6.81,4.33,10.71.27,1.54.46,3.09-.13,4.57l-.92,2.33c-.41,1.03-2.85,1.37-2.73,2.21,2.17-.45,4.07-1.58,5.82-2.98,3.05-1.37,5.98-2.43,9.26-2.6.47-.02.81-.4.84-.78.95.12,1.99-.08,2.92-.27.01.19.1.3.26.31l3.62.23.2,1.78c.55-.47.41-1.02.27-1.65,4.03.59,7.77,2.49,10.44,5.51,1.99,2.24,3.56,4.82,3.65,7.84.03,1-.6,2.73-1.46,3.14-1.96.94-4.07.73-6.25.79.33-.57,1-.53,1.09-1.31l-3.65,1.69c-4.1,1-8.18,2.43-11.58,4.95l-1.26.72c-2.99,2.05-6.15,3.45-9.62,4.58,2.24.18,4.1-.74,6.15-1.16l4.33-.87c-1.18,3.68-2.02,7.36-1.7,11.18l.61,7.33c.05.64-.03,1.32.49,1.73l-.15,3.22c-.12,2.58-.05,5.07-.47,7.5s-1.19,4.49-1.79,6.78c1.81-2.19,2.43-4.76,2.96-7.22.86-3.98.09-8.38,1.38-13.84,1.8-7.59,6.7-14.48,14.11-16.99,1.58-.53,3.87-.54,5.33.28,2.52,1.43,3.63,3.5,5.53,4.97,1.02,3.16,2.65,6.08,4.21,9l.35,1.25c2.07,4.67,2.43,9.6,1.86,14.85,1.31-2.72,1.2-5.61,1.19-8.54.48-2.25,1.2-3.35,2.59-4.98.25-.3.52-.48.49-.88l10.78-3.65c-.97,3.44-.23,7.28,2.79,9.63-1.13-2.85-1.93-5.51-1.45-8.38l.73-2.95c1.99-2.74,4.37-5.09,7.33-6.72.05.2.26.29.42.24,5.02-1.64,8.67,1.39,12.91.6,1.59-.3,3.01-.93,4.42-1.62,1.4,1.82,1.36,4.59-.21,6.26-.63-.11-.93.48-1.4.79l-5.5,3.55c-7.14,4.61-10.54,11.01-12.99,11.97l-9.12,3.56-6.1,2.95c-2.58,1.25-4.8,2.82-7.05,4.61-.14-.5-.21-.86-.45-.89-.68-.1-1.58,2.06-2.12,3.45-.09-.32-.31-.53-.42-.52s-.25.31-.38.4l-4.37,2.95c-3.21,2.17-6.81,3.48-10.57,4.48-3.88,1.03-7.77,1.28-11.71.8-2.27-.27-4.09-1.23-6.15-2.02l-4.3-.51c-5.26,2.64-11.18,2.76-16.67.73.19.46.74.63.71,1.18-1.47.05-2.12-1.27-2.98-2.07-1.71-1.6-3.43-3.04-4.61-5.08-1.97-3.41-3.11-7.02-3.06-11l-.23-.92.56-3.7,4.32-27.49c.86-5.49,1.96-10.68,3.16-16.08.34-1.55,0-3.15-.14-4.7l-1.85-20.48,1.12-16.12c.72-4.35,1.59-8.54,1.69-12.95l.13-5.17c.06-2.47,1.79-4.25,4.28-4.48,4.32-.4,6.99,3.86,7.79,8.06Z"/>
          <path class="cls-4" d="M153.85,21.97c-.39.03-.54.3-.76.62-1.26,1.84-2.63,3.48-4.31,4.95-4.63,4.04-9.83,7.05-15.77,8.69-.39,2.87-2.45,6.09-4.34,8.25-2.84,3.58-6.14,6.68-10.07,9.05-.47.28-1.35.48-1.48,1.1-.56,2.67-1.22,5.19-2.5,7.64-1.7,3.24-3.6,6.28-5.96,9.07-1.51,1.78-4.85,3.18-7,1.96-5.11-2.88-1.92-11.65-.43-16.9l9.31-12.88,16.41-15.21,3.28-2.81c5.44-3.69,10.25-7.96,14.91-12.57,1.61-1.59,3.75-2.2,5.89-1.47,1.74.59,3.13,2.2,3.54,4.27s-.03,4.24-.71,6.23Z"/>
          <path class="cls-4" d="M115.03,12.09c-.43.04-.52.38-.67.83-2.21,6.69-7.63,14.03-13.16,18.51l-.02,3.11c-.81,5.32-2.74,10.33-5.76,14.74-.44.64-1.36,1.24-1.25,2.04l.47,3.66c.24,4.81-.31,9.55-1.84,14.08-1.16,3.43-3.43,4.14-3.47,4.19-.09.11-.11.36-.07.53l-3.02.32c-.11-.09-.31-.29-.54-.31-5.97-.48-6.2-8.19-5.8-13.67.01-.18-.15-.3-.39-.26l4.27-14.71,7.78-16.46c1.19-2.53,2.39-4.77,3.96-7.07,3.5-5.11,6.39-10.37,8.94-15.97,1.34-2.94,4.59-4.02,7.36-2.5,2.99,1.63,3.6,5.64,3.23,8.96Z"/>
          <path class="cls-6" d="M153.85,21.97c-2.55,7.44-9.81,13.03-16.94,16.54-3.93,6.03-8.58,11.35-13.97,16.12-1.32,1.16-2.22,2.11-3.02,3.71-3.11,6.22-6.74,12.08-10.87,17.67-.22.3-.5.47-.48.78.11,2.02,2.28-.91,3.96-2.62l7.78-2.27-3.37,2.77c-1.93,1.59-3.16,3.75-3.02,6.33.07,1.37.7,2.66,1.91,3.31,3.22,1.71,7.86.05,11.13-1.78,1.04-.58,2.02-.54,3.1.09l5.29,3.08c1.94,1.13,4.1,1.65,6.34,2l2.92,4.65c1,1.6,2.21,2.92,3.52,4.23s2.68,2.19,4.28,3.07c2.83,1.56,6,2.01,8.96.69-.63.96-1.6,1.68-2.85,1.95-5.19,1.13-10.08-1.9-13.39-5.93l-3.19-4.79c-.31-.46-1.16-.75-1.69-.87-3.55-.77-6.65-2.33-9.61-4.39-.77-.54-1.97.03-2.7.42-3.12,1.65-8.86,3.92-11.53,3.03l-2.1-3.27c-.85-1.27-1.25-2.78-2.4-3.85.47,2.88,1.72,5.53,3.55,7.45.47.49.57,1.14.26,1.84l-2.64,5.96c-.36.82-.8,1.39-1.49,2.05-.1.09.42.3.45.07,0-.07.08-.28.38-.31.12,2.2.57,4.37,1.24,6.45-1.9-1.47-3-3.54-5.53-4.97-1.45-.82-3.75-.82-5.33-.28,0-.27.07-.46-.03-.8-4.74.78-8.65,4.32-11.35,8.24s-4.11,8.46-4.67,13.11c-.53-.41-.44-1.09-.49-1.73l-.61-7.33c-.32-3.81.52-7.5,1.7-11.18l-4.33.87c-2.05.41-3.91,1.33-6.15,1.16,3.47-1.12,6.63-2.53,9.62-4.58l1.26-.72c.05.36-.08.69.2,1.12,2.45-1.56,4.91-2.64,7.5-3.73l4.63-1.96-.75-.38,3.65-1.69c-.09.78-.76.74-1.09,1.31,2.17-.06,4.29.15,6.25-.79.86-.41,1.49-2.15,1.46-3.14-.09-3.02-1.66-5.59-3.65-7.84-2.68-3.02-6.42-4.92-10.44-5.51.14.62.28,1.18-.27,1.65l-.2-1.78-3.62-.23c-.16-.01-.24-.12-.26-.31,1.3-.27,2.55-.78,3.72-1.35,1.57-.76,2.96-9.8,3.76-13.12l2.59-3.8c-1.48,5.25-4.67,14.01.43,16.9,2.16,1.22,5.49-.18,7-1.96,2.37-2.79,4.26-5.83,5.96-9.07,1.28-2.45,1.94-4.97,2.5-7.64.13-.62,1.01-.82,1.48-1.1,3.93-2.37,7.23-5.47,10.07-9.05,1.88-2.16,3.94-5.38,4.34-8.25,5.93-1.63,11.14-4.65,15.77-8.69,1.69-1.47,3.05-3.11,4.31-4.95.22-.31.37-.58.76-.62Z"/>
          <path class="cls-4" d="M156.03,88.98c-.84.02-1.7.29-2.12.89-1.59,2.3.9,6.14,3.15,7.2,1.54.72,3.29.03,4.8-.18.58,1.1.18,2.41-.51,3.46-2.95,1.33-6.12.87-8.96-.69-1.6-.88-2.98-1.77-4.28-3.07s-2.52-2.63-3.52-4.23l-2.92-4.65c-2.24-.35-4.4-.87-6.34-2l-5.29-3.08c-1.08-.63-2.06-.66-3.1-.09-3.27,1.82-7.91,3.48-11.13,1.78-1.21-.64-1.84-1.94-1.91-3.31-.14-2.59,1.09-4.74,3.02-6.33l3.37-2.77,8.45-2.42c1.32-.38,2.74.08,3.96.78,5.47,3.19,10.91,6.16,16.58,8.99,1.41.7,2.33,1.68,3.07,3.02l3.67,6.7Z"/>
          <path class="cls-6" d="M115.03,12.09c-.77,7.23-5.31,14.65-10.19,20.22-1.65,6.55-4.35,12.51-6.66,18.81-.95,2.61-.74,5.56-1.23,8.28-.81,4.49-1.47,8.83-2.67,13.13-1.56.79-3.31,1.06-5.04,1.25-.04-.17-.01-.42.07-.53.04-.05,2.31-.76,3.47-4.19,1.53-4.53,2.08-9.28,1.84-14.08l-.47-3.66c-.1-.8.81-1.4,1.25-2.04,3.02-4.41,4.95-9.41,5.76-14.74l.02-3.11c5.53-4.48,10.95-11.82,13.16-18.51.15-.44.24-.78.67-.83Z"/>
          <path class="cls-6" d="M79.5,59.85c.24-.04.4.08.39.26-.4,5.48-.18,13.19,5.8,13.67.23.02.44.22.54.31-.19.04-.43.56-.19.59l2.19.28c-.03.38-.37.75-.84.78-3.29.17-6.21,1.23-9.26,2.6-1.76,1.4-3.66,2.53-5.82,2.98-.12-.83,2.32-1.18,2.73-2.21l.92-2.33c.59-1.48.4-3.03.13-4.57-.69-3.89-1.99-7.55-4.33-10.71-.36-.49-.85-.84-1.17-1.23-.41-.5.29-1.29.42-1.82,1.01-4.04,1.01-8.25-.09-12.24-.34-1.25-.94-2.26-1.9-3.2,3.29-4.98,4.21-11.52,4.66-17.4.23,1.21.53,2.38.58,3.75.27,7.14-1.93,11.81-1.67,13.98.44,3.7.85,7.24,1.02,10.98.08,1.6-.2,3.32.3,4.84,1.7,5.18,3.45,10.22,4.31,15.62.13.79.11,1.56.96,2.03.56-.89.48-1.88.36-2.9-.32-2.8-.89-5.43-1.57-8.17l1.52-5.88Z"/>
          <path class="cls-6" d="M124.35,116.89c.03.41-.24.59-.49.88-1.39,1.63-2.11,2.73-2.59,4.98,0,2.94.11,5.83-1.19,8.54.56-5.25.21-10.18-1.86-14.85l-.35-1.25c.4.04.62.34.92.65,1.03,1.07,2.52,1.43,4.02,1.24l1.54-.19Z"/>
          <path class="cls-4" d="M156.93,90.43l2.68,3.31c.65.8,1.37,1.47,1.81,2.31l-2.64.46c-1.12.19-1.86-.39-2.48-1.2-.71-.92-1.54-1.69-1.88-2.86-.22-.76-.17-1.85.62-2.25.59-.29,1.34.14,1.88.23Z"/>
          <path class="cls-10" d="M162.28,104.05c-1.41.69-2.83,1.32-4.42,1.62-4.24.79-7.89-2.24-12.91-.6-.15.05-.37-.05-.42-.24,1.52-.84,3.07-1.84,4.94-2.15,3.92,1.95,8.05,2.51,11.95.51.34-.17.79.65.86.86Z"/>
          <path class="cls-6" d="M135.13,113.25c.75-.25,1.59-1.03,2.08-1.7l-.73,2.95c-.49,2.88.31,5.53,1.45,8.38-3.02-2.35-3.76-6.19-2.79-9.63Z"/>
          <path class="cls-6" d="M156.03,88.98l.89,1.45c-.54-.09-1.29-.52-1.88-.23-.79.39-.84,1.48-.62,2.25.34,1.17,1.17,1.94,1.88,2.86.62.81,1.36,1.39,2.48,1.2l2.64-.46.45.85c-1.51.21-3.26.9-4.8.18-2.25-1.06-4.75-4.9-3.15-7.2.41-.6,1.27-.87,2.12-.89Z"/>
          <path class="cls-7" d="M94.29,72.53c-.07.27.32.7.58.81-1.17.57-2.42,1.09-3.72,1.35-.93.19-1.97.39-2.92.27l-2.19-.28c-.24-.03,0-.54.19-.59l3.02-.32c1.73-.18,3.48-.46,5.04-1.25Z"/>
          <path class="cls-7" d="M116.4,89.78c-.24-.08-.66.16-.95.34-1.83-1.92-3.07-4.58-3.55-7.45,1.14,1.07,1.55,2.58,2.4,3.85l2.1,3.27Z"/>
          <rect class="cls-8" x="100.04" y="53.49" width=".15" height=".15" transform="translate(-8.55 86.48) rotate(-45)"/>
          <path class="cls-7" d="M102.8,100.94c-7.41,2.51-12.31,9.41-14.11,16.99-1.29,5.46-.53,9.86-1.38,13.84l-1.17.44c.41-2.43.34-4.92.47-7.5l.15-3.22c.56-4.65,1.95-9.16,4.67-13.11s6.61-7.47,11.35-8.24c.1.34.02.53.03.8Z"/>
          <path class="cls-7" d="M99.33,93.02l.75.38-4.63,1.96c-2.59,1.09-5.05,2.17-7.5,3.73-.28-.42-.15-.75-.2-1.12,3.41-2.53,7.48-3.95,11.58-4.95Z"/>
          <path class="cls-6" d="M87.3,131.77c-.53,2.46-1.15,5.03-2.96,7.22.6-2.3,1.39-4.48,1.79-6.78l1.17-.44Z"/>
        </g>
      </g>
    </g>
  </g>
</svg>