<?xml version="1.0" encoding="UTF-8"?>
<svg id="Capa_2" data-name="Capa 2" xmlns="http://www.w3.org/2000/svg" viewBox="0 0 151.57 201.5">
  <defs>
    <style>
      .cls-1 {
        fill: #0b0b0b;
      }

      .cls-2 {
        fill: #a9a9a5;
      }

      .cls-3 {
        fill: #42102f;
      }

      .cls-4 {
        fill: #333332;
      }

      .cls-5 {
        fill: #ae6951;
      }

      .cls-6 {
        fill: #daa484;
      }

      .cls-7 {
        fill: #be896b;
      }
    </style>
  </defs>
  <g id="Capa_1-2" data-name="Capa 1">
    <g>
      <g>
        <g>
          <path class="cls-2" d="M150.75,150.91c.48,1.51.75,3.07.73,4.71l-.06,3.77c-.77,9.28-4.58,17.89-10.78,24.78l-3.34,3.37c-6.16,5.47-13.48,9.32-21.42,11.58-8.98,2.55-18.28,3.1-27.39,1.41-.05,0-.11-.42,0-.44,1.18-.21,2.16-.77,3.25-1.2,7.64-2.98,13.71-8.58,18.51-15.18,6.73-9.27,10.99-20.77,12.42-32.15.96-7.6.11-13.69-2.2-21.1,7.65,6.28,15.34,11.92,23.6,17.04l5.13,3.03c.48.28,1.04.51,1.55.36Z"/>
          <g>
            <path class="cls-4" d="M69.03,149.64c-3.27,10.92-1.38,23.29,3.79,33.34,1.23,2.4,2.71,4.46,4.57,6.37.31.32.97.54,1.08,1.01.13.68.31,1.28.98,1.68,5.28,3.1,13.17-1.79,17.51-5.66,3.82-3.4,6.91-7.37,9.53-11.78,4.29-7.21,7.07-14.99,8.48-23.26,1.01-5.95,1.03-11.87-.62-17.68-.69-2.41-1.6-4.64-3.14-6.61l-1.86-1.88c-.53-.53-1.21-.73-1.89-1.07l.54-3.19c2.48.64,4.41,2.11,6.18,3.81l3.45,3.4c3.85,7.42,4.45,16.56,3.26,24.78-.82,5.66-2.37,11.02-4.5,16.32-2.56,6.38-6.06,12.24-10.56,17.41l-4.42,4.39c-3.38,2.99-7.2,5.29-11.58,6.45l-2.96.28c-5.26.49-10.08-1.72-13.68-5.51-7.33-7.74-10.72-20.99-10.8-31.54.09-5.39.91-10.53,2.78-15.64l3.86,4.6Z"/>
            <path class="cls-2" d="M99.16,180.18l-1.87,2.15c-3.08,3.53-9.94,8.3-14.76,8.34-1.33-.13-2.64-1.3-3.63-2.18-2.34-2.08-3.9-4.65-5.25-7.48-4.29-8.98-6.05-20.18-3.44-29.87l1.92,1.97,3.92,3.88,5.3,5.14,12.52,12.5,4,4.15,1.3,1.38Z"/>
          </g>
        </g>
        <path class="cls-7" d="M27,89.21c-.39-.03-.86.04-1.07.45-.87,1.71-1.96,3.32-3.76,4.36,1.22-2.26,2.18-4.39,2.14-6.88,0-.28-.09-.55.18-.76.28.46.8.8.69,1.57-.04.24.29.57.53.55.7-.07.9.39,1.29.71Z"/>
        <path class="cls-7" d="M72.95,126.4c-.18-3.16-.48-6.11-1.37-9.21-2-7-5.58-13.41-10.53-18.73-2.15-2.32-4.46-4.11-6.89-6.15,3.81,1.69,6.6,4.38,9.42,7.2,4.59,5.11,7.8,11.34,9.16,18.11.59,2.93.81,5.79.2,8.77Z"/>
        <rect class="cls-5" x="79.62" y="104.92" width=".33" height=".68" transform="translate(-50.47 83.38) rotate(-43.3)"/>
        <path class="cls-1" d="M150.75,150.91c-.5.15-1.07-.08-1.55-.36l-5.13-3.03c-8.25-5.13-15.95-10.77-23.6-17.04,2.31,7.4,3.15,13.5,2.2,21.1-1.43,11.38-5.68,22.88-12.42,32.15-4.8,6.6-10.87,12.19-18.51,15.18-1.09.43-2.07.99-3.25,1.2-.11.02-.05.43,0,.44-.75-.14-1.36-.17-2.21-.12-5.16.31-10.11-1.61-13.87-5.11-4.36-4.04-7.24-9.47-9.22-15.05-2.08-5.88-3.25-11.86-3.37-18.12-.1-5.19.36-10.21,2.03-15.09l1.35-3.97c-.31-.33-.68-.66-1.11-.78l-5.93-1.75c-4.41-1.48-8.22-4.01-11.61-7.24-4.21-4.01-8.45-7.75-13.05-11.33-2.75-2.14-4.95-4.63-6.7-7.64-3.15-5.42-6.83-10.34-11.01-15-1.31-1.46-2.24-2.97-3.16-4.68-1.5-2.76-3.29-5.29-5.61-7.39l-2.83-2.56c-2.19-1.98-2.85-5.13-1.54-7.82,1.67-3.42,6.83-4.25,10.59-3.49,4.05.82,7.64,2.78,10.6,5.65,2.18,2.11,3.57,4.64,5.32,7.08.75,1.04,2.05,1.74,2.98,2.67l4.97,4.95c1.06,1.06,2.22,1.92,3.72,2.36l1.41-5.95c.66-4.93.59-9.79.23-14.76-.14-1.93-.32-3.73-.79-5.58l-1.61-6.36-3.65-14.27c-1.22-4.75-1.86-9.42-2.84-14.23l-2.27-11.2c-.75-3.71-1.38-8.61.23-11.84,1.31-2.63,3.93-3.98,6.87-3.74,3.61.3,5.73,3.31,6.8,6.67.83,2.6,1.44,5.15,2.11,7.81.91,3.59,1.86,7,2.94,10.56l3.57,11.76c1.32,4.36,2.69,8.55,3.74,12.98.33,1.38.73,2.66,1.29,3.93.17.39.57.61.92.53.77-.18.84-1.63.76-3l-.86-15.6-.61-8.14c-.32-4.24-.09-8.29-.07-12.53.03-5.31-.71-13.47.75-17.88,1.32-3.99,4.67-5.91,8.49-5.1,2.17.46,4.07,1.98,5.07,4.19.65,1.44.96,2.93,1.13,4.53.31,2.82.39,5.55.5,8.41.13,3.16.36,6.13.64,9.29l1.29,14.73.94,12.88.47,5.38c.07.74.28,1.6.86,2.09.33.28.81-.17.87-.51l.72-4,1.89-11.07c.59-3.47.79-6.82,1.49-10.26l1.49-7.3,2.26-12.37c.29-1.6.76-3.01,1.39-4.47,1.63-3.83,6.07-5.3,9.65-3.08,3.9,2.43,3.71,7.74,3.29,12.28l-.93,9.97c-.52,9.25-1.45,18.29-3.02,27.42l-.79,6.37c-.23,1.89.5,3.51,1.14,3.11.68-.42,1.03-1.37,1.37-2.1l3.67-8c1.53-3.34,2.62-6.71,4.44-9.91.56-.98.83-2.01,1.16-3.08,1.01-3.24,1.95-6.4,3.35-9.49.66-1.46,1.43-2.81,2.64-3.86,1.7-1.49,4.03-1.93,6.26-1.09,3.81,1.43,4.65,6.09,3.6,9.99l-2.8,10.38c-1.07,3.95-2.21,7.69-3.58,11.55l-3.6,10.08c-1.09,3.04-1.99,6.01-2.48,9.22l-.36,6.01-.25,5.92-.24,9.22c-.14,5.27-.68,10.35-1.31,15.59,2.53.56,4.69,1.77,6.46,3.51l3.14,3.07c6.05,5.56,12.49,10.51,19.25,15.22,4.3,3,8.6,5.8,13.19,8.28.61.33,1.02.62,1.05,1.3.02.55-.24,1.17-.81,1.35ZM60.16,5.73c-.66,1.31-.78,2.83-.87,4.38-.41,4.39.07,8.63,0,13.05-.08,5.49-.24,10.79.37,16.26l.21,2.9.95,16.94c.15,2.63-.29,5.06-2.8,5.44-1.35.21-2.59-.55-3.2-1.87-.8-1.73-1-3.41-1.69-4.87.05-.09.08-.29.03-.37l-.15-.27c-.79-4-2.26-7.84-3.43-11.83l-2.22-7.58-2.61-8.45-2.47-9.59c-.5-1.92-.98-3.76-1.74-5.57-.58-1.38-1.44-2.57-2.76-3.29s-2.93-.71-4.35.07c-1.19.65-2.18,1.97-2.27,3.44-.57,1.55-.33,4.24-.04,6.22.52,3.47,1.22,6.81,1.99,10.23.31,1.4.58,2.69.8,4.11,1.48,9.52,4.01,19.08,6.51,28.29l.26.96.44,1.89c.73,3.12,1.43,6.1,1.62,9.34.29,4.89.38,9.65-.17,14.5l-.7,3.37c-.2.96-.36,1.72,0,2.67.56,1.5,1.71.49,2.26,1.53l-4.33.81c-1.57.11-3.09-.6-4.36-1.31-.59-.33-1.15-.86-1.68-1.39l-5.64-5.58-1.15-.97c-.39-.33-.58-.79-1.29-.71-.23.02-.56-.3-.53-.55.11-.77-.41-1.1-.69-1.57-1.7-2.83-3.81-5.47-6.53-7.51-2.19-1.65-4.71-2.66-7.4-3.21-2.2-.44-4.55-.19-6.44.92-1.54.9-2.13,2.68-1.63,4.19.17.51.3,1,.71,1.47.9,1.06,1.93,1.94,2.97,2.88,5.09,4.56,6.4,9.14,8.78,11.9,3.38,3.92,6.68,7.78,9.44,12.18l3.77,6.02c1.32,2.1,3.23,3.67,5.21,5.21,4.67,3.62,8.9,7.47,13.21,11.5,2.78,2.61,5.88,4.68,9.43,6.03,3.12,1.19,6.25,1.97,9.54,2.53,2.57.44,4.99.36,7.57.21-2.32,1.09-4.64,1.25-7.16,1.39l2.93,3.35c2.02,2.62,4.14,5,6.51,7.32l6.25,6.11,4.24,4.08,11.17,11.25,3.82,3.96c5.74-7.55,9.35-16.42,11.27-25.6,1.24-5.91,1.71-12.74-.32-18.32-1.99-2.24-4.38-4.2-5.62-7.23-.77,1.72-1.41,3.12-2.67,4.43-.5.52-.87,1.18-1.64,1.55,2.35-4.11,3.28-8.34,3.98-12.94,1.26-8.22,1.58-16.37,1.8-24.68l.34-12.68c.04-1.68-.4-3.26-.06-5,.54.8.22,1.59.49,2.5l1.43-5.44,1.74-5.42.87-2.38c.44-1.21.94-2.42,1.14-3.62.27-.01.23-.23.31-.44,1.65-4.22,3.04-8.43,4.08-12.83l.44-1.57c.93-3.31,2.05-6.57,2.64-10.04.52-2.99-.48-5.83-3.19-6.31-2.15-.39-4.07,1.19-4.7,3.32-.08,0-.25.06-.31.19l-1.74,4.29-2.32,7.15-1.56,3.29c-1.3,2.74-2.29,5.46-3.54,8.21l-3.86,8.44c-.55,1.19-1.21,2.27-2.34,2.93.17.33.47.4.67.59l.21.2c.09.09-.02.5-.15.43l-3.22-1.56c-1.44-.96-1.93-2.78-1.84-4.51.15-2.89.61-5.68,1-8.46l1.47-10.44c.74-5.22,1.04-10.31,1.33-15.58l.71-6.98c.29-2.88.55-5.69.34-8.57-.11-1.59-.69-3.15-1.85-4.14-1.88-1.62-4.43-1.43-6.01.41-.74.87-1.18,1.94-1.39,2.99l-.34.64-1.29,6.2-1.43,8.37-1.99,9.87-.9,7.11-2.05,12.19-.53,2.75c-.17.87-.61,1.57-1.28,2.13l1.14.43c.2.07.27.34.19.5-.05.11-.33.1-.46.08l-.81.02c-.06-.15-.22-.16-.35-.16-.95.05-1.83-.36-2.76-.45-1.34-.84-2.99-.52-2.49-1.25l1.58.03c-.57-1-.87-2-.96-3.13l-.55-6.6-.13-1.31-.83-10.91-1.56-18.04-.58-11.56c-.17-3.39-.71-7.17-3.8-8.57-2.67-1.21-5.75.28-6.47,3.01ZM69.03,149.64l-3.86-4.6c-1.87,5.11-2.69,10.25-2.78,15.64.08,10.55,3.47,23.8,10.8,31.54,3.59,3.79,8.42,6,13.68,5.51l2.96-.28c4.38-1.16,8.2-3.46,11.58-6.45l4.42-4.39c4.51-5.17,8.01-11.03,10.56-17.41,2.13-5.31,3.68-10.66,4.5-16.32,1.19-8.21.59-17.35-3.26-24.78l-3.45-3.4c-1.77-1.7-3.71-3.17-6.18-3.81l-.54,3.19c.68.34,1.37.54,1.89,1.07l1.86,1.88c1.54,1.97,2.45,4.19,3.14,6.61,1.65,5.81,1.63,11.74.62,17.68-1.41,8.27-4.19,16.05-8.48,23.26-2.62,4.4-5.71,8.38-9.53,11.78-4.34,3.87-12.22,8.76-17.51,5.66-.68-.4-.86-1-.98-1.68-.11-.46-.77-.69-1.08-1.01-1.86-1.9-3.33-3.97-4.57-6.37-5.17-10.05-7.06-22.42-3.79-33.34ZM99.16,180.18l-1.3-1.38-4-4.15-12.52-12.5-5.3-5.14-3.92-3.88-1.92-1.97c-2.6,9.69-.84,20.88,3.44,29.87,1.35,2.84,2.91,5.4,5.25,7.48.99.88,2.3,2.04,3.63,2.18,4.82-.03,11.68-4.8,14.76-8.34l1.87-2.15Z"/>
        <path class="cls-5" d="M53.84,92.1c.09.13.22,0,.09-.09l.15.15c.1.04.08.16-.03.16l-.21-.23Z"/>
        <path class="cls-6" d="M73.4,51.8c-.15.02-.23.14-.22.32.1,2.84.14,5.58-.03,8.41-.13,2.13-1.42,1.82-2.98,2.48,1.76.2,3.29.43,4.85.96l.94.09c.92.09,1.81.5,2.76.45-.02.09-.01.26.1.31.15.06.18-.13.25-.15l.81-.02c.03.22.19.33.47.36l4.61.6-1.93-1.17c-.6-.59-.77-1.51-.79-2.38-.08-4.29.84-10.71,2.67-14.47.4-.82,1.21-1.07,2.06-1.05l.32-.07c.12-.03.12-.15.02-.2-.85-.4-1.7-.34-1.83-1.84-.25-2.91,0-5.74.5-8.63.35-2.01.7-4.01,1.71-5.8.41-.72,1.46-.59,2.21-.78-.67-.36-1.52-.38-1.74-1.14-.84-2.84.25-9.86.82-13.51.02-.12-.03-.2-.16-.2.21-1.05.65-2.12,1.39-2.99,1.57-1.85,4.13-2.03,6.01-.41,1.15.99,1.73,2.56,1.85,4.14.2,2.88-.05,5.69-.34,8.57l-.71,6.98c-.29,5.27-.6,10.36-1.33,15.58l-1.47,10.44c-.08-.02-.17,0-.22.04-.12.09-.08.29-.11.42l-1.09,4.62-1.01,3.52c-.19.65-.62,1.12-1.34,1.16l-2.17.12c2.26.87,4.29,1.95,6.35,3.22l3.05,1.51,4.41,1.75c.05-.1.09-.13.12-.18-.48-.52-1.32-1.05-1.39-1.92-.21-2.84,2.08-8.02,3.84-10.63.53-.79,1.19-.91,2.26-.68-.78-.73-1.05-1.36-.85-2.34.64-3.23,1.98-6.31,3.82-9.04.54-.81,1.37-.5,2.38-.42-1.08-.61-1.61-1.21-1.49-2.4.26-2.56,1-4.97,1.73-7.42l.76-2.54c.63-2.13,2.55-3.71,4.7-3.32,2.71.49,3.7,3.32,3.19,6.31-.6,3.47-1.72,6.74-2.64,10.04-.74.63-1.1,1.55-1.4,2.54l-3.03,9.97-.4,2.33c-.2,1.2-.7,2.41-1.14,3.62l-.87,2.38c-.22,0-.34.14-.46.39l-2.27,4.85c-.5,1.06-1.56,1.35-2.6.88-.89-.4-1.6-1.16-2.58-1.33,1.13,1.23,2.32,2.18,2.86,3.64,1.15,3.15.67,9.79-.19,13.32-.41,1.68-1.63,2.65-3.44,2.36-3.92-.62-7.69-1.63-11.55-2.76-9.58-2.56-18.46-6.29-27.43-10.98,2.7,2.59,5.96,4.41,9.31,6.04,9.14,4.44,18.93,7.18,29.03,8.19,1.12.11,2.24.22,2.91,1.2.63.92.78,2.2.74,3.34l-.25,7.4c-.42,4.88-1.03,9.62-2.21,14.37-1.27,5.07-3.1,10-7.47,13.11s-9.78,4.17-14.93,3.01c-2.51-.56-4.52-2.12-5.58-4.5-.59.88-1.21,1.4-2.06,1.86-3.01,1.64-6.38,2.24-9.83,2.05l-3.35-.41c-3.13-.7-5.98-1.9-8.61-3.77l-5.3-4.31-9.08-8.16c-2.14-1.92-4.39-3.57-6.3-5.74l-3.51-4.8c-2.29-3.41-4.72-6.58-7.34-9.7-.75-.89-.52-2.09.1-3.08-1.13.4-2.09.61-3-.09-3.08-2.37-4.71-7.79-10.38-11.91l-4.33-3.05c-.5-1.51.09-3.29,1.63-4.19,1.89-1.11,4.24-1.36,6.44-.92,2.69.54,5.21,1.56,7.4,3.21,2.72,2.04,4.83,4.67,6.53,7.51-.27.21-.18.48-.18.76.04,2.48-.92,4.62-2.14,6.88,1.8-1.04,2.89-2.65,3.76-4.36.21-.41.68-.48,1.07-.45l1.15.97,5.64,5.58c.53.53,1.08,1.05,1.68,1.39.3.93,1.48,1.52,2.3,3.09.94,1.8-.14,4.21.02,6.35,1.25-3.86,2.32-7.7,6.61-8.73l3.66-.03c-1.2-1.07-2.7-1.36-4.09-2.02s-.04-4.85.67-6.93c.49-1.43,1.61-2.14,3.17-1.76,5.84,1.42,11.44,3.53,16.79,6.29,3.94,2.03,7.36,4.52,10.66,7.42,1.52,1.34,2.66,2.97,4.42,4.09-5.17-7.43-12.43-12.77-20.69-15.93-3.45-1.32-6.82-2.23-10.42-2.94-.99-.2-1.96-.76-2.47-1.6-1.73-2.82-1.47-9.35-.79-12.84.64-3.25,3.47-4.16,6.49-5.25s5.92-.68,6.89-.94l7.36-1.95c-.85-.52-1.7-.16-2.33-.75-.5-.47-.79-1.28-.94-2.01-.95-4.94-1.55-12.39-.26-17.11.25-.91.96-1.45,1.96-1.56.97-.71-1.57.19-2.19-1.98-.94-3.33-1.27-6.73-1.36-10.22-.04-1.5.22-2.91.36-4.4s1.07-2.29,2.62-2.33c-.76-.65-2.02-.24-2.38-1.85-1.06-4.72-1.53-9.55-1.3-14.4.02-.42.28-.83-.07-1.13.72-2.73,3.81-4.23,6.47-3.01,3.09,1.41,3.62,5.18,3.8,8.57l.58,11.56,1.56,18.04.83,10.91ZM102.26,72.93l-.15.14c.11.18.33,0,.15-.14ZM63.84,79.63l-.08.08.08.08.08-.08-.08-.08ZM53.84,92.1c.09.13.22,0,.09-.09l-.09.09ZM54.08,92.16l-.03.16c.11,0,.13-.12.03-.16ZM72.95,126.4c.61-2.98.39-5.84-.2-8.77-1.37-6.76-4.57-13-9.16-18.11-2.82-2.82-5.61-5.51-9.42-7.2,2.42,2.05,4.74,3.83,6.89,6.15,4.94,5.32,8.52,11.73,10.53,18.73.89,3.1,1.18,6.04,1.37,9.21ZM79.67,104.9l-.24.22.47.49.24-.22-.47-.49ZM80.11,105.67l-.08.08.08.08.08-.08-.08-.08Z"/>
        <rect class="cls-5" x="80.05" y="105.69" width=".12" height=".12" transform="translate(-51.31 87.62) rotate(-45)"/>
        <path class="cls-1" d="M78.57,142.29l4.55-.1,4.98-.28c-3.07,1.32-6.35,1.36-9.53.39Z"/>
        <path class="cls-7" d="M111.61,69.36l-1.74,5.42-1.43,5.44c-.27-.92.05-1.7-.49-2.5-.34,1.74.11,3.32.06,5l-.34,12.68c-.22,8.3-.55,16.46-1.8,24.68-.7,4.6-1.63,8.83-3.98,12.94.77-.37,1.14-1.03,1.64-1.55,1.26-1.31,1.89-2.71,2.67-4.43,1.24,3.02,3.62,4.99,5.62,7.23,2.03,5.59,1.56,12.42.32,18.32-1.92,9.17-5.53,18.05-11.27,25.6l-3.82-3.96-11.17-11.25-4.24-4.08-6.25-6.11c-2.37-2.32-4.49-4.7-6.51-7.32l-2.93-3.35c2.52-.14,4.84-.31,7.16-1.39-2.58.15-5,.23-7.57-.21-3.29-.56-6.41-1.34-9.54-2.53-3.54-1.36-6.64-3.42-9.43-6.03-4.3-4.03-8.54-7.89-13.21-11.5-1.98-1.53-3.89-3.1-5.21-5.21l-3.77-6.02c-2.75-4.4-6.05-8.26-9.44-12.18-2.38-2.76-3.7-7.35-8.78-11.9-1.04-.93-2.07-1.82-2.97-2.88-.4-.47-.54-.96-.71-1.47l4.33,3.05c5.67,4.12,7.3,9.54,10.38,11.91.9.7,1.87.49,3,.09-.62.98-.85,2.18-.1,3.08,2.62,3.11,5.05,6.28,7.34,9.7l3.51,4.8c1.9,2.17,4.16,3.81,6.3,5.74l9.08,8.16,5.3,4.31c2.63,1.87,5.48,3.07,8.61,3.77l3.35.41c3.44.19,6.81-.41,9.83-2.05.84-.46,1.47-.98,2.06-1.86,1.06,2.38,3.07,3.94,5.58,4.5,5.15,1.16,10.64.04,14.93-3.01s6.21-8.03,7.47-13.11c1.19-4.76,1.8-9.49,2.21-14.37l.25-7.4c.04-1.13-.11-2.41-.74-3.34-.67-.98-1.79-1.09-2.91-1.2-10.1-1.01-19.9-3.75-29.03-8.19-3.35-1.63-6.6-3.45-9.31-6.04,8.97,4.69,17.85,8.42,27.43,10.98,3.86,1.13,7.63,2.14,11.55,2.76,1.81.29,3.03-.68,3.44-2.36.86-3.53,1.35-10.16.19-13.32-.53-1.45-1.73-2.41-2.86-3.64.98.16,1.68.93,2.58,1.33,1.04.46,2.1.18,2.6-.88l2.27-4.85c.12-.25.24-.38.46-.39ZM78.57,142.29c3.18.97,6.46.94,9.53-.39l-4.98.28-4.55.1Z"/>
      </g>
      <g>
        <path class="cls-6" d="M53.03,57.33c-.1,0-.15.05-.18.1-.05.09.03.24.09.23l.24-.06c.05.08.01.28-.03.37-.05.11-.17.27-.13.49l.57,3.68c.2,1.27-.31,2.35-1.42,2.97-1.77,1-3.6,1.82-5.57,2.38-1.28.36-2.35-.33-2.92-1.49-.82-1.68-1.37-3.43-1.92-5.24-.05-.17-.14-.22-.27-.21.02-.48-.05-.94-.17-1.4-.72-2.75-1.31-5.56-1.47-8.48-.09-1.67.59-2.79,2.31-3.43l-1.95-.03c-.77-.16-1.23-.66-1.57-1.38-1.75-3.72-2.68-7.77-2.75-11.91-.02-1.52.75-2.55,2.35-2.92-.9-.51-2.11.36-2.87-.91-.63-1.06-1.02-2.15-1.41-3.35-1.3-4.03-2.16-8.12-2.75-12.21.09-1.47,1.08-2.79,2.27-3.44,1.43-.78,2.97-.83,4.35-.07s2.18,1.91,2.76,3.29c.76,1.82,1.25,3.65,1.74,5.57l2.47,9.59,2.61,8.45,2.22,7.58c1.17,3.99,2.63,7.83,3.43,11.83Z"/>
        <path class="cls-7" d="M35.47,97.15c1.28.72,2.8,1.42,4.36,1.31l4.33-.81c-.55-1.04-1.7-.03-2.26-1.53-.36-.96-.2-1.71,0-2.67l.7-3.37c.56-4.85.46-9.61.17-14.5-.19-3.24-.89-6.22-1.62-9.34l-.44-1.89c.82-.51.69-2.33.76-3.79.13,0,.22.04.27.21.55,1.81,1.1,3.56,1.92,5.24.57,1.16,1.64,1.85,2.92,1.49,1.97-.56,3.8-1.38,5.57-2.38,1.11-.63,1.62-1.7,1.42-2.97l-.57-3.68c-.03-.22.08-.39.13-.49.69,1.46.89,3.15,1.69,4.87.61,1.32,1.85,2.07,3.2,1.87,2.51-.38,2.95-2.81,2.8-5.44l-.95-16.94-.21-2.9c-.61-5.47-.45-10.76-.37-16.26.06-4.42-.42-8.67,0-13.05.09-1.54.2-3.07.87-4.38.35.3.09.71.07,1.13-.23,4.86.24,9.68,1.3,14.4.36,1.61,1.63,1.2,2.38,1.85-1.54.04-2.48.92-2.62,2.33-.14,1.48-.4,2.89-.36,4.4.09,3.49.42,6.89,1.36,10.22.62,2.17,3.16,1.27,2.19,1.98-1,.11-1.71.65-1.96,1.56-1.28,4.72-.69,12.17.26,17.11.14.73.44,1.54.94,2.01.64.6,1.48.23,2.33.75l-7.36,1.95c-.97.26-3.99-.11-6.89.94s-5.86,2-6.49,5.25c-.68,3.49-.94,10.01.79,12.84.51.84,1.48,1.4,2.47,1.6,3.6.72,6.97,1.62,10.42,2.94,8.26,3.16,15.52,8.5,20.69,15.93-1.76-1.12-2.9-2.76-4.42-4.09-3.3-2.9-6.72-5.39-10.66-7.42-5.35-2.76-10.95-4.87-16.79-6.29-1.56-.38-2.68.33-3.17,1.76-.71,2.09-2.12,6.24-.67,6.93s2.89.95,4.09,2.02l-3.66.03c-4.28,1.02-5.36,4.87-6.61,8.73-.16-2.14.92-4.55-.02-6.35-.82-1.57-1.99-2.17-2.3-3.09Z"/>
        <path class="cls-7" d="M41.3,59.16c-.06-.02-.17-.03-.22,0-.29.17-.45,2.33-.38,3.72.01.26-.06.43-.24.5-2.5-9.21-5.03-18.77-6.51-28.29-.22-1.42-.49-2.71-.8-4.11-.77-3.42-1.47-6.75-1.99-10.23-.3-1.98-.54-4.67.04-6.22.59,4.09,1.45,8.18,2.75,12.21.39,1.2.78,2.29,1.41,3.35.75,1.26,1.97.4,2.87.91-1.6.38-2.37,1.4-2.35,2.92.07,4.13,1,8.19,2.75,11.91.34.72.8,1.22,1.57,1.38l1.95.03c-1.72.65-2.4,1.77-2.31,3.43.16,2.91.75,5.73,1.47,8.48Z"/>
        <path class="cls-7" d="M79.87,64.64c.13.02.41.03.46-.08.08-.16,0-.43-.19-.5l-1.14-.43c.67-.57,1.11-1.26,1.28-2.13l.53-2.75,2.05-12.19.9-7.11,1.99-9.87,1.43-8.37,1.29-6.2.34-.64c.13,0,.18.08.16.2-.57,3.65-1.66,10.66-.82,13.51.22.76,1.07.77,1.74,1.14-.75.19-1.8.06-2.21.78-1.01,1.79-1.36,3.79-1.71,5.8-.51,2.89-.75,5.72-.5,8.63.13,1.5.97,1.44,1.83,1.84.1.05.1.17-.02.2l-.32.07c-.84-.02-1.66.24-2.06,1.05-1.82,3.76-2.75,10.19-2.67,14.47.02.87.19,1.78.79,2.38l1.93,1.17-4.61-.6c-.28-.04-.44-.15-.47-.36Z"/>
        <path class="cls-7" d="M75.95,64.06l-.94-.09c-1.56-.52-3.09-.75-4.85-.96,1.56-.66,2.85-.35,2.98-2.48.17-2.83.13-5.57.03-8.41,0-.19.08-.31.22-.32l.13,1.31.55,6.6c.09,1.13.39,2.13.96,3.13l-1.58-.03c-.5.73,1.15.42,2.49,1.25Z"/>
        <path class="cls-5" d="M118.44,48.53l-.44,1.57c-1.04,4.41-2.43,8.61-4.08,12.83-.08.21-.04.43-.31.44l.4-2.33,3.03-9.97c.3-.99.66-1.91,1.4-2.54Z"/>
        <path class="cls-3" d="M41.3,59.16c.12.46.19.93.17,1.4-.06,1.45.07,3.27-.76,3.79l-.26-.96c.18-.07.25-.24.24-.5-.07-1.39.09-3.55.38-3.72.06-.03.16-.03.22,0Z"/>
        <path class="cls-5" d="M53.17,57.6l-.24.06c-.06.01-.14-.14-.09-.23.03-.05.08-.1.18-.1l.15.27Z"/>
        <path class="cls-5" d="M79.06,64.66c-.07.02-.1.21-.25.15-.11-.05-.12-.22-.1-.31.13,0,.29,0,.35.16Z"/>
        <path class="cls-7" d="M113.2,35.49l-.76,2.54c-.73,2.45-1.47,4.86-1.73,7.42-.12,1.18.41,1.79,1.49,2.4-1.01-.08-1.83-.39-2.38.42-1.83,2.73-3.18,5.81-3.82,9.04-.19.98.07,1.61.85,2.34-1.07-.24-1.73-.11-2.26.68-1.76,2.61-4.06,7.79-3.84,10.63.07.87.91,1.39,1.39,1.92.04.04.09.07.11.07.17.13-.05.32-.15.14,0-.02-.03-.05-.07-.04l-4.41-1.75-3.05-1.51c-2.05-1.27-4.09-2.35-6.35-3.22l2.17-.12c.72-.04,1.16-.51,1.34-1.16l1.01-3.52,1.09-4.62c.03-.13,0-.34.11-.42.05-.04.14-.06.22-.04-.39,2.78-.85,5.57-1,8.46-.09,1.74.41,3.55,1.84,4.51l3.22,1.56c.13.06.25-.35.15-.43l-.21-.2c-.2-.19-.5-.26-.67-.59,1.13-.66,1.8-1.74,2.34-2.93l3.86-8.44c1.26-2.75,2.24-5.47,3.54-8.21l1.56-3.29,2.32-7.15,1.74-4.29c.06-.14.23-.18.31-.19Z"/>
        <rect class="cls-5" x="63.78" y="79.65" width=".12" height=".12" transform="translate(-37.67 68.49) rotate(-45)"/>
      </g>
    </g>
  </g>
</svg>