<?xml version="1.0" encoding="UTF-8"?>
<svg id="Capa_2" data-name="Capa 2" xmlns="http://www.w3.org/2000/svg" viewBox="0 0 941.61 572.66">
  <defs>
    <style>
      .cls-1 {
        letter-spacing: -.03em;
      }

      .cls-2 {
        font-size: 21px;
      }

      .cls-3 {
        stroke: #000;
        stroke-miterlimit: 10;
      }

      .cls-3, .cls-4 {
        fill: #fff;
      }

      .cls-4 {
        font-family: EricaOne-Regular, 'Erica One';
        opacity: .99;
      }

      .cls-5 {
        letter-spacing: -.02em;
      }

      .cls-6 {
        letter-spacing: .25em;
      }

      .cls-7 {
        font-size: 36px;
      }

      .cls-8 {
        fill: #e9eaea;
      }

      .cls-9 {
        letter-spacing: .67em;
      }

      .cls-10 {
        letter-spacing: .25em;
      }

      .cls-11 {
        letter-spacing: .67em;
      }
    </style>
  </defs>
  <g id="Capa_1-2" data-name="Capa 1">
    <g>
      <path class="cls-8" d="M493.06,61.13l-.22,202.88c0,1.19.07,1.66.45,1.94.32.22,1.15.54,1.71.66,8.99,1.92,17.4,10.01,18.34,20.44.07.78.41,1.38.08,1.78v2.41c-1.92,9.63-8.35,16.36-17.11,19.59-.5.18-1.13.21-1.78.16-.72-.18-1.63.5-1.82,1.08-.29.89-.17,1.44.13,2.17l-.13,208.7c-.49,1.05-1.6,1.96-2.63,1.89-1.13-.08-2.47-1.07-2.47-2.88l.06-156.75-.03-1.11.15-52.72c-12.25-1.75-20.24-11.3-20.18-22.71.05-10.9,8.39-20.46,20.11-22.47v-15.05s-.08-2.01-.08-2.01v-32.99s0-2.03,0-2.03l.02-151.82c0-1.94.75-2.91,2.39-3.17,1.07-.17,2.34,1,3.03,2ZM511.39,288.83c0-11.65-9.44-21.09-21.09-21.09s-21.09,9.44-21.09,21.09,9.44,21.09,21.09,21.09,21.09-9.44,21.09-21.09Z"/>
      <path class="cls-8" d="M493.18,17.2c-.96,6,1.23,10.96-2.33,11.62-1.54.28-3.03-.64-3.07-2.68l-.17-8.97-9.01-.11c-1.78-.02-2.55-1.12-2.56-2.3s.94-2.59,2.56-2.6l9.07-.05.06-9.86c0-1.57,1.4-2.06,2.35-2.22.82-.13,2.76.3,2.77,1.5l.15,10.57,8.61-.03c2.08,0,3.05.97,3.06,2.58s-.98,2.51-3.06,2.52l-8.44.04Z"/>
      <path class="cls-8" d="M507.62,572.39l-33.54.27c-1.72.02-2.55-1.32-2.63-2.43-.07-1,.7-2.7,2.27-2.72l32.14-.14c1.34,0,2.33.79,2.8,1.4.55.72.62,3.6-1.04,3.62Z"/>
      <g>
        <path class="cls-8" d="M788.8,518.51l-11.16,15.3-10.58-15.17c-.61-.88-.79-1.88-.69-2.59.12-.82,1.84-2.47,2.68-1.72l6.24,5.55.55-8.14c.07-1.07,1.96-1.24,2.67-.96,2.72,1.05.87,4.6,1.78,8.86l4.67-4.51c1.26-1.22,2.52-1.43,3.63-.55s1.45,2.23.21,3.93Z"/>
        <path class="cls-8" d="M779.81,70.55c-.11,1.56-1.44,1.19-1.93,1.3-2.44.54-1.87-3.29-2.8-7.74l-4.67,4.53c-1.06,1.03-2.26.92-3.17.31-1.26-.83-1.25-2.25-.18-3.73l10.88-15.09,11.1,15.54c.84,1.17.16,2.71-.77,3.26-2.51,1.51-4.16-2.41-8.01-4.76l-.45,6.37Z"/>
        <path class="cls-8" d="M777.27,83.13c1.62-.69,2.78.83,3.12,1.65.64,1.54-.17,2.87-1.13,3.36-1.6.82-2.78.2-3.44-.9-.7-1.18-.49-3.28,1.45-4.11Z"/>
        <circle class="cls-8" cx="777.95" cy="103.5" r="2.6"/>
        <circle class="cls-8" cx="777.91" cy="497.55" r="2.65"/>
        <circle class="cls-8" cx="777.91" cy="480.43" r="2.69"/>
        <circle class="cls-8" cx="777.88" cy="121.41" r="2.45"/>
        <path class="cls-8" d="M776.74,445.84c1.19-.76,2.82.04,3.24,1.22.3.82.27,2.43-1.13,3.45-.73.53-2.09,1.1-2.68-.69-.44-1.31-1.36-2.73.56-3.98Z"/>
        <circle class="cls-8" cx="777.82" cy="464.12" r="2.34"/>
        <circle class="cls-8" cx="777.89" cy="138.01" r="2.27"/>
        <path class="cls-8" d="M776.57,429.74c.98-.65,2.37-.32,3.03.6.48.69.28,2.24-.76,3.17-.65.58-2.2,1.14-2.71-.57-.25-.85-1.11-2.17.44-3.21Z"/>
      </g>
      <path class="cls-3" d="M348.43,214.98c-6.31,13.83-30.54,34.13-38.61,37.56-3.11,1.32-9.55-2.92-15.97-6.57l-31.49,44.72,60.37,206.17c1.72,5.88,4.29,20.6.71,24.98-4.1,5-17,8.38-25.67,11.66l-7.64,14.1c-1.83,3.37-12.53,4.02-16.85,4.44-15.18,1.47-22.03-6.31-24.73-20.78l-172.66-.04-6.72,16.56c-2.13,5.26-31.19,5.16-33.01,1.59l-7.63-14.94-21.43-9.07c-5.69-2.41-7.91-17.6-5.82-25.05L115.46,93.37c5.81-20.69,17.61-26.6,39.33-25.65,13.86.61,30.81,1.02,43.73,8.67l59.05,198.81,24.56-34.07-11.33-16.02,20.88-48.24,26.93,13.6c7.72-11.13,17.06-23.25,26.17-32.62,5.65,19.51-6.82,26.68-17.13,38.82l20.79,18.3ZM194.26,104.14c-.57-6.18-5.51-20.86-10.77-22.31-10.66-2.28-31.1-2.38-44.73-.76-6.83.81-13.37,15.14-12.87,22.96l68.37.1ZM134.36,403.11l-.31-275.23-1.14-12.19c-.16-1.76-8.6-.29-11.1.37L41.71,400.97l92.64,2.14ZM248.93,286.31l-47.75-158.57-3.11-10.5c-.69-2.33-9.3-1.23-11.94-.32l.85,256.49c24.98-31.44,42.85-58.45,61.95-87.1ZM282.94,403.08l-29.71-99.51-69.2,99.59,98.91-.08ZM312.25,509.77l-25.57-94.71-249.05.26-25.05,92.4c-1.1,4.07,6.5,12.55,10.43,12.54l281.71-.64c5.14-.01,8.87-4.89,7.53-9.85Z"/>
      <text class="cls-4" transform="translate(735.41 231.07)"><tspan class="cls-7"><tspan x="0" y="0">BPM</tspan></tspan><tspan class="cls-2"><tspan x="-114.95" y="54">Change</tspan><tspan class="cls-11" x="-30.95" y="54"> </tspan><tspan x="-10.81" y="54">tempo</tspan><tspan class="cls-11" x="62.27" y="54"> </tspan><tspan x="82.41" y="54">with</tspan><tspan class="cls-9" x="134.74" y="54"> </tspan><tspan x="154.88" y="54">ring </tspan></tspan><tspan class="cls-2"><tspan x="-114.95" y="79.2">finger</tspan><tspan class="cls-6" x="-46.66" y="79.2"> </tspan><tspan x="-35.34" y="79.2">pinch.</tspan><tspan class="cls-10" x="36.71" y="79.2"> </tspan><tspan x="48.02" y="79.2">M</tspan><tspan class="cls-1" x="66.12" y="79.2">o</tspan><tspan class="cls-5" x="79.88" y="79.2">v</tspan><tspan x="93.19" y="79.2">e</tspan><tspan class="cls-6" x="106.55" y="79.2"> </tspan><tspan x="117.86" y="79.2">up</tspan><tspan class="cls-10" x="146.46" y="79.2"> </tspan><tspan x="157.77" y="79.2">and </tspan></tspan><tspan class="cls-2"><tspan x="-48.07" y="104.4">d</tspan><tspan class="cls-5" x="-33.77" y="104.4">o</tspan><tspan x="-19.91" y="104.4">wn to adjust.</tspan></tspan></text>
    </g>
  </g>
</svg>