<?xml version="1.0" encoding="UTF-8"?>
<svg id="Capa_2" data-name="Capa 2" xmlns="http://www.w3.org/2000/svg" viewBox="0 0 933.23 572.66">
  <defs>
    <style>
      .cls-1, .cls-2 {
        fill: #fff;
      }

      .cls-2 {
        stroke: #000;
        stroke-miterlimit: 10;
      }

      .cls-3 {
        fill: #e9eaea;
      }

      .cls-4 {
        opacity: .99;
      }
    </style>
  </defs>
  <g id="Capa_1-2" data-name="Capa 1">
    <g>
      <path class="cls-3" d="M493.06,61.13l-.22,202.88c0,1.19.07,1.66.45,1.94.32.22,1.15.54,1.71.66,8.99,1.92,17.4,10.01,18.34,20.44.07.78.41,1.38.08,1.78v2.41c-1.92,9.63-8.35,16.36-17.11,19.59-.5.18-1.13.21-1.78.16-.72-.18-1.63.5-1.82,1.08-.29.89-.17,1.44.13,2.17l-.13,208.7c-.49,1.05-1.6,1.96-2.63,1.89-1.13-.08-2.47-1.07-2.47-2.88l.06-156.75-.03-1.11.15-52.72c-12.25-1.75-20.24-11.3-20.18-22.71.05-10.9,8.39-20.46,20.11-22.47v-15.05s-.08-2.01-.08-2.01v-32.99s0-2.03,0-2.03l.02-151.82c0-1.94.75-2.91,2.39-3.17,1.07-.17,2.34,1,3.03,2ZM511.39,288.83c0-11.65-9.44-21.09-21.09-21.09s-21.09,9.44-21.09,21.09,9.44,21.09,21.09,21.09,21.09-9.44,21.09-21.09Z"/>
      <path class="cls-3" d="M493.18,17.2c-.96,6,1.23,10.96-2.33,11.62-1.54.28-3.03-.64-3.07-2.68l-.17-8.97-9.01-.11c-1.78-.02-2.55-1.12-2.56-2.3s.94-2.59,2.56-2.6l9.07-.05.06-9.86c0-1.57,1.4-2.06,2.35-2.22.82-.13,2.76.3,2.77,1.5l.15,10.57,8.61-.03c2.08,0,3.05.97,3.06,2.58s-.98,2.51-3.06,2.52l-8.44.04Z"/>
      <path class="cls-3" d="M507.62,572.39l-33.54.27c-1.72.02-2.55-1.32-2.63-2.43-.07-1,.7-2.7,2.27-2.72l32.14-.14c1.34,0,2.33.79,2.8,1.4.55.72.62,3.6-1.04,3.62Z"/>
      <g>
        <path class="cls-3" d="M788.8,518.51l-11.16,15.3-10.58-15.17c-.61-.88-.79-1.88-.69-2.59.12-.82,1.84-2.47,2.68-1.72l6.24,5.55.55-8.14c.07-1.07,1.96-1.24,2.67-.96,2.72,1.05.87,4.6,1.78,8.86l4.67-4.51c1.26-1.22,2.52-1.43,3.63-.55s1.45,2.23.21,3.93Z"/>
        <path class="cls-3" d="M779.81,70.55c-.11,1.56-1.44,1.19-1.93,1.3-2.44.54-1.87-3.29-2.8-7.74l-4.67,4.53c-1.06,1.03-2.26.92-3.17.31-1.26-.83-1.25-2.25-.18-3.73l10.88-15.09,11.1,15.54c.84,1.17.16,2.71-.77,3.26-2.51,1.51-4.16-2.41-8.01-4.76l-.45,6.37Z"/>
        <path class="cls-3" d="M777.27,83.13c1.62-.69,2.78.83,3.12,1.65.64,1.54-.17,2.87-1.13,3.36-1.6.82-2.78.2-3.44-.9-.7-1.18-.49-3.28,1.45-4.11Z"/>
        <circle class="cls-3" cx="777.95" cy="103.5" r="2.6"/>
        <circle class="cls-3" cx="777.91" cy="497.55" r="2.65"/>
        <circle class="cls-3" cx="777.91" cy="480.43" r="2.69"/>
        <circle class="cls-3" cx="777.88" cy="121.41" r="2.45"/>
        <path class="cls-3" d="M776.74,445.84c1.19-.76,2.82.04,3.24,1.22.3.82.27,2.43-1.13,3.45-.73.53-2.09,1.1-2.68-.69-.44-1.31-1.36-2.73.56-3.98Z"/>
        <circle class="cls-3" cx="777.82" cy="464.12" r="2.34"/>
        <circle class="cls-3" cx="777.89" cy="138.01" r="2.27"/>
        <path class="cls-3" d="M776.57,429.74c.98-.65,2.37-.32,3.03.6.48.69.28,2.24-.76,3.17-.65.58-2.2,1.14-2.71-.57-.25-.85-1.11-2.17.44-3.21Z"/>
      </g>
      <path class="cls-2" d="M348.43,214.98c-6.31,13.83-30.54,34.13-38.61,37.56-3.11,1.32-9.55-2.92-15.97-6.57l-31.49,44.72,60.37,206.17c1.72,5.88,4.29,20.6.71,24.98-4.1,5-17,8.38-25.67,11.66l-7.64,14.1c-1.83,3.37-12.53,4.02-16.85,4.44-15.18,1.47-22.03-6.31-24.73-20.78l-172.66-.04-6.72,16.56c-2.13,5.26-31.19,5.16-33.01,1.59l-7.63-14.94-21.43-9.07c-5.69-2.41-7.91-17.6-5.82-25.05L115.46,93.37c5.81-20.69,17.61-26.6,39.33-25.65,13.86.61,30.81,1.02,43.73,8.67l59.05,198.81,24.56-34.07-11.33-16.02,20.88-48.24,26.93,13.6c7.72-11.13,17.06-23.25,26.17-32.62,5.65,19.51-6.82,26.68-17.13,38.82l20.79,18.3ZM194.26,104.14c-.57-6.18-5.51-20.86-10.77-22.31-10.66-2.28-31.1-2.38-44.73-.76-6.83.81-13.37,15.14-12.87,22.96l68.37.1ZM134.36,403.11l-.31-275.23-1.14-12.19c-.16-1.76-8.6-.29-11.1.37L41.71,400.97l92.64,2.14ZM248.93,286.31l-47.75-158.57-3.11-10.5c-.69-2.33-9.3-1.23-11.94-.32l.85,256.49c24.98-31.44,42.85-58.45,61.95-87.1ZM282.94,403.08l-29.71-99.51-69.2,99.59,98.91-.08ZM312.25,509.77l-25.57-94.71-249.05.26-25.05,92.4c-1.1,4.07,6.5,12.55,10.43,12.54l281.71-.64c5.14-.01,8.87-4.89,7.53-9.85Z"/>
      <g class="cls-4">
        <path class="cls-1" d="M736.46,231.07v-24.88h13.18c4.15,0,7.16.6,9.04,1.8,1.87,1.2,2.81,3.13,2.81,5.8,0,.94-.12,1.8-.36,2.59s-.48,1.36-.72,1.69l-.36.5c.82.41,1.39,1.4,1.73,2.99.14.65.22,1.39.22,2.23,0,2.26-.69,4.03-2.07,5.33-1.38,1.3-3.45,1.94-6.21,1.94h-17.24ZM750.89,218.61v-1.87c0-.31-.1-.56-.29-.74-.19-.18-.43-.27-.72-.27h-1.04v2.88h2.05ZM751.9,220.38h-3.06v2.05h3.06c.26,0,.5-.1.7-.31.2-.2.31-.45.31-.74s-.1-.53-.29-.72c-.19-.19-.43-.29-.72-.29Z"/>
        <path class="cls-1" d="M763.53,231.07v-24.88h13.07c4.3,0,7.45.7,9.47,2.11,2.02,1.4,3.02,3.83,3.02,7.29,0,2.76-.77,4.82-2.3,6.19-1.32,1.18-3.46,1.91-6.41,2.2-1.25.12-2.74.18-4.46.18v6.91h-12.38ZM775.91,220.38h1.04c.29,0,.53-.1.72-.29.19-.19.29-.44.29-.76v-1.66c0-.31-.1-.56-.29-.74-.19-.18-.43-.27-.72-.27h-1.04v3.71Z"/>
        <path class="cls-1" d="M819.65,206.19v24.88h-12.42v-9l-1.58,4.18h-.94l-1.66-4.18v9h-12.38v-24.88h12.38l1.66,4.79h.94l1.58-4.79h12.42Z"/>
        <path class="cls-1" d="M630.5,288.81c-1.26,0-2.43-.21-3.5-.64-1.07-.42-2-1.02-2.78-1.79-.78-.77-1.4-1.67-1.84-2.71-.44-1.04-.66-2.18-.66-3.41s.22-2.37.66-3.41c.44-1.04,1.06-1.94,1.85-2.71s1.72-1.36,2.8-1.79c1.07-.42,2.24-.64,3.5-.64s2.36.2,3.43.61c1.07.41,1.98,1.02,2.71,1.84l-1.13,1.13c-.69-.7-1.45-1.21-2.28-1.52-.83-.31-1.73-.47-2.69-.47-1.01,0-1.94.17-2.81.52-.86.34-1.62.83-2.26,1.46-.64.63-1.14,1.37-1.5,2.21-.36.84-.54,1.76-.54,2.77s.18,1.93.54,2.77c.36.84.86,1.58,1.5,2.21.64.63,1.39,1.12,2.26,1.46.86.34,1.8.52,2.81.52s1.86-.16,2.69-.48c.83-.32,1.59-.83,2.28-1.54l1.13,1.13c-.74.82-1.64,1.43-2.71,1.85-1.07.42-2.22.62-3.46.62Z"/>
        <path class="cls-1" d="M639.85,288.67v-17.81h1.7v8.66l-.34-.65c.4-.91,1.04-1.63,1.92-2.15s1.93-.78,3.14-.78c1.02,0,1.92.2,2.7.59.78.39,1.38.99,1.82,1.79.44.8.66,1.81.66,3.02v7.32h-1.7v-7.15c0-1.33-.33-2.33-1-3.01-.66-.68-1.6-1.02-2.8-1.02-.9,0-1.68.18-2.34.54s-1.18.88-1.54,1.56c-.36.68-.54,1.5-.54,2.46v6.62h-1.7Z"/>
        <path class="cls-1" d="M659.63,288.79c-.94,0-1.76-.16-2.46-.47s-1.23-.74-1.6-1.3c-.37-.55-.55-1.19-.55-1.91,0-.66.16-1.25.47-1.79.31-.54.82-.97,1.54-1.3.71-.33,1.67-.49,2.87-.49h4.34v1.27h-4.3c-1.22,0-2.06.22-2.53.65-.47.43-.71.97-.71,1.61,0,.72.28,1.3.84,1.73.56.43,1.34.65,2.35.65s1.79-.22,2.48-.66,1.2-1.08,1.52-1.91l.38,1.18c-.32.83-.88,1.5-1.67,1.99-.79.5-1.79.74-2.99.74ZM663.97,288.67v-2.78l-.07-.46v-4.66c0-1.07-.3-1.9-.9-2.47-.6-.58-1.49-.86-2.68-.86-.82,0-1.59.14-2.33.41-.74.27-1.36.63-1.87,1.08l-.77-1.27c.64-.54,1.41-.96,2.3-1.26.9-.3,1.84-.44,2.83-.44,1.63,0,2.89.4,3.78,1.21.89.81,1.33,2.04,1.33,3.68v7.82h-1.63Z"/>
        <path class="cls-1" d="M670.24,288.67v-12.6h1.63v3.46l-.26-.65c.4-.91,1.04-1.63,1.92-2.15.88-.52,1.93-.78,3.14-.78,1.02,0,1.92.2,2.7.59.78.39,1.38.99,1.82,1.79.44.8.66,1.81.66,3.02v7.32h-1.7v-7.15c0-1.33-.33-2.33-1-3.01-.66-.68-1.6-1.02-2.8-1.02-.9,0-1.68.18-2.34.54s-1.18.88-1.54,1.56c-.36.68-.54,1.5-.54,2.46v6.62h-1.7Z"/>
        <path class="cls-1" d="M691.53,288.19c-1.2,0-2.28-.26-3.24-.78s-1.72-1.24-2.27-2.17c-.55-.93-.83-1.99-.83-3.19s.28-2.26.83-3.18c.55-.92,1.31-1.64,2.27-2.15.96-.51,2.04-.77,3.24-.77,1.12,0,2.13.23,3.02.7.9.46,1.61,1.15,2.14,2.06s.79,2.02.79,3.34-.26,2.42-.79,3.34-1.24,1.61-2.14,2.09c-.9.48-1.9.72-3.02.72ZM691.84,293.44c-1.15,0-2.26-.17-3.31-.5-1.06-.34-1.91-.82-2.57-1.44l.86-1.3c.59.53,1.32.95,2.2,1.26s1.8.47,2.77.47c1.6,0,2.78-.37,3.53-1.12s1.13-1.9,1.13-3.47v-3.14l.24-2.16-.17-2.16v-3.82h1.63v11.06c0,2.18-.53,3.77-1.6,4.79-1.06,1.02-2.64,1.52-4.72,1.52ZM691.69,286.68c.93,0,1.75-.2,2.47-.59.72-.39,1.29-.94,1.7-1.63.42-.7.62-1.5.62-2.41s-.21-1.71-.62-2.4c-.42-.69-.98-1.23-1.7-1.62-.72-.39-1.54-.59-2.47-.59s-1.73.2-2.46.59c-.73.39-1.3.93-1.7,1.62-.41.69-.61,1.49-.61,2.4s.2,1.72.61,2.41c.41.7.98,1.24,1.7,1.63.73.39,1.55.59,2.46.59Z"/>
        <path class="cls-1" d="M708.26,288.79c-1.31,0-2.46-.28-3.46-.83-.99-.55-1.77-1.31-2.33-2.28-.56-.97-.84-2.08-.84-3.32s.27-2.35.8-3.31,1.27-1.72,2.21-2.27c.94-.55,1.99-.83,3.16-.83s2.24.27,3.16.8c.92.54,1.64,1.29,2.17,2.26.53.97.79,2.08.79,3.35,0,.08,0,.16-.01.25,0,.09-.01.18-.01.28h-10.97v-1.27h10.06l-.67.5c0-.91-.2-1.72-.59-2.44-.39-.71-.92-1.27-1.6-1.67s-1.45-.6-2.33-.6-1.64.2-2.33.6c-.69.4-1.22.96-1.61,1.68-.38.72-.58,1.54-.58,2.47v.26c0,.96.21,1.8.64,2.53.42.73,1.02,1.3,1.78,1.7.76.41,1.63.61,2.6.61.77,0,1.48-.14,2.15-.41s1.24-.69,1.72-1.25l.96,1.1c-.56.67-1.26,1.18-2.1,1.54-.84.35-1.76.53-2.77.53Z"/>
        <path class="cls-1" d="M728.15,277.48v-1.42h7.8v1.42h-7.8ZM734.1,288.79c-1.18,0-2.1-.32-2.74-.96-.64-.64-.96-1.54-.96-2.71v-11.83h1.7v11.74c0,.74.19,1.3.56,1.7s.92.6,1.62.6c.75,0,1.38-.22,1.87-.65l.6,1.22c-.34.3-.74.53-1.21.67s-.96.22-1.45.22Z"/>
        <path class="cls-1" d="M744.76,288.79c-1.31,0-2.46-.28-3.46-.83-.99-.55-1.77-1.31-2.33-2.28-.56-.97-.84-2.08-.84-3.32s.27-2.35.8-3.31,1.27-1.72,2.21-2.27c.94-.55,1.99-.83,3.16-.83s2.24.27,3.16.8c.92.54,1.64,1.29,2.17,2.26.53.97.79,2.08.79,3.35,0,.08,0,.16-.01.25,0,.09-.01.18-.01.28h-10.97v-1.27h10.06l-.67.5c0-.91-.2-1.72-.59-2.44-.39-.71-.92-1.27-1.6-1.67s-1.45-.6-2.33-.6-1.64.2-2.33.6c-.69.4-1.22.96-1.61,1.68-.38.72-.58,1.54-.58,2.47v.26c0,.96.21,1.8.64,2.53.42.73,1.02,1.3,1.78,1.7.76.41,1.63.61,2.6.61.77,0,1.48-.14,2.15-.41s1.24-.69,1.72-1.25l.96,1.1c-.56.67-1.26,1.18-2.1,1.54-.84.35-1.76.53-2.77.53Z"/>
        <path class="cls-1" d="M753.9,288.67v-12.6h1.63v3.41l-.26-.6c.38-.91,1-1.63,1.86-2.15.86-.52,1.87-.78,3.04-.78,1.23,0,2.28.31,3.14.92.86.62,1.42,1.54,1.68,2.77l-.67-.26c.37-1.02,1.02-1.85,1.96-2.48.94-.63,2.06-.95,3.37-.95,1.02,0,1.92.2,2.68.59.76.39,1.35.99,1.78,1.79.42.8.64,1.81.64,3.02v7.32h-1.7v-7.15c0-1.33-.32-2.33-.95-3.01-.63-.68-1.52-1.02-2.68-1.02-.86,0-1.61.18-2.24.54s-1.12.88-1.46,1.56c-.34.68-.52,1.5-.52,2.46v6.62h-1.7v-7.15c0-1.33-.32-2.33-.96-3.01-.64-.68-1.54-1.02-2.69-1.02-.85,0-1.59.18-2.23.54-.64.36-1.13.88-1.48,1.56-.34.68-.52,1.5-.52,2.46v6.62h-1.7Z"/>
        <path class="cls-1" d="M779.37,293.32v-17.26h1.63v3.79l-.17,2.52.24,2.54v8.4h-1.7ZM785.87,288.79c-1.09,0-2.07-.25-2.95-.76-.88-.5-1.58-1.23-2.1-2.18-.52-.95-.78-2.12-.78-3.49s.26-2.54.77-3.49c.51-.95,1.21-1.68,2.09-2.17.88-.5,1.87-.74,2.98-.74,1.2,0,2.28.27,3.23.8.95.54,1.7,1.29,2.24,2.26.54.97.82,2.08.82,3.35s-.27,2.4-.82,3.36-1.29,1.71-2.24,2.26-2.03.82-3.23.82ZM785.75,287.28c.9,0,1.7-.2,2.4-.61.7-.41,1.26-.98,1.68-1.73s.62-1.6.62-2.58-.21-1.83-.62-2.57-.98-1.31-1.68-1.73c-.71-.42-1.5-.62-2.4-.62s-1.7.21-2.41.62-1.27.99-1.68,1.73-.61,1.59-.61,2.57.2,1.84.61,2.58.97,1.32,1.68,1.73c.71.41,1.52.61,2.41.61Z"/>
        <path class="cls-1" d="M800.78,288.79c-1.22,0-2.31-.28-3.28-.83-.97-.55-1.73-1.31-2.29-2.28-.56-.97-.84-2.08-.84-3.32s.28-2.38.84-3.34c.56-.96,1.32-1.71,2.28-2.26s2.06-.82,3.29-.82,2.36.27,3.32.82,1.73,1.3,2.28,2.26.83,2.07.83,3.34-.28,2.36-.83,3.32-1.32,1.73-2.29,2.28c-.98.55-2.08.83-3.31.83ZM800.78,287.28c.91,0,1.72-.2,2.42-.61.7-.41,1.26-.98,1.67-1.73s.61-1.6.61-2.58-.2-1.86-.61-2.59-.96-1.31-1.67-1.72c-.7-.41-1.5-.61-2.4-.61s-1.7.2-2.4.61c-.71.41-1.26.98-1.68,1.72s-.62,1.6-.62,2.59.21,1.84.62,2.58.98,1.32,1.68,1.73c.7.41,1.5.61,2.38.61Z"/>
        <path class="cls-1" d="M825.98,288.67l-4.75-12.6h1.63l4.32,11.69h-.74l4.44-11.69h1.46l4.39,11.69h-.74l4.39-11.69h1.56l-4.78,12.6h-1.61l-4.22-10.99h.5l-4.25,10.99h-1.61Z"/>
        <path class="cls-1" d="M845.37,273.28c-.35,0-.65-.12-.89-.36-.24-.24-.36-.53-.36-.86s.12-.62.36-.85c.24-.23.54-.35.89-.35s.65.11.89.34c.24.22.36.5.36.84s-.12.65-.35.89c-.23.24-.53.36-.9.36ZM844.5,288.67v-12.6h1.7v12.6h-1.7Z"/>
        <path class="cls-1" d="M848.78,277.48v-1.42h7.8v1.42h-7.8ZM854.73,288.79c-1.18,0-2.1-.32-2.74-.96s-.96-1.54-.96-2.71v-11.83h1.7v11.74c0,.74.19,1.3.56,1.7.38.4.92.6,1.62.6.75,0,1.38-.22,1.87-.65l.6,1.22c-.34.3-.74.53-1.21.67-.47.14-.96.22-1.45.22Z"/>
        <path class="cls-1" d="M860.49,288.67v-17.81h1.7v8.66l-.34-.65c.4-.91,1.04-1.63,1.92-2.15s1.93-.78,3.14-.78c1.02,0,1.92.2,2.7.59.78.39,1.38.99,1.82,1.79.44.8.66,1.81.66,3.02v7.32h-1.7v-7.15c0-1.33-.33-2.33-1-3.01-.66-.68-1.6-1.02-2.8-1.02-.9,0-1.68.18-2.34.54s-1.18.88-1.54,1.56c-.36.68-.54,1.5-.54,2.46v6.62h-1.7Z"/>
        <path class="cls-1" d="M889.43,288.67v-12.6h1.63v3.43l-.17-.6c.35-.96.94-1.69,1.78-2.2s1.86-.76,3.1-.76v1.66c-.06,0-.13,0-.19-.01-.06,0-.13-.01-.19-.01-1.33,0-2.37.4-3.12,1.21-.75.81-1.13,1.96-1.13,3.44v6.43h-1.7Z"/>
        <path class="cls-1" d="M899.73,273.28c-.35,0-.65-.12-.89-.36-.24-.24-.36-.53-.36-.86s.12-.62.36-.85c.24-.23.54-.35.89-.35s.65.11.89.34c.24.22.36.5.36.84s-.12.65-.35.89c-.23.24-.53.36-.9.36ZM898.86,288.67v-12.6h1.7v12.6h-1.7Z"/>
        <path class="cls-1" d="M905.32,288.67v-12.6h1.63v3.46l-.26-.65c.4-.91,1.04-1.63,1.92-2.15s1.93-.78,3.14-.78c1.02,0,1.92.2,2.7.59.78.39,1.38.99,1.82,1.79.44.8.66,1.81.66,3.02v7.32h-1.7v-7.15c0-1.33-.33-2.33-1-3.01-.66-.68-1.6-1.02-2.8-1.02-.9,0-1.68.18-2.34.54s-1.18.88-1.54,1.56c-.36.68-.54,1.5-.54,2.46v6.62h-1.7Z"/>
        <path class="cls-1" d="M926.61,288.19c-1.2,0-2.28-.26-3.24-.78s-1.72-1.24-2.27-2.17c-.55-.93-.83-1.99-.83-3.19s.28-2.26.83-3.18c.55-.92,1.31-1.64,2.27-2.15.96-.51,2.04-.77,3.24-.77,1.12,0,2.13.23,3.02.7.9.46,1.61,1.15,2.14,2.06.53.91.79,2.02.79,3.34s-.26,2.42-.79,3.34c-.53.91-1.24,1.61-2.14,2.09-.9.48-1.9.72-3.02.72ZM926.92,293.44c-1.15,0-2.26-.17-3.31-.5-1.06-.34-1.91-.82-2.57-1.44l.86-1.3c.59.53,1.32.95,2.2,1.26.87.31,1.8.47,2.77.47,1.6,0,2.78-.37,3.53-1.12s1.13-1.9,1.13-3.47v-3.14l.24-2.16-.17-2.16v-3.82h1.63v11.06c0,2.18-.53,3.77-1.6,4.79-1.06,1.02-2.64,1.52-4.72,1.52ZM926.78,286.68c.93,0,1.75-.2,2.47-.59.72-.39,1.29-.94,1.7-1.63.42-.7.62-1.5.62-2.41s-.21-1.71-.62-2.4-.98-1.23-1.7-1.62c-.72-.39-1.54-.59-2.47-.59s-1.73.2-2.46.59c-.73.39-1.3.93-1.7,1.62s-.61,1.49-.61,2.4.2,1.72.61,2.41c.41.7.98,1.24,1.7,1.63.73.39,1.55.59,2.46.59Z"/>
        <path class="cls-1" d="M620.87,306.28v-1.42h7.8v1.42h-7.8ZM623.13,317.47v-14.18c0-1.12.33-2.02.98-2.71s1.6-1.03,2.83-1.03c.48,0,.94.06,1.39.19.45.13.82.33,1.13.6l-.58,1.27c-.24-.21-.52-.36-.84-.47-.32-.1-.66-.16-1.03-.16-.72,0-1.27.2-1.66.6-.38.4-.58.99-.58,1.78v1.92l.05.79v11.4h-1.7ZM631.84,302.08c-.35,0-.65-.12-.89-.36-.24-.24-.36-.53-.36-.86s.12-.62.36-.85c.24-.23.54-.35.89-.35s.65.11.89.34c.24.22.36.5.36.84s-.12.65-.35.89c-.23.24-.53.36-.9.36ZM630.97,317.47v-12.6h1.7v12.6h-1.7Z"/>
        <path class="cls-1" d="M637.45,317.47v-12.6h1.63v3.46l-.26-.65c.4-.91,1.04-1.63,1.92-2.15s1.93-.78,3.14-.78c1.02,0,1.92.2,2.7.59.78.39,1.38.99,1.82,1.79.44.8.66,1.81.66,3.02v7.32h-1.7v-7.15c0-1.33-.33-2.33-1-3.01-.66-.68-1.6-1.02-2.8-1.02-.9,0-1.68.18-2.34.54s-1.18.88-1.54,1.56c-.36.68-.54,1.5-.54,2.46v6.62h-1.7Z"/>
        <path class="cls-1" d="M658.74,316.99c-1.2,0-2.28-.26-3.24-.78s-1.72-1.24-2.27-2.17c-.55-.93-.83-1.99-.83-3.19s.28-2.26.83-3.18c.55-.92,1.31-1.64,2.27-2.15.96-.51,2.04-.77,3.24-.77,1.12,0,2.13.23,3.02.7.9.46,1.61,1.15,2.14,2.06s.79,2.02.79,3.34-.26,2.42-.79,3.34-1.24,1.61-2.14,2.09c-.9.48-1.9.72-3.02.72ZM659.06,322.24c-1.15,0-2.26-.17-3.31-.5-1.06-.34-1.91-.82-2.57-1.44l.86-1.3c.59.53,1.32.95,2.2,1.26s1.8.47,2.77.47c1.6,0,2.78-.37,3.53-1.12s1.13-1.9,1.13-3.47v-3.14l.24-2.16-.17-2.16v-3.82h1.63v11.06c0,2.18-.53,3.77-1.6,4.79-1.06,1.02-2.64,1.52-4.72,1.52ZM658.91,315.48c.93,0,1.75-.2,2.47-.59.72-.39,1.29-.94,1.7-1.63.42-.7.62-1.5.62-2.41s-.21-1.71-.62-2.4c-.42-.69-.98-1.23-1.7-1.62-.72-.39-1.54-.59-2.47-.59s-1.73.2-2.46.59c-.73.39-1.3.93-1.7,1.62-.41.69-.61,1.49-.61,2.4s.2,1.72.61,2.41c.41.7.98,1.24,1.7,1.63.73.39,1.55.59,2.46.59Z"/>
        <path class="cls-1" d="M675.47,317.59c-1.31,0-2.46-.28-3.46-.83-.99-.55-1.77-1.31-2.33-2.28-.56-.97-.84-2.08-.84-3.32s.27-2.35.8-3.31,1.27-1.72,2.21-2.27c.94-.55,1.99-.83,3.16-.83s2.24.27,3.16.8c.92.54,1.64,1.29,2.17,2.26.53.97.79,2.08.79,3.35,0,.08,0,.16-.01.25,0,.09-.01.18-.01.28h-10.97v-1.27h10.06l-.67.5c0-.91-.2-1.72-.59-2.44-.39-.71-.92-1.27-1.6-1.67s-1.45-.6-2.33-.6-1.64.2-2.33.6c-.69.4-1.22.96-1.61,1.68-.38.72-.58,1.54-.58,2.47v.26c0,.96.21,1.8.64,2.53.42.73,1.02,1.3,1.78,1.7.76.41,1.63.61,2.6.61.77,0,1.48-.14,2.15-.41s1.24-.69,1.72-1.25l.96,1.1c-.56.67-1.26,1.18-2.1,1.54-.84.35-1.76.53-2.77.53Z"/>
        <path class="cls-1" d="M684.61,317.47v-12.6h1.63v3.43l-.17-.6c.35-.96.94-1.69,1.78-2.2.83-.5,1.86-.76,3.1-.76v1.66c-.06,0-.13,0-.19-.01-.06,0-.13-.01-.19-.01-1.33,0-2.37.4-3.12,1.21-.75.81-1.13,1.96-1.13,3.44v6.43h-1.7Z"/>
        <path class="cls-1" d="M700.83,322.12v-17.26h1.63v3.79l-.17,2.52.24,2.54v8.4h-1.7ZM707.33,317.59c-1.09,0-2.07-.25-2.95-.76-.88-.5-1.58-1.23-2.1-2.18s-.78-2.12-.78-3.49.26-2.54.77-3.49c.51-.95,1.21-1.68,2.09-2.17.88-.5,1.87-.74,2.98-.74,1.2,0,2.28.27,3.23.8.95.54,1.7,1.29,2.24,2.26.54.97.82,2.08.82,3.35s-.27,2.4-.82,3.36c-.54.96-1.29,1.71-2.24,2.26-.95.54-2.03.82-3.23.82ZM707.21,316.08c.9,0,1.7-.2,2.4-.61.7-.41,1.26-.98,1.68-1.73s.62-1.6.62-2.58-.21-1.83-.62-2.57-.98-1.31-1.68-1.73-1.5-.62-2.4-.62-1.7.21-2.41.62c-.71.42-1.27.99-1.68,1.73s-.61,1.59-.61,2.57.2,1.84.61,2.58.97,1.32,1.68,1.73c.71.41,1.52.61,2.41.61Z"/>
        <path class="cls-1" d="M717.96,302.08c-.35,0-.65-.12-.89-.36-.24-.24-.36-.53-.36-.86s.12-.62.36-.85.54-.35.89-.35.65.11.89.34c.24.22.36.5.36.84s-.12.65-.35.89c-.23.24-.53.36-.9.36ZM717.1,317.47v-12.6h1.7v12.6h-1.7Z"/>
        <path class="cls-1" d="M723.56,317.47v-12.6h1.63v3.46l-.26-.65c.4-.91,1.04-1.63,1.92-2.15.88-.52,1.93-.78,3.14-.78,1.02,0,1.92.2,2.7.59.78.39,1.38.99,1.82,1.79.44.8.66,1.81.66,3.02v7.32h-1.7v-7.15c0-1.33-.33-2.33-1-3.01-.66-.68-1.6-1.02-2.8-1.02-.9,0-1.68.18-2.34.54s-1.18.88-1.54,1.56c-.36.68-.54,1.5-.54,2.46v6.62h-1.7Z"/>
        <path class="cls-1" d="M745.01,317.59c-1.25,0-2.36-.28-3.35-.83-.98-.55-1.76-1.31-2.32-2.28-.56-.97-.84-2.08-.84-3.32s.28-2.38.84-3.34c.56-.96,1.33-1.71,2.32-2.26.98-.54,2.1-.82,3.35-.82,1.07,0,2.04.21,2.9.62.86.42,1.54,1.04,2.04,1.87l-1.27.86c-.43-.64-.97-1.11-1.61-1.42-.64-.3-1.34-.46-2.09-.46-.9,0-1.7.2-2.42.61-.72.41-1.29.98-1.7,1.72s-.62,1.6-.62,2.59.21,1.86.62,2.59c.42.74.98,1.31,1.7,1.72.72.41,1.53.61,2.42.61.75,0,1.45-.15,2.09-.46.64-.3,1.18-.77,1.61-1.39l1.27.86c-.5.82-1.18,1.44-2.04,1.86-.86.42-1.83.64-2.9.64Z"/>
        <path class="cls-1" d="M753.1,317.47v-17.81h1.7v8.66l-.34-.65c.4-.91,1.04-1.63,1.92-2.15.88-.52,1.93-.78,3.14-.78,1.02,0,1.92.2,2.7.59.78.39,1.38.99,1.82,1.79.44.8.66,1.81.66,3.02v7.32h-1.7v-7.15c0-1.33-.33-2.33-1-3.01-.66-.68-1.6-1.02-2.8-1.02-.9,0-1.68.18-2.34.54s-1.18.88-1.54,1.56c-.36.68-.54,1.5-.54,2.46v6.62h-1.7Z"/>
        <path class="cls-1" d="M769.49,317.59c-.35,0-.65-.13-.9-.38-.25-.26-.37-.57-.37-.94s.12-.7.37-.94c.25-.24.55-.36.9-.36s.65.12.9.36c.25.24.37.55.37.94s-.12.68-.37.94c-.25.26-.55.38-.9.38Z"/>
        <path class="cls-1" d="M781.36,317.47v-16.8h1.46l7.68,13.1h-.77l7.61-13.1h1.46v16.8h-1.7v-14.14h.41l-7.01,12h-.84l-7.06-12h.46v14.14h-1.7Z"/>
        <path class="cls-1" d="M809.06,317.59c-1.22,0-2.31-.28-3.28-.83-.97-.55-1.73-1.31-2.29-2.28-.56-.97-.84-2.08-.84-3.32s.28-2.38.84-3.34c.56-.96,1.32-1.71,2.28-2.26s2.06-.82,3.29-.82,2.36.27,3.32.82,1.73,1.3,2.28,2.26.83,2.07.83,3.34-.28,2.36-.83,3.32-1.32,1.73-2.29,2.28c-.98.55-2.08.83-3.31.83ZM809.06,316.08c.91,0,1.72-.2,2.42-.61.7-.41,1.26-.98,1.67-1.73s.61-1.6.61-2.58-.2-1.86-.61-2.59-.96-1.31-1.67-1.72c-.7-.41-1.5-.61-2.4-.61s-1.7.2-2.4.61c-.71.41-1.26.98-1.68,1.72s-.62,1.6-.62,2.59.21,1.84.62,2.58.98,1.32,1.68,1.73c.7.41,1.5.61,2.38.61Z"/>
        <path class="cls-1" d="M821.85,317.47l-5.59-12.6h1.78l5.14,11.69h-.84l5.21-11.69h1.68l-5.62,12.6h-1.75Z"/>
        <path class="cls-1" d="M836.61,317.59c-1.31,0-2.46-.28-3.46-.83-.99-.55-1.77-1.31-2.33-2.28-.56-.97-.84-2.08-.84-3.32s.27-2.35.8-3.31c.54-.96,1.27-1.72,2.21-2.27.94-.55,1.99-.83,3.16-.83s2.24.27,3.16.8c.92.54,1.64,1.29,2.17,2.26.53.97.79,2.08.79,3.35,0,.08,0,.16-.01.25,0,.09-.01.18-.01.28h-10.97v-1.27h10.06l-.67.5c0-.91-.2-1.72-.59-2.44-.39-.71-.92-1.27-1.6-1.67s-1.45-.6-2.33-.6-1.64.2-2.33.6c-.69.4-1.22.96-1.61,1.68-.38.72-.58,1.54-.58,2.47v.26c0,.96.21,1.8.64,2.53s1.02,1.3,1.78,1.7c.76.41,1.63.61,2.6.61.77,0,1.48-.14,2.15-.41s1.24-.69,1.72-1.25l.96,1.1c-.56.67-1.26,1.18-2.1,1.54-.84.35-1.76.53-2.77.53Z"/>
        <path class="cls-1" d="M857.55,317.59c-1.07,0-2.01-.2-2.81-.6-.8-.4-1.42-1-1.86-1.8-.44-.8-.66-1.8-.66-3v-7.32h1.7v7.13c0,1.34.33,2.36,1,3.04.66.68,1.6,1.02,2.8,1.02.88,0,1.64-.18,2.29-.54.65-.36,1.14-.88,1.49-1.57s.52-1.51.52-2.47v-6.6h1.7v12.6h-1.63v-3.46l.26.62c-.4.93-1.02,1.65-1.86,2.17-.84.52-1.82.78-2.94.78Z"/>
        <path class="cls-1" d="M868.47,322.12v-17.26h1.63v3.79l-.17,2.52.24,2.54v8.4h-1.7ZM874.97,317.59c-1.09,0-2.07-.25-2.95-.76-.88-.5-1.58-1.23-2.1-2.18s-.78-2.12-.78-3.49.26-2.54.77-3.49c.51-.95,1.21-1.68,2.09-2.17.88-.5,1.87-.74,2.98-.74,1.2,0,2.28.27,3.23.8.95.54,1.7,1.29,2.24,2.26.54.97.82,2.08.82,3.35s-.27,2.4-.82,3.36c-.54.96-1.29,1.71-2.24,2.26-.95.54-2.03.82-3.23.82ZM874.85,316.08c.9,0,1.7-.2,2.4-.61.7-.41,1.26-.98,1.68-1.73s.62-1.6.62-2.58-.21-1.83-.62-2.57-.98-1.31-1.68-1.73-1.5-.62-2.4-.62-1.7.21-2.41.62c-.71.42-1.27.99-1.68,1.73s-.61,1.59-.61,2.57.2,1.84.61,2.58.97,1.32,1.68,1.73c.71.41,1.52.61,2.41.61Z"/>
        <path class="cls-1" d="M894.88,317.59c-.94,0-1.76-.16-2.46-.47s-1.23-.74-1.6-1.3c-.37-.55-.55-1.19-.55-1.91,0-.66.16-1.25.47-1.79.31-.54.82-.97,1.54-1.3.71-.33,1.67-.49,2.87-.49h4.34v1.27h-4.3c-1.22,0-2.06.22-2.53.65-.47.43-.71.97-.71,1.61,0,.72.28,1.3.84,1.73.56.43,1.34.65,2.35.65s1.79-.22,2.48-.66,1.2-1.08,1.52-1.91l.38,1.18c-.32.83-.88,1.5-1.67,1.99-.79.5-1.79.74-2.99.74ZM899.22,317.47v-2.78l-.07-.46v-4.66c0-1.07-.3-1.9-.9-2.47-.6-.58-1.49-.86-2.68-.86-.82,0-1.59.14-2.33.41-.74.27-1.36.63-1.87,1.08l-.77-1.27c.64-.54,1.41-.96,2.3-1.26.9-.3,1.84-.44,2.83-.44,1.63,0,2.89.4,3.78,1.21.89.81,1.33,2.04,1.33,3.68v7.82h-1.63Z"/>
        <path class="cls-1" d="M905.49,317.47v-12.6h1.63v3.46l-.26-.65c.4-.91,1.04-1.63,1.92-2.15.88-.52,1.93-.78,3.14-.78,1.02,0,1.92.2,2.7.59.78.39,1.38.99,1.82,1.79.44.8.66,1.81.66,3.02v7.32h-1.7v-7.15c0-1.33-.33-2.33-1-3.01-.66-.68-1.6-1.02-2.8-1.02-.9,0-1.68.18-2.34.54s-1.18.88-1.54,1.56c-.36.68-.54,1.5-.54,2.46v6.62h-1.7Z"/>
        <path class="cls-1" d="M926.73,317.59c-1.2,0-2.28-.27-3.23-.82-.95-.54-1.7-1.3-2.24-2.27-.54-.97-.82-2.08-.82-3.35s.27-2.4.82-3.36,1.29-1.71,2.24-2.24c.95-.54,2.03-.8,3.23-.8,1.1,0,2.09.25,2.96.74.87.5,1.57,1.22,2.09,2.17.52.95.78,2.12.78,3.49s-.26,2.52-.77,3.48c-.51.96-1.2,1.69-2.08,2.2-.87.5-1.87.76-2.99.76ZM926.85,316.08c.9,0,1.7-.2,2.41-.61.71-.41,1.27-.98,1.68-1.73s.61-1.6.61-2.58-.2-1.86-.61-2.59-.97-1.31-1.68-1.72c-.71-.41-1.52-.61-2.41-.61s-1.67.2-2.38.61c-.7.41-1.26.98-1.68,1.72-.42.74-.62,1.6-.62,2.59s.21,1.84.62,2.58c.42.74.98,1.32,1.68,1.73.7.41,1.5.61,2.38.61ZM931.6,317.47v-3.79l.17-2.54-.24-2.54v-8.93h1.7v17.81h-1.63Z"/>
        <path class="cls-1" d="M692.87,346.39c-1.2,0-2.28-.27-3.23-.82s-1.7-1.3-2.24-2.27c-.54-.97-.82-2.08-.82-3.35s.27-2.4.82-3.36,1.29-1.71,2.24-2.24c.95-.54,2.03-.8,3.23-.8,1.1,0,2.09.25,2.96.74.87.5,1.57,1.22,2.09,2.17.52.95.78,2.12.78,3.49s-.26,2.52-.77,3.48-1.2,1.69-2.08,2.2c-.87.5-1.87.76-2.99.76ZM692.99,344.88c.9,0,1.7-.2,2.41-.61.71-.41,1.27-.98,1.68-1.73s.61-1.6.61-2.58-.2-1.86-.61-2.59-.97-1.31-1.68-1.72c-.71-.41-1.52-.61-2.41-.61s-1.67.2-2.38.61c-.71.41-1.26.98-1.68,1.72s-.62,1.6-.62,2.59.21,1.84.62,2.58.98,1.32,1.68,1.73c.7.41,1.5.61,2.38.61ZM697.75,346.27v-3.79l.17-2.54-.24-2.54v-8.93h1.7v17.81h-1.63Z"/>
        <path class="cls-1" d="M709.26,346.39c-1.22,0-2.31-.28-3.28-.83-.97-.55-1.73-1.31-2.29-2.28-.56-.97-.84-2.08-.84-3.32s.28-2.38.84-3.34c.56-.96,1.32-1.71,2.28-2.26s2.06-.82,3.29-.82,2.36.27,3.32.82c.97.54,1.73,1.3,2.28,2.26.55.96.83,2.07.83,3.34s-.28,2.36-.83,3.32c-.55.97-1.32,1.73-2.29,2.28-.98.55-2.08.83-3.31.83ZM709.26,344.88c.91,0,1.72-.2,2.42-.61.7-.41,1.26-.98,1.67-1.73s.61-1.6.61-2.58-.2-1.86-.61-2.59-.96-1.31-1.67-1.72c-.7-.41-1.5-.61-2.4-.61s-1.7.2-2.4.61c-.7.41-1.26.98-1.68,1.72-.42.74-.62,1.6-.62,2.59s.21,1.84.62,2.58c.42.74.98,1.32,1.68,1.73.7.41,1.5.61,2.38.61Z"/>
        <path class="cls-1" d="M721.39,346.27l-4.75-12.6h1.63l4.32,11.69h-.74l4.44-11.69h1.46l4.39,11.69h-.74l4.39-11.69h1.56l-4.78,12.6h-1.61l-4.22-10.99h.5l-4.25,10.99h-1.61Z"/>
        <path class="cls-1" d="M739.91,346.27v-12.6h1.63v3.46l-.26-.65c.4-.91,1.04-1.63,1.92-2.15s1.93-.78,3.14-.78c1.02,0,1.92.2,2.7.59.78.39,1.38.99,1.82,1.79.44.8.66,1.81.66,3.02v7.32h-1.7v-7.15c0-1.33-.33-2.33-1-3.01-.66-.68-1.6-1.02-2.8-1.02-.9,0-1.68.18-2.34.54s-1.18.88-1.54,1.56c-.36.68-.54,1.5-.54,2.46v6.62h-1.7Z"/>
        <path class="cls-1" d="M760.46,335.08v-1.42h7.8v1.42h-7.8ZM766.41,346.39c-1.18,0-2.1-.32-2.74-.96s-.96-1.54-.96-2.71v-11.83h1.7v11.74c0,.74.19,1.3.56,1.7.38.4.92.6,1.62.6.75,0,1.38-.22,1.87-.65l.6,1.22c-.34.3-.74.53-1.21.67-.47.14-.96.22-1.45.22Z"/>
        <path class="cls-1" d="M776.85,346.39c-1.22,0-2.31-.28-3.28-.83-.97-.55-1.73-1.31-2.29-2.28-.56-.97-.84-2.08-.84-3.32s.28-2.38.84-3.34c.56-.96,1.32-1.71,2.28-2.26s2.06-.82,3.29-.82,2.36.27,3.32.82c.97.54,1.73,1.3,2.28,2.26.55.96.83,2.07.83,3.34s-.28,2.36-.83,3.32c-.55.97-1.32,1.73-2.29,2.28-.98.55-2.08.83-3.31.83ZM776.85,344.88c.91,0,1.72-.2,2.42-.61.7-.41,1.26-.98,1.67-1.73s.61-1.6.61-2.58-.2-1.86-.61-2.59-.96-1.31-1.67-1.72c-.7-.41-1.5-.61-2.4-.61s-1.7.2-2.4.61c-.7.41-1.26.98-1.68,1.72-.42.74-.62,1.6-.62,2.59s.21,1.84.62,2.58c.42.74.98,1.32,1.68,1.73.7.41,1.5.61,2.38.61Z"/>
        <path class="cls-1" d="M796.6,346.39c-.94,0-1.76-.16-2.46-.47-.7-.31-1.23-.74-1.6-1.3-.37-.55-.55-1.19-.55-1.91,0-.66.16-1.25.47-1.79.31-.54.82-.97,1.54-1.3.71-.33,1.67-.49,2.87-.49h4.34v1.27h-4.3c-1.22,0-2.06.22-2.53.65s-.71.97-.71,1.61c0,.72.28,1.3.84,1.73.56.43,1.34.65,2.35.65s1.79-.22,2.48-.66c.7-.44,1.2-1.08,1.52-1.91l.38,1.18c-.32.83-.88,1.5-1.67,1.99-.79.5-1.79.74-2.99.74ZM800.94,346.27v-2.78l-.07-.46v-4.66c0-1.07-.3-1.9-.9-2.47-.6-.58-1.49-.86-2.68-.86-.82,0-1.59.14-2.33.41-.74.27-1.36.63-1.87,1.08l-.77-1.27c.64-.54,1.41-.96,2.3-1.26.9-.3,1.84-.44,2.83-.44,1.63,0,2.89.4,3.78,1.21s1.33,2.04,1.33,3.68v7.82h-1.63Z"/>
        <path class="cls-1" d="M812.22,346.39c-1.2,0-2.28-.27-3.23-.82s-1.7-1.3-2.24-2.27c-.54-.97-.82-2.08-.82-3.35s.27-2.4.82-3.36,1.29-1.71,2.24-2.24c.95-.54,2.03-.8,3.23-.8,1.1,0,2.09.25,2.96.74.87.5,1.57,1.22,2.09,2.17.52.95.78,2.12.78,3.49s-.26,2.52-.77,3.48-1.2,1.69-2.08,2.2c-.87.5-1.87.76-2.99.76ZM812.34,344.88c.9,0,1.7-.2,2.41-.61.71-.41,1.27-.98,1.68-1.73s.61-1.6.61-2.58-.2-1.86-.61-2.59-.97-1.31-1.68-1.72c-.71-.41-1.52-.61-2.41-.61s-1.67.2-2.38.61c-.71.41-1.26.98-1.68,1.72s-.62,1.6-.62,2.59.21,1.84.62,2.58.98,1.32,1.68,1.73c.7.41,1.5.61,2.38.61ZM817.1,346.27v-3.79l.17-2.54-.24-2.54v-8.93h1.7v17.81h-1.63Z"/>
        <path class="cls-1" d="M821.61,351.04c-.51,0-1-.07-1.48-.2-.47-.14-.87-.34-1.19-.61l.6-1.3c.51.43,1.17.65,1.97.65.67,0,1.19-.2,1.55-.6.36-.4.54-.99.54-1.78v-13.54h1.7v13.54c0,1.17-.32,2.1-.95,2.8-.63.7-1.55,1.04-2.75,1.04ZM824.46,330.88c-.35,0-.65-.12-.89-.36-.24-.24-.36-.53-.36-.86s.12-.62.36-.85.54-.35.89-.35.65.11.89.34c.24.22.36.5.36.84s-.12.65-.35.89c-.23.24-.53.36-.9.36Z"/>
        <path class="cls-1" d="M835.26,346.39c-1.07,0-2.01-.2-2.81-.6-.8-.4-1.42-1-1.86-1.8-.44-.8-.66-1.8-.66-3v-7.32h1.7v7.13c0,1.34.33,2.36,1,3.04.66.68,1.6,1.02,2.8,1.02.88,0,1.64-.18,2.29-.54.65-.36,1.14-.88,1.49-1.57s.52-1.51.52-2.47v-6.6h1.7v12.6h-1.63v-3.46l.26.62c-.4.93-1.02,1.65-1.86,2.17-.84.52-1.82.78-2.94.78Z"/>
        <path class="cls-1" d="M849.57,346.39c-1.04,0-2.02-.15-2.95-.44-.93-.3-1.66-.67-2.18-1.12l.77-1.34c.51.38,1.17.72,1.97,1,.8.28,1.64.42,2.52.42,1.2,0,2.06-.19,2.59-.56.53-.38.79-.88.79-1.5,0-.46-.15-.83-.44-1.09s-.68-.46-1.16-.6c-.48-.14-1.02-.25-1.61-.35-.59-.1-1.18-.21-1.76-.34-.58-.13-1.12-.32-1.6-.56-.48-.25-.87-.59-1.16-1.02-.3-.43-.44-1.01-.44-1.73s.19-1.3.58-1.85.95-.97,1.69-1.28c.74-.31,1.65-.47,2.72-.47.82,0,1.63.11,2.45.32.82.22,1.49.5,2.02.85l-.74,1.37c-.56-.38-1.16-.66-1.8-.83s-1.28-.25-1.92-.25c-1.14,0-1.97.2-2.51.59s-.8.89-.8,1.5c0,.48.15.86.44,1.13.3.27.69.48,1.18.64s1.02.28,1.61.37c.58.1,1.17.21,1.75.35.58.14,1.12.32,1.61.55.49.23.88.56,1.18.98.3.42.44.98.44,1.67,0,.74-.2,1.37-.61,1.91s-1,.95-1.78,1.25c-.78.3-1.72.44-2.82.44Z"/>
        <path class="cls-1" d="M855.93,335.08v-1.42h7.8v1.42h-7.8ZM861.88,346.39c-1.18,0-2.1-.32-2.74-.96s-.96-1.54-.96-2.71v-11.83h1.7v11.74c0,.74.19,1.3.56,1.7.38.4.92.6,1.62.6.75,0,1.38-.22,1.87-.65l.6,1.22c-.34.3-.74.53-1.21.67-.47.14-.96.22-1.45.22Z"/>
        <path class="cls-1" d="M868.05,346.39c-.35,0-.65-.13-.9-.38-.25-.26-.37-.57-.37-.94s.12-.7.37-.94c.25-.24.55-.36.9-.36s.65.12.9.36c.25.24.37.55.37.94s-.12.68-.37.94c-.25.26-.55.38-.9.38Z"/>
      </g>
    </g>
  </g>
</svg>