<?xml version="1.0" encoding="UTF-8"?>
<svg id="Capa_2" data-name="Capa 2" xmlns="http://www.w3.org/2000/svg" viewBox="0 0 64.16 64.16">
  <defs>
    <style>
      .cls-1 {
        fill: #af428a;
        stroke: #070606;
        stroke-miterlimit: 10;
        stroke-width: 4px;
      }

      .cls-2 {
        fill: #070606;
      }
    </style>
  </defs>
  <g id="Capa_1-2" data-name="Capa 1">
    <g>
      <circle class="cls-1" cx="32.08" cy="32.08" r="30.08"/>
      <path class="cls-2" d="M28.89,46.04c-.44,2.72-2.96,4.58-5.65,4.32-1.37-.13-2.61-.55-3.66-1.36l-1.91-1.5-1.43-1.43c-1.41-1.42-2.63-2.93-3.32-4.82-1.1-3.02.4-6.23,3.47-7.26,1.97-.66,4.59.07,5.8-3.44.53-1.53,1.14-3,2.04-4.32,1.07-1.57,2.86-2.79,4.22-1.82.93.66,1.02,2.18.02,3.33-1.1,1.27-2.08,2.82-.97,4l.8-.66,13.11-13.07.92-.88c.19-.18.68-.52.68-.78-.04-.62.06-1.05.62-1.57-.45-.36-.95.14-1.37-.2-.12-.09-.12-.58-.01-.68l1.17-1.09c.34.07.81.47.77.7l-.23.56c-.04.11.37.2.45.12l1.2-1.2c.06-.06.12-.32.12-.4-.02-.32-.75.43-1.15.08-.13-.12-.3-.45-.34-.64l1.35-1.31c1.14.45.27,1.31.75,1.5.34-.29.87-.83,1.26-.91.8.1,1.43.57,1.94,1.09s1.16,1.04,1.53,1.7c.33.59-.02,1.42-.51,1.77-.1.07-.27.31-.24.41.12.37.54-.06,1.06.17.15.07.28.57.16.69l-1.17,1.13c-.37.02-.78-.5-.67-.73l.22-.45c.06-.12-.43-.26-.52-.15l-.99,1.13-.24.28c-.22.25.6.05,1.04.13.18.03.4.56.26.7l-1.23,1.25c-.16-.06-.43-.22-.53-.34-.26-.3.13-.58-.08-1.11-.1-.26-.51.93-1.67.59l-3.79,3.85-4.89,5.03-5.29,5.43-1.97,2.06c.35.92,1.32,1.08,2.21.78l.92-.31c.76-.26,1.67.44,1.97,1.05.83,1.72-.95,3.37-3.04,3.84-1.68.38-2.83,1.58-2.97,3.32l-.24,1.46ZM28.11,35.65l.05.47-1.45,1.54-2.05,2.16-1.07,1.1-.97,1c-.3-.26-.68-.67-.83-.88l1.17-1.16,3.59-3.59.76-.73,1.11-1.08,2.16-2.19,1.36-1.38,12.38-12.44c.08-.08.23-.25.17-.3l-.21-.2c-.05-.05-.24.1-.29.16l-3.43,3.49-1.65,1.63-.66.72-13.29,13.29-.99.93-2.32,2.29-.74.76-.97,1.09-.86-.95,1.32-1.22,3.86-3.71,1.84-1.72c.32-.3.9-.54,1.29-.72l3.37-3.31,2.43-2.42,2.18-2.18,1.81-1.75,9.58-9.55.52-.56c.26-.28.47-.5.21-.85-.15-.19-.52-.21-.78.04-.19.18-.13.43.12.75l-1.28,1.25c-.32-.2-.48-.3-.61-.25-.11.04-.38.29-.32.39l.31.51-6.01,5.94-10.5,10.4-1.55,1.49-.38-.23c-.09-.05-.3.17-.37.25l-2.68,2.62-1.91,1.77-2.82,2.72c-.1-.23-.51-.66-.71-.59l-1.19,1.14c-.13.13.02.63.15.76l1.44,1.5,2.3,2.25,1.26-1.29c0-.29-.3-.63-.64-.91l1.19-1.27.78.6,1.03-.94c.2-.19-.04-.76-.37-.92.05-.13.22-.47.32-.57l3.01-3.1,1.21-1.28.18-.73,2.09-2.16,4.88-5.02,3.81-3.95,4.9-5.01,1.95-1.9c.24.16.5.28.66.26.13-.02.33-.35.27-.47l-.3-.57,1.43-1.18c.4.12.76-.02.86-.32.07-.21-.21-.58-.47-.61-.22-.02-.4.27-.58.45l-1.59,1.54-4.28,4.27-1.81,1.86-3.52,3.61-.91.94-4.49,4.6M26.21,44.46c0-.25-.2-.44-.44-.44s-.44.2-.44.44.2.44.44.44.44-.2.44-.44ZM25.53,45.82c-.45.19-.49.43-.37.65.11.2.43.34.63.28.17-.05.37-.37.33-.55-.05-.2-.41-.47-.6-.39ZM22.95,46.79c-.36.18-.42.62-.21.88.14.17.59.26.82.12.18-.11.29-.53.19-.72-.15-.26-.53-.43-.8-.29Z"/>
    </g>
  </g>
</svg>