<?xml version="1.0" encoding="UTF-8"?>
<svg id="Capa_2" data-name="Capa 2" xmlns="http://www.w3.org/2000/svg" viewBox="0 0 116.6 116.6">
  <defs>
    <style>
      .cls-1 {
        fill: #fef5f0;
        stroke: #000;
        stroke-width: 3px;
      }

      .cls-1, .cls-2 {
        stroke-miterlimit: 10;
      }

      .cls-2 {
        fill: #78a9db;
        stroke: #030505;
        stroke-width: 4px;
      }
    </style>
  </defs>
  <g id="Capa_1-2" data-name="Capa 1">
    <g>
      <circle class="cls-2" cx="58.3" cy="58.3" r="56.3"/>
      <g>
        <path class="cls-1" d="M75.34,76.62l-3.8-13.65c-1.08-3-3.71-5.22-6.87-5.8l-11.99-3.42,13.76-3.86c2.56-1.04,4.53-3.27,5.28-5.93l3.63-12.95,3.8,13.57c.73,2.61,3.19,4.68,5.66,5.51l13.44,3.68-13.79,3.85c-2.95.82-4.99,3.71-5.65,6.53l-3.45,12.48Z"/>
        <path class="cls-1" d="M50.13,97.07l-2.58-9.28c-.64-1.78-2.23-3.34-4.03-3.86l-8.9-2.57,8.42-2.35c1.88-.53,3.88-1.89,4.44-3.87l2.67-9.35,2.66,9.33c.63,2.2,2.74,3.43,4.81,4l8.02,2.21-7.77,2.26c-2.2.64-4.44,1.86-5.11,4.23l-2.63,9.24Z"/>
        <path class="cls-1" d="M38.91,54.12l-1.74-6.26c-.43-1.2-1.5-2.25-2.72-2.6l-6-1.73,5.68-1.58c1.27-.35,2.61-1.28,2.99-2.61l1.8-6.31,1.8,6.29c.42,1.49,1.85,2.32,3.24,2.7l5.41,1.49-5.24,1.53c-1.48.43-2.99,1.25-3.45,2.85l-1.77,6.23Z"/>
      </g>
    </g>
  </g>
</svg>