<?xml version="1.0" encoding="UTF-8"?>
<svg id="Capa_2" data-name="Capa 2" xmlns="http://www.w3.org/2000/svg" viewBox="0 0 64.16 64.16">
  <defs>
    <style>
      .cls-1 {
        fill: #78a9db;
        stroke: #030505;
        stroke-miterlimit: 10;
        stroke-width: 4px;
      }
    </style>
  </defs>
  <g id="Capa_1-2" data-name="Capa 1">
    <g>
      <circle class="cls-1" cx="32.08" cy="32.08" r="30.08"/>
      <path d="M46.19,40.92c-.49-.52-.92-.98-1.22-1.57-.83-1.62-1.37-3.28-1.91-5.02l-1.09-3.53c-.42-1.36-1.06-2.65-2.05-3.63-.72-.71-1.83-.74-2.57-.07-.81.74-1.38,1.7-1.74,2.74l-1.28,3.74-1.69,4.96c-.41,1.21-1.15,2.24-2.1,3.06-1.43,1.24-3.41,1.27-4.88.05-2.06-1.71-3.05-5.25-3.83-7.97-.71-2.46-2.07-7.14-4.48-7.11-1.66.02-3.13,2.76-3.57,4.41l-1.09,4.08-1.89-.04c.63-3.27,1.65-7.37,4.12-9.45,1.52-1.28,3.81-1.15,5.25.26.85.83,1.57,1.8,1.95,2.94l1.66,4.99c.74,2.23,1.8,6.92,4.3,6.94,2.07.02,3.26-3.68,3.93-5.77l1.7-5.35c.4-1.27,1.08-2.39,1.91-3.38,1.33-1.59,3.49-1.99,5.16-.71,1.14.86,1.97,2.05,2.42,3.42l1.83,5.63c.6,1.86,1.67,5.54,3.46,5.64,1.55.09,2.9-4.38,3.12-6.48l1.73.1c-.28,2.46-1.1,5.77-2.83,7.37-1.31,1.22-3.13,1.04-4.33-.24Z"/>
    </g>
  </g>
</svg>