<?xml version="1.0" encoding="UTF-8"?>
<svg id="Capa_2" data-name="Capa 2" xmlns="http://www.w3.org/2000/svg" viewBox="0 0 64.25 64.25">
  <defs>
    <style>
      .cls-1 {
        fill: #ed697a;
        stroke: #030505;
        stroke-miterlimit: 10;
        stroke-width: 3px;
      }
    </style>
  </defs>
  <g id="Capa_1-2" data-name="Capa 1">
    <g>
      <circle class="cls-1" cx="32.12" cy="32.12" r="30.62"/>
      <path d="M49.66,40.9c-4.53,5.07-12.19,5.58-17.52,1.34-4.83,3.91-11.82,3.82-16.45-.29s-5.76-11.02-2.61-16.46c3.93-6.77,12.96-8.39,19.06-3.47,3.94-3.17,9.28-3.78,13.82-1.5,4.19,2.11,6.99,6.48,7.01,11.42.01,3.32-1.03,6.4-3.31,8.96ZM30.13,40.09c-3.6-4.77-3.5-11.21.02-15.95-2.16-1.67-4.77-2.43-7.44-2.03-5.08.77-8.71,5.17-8.61,10.2.1,5.02,3.88,9.39,8.97,9.84,2.65.24,5.13-.36,7.07-2.07ZM48.01,38.4c2.03-2.6,2.65-5.79,1.75-9.11-.7-2.59-2.71-5.14-5.47-6.39-3.34-1.52-7.17-1.07-10.11,1.24,3.56,4.85,3.54,11.17,0,16,4.36,3.4,10.47,2.57,13.83-1.75ZM32.16,38.07c2.44-3.6,2.47-8.22,0-11.8-2.52,3.56-2.52,8.23,0,11.8Z"/>
    </g>
  </g>
</svg>