<?xml version="1.0" encoding="UTF-8"?>
<svg id="Capa_2" data-name="Capa 2" xmlns="http://www.w3.org/2000/svg" viewBox="0 0 64.25 64.25">
  <defs>
    <style>
      .cls-1 {
        fill: #ffe662;
        stroke: #030505;
        stroke-miterlimit: 10;
        stroke-width: 3px;
      }
    </style>
  </defs>
  <g id="Capa_1-2" data-name="Capa 1">
    <g>
      <circle class="cls-1" cx="32.12" cy="32.12" r="30.62"/>
      <path d="M48.91,40.98c-.19.71-.74,1.41-1.31,1.67-.94.42-1.99-.21-2.26-1.11l-.98-3.25-1.6-9.58c-.31-1.87-.56-3.59-1.36-5.42-.53,1.17-.83,2.15-1.03,3.27l-1.38,7.69-1.44,6.49c-.17.76-.71,1.5-1.39,1.86-.85.46-1.9-.06-2.3-.94-.68-1.49-1.11-3.09-1.39-4.74l-1.3-7.62c-.33-1.93-.65-3.76-1.46-5.68-.86,2.23-1.22,4.31-1.62,6.52l-1.53,8.35c-.35,1.91-1.18,4.51-2.77,4.46-.56-.02-1.28-.4-1.56-.99-.73-1.59-1.17-3.26-1.47-5.01l-1.34-7.89c-.33-1.91-.55-3.74-1.38-5.64-.76,1.44-1.03,2.8-1.37,4.23l-1.11,4.73c-.1.42-.49.82-.96.82H6.57c-.32-.64-.33-1.31.05-1.86l7.3-.08,1.75-7.05c.35-1.41,1.32-3.03,2.57-2.85.47.07,1.11.48,1.36,1.03.57,1.27.98,2.57,1.22,3.97l1.54,9.15c.31,1.87.67,3.55,1.35,5.4.38-.46.62-.92.73-1.47l1.04-5.12,1.65-8.71c.42-2.19,1.64-4.87,3.32-3.85.63.38,1.18,1.14,1.34,1.89l1.25,5.73,1.5,8.53c.18,1.03.49,1.87.93,2.82.36-.57.59-1.02.7-1.59l1.53-8.18,1.5-7.08c.32-1.49,1.5-3.02,2.8-2.48,1.19.49,1.92,3.04,2.18,4.63l1.44,8.77c.33,2.01.54,3.92,1.41,5.9.67-1.4.97-2.65,1.29-3.99l1.06-4.44c.1-.44.46-.86.93-.86h7.58c.09.68.09,1.12,0,1.8l-6.82.02-2.12,7.76Z"/>
    </g>
  </g>
</svg>