<?xml version="1.0" encoding="UTF-8"?>
<svg id="Capa_2" data-name="Capa 2" xmlns="http://www.w3.org/2000/svg" viewBox="0 0 74.9 74.9">
  <defs>
    <style>
      .cls-1 {
        fill: #78a9db;
        stroke: #030505;
        stroke-miterlimit: 10;
        stroke-width: 4px;
      }
    </style>
  </defs>
  <g id="Capa_1-2" data-name="Capa 1">
    <g>
      <circle class="cls-1" cx="37.45" cy="37.45" r="35.45"/>
      <path d="M63.15,47.64c0,1.32-.71,2.22-1.96,2.49H14.49c-1.28.13-2.72-.73-2.72-2.11l-.02-21.26c0-1.33,1.21-1.98,2.42-1.98h47.04c.87.01,1.92.82,1.93,1.63l.02,4.84v16.4ZM17.11,28.65c0-.46-.37-.83-.83-.83s-.83.37-.83.83.37.83.83.83.83-.37.83-.83ZM21.11,28.65c0-.41-.33-.74-.74-.74s-.74.33-.74.74.33.74.74.74.74-.33.74-.74ZM25.02,28.62c0-.4-.33-.73-.73-.73s-.73.33-.73.73.33.73.73.73.73-.33.73-.73ZM17.46,42.17l-.94-.09-.04-9.41-2.82-.02v14.73c0,.25.54.68.79.68l2.97-.02.03-5.87ZM21.21,42.15c-.36-.03-.74-.05-.75-.18l-.02-.49v-2.88s-.03-5.94-.03-5.94h-1.78s0,9.41,0,9.41l-.81.19v5.8s3.38,0,3.38,0v-5.9ZM27.62,42.15l-.97-.06v-9.42s-1.8,0-1.8,0h-2.2s0,9.41,0,9.41l-.95.17v5.8s5.93,0,5.93,0v-5.9ZM31.45,48.04v-5.83s-.84-.14-.84-.14v-9.38s-1.73-.04-1.73-.04v9.4s-.74.19-.74.19l.1,5.8,3.22-.02ZM35.26,48.02l.03-5.74-.78-.26v-9.36s-1.75.04-1.75.04l-.02,9.37-.81.19v5.8s3.33-.04,3.33-.04ZM35.76,48.05l2.72-.02v-15.37s-1.76,0-1.76,0l-.02,9.36-.93.19v5.84ZM41.85,42.18l-.95-.11v-9.42s-1.92,0-1.92,0l.02,15.38h2.86s0-5.86,0-5.86ZM45.69,48.04v-5.84s-.82-.13-.82-.13v-9.41s-1.86.05-1.86.05v9.34s-.67.24-.67.24v5.77s3.36-.01,3.36-.01ZM52.27,42.15l-.98-.06v-9.42s-2,0-2,0h-2.3s-.01,9.35-.01,9.35l-.81.21v5.82s6.11,0,6.11,0v-5.89ZM56.58,48.04v-5.85s-.94-.11-.94-.11v-9.43s-2.1,0-2.1,0v9.4s-.79.2-.79.2v5.79s3.83,0,3.83,0ZM60.53,48.05c.23,0,.64-.48.7-.67v-14.73s-3.34,0-3.34,0v9.43s-.83.07-.83.07v5.9s3.48,0,3.48,0Z"/>
    </g>
  </g>
</svg>