<?xml version="1.0" encoding="UTF-8"?>
<svg id="Capa_2" data-name="Capa 2" xmlns="http://www.w3.org/2000/svg" viewBox="0 0 64.16 64.16">
  <defs>
    <style>
      .cls-1 {
        fill: #ffe662;
        stroke: #030505;
        stroke-miterlimit: 10;
        stroke-width: 4px;
      }
    </style>
  </defs>
  <g id="Capa_1-2" data-name="Capa 1">
    <g>
      <circle class="cls-1" cx="32.08" cy="32.08" r="30.08"/>
      <path d="M48.53,40.88c0,.84-.9,1.77-1.75,1.77h-29.57c-.83,0-1.64-1.17-1.64-1.9v-17.24c-.02-1.38,1.21-2.01,2.42-2h3.03s4.28.02,4.28.02l19.04.02,2.52-.02c1.19.19,1.75,1.13,1.74,2.25l-.07,17.1ZM20.73,25.14c0-.49-.4-.89-.89-.89s-.89.4-.89.89.4.89.89.89.89-.4.89-.89ZM24.33,25.13c0-.38-.31-.69-.69-.69s-.69.31-.69.69.31.69.69.69.69-.31.69-.69ZM26.91,25.63c.14-.02.48-.32.44-.45s-.19-.37-.34-.58c-.14-.04-.45.3-.49.48-.05.2.17.59.4.56ZM19.96,36.49v-7.67s-2.65-.01-2.65-.01v11.15c0,.27.09.65.24.77.13.11.5.2.68.2l2.74-.02v-4.35s-1.01-.06-1.01-.06ZM24.95,40.9v-4.33s-.84-.13-.84-.13v-7.64s-1.88.03-1.88.03v7.58s-.84.15-.84.15v4.35s3.56,0,3.56,0ZM28.87,40.89l.11-3.81-.03-1.78v-6.51s-2.53,0-2.53,0v7.59s-.98.17-.98.17v4.34s3.43-.01,3.43-.01ZM32.8,36.51c-.63,0-.82-.03-1.04-.19l-.03-7.52h-2.34s0,12.1,0,12.1h3.42s-.01-4.39-.01-4.39ZM36.84,40.89v-4.29s-.92-.17-.92-.17v-7.61s-1.77-.02-1.77-.02l-.02,7.6-.91.25.03,4.26,3.59-.02ZM40.83,40.9v-4.34s-.82-.13-.82-.13v-7.63s-1.78.01-1.78.01v7.59s-.95.15-.95.15v4.36s3.55-.01,3.55-.01ZM41.35,40.91h3.43s0-12.1,0-12.1h-2.46s0,7.59,0,7.59l-.97.16v4.34ZM46.79,40.39l.03-11.58-1.54-.02v2.96s.01,9.05.01,9.05c.29.24,1.41.19,1.5-.42Z"/>
    </g>
  </g>
</svg>