<?xml version="1.0" encoding="UTF-8"?>
<svg id="Capa_2" data-name="Capa 2" xmlns="http://www.w3.org/2000/svg" viewBox="0 0 116.6 116.6">
  <defs>
    <style>
      .cls-1, .cls-2 {
        stroke: #000;
        stroke-miterlimit: 10;
      }

      .cls-2 {
        fill: #ffe662;
        stroke-width: 4px;
      }

      .cls-3 {
        fill: #030505;
      }
    </style>
  </defs>
  <g id="Capa_1-2" data-name="Capa 1">
    <g>
      <circle class="cls-2" cx="58.3" cy="58.3" r="56.3"/>
      <g>
        <path class="cls-1" d="M85.94,44.65c-.91,1.99-4.39,4.91-5.55,5.4-.45.19-1.37-.42-2.3-.94l-4.53,6.43,8.68,29.63c.25.85.3,2.91-.22,3.54-.59.72-2.12,1.26-3.37,1.73l-1.1,2.03c-.26.48-1.8.58-2.42.64-2.18.21-3.17-.91-3.56-2.99h-24.82s-.97,2.37-.97,2.37c-.31.76-4.48.74-4.74.23l-1.1-2.15-3.08-1.3c-.82-.35-1.14-2.53-.84-3.6l16.41-58.49c.83-2.97,2.53-3.82,5.65-3.69,1.99.09,4.43.15,6.29,1.25l8.49,28.58,3.53-4.9-1.63-2.3,3-6.93,3.87,1.95c1.11-1.6,2.45-3.34,3.76-4.69.81,2.8-.98,3.84-2.46,5.58l2.99,2.63ZM63.78,28.72c-.08-.89-.79-3-1.55-3.21-1.53-.33-4.47-.34-6.43-.11-.98.12-1.92,2.18-1.85,3.3h9.83ZM55.17,71.69l-.04-39.56-.16-1.75c-.02-.25-1.24-.04-1.6.05l-11.51,40.95,13.32.31ZM71.64,54.9l-6.86-22.79-.45-1.51c-.1-.33-1.34-.18-1.72-.05l.12,36.87c3.59-4.52,6.16-8.4,8.9-12.52ZM76.53,71.69l-4.27-14.3-9.95,14.31h14.22ZM81.12,88.44l-4.06-15.03-35.8.04-3.6,13.28c-.16.58.93,1.8,1.5,1.8l41.96-.09Z"/>
        <path class="cls-3" d="M45.89,72.63c9.78.34,19.57.33,29.34-.01.42-.01.86-.03,1.25.14.41.18.72.54.98.91.9,1.28,1.47,2.76,1.94,4.25,1.04,3.26,1.69,6.65,1.93,10.06.01.18.02.38-.09.53-.12.17-.35.2-.56.23-7.75.89-15.59.77-23.39.64-2.2-.04-4.39-.07-6.59-.11-1.76-.03-3.52-.06-5.27-.26-1.12-.13-2.24-.33-3.37-.33-1.51,0-3.15.3-4.42-.51-.5-2.03.26-4.13.9-6.13.66-2.09,1.19-4.21,1.72-6.34.25-.99.23-2.66,1.34-2.94,1.35-.34,2.91-.18,4.29-.13Z"/>
        <path class="cls-3" d="M55.18,24.86c1.06-.32,2.18-.43,3.29-.33.86.08,1.64-.11,2.49.02.67.1,1.34.28,1.91.66,1.11.73,1.67,2.22,1.32,3.5-.02.07-.04.15-.09.2-.06.07-.16.11-.25.13-.25.06-.51.08-.77.09-1.72.1-3.44.2-5.17.3-1.41.08-2.85.16-4.21-.21-.07-.02-.15-.04-.2-.1-.05-.06-.06-.14-.06-.21,0-.47.17-.92.34-1.35.19-.47.37-.94.56-1.41.21-.53.32-1.11.86-1.27Z"/>
      </g>
    </g>
  </g>
</svg>