<?xml version="1.0" encoding="UTF-8"?>
<svg id="Capa_2" data-name="Capa 2" xmlns="http://www.w3.org/2000/svg" viewBox="0 0 116.6 116.6">
  <defs>
    <style>
      .cls-1 {
        fill: #78a9db;
        stroke-width: 4px;
      }

      .cls-1, .cls-2 {
        stroke: #030505;
        stroke-miterlimit: 10;
      }

      .cls-2 {
        fill: #fef5f0;
        stroke-width: 3px;
      }
    </style>
  </defs>
  <g id="Capa_1-2" data-name="Capa 1">
    <g>
      <circle class="cls-1" cx="58.3" cy="58.3" r="56.3"/>
      <path class="cls-2" d="M97.79,55.05c1.2,8.12-2.92,16.81-10.22,20.4-11.45,5.64-21.34-1.33-29.37-11-8.22,9.6-17.31,16.56-28.26,11.62-5.95-2.68-10.37-8.14-11.19-15.34-.89-7.71,2.34-15.33,8.38-18.9,7.06-4.18,15.61-3.96,22.14,1.08,3.27,2.53,6.18,5.74,9.37,8.84,4.47-6.02,9.97-11.18,17.08-12.52,11.03-2.09,20.5,5.13,22.08,15.81ZM84.07,67.95c3.53-1.86,5.83-5.87,5.78-10.35s-2.8-8.34-6.17-9.98c-7.69-3.75-14.09,3.68-20.39,10.41,6.82,7.16,13.05,13.99,20.78,9.92ZM52.97,58.05l-4.31-4.54c-3.84-4.05-8.74-7.72-14.88-5.81-4.78,1.48-7.48,6.28-7.26,11.09.19,4.29,3.21,9.16,8.1,10.36,4.04.99,8.61-1.05,11.33-3.85l7.03-7.25Z"/>
    </g>
  </g>
</svg>