<?xml version="1.0" encoding="UTF-8"?>
<svg id="Capa_2" data-name="Capa 2" xmlns="http://www.w3.org/2000/svg" viewBox="0 0 116.6 116.6">
  <defs>
    <style>
      .cls-1 {
        fill: #430e2f;
      }

      .cls-2 {
        fill: #fff;
      }

      .cls-3, .cls-4 {
        stroke: #000;
      }

      .cls-3, .cls-4, .cls-5, .cls-6 {
        stroke-miterlimit: 10;
      }

      .cls-3, .cls-6 {
        stroke-width: 2px;
      }

      .cls-7 {
        fill: #db1b30;
      }

      .cls-8 {
        fill: #ed697a;
      }

      .cls-5 {
        fill: #fef5f0;
        stroke-width: 4px;
      }

      .cls-5, .cls-6 {
        stroke: #030505;
      }

      .cls-9 {
        fill: #ffe662;
      }

      .cls-10 {
        fill: #78a9db;
      }
    </style>
  </defs>
  <g id="Capa_1-2" data-name="Capa 1">
    <g>
      <circle class="cls-5" cx="58.3" cy="58.3" r="56.3"/>
      <g>
        <path class="cls-7" d="M62.58,79.6c-2.45-.52-3.6-2.6-2.75-4.77,1.15-2.95,4.36-4.97,7.57-5.41,2.58-.36,5.33,1.73,4.72,4.39-.93,4.06-5.5,6.65-9.54,5.8Z"/>
        <path class="cls-6" d="M78.33,67.09c-.29,3.66,4.82,5.43,5.21,9.49.21,2.24-.71,4.89-2.54,6.55-14.63,13.26-36.95,12.62-50.33-2.09-12.59-13.84-9.52-35,4.33-47.19,5.92-5.21,13.28-8.02,21.21-9.34,12.72-2.11,25.69,2.48,34.94,11.27,3.79,3.61,6.64,7.81,7.22,12.96.62,5.51-2.73,9.97-7.92,11.41-4.88,1.36-11.8,2.81-12.12,6.93ZM81.47,74.51c-1.29-1.77-3.17-3.31-3.91-5.19-1.13-2.84.69-5.86,3.19-7.22,3.08-1.67,6.4-2.38,9.7-3.3,4.86-1.35,7.37-5.6,6.65-10.51-.98-6.61-7.12-12.77-12.76-16.4-10.97-7.07-23.92-8.49-36.18-4.22-11,3.83-19.44,12.06-22.68,23.31-2.42,8.41-1.91,16.92,2.76,24.54,6.38,10.41,18.22,16.61,30.52,15.74s27.83-9.74,22.72-16.75Z"/>
        <path class="cls-2" d="M81.47,74.51c5.11,7.02-10.95,15.93-22.72,16.75s-24.15-5.34-30.52-15.74c-4.67-7.62-5.18-16.13-2.76-24.54,3.24-11.25,11.68-19.48,22.68-23.31,12.26-4.27,25.22-2.85,36.18,4.22,5.64,3.64,11.78,9.79,12.76,16.4.73,4.9-1.79,9.16-6.65,10.51-3.3.92-6.62,1.62-9.7,3.3-2.5,1.36-4.32,4.38-3.19,7.22.75,1.89,2.62,3.42,3.91,5.19ZM64.92,37.64c.45-4.25-3.12-7.19-6.73-6.97s-6.62,3.4-6,7.2c.56,3.41,3.35,5.49,6.72,5.15,2.84-.29,5.68-2.14,6.02-5.37ZM79.12,34.7c-3.26-1.04-6.36-.17-8.06,2.59-1.33,2.15-1.07,5.52,1.05,7.38s4.99,2.38,7.71.76c2.08-1.24,3.51-3.39,3.27-5.78-.21-2.11-1.55-4.18-3.97-4.95ZM37.25,46.86c-1.1-2.1-.32-4.86,1.33-6.22,2.61-2.16,5.94-1.33,8.51.71-.8-2.61-3.6-3.49-5.88-3.12-2.87.46-4.63,2.07-5.4,4.47s.05,5.22,2.22,6.7c2.61,1.78,5.8,1.66,8.18-.42,1.82-1.59,3.36-5.17.95-7.53.05,3.07-.06,5.87-2.37,7.17-2.6,1.46-6.08,1.03-7.54-1.75ZM39.21,56.19c2.27,2.17,1.63,5.92-.58,7.66-2.01,1.58-5.69,1.9-7.35-.41-1.38-1.92-1.11-5.09.31-6.89s3.73-1.93,6.06-2.38c-2.84-1.97-6.14,0-7.64,2.6s-1.26,5.98.98,7.92c2.11,1.82,4.89,2.12,7.61.64,1.83-.99,3.08-2.88,3.47-4.83s-.67-5.45-3.63-5.94c-.24-.04-.14.77.04.94l.73.7ZM71.62,77.26c1.35-1.43,2.06-3.54,1.43-5.51-.43-1.33-2.25-3.13-4.13-3.4-3.99-.59-8.11,1.7-9.95,5.27-.69,1.33-.69,3.63-.08,4.88,1.46,2.98,7.66,4.15,12.73-1.23ZM37.87,77.99c-1.12-1.42-1.04-3.33-.06-4.99.59-1.01,1.91-2.18,3.48-2.34,2.15-.22,3.56.48,5.55,1.66-.46-2.29-2.52-2.99-4.61-2.92-1.95.07-3.84.77-4.97,2.24-1.55,2.02-1.94,4.24-.84,6.52,1.88,3.9,8.13,4.11,10.68,1.3,1.72-1.9,2.1-5.27.77-6.09-1.11-.69.68,5.29-3.73,6.75-2.35.78-4.51.1-6.27-2.13Z"/>
        <path class="cls-9" d="M36.5,41.98c-.24.64-.29,1.33-.34,2.02-.04.56-.08,1.14.11,1.67.17.48.51.88.69,1.36.11.29.15.6.31.86.16.27.42.47.69.63.35.21.72.37,1.1.49.52.15,1.06.22,1.57.41.24.09.47.2.71.28.37.11.76.11,1.15.1.38-.01.75-.04,1.13-.08.49-.05,1.01-.14,1.38-.46.36-.31.53-.8.89-1.11.27-.23.62-.36.87-.61.18-.19.29-.44.4-.68.38-.88.77-1.78.78-2.74,0-.54-.11-1.07-.27-1.58-.11-.38-.25-.75-.49-1.07-.3-.39-.74-.66-1.16-.91-.31-.18-.62-.37-.93-.55-.45-.26-.9-.53-1.38-.72-1.3-.51-2.75-.44-4.14-.36-.35.02-.74.06-.98.32-.17.19-.23.45-.31.69-.17.48-.56.59-.93.87-.38.3-.66.73-.83,1.19Z"/>
        <path class="cls-4" d="M79.12,34.7c2.42.77,3.76,2.84,3.97,4.95.24,2.39-1.19,4.54-3.27,5.78-2.72,1.62-5.52,1.17-7.71-.76s-2.38-5.23-1.05-7.38c1.7-2.76,4.81-3.63,8.06-2.59Z"/>
        <path class="cls-1" d="M33.66,54.52c.55-.11,1.1-.21,1.65-.32.54-.11,1.14-.2,1.61.08.12.07.22.17.35.23.39.21.88.09,1.28.28.39.2.84.39,1.11.74.26.35.43.77.59,1.18.13.33.26.66.44.97.12.2.28.39.37.61.12.27.14.57.16.87.06.86.11,1.79-.34,2.53-.3.49-.78.83-1.08,1.31-.16.25-.27.54-.42.8-.4.68-1.09,1.18-1.87,1.32-.3.05-.61.06-.92.1-.42.06-.84.19-1.26.24-.99.11-1.96-.26-2.88-.62-.29-.11-.58-.23-.82-.42-.38-.3-.23-.6-.65-1.22-.3-.45-.44-.42-.55-.76-.03-.09-.03-.13-.17-.86-.06-.33-.06-.3-.06-.35-.02-.35-.04-.7-.06-1.05-.02-.32-.04-.63,0-.95.05-.5.22-.98.38-1.45.19-.53.39-1.09.78-1.49.49-.51,1.23-.73,1.71-1.25.2-.21.39-.47.68-.53Z"/>
        <path class="cls-8" d="M47.12,72.6c-.12-.2-.24-.4-.42-.55-.24-.2-.55-.29-.81-.46-.22-.14-.4-.35-.62-.48-.27-.17-.6-.24-.91-.3-1.09-.22-2.2-.44-3.31-.48-.2,0-.41,0-.6.04-.22.05-.42.16-.61.28-.41.26-.78.59-1.15.91-.65.58-1.33,1.2-1.64,2.02-.14.36-.2.74-.23,1.12-.07.87.01,1.75.25,2.59.12.43.29.86.56,1.22.37.5.91.83,1.47,1.11,1.08.55,2.25.93,3.44,1.11.25.04.49.07.74.04.29-.04.56-.16.83-.28.42-.19.83-.38,1.25-.57.52-.24,1.06-.49,1.39-.96.36-.5.41-1.14.6-1.73.24-.77.72-1.52.57-2.31-.03-.19-.09-.37-.11-.56s.11-.36.09-.51c-.03-.19-.27-.46-.37-.62l-.39-.65Z"/>
        <path class="cls-4" d="M71.62,77.26c-5.06,5.39-11.27,4.22-12.73,1.23-.61-1.25-.61-3.55.08-4.88,1.84-3.56,5.96-5.85,9.95-5.27,1.88.28,3.7,2.07,4.13,3.4.64,1.97-.08,4.08-1.43,5.51ZM62.58,79.6c4.04.85,8.6-1.74,9.54-5.8.61-2.66-2.14-4.75-4.72-4.39-3.21.44-6.41,2.46-7.57,5.41-.85,2.17.3,4.25,2.75,4.77Z"/>
        <path class="cls-4" d="M39.21,56.19l-.73-.7c-.18-.17-.29-.98-.04-.94,2.96.49,4.01,4.06,3.63,5.94s-1.64,3.84-3.47,4.83c-2.72,1.48-5.51,1.18-7.61-.64-2.24-1.93-2.51-5.28-.98-7.92s4.81-4.57,7.64-2.6c-2.33.45-4.68.63-6.06,2.38s-1.69,4.97-.31,6.89c1.66,2.31,5.34,2,7.35.41,2.21-1.74,2.85-5.49.58-7.66Z"/>
        <path class="cls-3" d="M64.92,37.64c-.34,3.23-3.18,5.08-6.02,5.37-3.37.34-6.16-1.74-6.72-5.15-.62-3.8,2.34-6.97,6-7.2s7.19,2.72,6.73,6.97ZM61.18,32.5c-1-.69-3.54-.67-4.82-.19-2.84,1.06-3.73,4.25-2.54,6.85,1.01,2.22,3.82,3.52,6.29,2.41,1.87-.84,3.46-2.15,3.7-3.86.3-2.09-.44-3.72-2.62-5.22Z"/>
        <path class="cls-4" d="M37.25,46.86c1.46,2.79,4.94,3.21,7.54,1.75,2.31-1.3,2.42-4.1,2.37-7.17,2.41,2.36.87,5.94-.95,7.53-2.38,2.09-5.57,2.2-8.18.42-2.16-1.48-2.99-4.31-2.22-6.7s2.53-4,5.4-4.47c2.29-.37,5.08.51,5.88,3.12-2.57-2.04-5.9-2.87-8.51-.71-1.65,1.36-2.43,4.12-1.33,6.22Z"/>
        <path class="cls-4" d="M37.87,77.99c1.76,2.23,3.92,2.91,6.27,2.13,4.4-1.47,2.62-7.44,3.73-6.75,1.33.82.95,4.19-.77,6.09-2.55,2.81-8.81,2.6-10.68-1.3-1.09-2.28-.71-4.5.84-6.52,1.13-1.47,3.02-2.17,4.97-2.24,2.09-.07,4.15.63,4.61,2.92-2-1.18-3.41-1.89-5.55-1.66-1.57.16-2.89,1.33-3.48,2.34-.98,1.67-1.06,3.57.06,4.99Z"/>
        <path class="cls-10" d="M61.18,32.5c2.18,1.5,2.91,3.13,2.62,5.22-.24,1.71-1.83,3.01-3.7,3.86-2.47,1.11-5.27-.19-6.29-2.41-1.19-2.61-.3-5.8,2.54-6.85,1.28-.48,3.82-.5,4.82.19Z"/>
      </g>
    </g>
  </g>
</svg>