<?xml version="1.0" encoding="UTF-8"?>
<svg id="Capa_2" data-name="Capa 2" xmlns="http://www.w3.org/2000/svg" viewBox="0 0 64.16 64.16">
  <defs>
    <style>
      .cls-1 {
        fill: #ed697a;
        stroke: #030505;
        stroke-miterlimit: 10;
        stroke-width: 4px;
      }
    </style>
  </defs>
  <g id="Capa_1-2" data-name="Capa 1">
    <g>
      <circle class="cls-1" cx="32.08" cy="32.08" r="30.08"/>
      <path d="M53.88,40.72c0,1.12-.6,1.89-1.66,2.11H12.6c-1.08.11-2.3-.62-2.31-1.79l-.02-18.04c0-1.13,1.03-1.68,2.06-1.68h39.91c.74,0,1.63.69,1.63,1.39v4.1s.01,13.91.01,13.91ZM14.82,24.61c0-.39-.32-.71-.71-.71s-.71.32-.71.71.32.71.71.71.71-.32.71-.71ZM18.22,24.61c0-.34-.28-.62-.62-.62s-.62.28-.62.62.28.62.62.62.62-.28.62-.62ZM21.53,24.58c0-.34-.28-.62-.62-.62s-.62.28-.62.62.28.62.62.62.62-.28.62-.62ZM15.12,36.09l-.79-.08-.03-7.98-2.39-.02v12.5c0,.21.46.58.67.57h2.52s.03-4.99.03-4.99ZM18.3,36.06c-.31-.03-.63-.04-.63-.16v-.42s-.02-2.44-.02-2.44l-.02-5.04h-1.51s0,7.98,0,7.98l-.68.16v4.92s2.87,0,2.87,0v-5ZM23.73,36.06l-.82-.05v-7.99s-1.53,0-1.53,0h-1.87s0,7.98,0,7.98l-.8.14v4.92s5.03,0,5.03,0v-5.01ZM26.99,41.06v-4.95s-.71-.12-.71-.12v-7.96s-1.47-.03-1.47-.03v7.98s-.63.16-.63.16l.08,4.92h2.73ZM30.22,41.05l.02-4.87-.66-.22v-7.94s-1.49.04-1.49.04v7.95s-.71.16-.71.16v4.92s2.83-.03,2.83-.03ZM30.65,41.07h2.31s0-13.05,0-13.05h-1.5s-.02,7.94-.02,7.94l-.79.16v4.96ZM35.81,36.09l-.81-.09v-7.99s-1.63,0-1.63,0l.02,13.05h2.43s0-4.97,0-4.97ZM39.07,41.06v-4.95s-.69-.11-.69-.11v-7.99s-1.58.04-1.58.04v7.93s-.57.2-.57.2v4.89s2.85,0,2.85,0ZM44.65,36.06l-.84-.05v-7.99s-1.7,0-1.7,0h-1.95s0,7.93,0,7.93l-.69.17v4.94s5.18,0,5.18,0v-5ZM48.31,41.06v-4.96s-.8-.09-.8-.09v-8s-1.78,0-1.78,0v7.97s-.67.17-.67.17v4.92s3.25,0,3.25,0ZM51.66,41.07c.2,0,.54-.41.59-.57v-12.49s-2.83,0-2.83,0v8s-.71.06-.71.06v5s2.95,0,2.95,0Z"/>
    </g>
  </g>
</svg>