<?xml version="1.0" encoding="UTF-8"?>
<svg id="Capa_2" data-name="Capa 2" xmlns="http://www.w3.org/2000/svg" viewBox="0 0 64.25 64.25">
  <defs>
    <style>
      .cls-1 {
        fill: #78a9db;
        stroke: #030505;
        stroke-miterlimit: 10;
        stroke-width: 3px;
      }
    </style>
  </defs>
  <g id="Capa_1-2" data-name="Capa 1">
    <g>
      <circle class="cls-1" cx="32.12" cy="32.12" r="30.62"/>
      <g>
        <path d="M20.59,44.48h-5.53c-1.07-.02-1.81-1.07-1.8-2.1l.02-20.9c0-1.3,1.42-1.73,2.4-1.71l5.54.1c.58.01,1.43.97,1.43,1.62v21.03c0,1.11-1.07,1.96-2.07,1.96Z"/>
        <path d="M33.49,36.27c0,2.78-1.7,6.63-4.49,7.43v-21.01c2.68.47,4.49,4.82,4.49,7.25v6.33Z"/>
        <path d="M43.3,36.49c0,2.35-1.25,5.38-3.57,5.91v-15.6c2.18.61,3.55,3.62,3.55,5.68v4.02Z"/>
        <path d="M48.67,30.45c2.82.68,2.67,7.18,1.62,9.35-.33.67-.9,1.22-1.63,1.49l.02-10.84Z"/>
      </g>
    </g>
  </g>
</svg>