<?xml version="1.0" encoding="UTF-8"?>
<svg id="Capa_2" data-name="Capa 2" xmlns="http://www.w3.org/2000/svg" viewBox="0 0 74.9 74.9">
  <defs>
    <style>
      .cls-1 {
        fill: #6fb744;
        stroke: #0d0d0d;
        stroke-miterlimit: 10;
        stroke-width: 4px;
      }
    </style>
  </defs>
  <g id="Capa_1-2" data-name="Capa 1">
    <g>
      <circle class="cls-1" cx="37.45" cy="37.45" r="35.45"/>
      <path d="M54.09,47.87c-.57-.61-1.09-1.16-1.44-1.85-.98-1.9-1.61-3.87-2.25-5.92l-1.29-4.16c-.49-1.6-1.24-3.12-2.41-4.28-.84-.84-2.15-.87-3.02-.08-.95.87-1.63,2-2.05,3.23l-1.51,4.41-1.99,5.84c-.49,1.43-1.36,2.64-2.48,3.61-1.69,1.46-4.01,1.49-5.75.06-2.43-2.01-3.59-6.19-4.52-9.39-.84-2.9-2.44-8.42-5.28-8.38-1.95.02-3.68,3.26-4.2,5.2l-1.28,4.81-2.23-.04c.74-3.85,1.95-8.69,4.86-11.14,1.79-1.51,4.49-1.36,6.19.3,1,.98,1.85,2.12,2.29,3.46l1.96,5.88c.87,2.62,2.12,8.15,5.07,8.18,2.45.03,3.84-4.34,4.63-6.8l2.01-6.31c.48-1.49,1.27-2.81,2.25-3.99,1.57-1.88,4.11-2.35,6.08-.84,1.34,1.02,2.32,2.42,2.85,4.03l2.16,6.64c.71,2.19,1.97,6.53,4.07,6.65,1.83.1,3.42-5.16,3.68-7.64l2.04.12c-.33,2.89-1.29,6.8-3.33,8.69-1.55,1.44-3.69,1.22-5.1-.28Z"/>
    </g>
  </g>
</svg>