<?xml version="1.0" encoding="UTF-8"?>
<svg id="Capa_2" data-name="Capa 2" xmlns="http://www.w3.org/2000/svg" viewBox="0 0 64.16 64.16">
  <defs>
    <style>
      .cls-1 {
        fill: #db1b30;
        stroke: #030505;
        stroke-miterlimit: 10;
        stroke-width: 4px;
      }
    </style>
  </defs>
  <g id="Capa_1-2" data-name="Capa 1">
    <g>
      <circle class="cls-1" cx="32.08" cy="32.08" r="30.08"/>
      <path d="M40.28,46.56l-3.05,1.49-.49-.84c-3.42,1.2-7.07,1.16-10.49,0l-.59.81-3.06-1.5.39-.89c-1.1-.77-2.06-1.54-3.04-2.49l-3.21,3.73c.07.73-.33,1.34-1.05,1.64-.55-.22-1.29-.74-1.57-1.23-.05-.93.83-1.39,1.54-1.46l3.25-3.92-1.54-2.36-.83.27c-.51-1.09-.91-2.11-1.26-3.23l.78-.45c-.73-3.11-.73-5.93.24-9.02l-1.05-.65c.45-1.22.99-2.37,1.63-3.45l1.07.41c1.27-2.17,2.97-3.85,5.02-5.19l-.36-1.03,3.08-1.53c.24.26.4.53.58.89,3.73-1.19,6.57-1.2,10.32-.12.19-.31.39-.6.59-.8l3.16,1.53-.43.93c2.11,1.29,3.87,3.12,5.22,5.22l1.07-.47,1.56,3.36-.98.67.61,2.88c.44,2.05.12,4.12-.31,6.21l.68.57-1.17,2.99c-.32.03-.62.01-1-.02l-.85,1.57.9,1.53,4.41,3.01-.69.99-3.74-2.43c.35.8,1.04,1.02,1.63,1.47l2.09,1.61c-.15.64-.89,1.16-1.47,1.03-.79-.18-.98-1.02-1.1-1.64l-1.52-2.11c-.48-.67-.85-1.42-1.7-1.76-1.11,1.06-2.3,2-3.51,2.92.19.23.35.7.23.88ZM24.92,17.68l.79-.93c-.89.19-1.39.55-2.21,1.04.11.2.5.56.74.54.26-.02.54-.48.68-.65ZM19.1,24.81c3.66-6.65,11.7-9.12,18.45-6.02,1.03.47,2.03,1.02,2.86,1.76l1.36,1.22c2.92,3.05,4.34,7.13,4,11.37-.12,1.45-.59,2.78-.98,4.15-.5,1.19-1.03,2.19-1.85,3.25l.19.35c.05.09.36-.13.42-.22l1.2-2.03.51-.71c-.02.47-.03.66.21.74.36.12.61-.05.73-.33l.63-1.57-1.16-.47c1.56-5.56.06-11.56-4.23-15.55-1.01-.94-2.18-1.61-3.38-2.39.47-.29.73-.45,1.01-.79l-1.74-.85-.36,1.26c-1.88-.83-3.66-1.03-5.61-1.05s-3.75.41-5.54,1.14c-.61.25-1.17.49-1.74.86-4.66,3.04-6.75,6.68-7.34,12.23-.19,1.82.26,3.61.66,5.34-.47.04-.81.2-1.14.53l.82,1.9,1.05-.55c1.3,2.86,3.37,5.11,6.12,6.65l-.6,1.09c.59.41,1.15.7,1.76.9-.18-.38-.31-.63-.26-.79s.22-.44.34-.57c5.91,2.55,12.75,1.15,17.04-3.65-.15-.11-.41-.25-.53-.27-3.36,3.74-8.43,5.3-13.36,4.32-6.01-1.2-10.52-6.15-11.23-12.26-.37-3.16.13-6.16,1.67-8.95ZM29.94,36.08c-.84-1.44-.41-3.36.94-4.27,1.28-.86,2.82-.75,3.94.15s1.55,2.38.99,3.8l5.61,3.83c4.03-5.4,3.28-12.87-1.62-17.2-3.85-3.41-9.52-4.11-14.01-1.72-5.7,3.04-8.09,9.7-5.96,15.64,1.88,5.24,6.95,8.56,12.47,8.2,3.23-.21,6.18-1.52,8.37-4.07l-5.51-3.75c-.78.84-1.82,1.21-2.89,1.03-.9-.15-1.78-.68-2.34-1.64ZM17.67,25.34l-.26-.83.24-.43c.05-.09-.15-.26-.3-.33l-.97,2.12c-.04.1.15.42.2.34l.17-.26c.2-.3.48-.47.91-.62ZM46.76,26.17c-.28-.94-.66-1.67-1.14-2.45-.17.12-.45.47-.37.61.07.12.27.32.43.49.47.36.28,1.24,1.07,1.35ZM39.25,46.19c.28-.19.07-.36-.16-.21-.69.15-1.28.31-1.63,1.01.69-.15,1.15-.43,1.79-.8Z"/>
    </g>
  </g>
</svg>